<svg xmlns="http://www.w3.org/2000/svg" xmlns:xlink="http://www.w3.org/1999/xlink" viewBox="0 0 407.41 101.57"><defs><style>.cls-1{fill:#a21e26;}.cls-2{fill:url(#名称未設定グラデーション_14);}.cls-3{fill:url(#名称未設定グラデーション_14-2);}.cls-4{fill:#80171d;}.cls-5{fill:url(#名称未設定グラデーション_14-3);}.cls-6{fill:url(#名称未設定グラデーション_14-4);}.cls-7{fill:#d32732;}.cls-8{fill:url(#名称未設定グラデーション_16);}.cls-9{fill:url(#名称未設定グラデーション_14-5);}.cls-10{fill:#ffed85;}</style><linearGradient id="名称未設定グラデーション_14" x1="6.78" y1="34.19" x2="101.52" y2="34.19" gradientUnits="userSpaceOnUse"><stop offset="0" stop-color="#dfa450"/><stop offset="0.17" stop-color="#edbf6c"/><stop offset="0.22" stop-color="#efc571"/><stop offset="0.29" stop-color="#f4d77e"/><stop offset="0.35" stop-color="#f9eb8c"/><stop offset="0.35" stop-color="#f7e487"/><stop offset="0.37" stop-color="#f3d37b"/><stop offset="0.39" stop-color="#efc872"/><stop offset="0.43" stop-color="#eec16d"/><stop offset="0.52" stop-color="#edbf6c"/><stop offset="0.78" stop-color="#f9eb8c"/><stop offset="0.8" stop-color="#f1d67b"/><stop offset="0.84" stop-color="#e9c068"/><stop offset="0.88" stop-color="#e4b05a"/><stop offset="0.93" stop-color="#e0a752"/><stop offset="0.99" stop-color="#dfa450"/></linearGradient><linearGradient id="名称未設定グラデーション_14-2" x1="6.78" y1="85.46" x2="101.52" y2="85.46" xlink:href="#名称未設定グラデーション_14"/><linearGradient id="名称未設定グラデーション_14-3" x1="310.89" y1="34.19" x2="405.63" y2="34.19" xlink:href="#名称未設定グラデーション_14"/><linearGradient id="名称未設定グラデーション_14-4" x1="310.89" y1="85.46" x2="405.63" y2="85.46" xlink:href="#名称未設定グラデーション_14"/><linearGradient id="名称未設定グラデーション_16" x1="60.9" y1="12.99" x2="362.43" y2="12.99" gradientUnits="userSpaceOnUse"><stop offset="0" stop-color="#dfa450"/><stop offset="0.17" stop-color="#edbf6c"/><stop offset="0.22" stop-color="#efc571"/><stop offset="0.29" stop-color="#f4d77e"/><stop offset="0.35" stop-color="#f9eb8c"/><stop offset="0.36" stop-color="#fbe27a"/><stop offset="0.38" stop-color="#fdda69"/><stop offset="0.4" stop-color="#fed45e"/><stop offset="0.43" stop-color="#ffd157"/><stop offset="0.52" stop-color="#ffd055"/><stop offset="0.78" stop-color="#f9eb8c"/><stop offset="0.8" stop-color="#f1d67b"/><stop offset="0.84" stop-color="#e9c068"/><stop offset="0.88" stop-color="#e4b05a"/><stop offset="0.93" stop-color="#e0a752"/><stop offset="0.99" stop-color="#dfa450"/></linearGradient><linearGradient id="名称未設定グラデーション_14-5" x1="60.9" y1="63.88" x2="362.43" y2="63.88" xlink:href="#名称未設定グラデーション_14"/></defs><g id="レイヤー_2" data-name="レイヤー 2"><g id="レイヤー_1-2" data-name="レイヤー 1"><path class="cls-1" d="M98.09,86.26Q48.79,91.48,0,101.57,15.09,81.76,30.23,62.43,15.08,48.41,0,34.85,48.74,24.76,98.09,19.54Z"/><path class="cls-2" d="M98.09,25.31Q51.43,30.25,5.22,39.55l3.89,3.52q44.24-8.73,89-13.46Z"/><path class="cls-3" d="M98.09,80.5V76.2q-44.7,4.72-89,13.46L5.22,94.73Q51.38,85.43,98.09,80.5Z"/><path class="cls-4" d="M98.09,86.26Q77,81.51,55.91,77.65,77,64.82,98.09,52.9Z"/><path class="cls-1" d="M309.32,86.26q49.31,5.22,98.09,15.31-15.07-19.81-30.23-39.14,15.13-14,30.23-27.58-48.74-10.09-98.09-15.31Z"/><path class="cls-5" d="M309.32,25.31v4.3q44.7,4.72,89,13.46l3.89-3.52Q356,30.24,309.32,25.31Z"/><path class="cls-6" d="M398.3,89.66q-44.24-8.75-89-13.46v4.3Q356,85.42,402.19,94.73Z"/><path class="cls-4" d="M309.32,86.26q21.14-4.76,42.18-8.61-21-12.83-42.18-24.75Z"/><path class="cls-7" d="M351.5,77.65a1004.93,1004.93,0,0,0-295.59,0V10.93a1004.93,1004.93,0,0,1,295.59,0Z"/><path class="cls-8" d="M351.5,20.61a1004.25,1004.25,0,0,0-295.59,0v-4.3a1004.25,1004.25,0,0,1,295.59,0Z"/><path class="cls-9" d="M351.5,71.49a1004.93,1004.93,0,0,0-295.59,0v-4.3a1004.93,1004.93,0,0,1,295.59,0Z"/><path class="cls-10" d="M67.77,40.27a23.72,23.72,0,0,1,6.67,1.14l-1.72,3a14.43,14.43,0,0,0-5.83-2.74Zm.33,9.28c9.93-1.69,14-8.88,15.69-11.9l1.18.57c-3.8,9-9.5,12.29-15.11,14.42-.06,0-.43.27-.52.28s-.13-.11-.23-.4Zm2.64-15.31a17.65,17.65,0,0,1,5.89,2L74.74,39.1a14.29,14.29,0,0,0-5-3.65Z"/><path class="cls-10" d="M90.74,38.82c0-.15-.5-2.5-.54-2.65l2.41-.41c.17,0,.26,0,.26,0s0,.22,0,.27a2,2,0,0,0,0,.36l.52,2.85,4.41-.93c.22,0,1-.22,2.16-.52l1,.87c-.2.31-.33.56-.43.74A14.33,14.33,0,0,1,96,44.5l-.88-.77a10.26,10.26,0,0,0,2.46-4.1c0-.09,0-.11-.26-.06l-3.73.76,1.27,6.88c.3,1.59.37,1.95.5,2.54l-2.61.75c-.09-.71-.3-2-.34-2.24L91.1,40.84l-2.43.51c-.48.09-1.73.38-2.74.6l-.06-1.22c.88-.12,1.78-.29,2.67-.47l2.37-.5Z"/><path class="cls-10" d="M111.33,37.38a14.65,14.65,0,0,1-1.52,6.94,12.37,12.37,0,0,1-5.11,4.56l-.8-1.08c3.5-2.55,4.4-5.62,4.4-10.06V33.06c0-.3,0-2.38,0-2.6l2.85-.06c.13,0,.37,0,.37.23s-.13.47-.15.58Zm2.07-5.08c0-.35,0-1.84-.07-2.36l3-.05c.11,0,.37,0,.37.12s-.15.56-.15.67V43.16A11.93,11.93,0,0,0,122.23,37l1.12.7a17.33,17.33,0,0,1-6.5,8.66c-.28.18-1.68,1-2,1.18L113.27,46a28.24,28.24,0,0,0,.13-3.43Z"/><path class="cls-10" d="M131.74,42.7c7.78-2.25,9.92-7,10.66-8.62l1.25.63A17,17,0,0,1,134.2,45c-.54.23-3.26,1.22-3.87,1.48l-1.84-1.7c0-.59.09-1.17.09-1.69V31.13c0-.89,0-1.69-.06-2.51h2.81c.52,0,.6.07.6.22a7.08,7.08,0,0,1-.19,1Z"/><path class="cls-10" d="M157.21,32.51c-.61,7.81-3.61,10.77-9.05,13.06l-.74-1.29c6.18-2.61,6.44-9.18,6.52-11.61l-2.16.1-3.27.19V31.47c.17,0,2.88-.07,3.24-.09l2.21-.1c0-.8,0-3.86,0-4.68l3.18.07c.29,0,.33.07.33.13a4.13,4.13,0,0,1-.11.53c-.06.48,0,3.19-.06,3.79l4.41-.2c1.43-.07,2.3-.13,3.73-.26,0,.85-.09,5-.15,5.94-.61,8.11-2.45,8.2-3.58,8.25-1.45.07-3.61-.89-4.67-1.36l.41-1.47a7,7,0,0,0,2.77.82c.61,0,.89-.19,1.17-1.33a41.22,41.22,0,0,0,.86-9.23Z"/><path class="cls-10" d="M170.83,42.63c4.77-1.25,10.64-4,12.27-13.94l-8.65.24c-1.32,0-2.21.05-3.77.18V27.59c1.56,0,3.38,0,3.73-.05L183,27.3c.56,0,2-.05,2.51-.11l1.26.9c-.13.53-.76,3-.93,3.56-2.91,9.11-9.75,11.15-14.24,12.28Z"/><path class="cls-10" d="M198.76,32.27h-2c-.28,0-1.56,0-2.92.07V31.14c.6,0,2,0,2.92,0l6.5,0c1.74,0,2.34,0,3,0v1.21c-1-.06-2.47-.06-3-.06h-1.91v9.32h3.3c.41,0,1.82,0,2.81-.08v1.22c-.82,0-1.84,0-2.79,0l-9.25,0c-.93,0-1.48,0-2.76.06V41.54c.7,0,1.37.06,2.76.06h3.33Z"/><path class="cls-10" d="M215.67,29.37V26.22c0-.13,0-1-.09-1.49l2.82.09c.06,0,.17.14.17.29a.94.94,0,0,1-.11.36v4l1.57,0v1.21l-1.57,0v4.72c.37-.14.7-.29,1.46-.6l.21,1.2c-.47.29-.91.54-1.67.92v8.19L215.67,45V38.27c-.5.23-2.6,1.28-3,1.48,0,.09-.09.31-.26.3s-.13,0-.18-.07l-.89-2.29a32.16,32.16,0,0,0,4.36-1.28V30.58l-1.39,0a10.16,10.16,0,0,1-2,4.37l-1.06-.54a21.37,21.37,0,0,0,1.26-7.15,10.85,10.85,0,0,0-.11-1.39l2.49.43c.06,0,.15.14.15.27s0,.08-.15.3c-.17,1.34-.28,2-.37,2.5Zm16.1,7.29v1.19l-2.23,0V43c0,2-.89,2.11-2.43,2.08L223.9,45l-.43-1.35a11.12,11.12,0,0,0,2.23.24c.89,0,.89-.23.89-1.12v-5L220,37.64v-1.2l6.61.12v-.69a6.22,6.22,0,0,0-.11-1.56l3,.1c.07,0,.15.09.15.22a1.85,1.85,0,0,1-.08.38v1.61Zm-.54-8.48v1.21l-3.77-.07v3.21l4.31.08V33.8L220,33.58V32.39l4.46.08v-3.2l-3.6-.07V28l3.6.06V26.43a11.36,11.36,0,0,0-.09-1.54l3,.1c.07,0,.16.13.16.24a1.23,1.23,0,0,1-.11.39v2.49Zm-9.67,9.74a25,25,0,0,1,3.19,3.23l-2.67,1.77a14.45,14.45,0,0,0-1.6-4.26Z"/><path class="cls-10" d="M244.33,36.26c0,1.93-.19,7-1,8.33-.47.76-1.27.9-2.66.84l-2.58-.1-.52-1.4a10.73,10.73,0,0,0,1.84.26,1.15,1.15,0,0,0,1.3-.75,23.7,23.7,0,0,0,.7-6.1l-2.52-.1c-.26,2.26-.91,5-4.8,8.07l-1-.8c2.93-3.33,3-5.95,3-11.17l-1.86-.08V25.87l10.15.41v7.38l-5.3-.21c0,.83,0,1.61-.07,2.6ZM237,27.18v5l4.46.18v-5Zm11.28-.08a.27.27,0,0,1,.2.27s-.09.32-.11.41V41.39l-2.6-.11v-13c0-.21,0-.93-.08-1.32Zm4.33-1.1c.11,0,.18.22.18.33s-.05.23-.07.34v16.9c0,1.13,0,2.41-2.23,2.32l-3.05-.12-.52-1.43a13.58,13.58,0,0,0,2,.25c.86,0,1,0,1-1V27.13c0-.2,0-1.11,0-1.28Z"/><path class="cls-10" d="M272.65,46.84a20.9,20.9,0,0,0-1.86-5l1-.61c-.59-.23-1.17-.64-2.28-2.16A12.7,12.7,0,0,1,266.42,41l-1.06-1a12.37,12.37,0,0,0,3.14-2.62,18.76,18.76,0,0,1-1.58-6.86l-8-.49v2.49c0,4.07-1.43,6.22-3.33,7.92l-1-.91c.84-1.48,1.45-2.9,1.45-6.62V28.6l10.77.66c-.06-.68-.19-2.24-.19-2.55l3,.3a.21.21,0,0,1,.22.2.55.55,0,0,1-.15.36c0,1,0,1.37,0,1.87l2.08.13a8.71,8.71,0,0,0-1.6-2.14l1-.74a22.46,22.46,0,0,1,3.11,1.8l-1.86,1.12,2.6.16V31l-5.33-.33a16.41,16.41,0,0,0,.57,3.89,9.7,9.7,0,0,0,.95-3L274,32.87s.09.07.09.11a.51.51,0,0,1-.29.39,16.09,16.09,0,0,1-2.46,3.86c.06.14.84,1.51,1.32,1.53.63,0,.8-1.2.91-2A7.29,7.29,0,0,0,275.42,38c-.34,1.43-.88,3.58-2.85,3.46a1.92,1.92,0,0,1-.44-.07,22.09,22.09,0,0,1,3.25,3.88Zm-14.21-6a19.28,19.28,0,0,1-1.24,5.27l-2.59-1.28a15.44,15.44,0,0,0,2.51-4.51Zm7.87-8.71v1.22l-6.81-.42V31.71Zm-.13,2.59v4.36l-6.51-.4V34.32Zm-3.69,5.56a.32.32,0,0,1,.28.28.53.53,0,0,1-.18.31v3.6c0,.78.31.8,1.08.85l2.9.18c.91,0,1.41.08,1.78-2.73a12.22,12.22,0,0,0,2.7,1.16c-.54,3-2.12,2.9-3,2.85l-6.3-.39c-1.64-.1-2-.47-2-2.26V41.57c0-.26-.06-1.2-.09-1.52Zm-.5-4.6v1.93l1.92.12V35.8Zm2.38,4.22a43,43,0,0,1,3.31,2.78L264.8,44.2a15.76,15.76,0,0,0-1.49-3.78Z"/><path class="cls-10" d="M283.38,31.56v1.21l-6.75-.56V31Zm-.51,13.28a15.18,15.18,0,0,0,3.34-3.92c-.34.08-2,.57-2.35.67-.13.16-.2.22-.3.21a.15.15,0,0,1-.15-.08l-.63-1.89c.28,0,.45,0,1.08-.11V30.26l1.36.11a13.38,13.38,0,0,0,.54-2.43l2.94.85s0,.11,0,.16-.11.14-.37.27a9.54,9.54,0,0,1-1.29,1.3l2.89.24v7.37l.69,1.16c0,.09.09.14.09.22s-.28.11-.41.06c-.09.14-.11.18-.37.53v6.3c0,1.11,0,2.17-2,2l-2.89-.24-.33-1.39a13,13,0,0,0,1.95.4c.75.06.77-.15.77-.89v-3.4A18.93,18.93,0,0,1,283.66,46l-.79-.93v2.14l-3.35-.27v.86l-2.31-.19V40.24l5.66.46Zm0-16.36V29.7l-5.58-.46V28Zm0,6.13v1.2l-5.58-.46v-1.2Zm0,3.06v1.21l-5.58-.46V37.21Zm-3.35,4v4l1.34.11v-4Zm6.56-8.36,1.36.11V31.77l-1.36-.12Zm1.36,1.32-1.36-.11V36.2l1.36.12Zm0,2.93-1.36-.11v2l1.12-.17c.05-.06.2-.37.24-.41Zm9.27-3v1.21l-1-.08V46.64c0,1,0,2.4-2.07,2.23l-2.7-.22-.35-1.37c.43.1,1.38.28,1.82.32s.56-.19.56-1V41.75l-1.6.63a24.46,24.46,0,0,0-.61-5.32l1.13-.4A25.6,25.6,0,0,1,292.93,39V35.47l-2.4-.2V34.06l2.4.2v-3.9c0-.5-.05-.92-.11-1.62l2.78.25s.13.15.13.21a3.39,3.39,0,0,1-.06.41v4.87Z"/><path class="cls-10" d="M310.52,30.5c.88,2.76,3.43,6.25,8.17,9.37l-.73,1a25.51,25.51,0,0,1-9.71-8.19,19.61,19.61,0,0,1-9.68,6.14l-.86-1c1.29-.56,6.1-2.61,8.32-7.71Zm7.31,19.12v1.21l-19.11-2V47.62l3,.31V40.84a12,12,0,0,0-.07-1.5l2.89.32a.3.3,0,0,1,.18.28.92.92,0,0,1-.07.3v8l2.52.27V38a14.91,14.91,0,0,0-.06-1.57l2.91.33c.09,0,.17.15.17.23a2.9,2.9,0,0,1-.06.41v4.57l5.28.55v1.19l-5.28-.55v5.68Z"/><path class="cls-10" d="M331.2,38l3.83.49V49.14l-10.54-1.33V37.13l3.76.47V34.66l-8.45-1.07V32.37l20,2.53v1.21L331.2,35Zm5,13.44V40.06c0-.42-.05-.9-.07-1.29l2.63.37c.12,0,.34,0,.34.31a.79.79,0,0,1-.19.43V54l-2.71-.35v-1L323.33,51v1l-2.73-.35V38.15c0-.3,0-1.07-.06-1.35l2.68.36c.09,0,.32.06.32.28s0,.21-.21.47V49.78Zm-7.94-9.11V38.79l-1.46-.18v3.51Zm-1.46,1v3.6l1.46.18V43.5Zm5.91-.44V39.36l-1.5-.19v3.51Zm-1.5,1v3.59l1.5.19V44.06Z"/></g></g></svg>