<svg xmlns="http://www.w3.org/2000/svg" viewBox="0 0 592.78 91.47"><defs><style>.cls-1{fill:#c50023;}.cls-2,.cls-3{fill:#fff;}.cls-3{stroke:#636262;stroke-miterlimit:10;stroke-width:1.32px;fill-rule:evenodd;}</style></defs><g id="レイヤー_2" data-name="レイヤー 2"><g id="レイヤー_1-2" data-name="レイヤー 1"><rect class="cls-1" width="579.78" height="87.81" rx="14.63"/><path class="cls-2" d="M67.27,63.94H59.08V46.34a65.38,65.38,0,0,1-13.92,6.09l-3.85-6.74a66.31,66.31,0,0,0,18.95-9.06c5.08-3.37,8.41-6.79,13.18-11.87l6.79,4.82A78.38,78.38,0,0,1,67.27,41Z"/><path class="cls-2" d="M104,40.43a41.05,41.05,0,0,1,8.71,4.65,26.69,26.69,0,0,0,3.76-8.15H104.61A40,40,0,0,1,92.75,47.18l-4.86-5.52c8.36-4.55,12.13-9.85,14.88-16.94l8.23,1A31.74,31.74,0,0,1,109.25,30h16.64c-1.75,11.3-6.09,28.5-31.3,34.5l-4-6.92a37.71,37.71,0,0,0,16.51-6.83,48.15,48.15,0,0,0-8.23-5.12Z"/><path class="cls-2" d="M146.6,50.68h-8.1V26.78h8.1Zm20.83-6c0,5.34-1.62,10.5-6,14s-11.38,4.77-17.82,5.52l-3-7.4c12.82-.88,18.6-3.33,18.6-11.52V26.08h8.14Z"/><path class="cls-2" d="M179.87,58.52c11.43-4.47,14-10.69,13.7-22.07h8c0,1.71-.09,3.24-.31,5.34A15.39,15.39,0,0,0,209,34H180v-7.4H218.7c-1.36,11.16-5.65,16.81-13,21.27l-4.59-4.59c-1.67,13.87-10.77,19-16.16,21.36Z"/><path class="cls-2" d="M230.35,44.42A69.7,69.7,0,0,0,226.06,31l6.74-1.75c.87,1.67,2.19,4.2,4.59,13.22ZM230,57.6c12.83-2.94,22.68-7.88,26.31-29.68l8.06,1.75c-3.59,15.84-9.76,30.12-30.6,34.62Zm12-15.33c-.44-2.18-2-9.32-3.76-13.44L245,27.3a62.54,62.54,0,0,1,4.11,13.27Z"/><path class="cls-2" d="M271.8,58.52c11.43-4.47,14-10.69,13.71-22.07h8c0,1.71-.08,3.24-.3,5.34A15.31,15.31,0,0,0,301,34H271.89v-7.4h38.75c-1.36,11.16-5.65,16.81-13.05,21.27L293,43.24c-1.66,13.87-10.77,19-16.15,21.36Z"/><path class="cls-2" d="M356.43,40.83v8H317.82v-8Z"/><path class="cls-2" d="M381.11,32A80.15,80.15,0,0,0,380,45.65a53,53,0,0,0,.73,10l-5.12.34A56.67,56.67,0,0,1,375,46.6a131.93,131.93,0,0,1,1-15Zm7.47,12.73a5.92,5.92,0,0,0-1.31,3.19c0,1.9,2.77,1.9,4.75,1.9,1.76,0,4.87-.14,6.6-.34l.09,5a41.91,41.91,0,0,1-5.07.28c-5.09,0-10.88-.39-10.88-5.9A10.39,10.39,0,0,1,384.64,43Zm9.59-11.19v4.81H383.63V33.51Z"/><path class="cls-2" d="M412.33,57V50.15h-5v1.18h-4.67V33.73h9.65V30.4H417v3.33h9.68v17.6H422V50.15h-5V57Zm-5-17h5v-2.1h-5Zm0,6h5V43.77h-5ZM417,37.87V40h5v-2.1Zm0,5.9v2.16h5V43.77Z"/><path class="cls-2" d="M438.68,31.55c-.14,2.38-.45,12-.45,14.66,0,2.91.39,5.12,4.25,5.12,6.15,0,7.19-5.26,7.77-8.62L454.87,45c-2.18,10-7.94,11.16-12.33,11.16-7.86,0-9.32-4.06-9.32-10.15,0-2.3.11-12.45.11-14.52Z"/><path class="cls-2" d="M457.41,40.64h7v8.53c.28,1.76,2.26,2.8,4.61,2.8h15.36l-.9,4.42H469.25a8.31,8.31,0,0,1-6.66-2.77,20.6,20.6,0,0,1-4,3.38l-1.68-5a33.56,33.56,0,0,0,3-1.6V44.86h-2.52Zm3-10.24a25.89,25.89,0,0,1,5.26,4.4l-3.19,3.66a21.05,21.05,0,0,0-5.07-4.5Zm4.33,17.07a18.93,18.93,0,0,0,8.65-11.81h-6.3v-4.5h10.63c0,7.33,1.57,11.94,6.74,16.22l-3.1,4.25a17.83,17.83,0,0,1-6.18-9.7,20.86,20.86,0,0,1-7.5,9.68Z"/><path class="cls-2" d="M492.27,33.71V31.44h4.78v2.27h4.36v4.58h-4.36v4.45s.28,1.54.28,1.85a6.78,6.78,0,0,1-.56,2.51,5.78,5.78,0,0,0-.92,2.69c0,1.42,1.17,1.42,4.36,1.42,2.57,0,5.15,0,5.15-2.4,0-.39,0-2.71-2.49-6l4.39-1.62c2.35,3.22,3.21,5.59,3.21,8.11a6.1,6.1,0,0,1-2.12,5C506.56,55.6,505.07,56,500,56c-3.72,0-6,0-7.58-1.29a3.28,3.28,0,0,1-.95-3,3.09,3.09,0,0,1-1,.17c-3.5,0-4.53-3.33-4.53-5.65,0-4.17,2.63-6.68,5.45-6.68a6.78,6.78,0,0,1,.9.05V38.29h-5.65V33.71Zm-2.72,12.13c0,1.32.7,1.93,1.49,1.93,1.62,0,1.84-2.54,1.84-3s-.14-1.68-1.34-1.68C490.5,43.13,489.55,44.31,489.55,45.84Zm18.63-5.76a25.73,25.73,0,0,0-6.32-5.76l3.33-3.13a26.92,26.92,0,0,1,6.54,5.34Z"/><path class="cls-3" d="M541.35,56.29c-1.37,1.06-2.17,3.59-.06,6.28,1.18,1.5,4.34,2.38,6,3.05,4.62,1.83,8,3.38,11.93,7.58C564,78.27,567,79.48,569.45,85c.81,1.85,2.45,5.13,4.06,5.7S581,88.3,582,87.66c3.45-2.26,6.16-3,9.44-5.7,2.22-1.82-1.26-6.78-2.89-11.47-1.24-3.58-1-8.46-1.8-11.74a33.43,33.43,0,0,0-4.42-10.58c-1.31-2-2.73-5.13-5.93-4.93-2.71.16,1.46,6.33.34,6.89-1.56.51-2.6-3.25-3.56-5.17-1.76-3.51-2.67-4-6.68-3.46,1.77,4.43,5,9.31,3.45,10.08-2.7,1.72-5.33-16-10.54-10.86-1.82,1.8,1.47,6.88,2.26,8.52s1.46,4.38.66,4.56-2.67-3.46-3.34-5c-2.61-6-3.93-12.06-7.48-17.3-4.85-7.13-9.31-2.16-6.36,5.65,1.19,3.16,2.8,6.85,4.34,10.11.74,1.55,3.81,6.33,3.91,8.65.21,5.69-2.84.86-5.71,0-3.18-1-4.47-.94-6.3.38"/></g></g></svg>