<svg xmlns="http://www.w3.org/2000/svg" viewBox="0 0 531.97 175"><defs><style>.cls-1{fill:#288030;}.cls-2,.cls-5{fill:none;stroke:#e0cc40;stroke-linecap:round;stroke-linejoin:round;}.cls-2{stroke-width:2.66px;}.cls-3{fill:#0f8531;}.cls-4{fill:#c8b82c;}</style></defs><g id="レイヤー_2" data-name="レイヤー 2"><g id="レイヤー_1-2" data-name="レイヤー 1"><path class="cls-1" d="M60.17,13.84c-.07,6.43-.63,18.59-3.21,26.48l-5.24-5A54.7,54.7,0,0,0,55.77,13ZM70.38.35c.28,0,.42.14.42.56a9.89,9.89,0,0,1-.42,1.54V65.62H61.92V4.82A40.4,40.4,0,0,0,61.64.14Zm45.07,5.59V9.85H103.36l8.6,3.08c.21.07.21.42-.63,1-1.19.84-5.94,4.82-7,5.52h12.79v3.91H75.06l-1,.91a75.16,75.16,0,0,0-3.42-12.44L73.1,9.5a73.68,73.68,0,0,1,7.13,9.72l-.28.21h5.66a36.1,36.1,0,0,0-3.28-7.55l3.14-2H76.74V5.94H91.13V3.63A16.78,16.78,0,0,0,90.78,0l9.72.28c.28,0,.35.42.35.7s-.35,1.47-.35,1.54V5.94ZM100.29,50.25h14.6v3.84h-14.6v5.52h18.38v3.85H73.59V59.61H91.06V54.09H76.53V50.25H91.06V45.36H76.88V27.12h37.73V45.36H100.29ZM91.06,34.38V30.82H85.4v3.56Zm-5.66,3.5v3.77h5.66V37.88Zm.42-28c1.19.77,6.64,4.9,8.88,6.78l-5.24,2.8H102L99.1,18A36,36,0,0,0,102,9.85ZM106,34.38V30.82h-5.66v3.56Zm-5.66,3.5v3.77H106V37.88Z"/><path class="cls-1" d="M127.89,16.49c3.78,0,4.47,0,11-.14,0-5.45,0-10.27-.07-14l7.2.56c1.19.06,3.64.2,3.64,1a17.52,17.52,0,0,1-.63,1.75c-.21.91-.49,12.58-.56,17.75,3-2.51,12.79-10.55,20.54-10.55,5.32,0,9.58,2.79,9.58,9.85,0,3.5-1.54,20.41-1.54,24.18s.77,4.76,2.66,4.76c3.28,0,6.15-2.8,7.4-4.13l3.15,3.64c-7.76,8.17-13.91,8.17-15.38,8.17-5.66,0-8.1-3.56-8.1-9.92,0-4.12,1.54-25.3,1.54-26,0-2.44-1-4.4-3.36-4.4-1.33,0-6.29.7-16.56,10.9-.14,17.33-.07,31-.07,33.34l-10.07.14c.07-2.59.28-13.35.35-22.58-4,4.89-5.87,7.48-8.73,11.6l-5.1-7.26c5.8-5.67,7.82-7.62,14-13.42.07-3.15.07-7.76.07-10.69a76.51,76.51,0,0,0-11,1Z"/><path class="cls-1" d="M231.46,56.12c4.68-1,18.31-3.92,18.31-24.6,0-6.92-1.89-17.61-15.72-20.48-2,26.84-6,47-19.5,47-9.93,0-16.14-10.13-16.14-21.17,0-16,11.81-31.17,32.7-31.17,14.82,0,29.21,7.41,29.21,26.7,0,23.76-21.31,27.39-27.39,28.44ZM206.93,38.93c0,9.85,3.15,13.55,6.57,13.55s9.09-13,10.48-41.37C207.63,16.07,206.93,34.1,206.93,38.93Z"/><path class="cls-1" d="M285.27,56.47c0,.42.07,2.44.07,2.93H274.93c.07-3,.14-9.08.14-12.44V16.77c0-2.44,0-4.89-.14-8.94,5.45.14,8.53.28,13.14.28h27.39c6.85,0,8.6-.07,11.11-.21-.14,6-.14,9.15-.14,10.62V47.1c0,4.34.07,9.51.14,12.37H316.09c0-.91.07-2.09.07-3Zm-.07-4.34h31V12.51h-31Z"/><path class="cls-1" d="M341.88,29.84c4.89,0,15.16.07,17.33.07h26.63c5.52,0,11.88,0,17.54-.07v6c-4.2-.07-12.86-.07-17.33-.07H359.42c-12.16,0-13.7,0-17.54.07Z"/><path class="cls-1" d="M427.56,12.16c-3.78,0-7.69,0-11.67.14V7.48c2.79.14,8.45.21,11.6.21h29.28c1,0,7,0,12.09-.35l4.54,4.26c-5.59,8.74-6.15,9.71-9.29,13.35a78.9,78.9,0,0,1-19.64,16.56A76.27,76.27,0,0,1,457,54.3l-8.74,6.64c-5-10.62-15.09-21.66-23.9-26.91l3.15-3.7A88.06,88.06,0,0,1,439.93,38c14.53-11.6,19.7-25.37,19.7-25.72,0-.14,0-.14-.42-.14Z"/><path class="cls-2" d="M60.17,13.84c-.07,6.43-.63,18.59-3.21,26.48l-5.24-5A54.7,54.7,0,0,0,55.77,13ZM70.38.35c.28,0,.42.14.42.56a9.89,9.89,0,0,1-.42,1.54V65.62H61.92V4.82A40.4,40.4,0,0,0,61.64.14Zm45.07,5.59V9.85H103.36l8.6,3.08c.21.07.21.42-.63,1-1.19.84-5.94,4.82-7,5.52h12.79v3.91H75.06l-1,.91a75.16,75.16,0,0,0-3.42-12.44L73.1,9.5a73.68,73.68,0,0,1,7.13,9.72l-.28.21h5.66a36.1,36.1,0,0,0-3.28-7.55l3.14-2H76.74V5.94H91.13V3.63A16.78,16.78,0,0,0,90.78,0l9.72.28c.28,0,.35.42.35.7s-.35,1.47-.35,1.54V5.94ZM100.29,50.25h14.6v3.84h-14.6v5.52h18.38v3.85H73.59V59.61H91.06V54.09H76.53V50.25H91.06V45.36H76.88V27.12h37.73V45.36H100.29ZM91.06,34.38V30.82H85.4v3.56Zm-5.66,3.5v3.77h5.66V37.88Zm.42-28c1.19.77,6.64,4.9,8.88,6.78l-5.24,2.8H102L99.1,18A36,36,0,0,0,102,9.85ZM106,34.38V30.82h-5.66v3.56Zm-5.66,3.5v3.77H106V37.88Z"/><path class="cls-2" d="M127.89,16.49c3.78,0,4.47,0,11-.14,0-5.45,0-10.27-.07-14l7.2.56c1.19.06,3.64.2,3.64,1a17.52,17.52,0,0,1-.63,1.75c-.21.91-.49,12.58-.56,17.75,3-2.51,12.79-10.55,20.54-10.55,5.32,0,9.58,2.79,9.58,9.85,0,3.5-1.54,20.41-1.54,24.18s.77,4.76,2.66,4.76c3.28,0,6.15-2.8,7.4-4.13l3.15,3.64c-7.76,8.17-13.91,8.17-15.38,8.17-5.66,0-8.1-3.56-8.1-9.92,0-4.12,1.54-25.3,1.54-26,0-2.44-1-4.4-3.36-4.4-1.33,0-6.29.7-16.56,10.9-.14,17.33-.07,31-.07,33.34l-10.07.14c.07-2.59.28-13.35.35-22.58-4,4.89-5.87,7.48-8.73,11.6l-5.1-7.26c5.8-5.67,7.82-7.62,14-13.42.07-3.15.07-7.76.07-10.69a76.51,76.51,0,0,0-11,1Z"/><path class="cls-2" d="M231.46,56.12c4.68-1,18.31-3.92,18.31-24.6,0-6.92-1.89-17.61-15.72-20.48-2,26.84-6,47-19.5,47-9.93,0-16.14-10.13-16.14-21.17,0-16,11.81-31.17,32.7-31.17,14.82,0,29.21,7.41,29.21,26.7,0,23.76-21.31,27.39-27.39,28.44ZM206.93,38.93c0,9.85,3.15,13.55,6.57,13.55s9.09-13,10.48-41.37C207.63,16.07,206.93,34.1,206.93,38.93Z"/><path class="cls-2" d="M285.27,56.47c0,.42.07,2.44.07,2.93H274.93c.07-3,.14-9.08.14-12.44V16.77c0-2.44,0-4.89-.14-8.94,5.45.14,8.53.28,13.14.28h27.39c6.85,0,8.6-.07,11.11-.21-.14,6-.14,9.15-.14,10.62V47.1c0,4.34.07,9.51.14,12.37H316.09c0-.91.07-2.09.07-3Zm-.07-4.34h31V12.51h-31Z"/><path class="cls-2" d="M341.88,29.84c4.89,0,15.16.07,17.33.07h26.63c5.52,0,11.88,0,17.54-.07v6c-4.2-.07-12.86-.07-17.33-.07H359.42c-12.16,0-13.7,0-17.54.07Z"/><path class="cls-2" d="M427.56,12.16c-3.78,0-7.69,0-11.67.14V7.48c2.79.14,8.45.21,11.6.21h29.28c1,0,7,0,12.09-.35l4.54,4.26c-5.59,8.74-6.15,9.71-9.29,13.35a78.9,78.9,0,0,1-19.64,16.56A76.27,76.27,0,0,1,457,54.3l-8.74,6.64c-5-10.62-15.09-21.66-23.9-26.91l3.15-3.7A88.06,88.06,0,0,1,439.93,38c14.53-11.6,19.7-25.37,19.7-25.72,0-.14,0-.14-.42-.14Z"/><path class="cls-3" d="M60.17,13.84c-.07,6.43-.63,18.59-3.21,26.48l-5.24-5A54.7,54.7,0,0,0,55.77,13ZM70.38.35c.28,0,.42.14.42.56a9.89,9.89,0,0,1-.42,1.54V65.62H61.92V4.82A40.4,40.4,0,0,0,61.64.14Zm45.07,5.59V9.85H103.36l8.6,3.08c.21.07.21.42-.63,1-1.19.84-5.94,4.82-7,5.52h12.79v3.91H75.06l-1,.91a75.16,75.16,0,0,0-3.42-12.44L73.1,9.5a73.68,73.68,0,0,1,7.13,9.72l-.28.21h5.66a36.1,36.1,0,0,0-3.28-7.55l3.14-2H76.74V5.94H91.13V3.63A16.78,16.78,0,0,0,90.78,0l9.72.28c.28,0,.35.42.35.7s-.35,1.47-.35,1.54V5.94ZM100.29,50.25h14.6v3.84h-14.6v5.52h18.38v3.85H73.59V59.61H91.06V54.09H76.53V50.25H91.06V45.36H76.88V27.12h37.73V45.36H100.29ZM91.06,34.38V30.82H85.4v3.56Zm-5.66,3.5v3.77h5.66V37.88Zm.42-28c1.19.77,6.64,4.9,8.88,6.78l-5.24,2.8H102L99.1,18A36,36,0,0,0,102,9.85ZM106,34.38V30.82h-5.66v3.56Zm-5.66,3.5v3.77H106V37.88Z"/><path class="cls-3" d="M127.89,16.49c3.78,0,4.47,0,11-.14,0-5.45,0-10.27-.07-14l7.2.56c1.19.06,3.64.2,3.64,1a17.52,17.52,0,0,1-.63,1.75c-.21.91-.49,12.58-.56,17.75,3-2.51,12.79-10.55,20.54-10.55,5.32,0,9.58,2.79,9.58,9.85,0,3.5-1.54,20.41-1.54,24.18s.77,4.76,2.66,4.76c3.28,0,6.15-2.8,7.4-4.13l3.15,3.64c-7.76,8.17-13.91,8.17-15.38,8.17-5.66,0-8.1-3.56-8.1-9.92,0-4.12,1.54-25.3,1.54-26,0-2.44-1-4.4-3.36-4.4-1.33,0-6.29.7-16.56,10.9-.14,17.33-.07,31-.07,33.34l-10.07.14c.07-2.59.28-13.35.35-22.58-4,4.89-5.87,7.48-8.73,11.6l-5.1-7.26c5.8-5.67,7.82-7.62,14-13.42.07-3.15.07-7.76.07-10.69a76.51,76.51,0,0,0-11,1Z"/><path class="cls-3" d="M231.46,56.12c4.68-1,18.31-3.92,18.31-24.6,0-6.92-1.89-17.61-15.72-20.48-2,26.84-6,47-19.5,47-9.93,0-16.14-10.13-16.14-21.17,0-16,11.81-31.17,32.7-31.17,14.82,0,29.21,7.41,29.21,26.7,0,23.76-21.31,27.39-27.39,28.44ZM206.93,38.93c0,9.85,3.15,13.55,6.57,13.55s9.09-13,10.48-41.37C207.63,16.07,206.93,34.1,206.93,38.93Z"/><path class="cls-3" d="M285.27,56.47c0,.42.07,2.44.07,2.93H274.93c.07-3,.14-9.08.14-12.44V16.77c0-2.44,0-4.89-.14-8.94,5.45.14,8.53.28,13.14.28h27.39c6.85,0,8.6-.07,11.11-.21-.14,6-.14,9.15-.14,10.62V47.1c0,4.34.07,9.51.14,12.37H316.09c0-.91.07-2.09.07-3Zm-.07-4.34h31V12.51h-31Z"/><path class="cls-3" d="M341.88,29.84c4.89,0,15.16.07,17.33.07h26.63c5.52,0,11.88,0,17.54-.07v6c-4.2-.07-12.86-.07-17.33-.07H359.42c-12.16,0-13.7,0-17.54.07Z"/><path class="cls-3" d="M427.56,12.16c-3.78,0-7.69,0-11.67.14V7.48c2.79.14,8.45.21,11.6.21h29.28c1,0,7,0,12.09-.35l4.54,4.26c-5.59,8.74-6.15,9.71-9.29,13.35a78.9,78.9,0,0,1-19.64,16.56A76.27,76.27,0,0,1,457,54.3l-8.74,6.64c-5-10.62-15.09-21.66-23.9-26.91l3.15-3.7A88.06,88.06,0,0,1,439.93,38c14.53-11.6,19.7-25.37,19.7-25.72,0-.14,0-.14-.42-.14Z"/><path class="cls-4" d="M222,164.13c-1.74.94-2.28,2.36-1.56,4a13.31,13.31,0,0,1,1.38,3.69c.05.39.21.93-.48,1.07s-.91-.27-1.1-.69a8.28,8.28,0,0,1-.94-2.15c-.69-4.57-3.69-8.12-7.06-11.37a42.7,42.7,0,0,0-22.34-11.09c-5.09-.94-9.78-.11-13.18,3.69a8.58,8.58,0,0,0-2.05,6.53c.05.81.36,1.07,1.43,1.09a22.41,22.41,0,0,1,16.08,6.54,6.18,6.18,0,0,1,1.85,3.18c.56,3.09-2.82,5.36-6.61,4.34-5.81-1.56-9.45-5.22-12-9.78a31.93,31.93,0,0,1-1.39-3.09,7.62,7.62,0,0,0-4.35,4,1,1,0,0,1-1.09.71c-.71-.07-.77-.54-.86-1.05a2.37,2.37,0,0,1,1-2.2,7.33,7.33,0,0,1,3.42-2c1.52-.3,1.69-1,1.61-2.16a9,9,0,0,1,4.41-8.6,15.46,15.46,0,0,1,11.87-2c12.39,2.61,22.34,8.16,28.51,18.11a6.25,6.25,0,0,0,.44.61s.07,0,.17.06a9.43,9.43,0,0,1,1-1.31,11.2,11.2,0,0,1,1.38-1.08,16.27,16.27,0,0,1-.24-1.78c-.09-3,2.25-4.63,5.66-3.9a21.44,21.44,0,0,1,9.42,5c2.75,2.32,5.3,4.82,8,7.18a17.91,17.91,0,0,0,8.54,4.29c2.92.56,6.88-.68,8.64-2.76a4.43,4.43,0,0,0,.84-3.87c-.82-4.45-3.85-7.59-8.2-9.83-1.75-.91-3.65-.73-4.46.18s-.53,3,.63,4.16a3.6,3.6,0,0,0,2,1.07,12.77,12.77,0,0,1-.87-1.42,1.26,1.26,0,0,1,.6-1.67,1.54,1.54,0,0,1,1.83.25c1,.83,1.48,1.85.89,3-.46.91-2,1.12-3.43.57-2.38-.94-3.75-3.58-2.9-5.73a2.76,2.76,0,0,1,2.27-1.72,6.3,6.3,0,0,1,4,.53c5,2.64,8.36,6.31,8.85,11.54.28,3.06-3.05,6-7.22,6.68-3.86.58-7.09-.71-10.11-2.55a38.37,38.37,0,0,1-6.69-5.63,43.43,43.43,0,0,0-8-6.36,15.8,15.8,0,0,0-5.6-2.15,3.06,3.06,0,0,0-3.2,1.09,3.18,3.18,0,0,0-.29,3.45c.25.52.85.4,1.28.52a7.37,7.37,0,0,1,3.63,1.94c.47.52.72,1.13.14,1.71a1.63,1.63,0,0,1-1.83.19C224.07,166.5,223.1,165.26,222,164.13Zm-46.68-4.29a5.46,5.46,0,0,0,1.06,3.06c2.5,4.24,5.9,7.68,11.34,9.2,2.42.68,4.52-.1,5.24-1.86.55-1.36,0-2.57-.9-3.66-2.53-3.19-6.16-5.05-10.34-6.19A16.76,16.76,0,0,0,175.35,159.84Zm51.48,6.43c-.58-1.23-1.7-1.82-3.35-2.15A4.29,4.29,0,0,0,226.83,166.27Z"/><path class="cls-4" d="M360.74,160a19.23,19.23,0,0,1-4.38,7.39,18.26,18.26,0,0,1-8.95,5.53,6.11,6.11,0,0,1-4.65-.43,3.57,3.57,0,0,1-1.76-4.67,11.29,11.29,0,0,1,4.39-4.82,23.61,23.61,0,0,1,14.35-4.13,6.35,6.35,0,0,0-.14-4.88c-1.19-3.61-5-6.15-9.37-6.62s-8.15.58-12,1.94c-9.68,3.43-17.2,8.92-21.79,17.2-.77,1.38-.5,2.95-1.28,4.28-.45.78-.4,2.37-1.82,1.95-1.15-.33-.23-1.61,0-2.44a16.42,16.42,0,0,1,1-2.28c.66-1.5.13-2.88-1.56-3.89-1,.92-1.75,2.08-3.13,2.67-.85.37-1.79.91-2.53,0s0-1.54.71-2.12a7.46,7.46,0,0,1,2.74-1.34c1.85-.53,2.37-1.35,1.92-3a3.08,3.08,0,0,0-3.7-2.21,18.1,18.1,0,0,0-7.22,3.16,53.4,53.4,0,0,0-6.58,5.54c-2.94,2.83-5.86,5.68-10.07,7.22s-7.9,1.22-11.38-1.27c-2.46-1.76-2.72-4.09-2.07-6.56,1.11-4.3,4.23-7.32,8.47-9.58a.37.37,0,0,1,.14-.07c1.76-.64,3.55-1,5.23,0s1.31,2.52,1,3.86a4.6,4.6,0,0,1-3.62,3.29c-1.27.32-2.61-.25-2.88-1.14a2.73,2.73,0,0,1,1.72-3,1.4,1.4,0,0,1,1.39.24,1.27,1.27,0,0,1,.4,1.48,10.82,10.82,0,0,1-.95,1.47,3.58,3.58,0,0,0,2.86-2.28c.4-1,.65-2.11-.23-3s-2.34-.79-3.57-.44c-4.93,1.43-9.5,7.51-9.05,12a4.5,4.5,0,0,0,2.39,3.32,10.27,10.27,0,0,0,9.31.94,21.3,21.3,0,0,0,6.92-4.2c3.28-2.81,6.08-6,9.78-8.49a20.23,20.23,0,0,1,6.54-3.1c4.38-1,7,1.16,6,5-.05.18-.08.37-.14.63a4.68,4.68,0,0,1,2.46,2.47,39.86,39.86,0,0,1,5.37-7,43.34,43.34,0,0,1,26.47-12.19c6.87-.61,13.65,3.34,13.52,10.41,0,1.44.07,2.4,2,2.8a6.66,6.66,0,0,1,3.42,2.23,2.2,2.2,0,0,1,.6,1.89c-.08.47-.2.87-.8,1a1.06,1.06,0,0,1-1.14-.66C363.53,161.47,363.52,161.48,360.74,160Zm-1.05-.2a21.71,21.71,0,0,0-14.64,4.46,9.05,9.05,0,0,0-3.19,3.81c-.87,2.2.79,4.21,3.48,4.26a8.84,8.84,0,0,0,4.1-1A19.23,19.23,0,0,0,359.69,159.79Zm-48.4,4.5c-2,.15-3.09.93-3.21,2.17A5.79,5.79,0,0,0,311.29,164.29Z"/><path class="cls-4" d="M269,170.48c-1.35-.35-1.06-1.27-1.52-1.91-.83.41-.26,1.68-1.55,1.83a2.6,2.6,0,0,1-.08-2.08c1.47-6.41-1.37-11.65-6-16.33-1.7-1.71-1.86-1.62.18-3a14.13,14.13,0,0,0,6.07-9.77c.18-1,.29-2.1.44-3.2h1.68c.32,1.73.54,3.5,1,5.21a13.2,13.2,0,0,0,6,8c1.24.77,1.36,1.41.17,2.36-3.91,3.14-5.75,7.28-6.91,11.62-.4,1.51.15,3.24.39,4.85A12.2,12.2,0,0,1,269,170.48Z"/><path class="cls-4" d="M319.44,153c4.5-4.62,10.19-7.54,16.63-9.38,4.4-1.25,8.89-2.12,13.57-1.32a9.68,9.68,0,0,1,6.89,4.17c-.72,0-.84-.4-1.1-.65a11,11,0,0,0-7.64-3.05c-11.13-.12-20.28,3.6-27.67,10.7a3.22,3.22,0,0,0-1,1.79c-.12.62-.07,1.37-.85,1.88-1.19-.66-.67-1.57-.26-2.25,1-1.62.4-3-.74-4.25a4.7,4.7,0,0,0-4.87-1c-4.42,1.17-7.92,3.64-11.38,6.14-4.63,3.34-8.51,7.36-12.93,10.89a37.54,37.54,0,0,1-5,3.61,6,6,0,0,1-4.56.87,2.17,2.17,0,0,1-1.91-2.35,3.54,3.54,0,0,0,3.31,1.62,7.88,7.88,0,0,0,3.69-1.54,116,116,0,0,0,11.38-9.36,63.38,63.38,0,0,1,12.1-8.59,19.28,19.28,0,0,1,5.14-2c3.34-.7,5.59.35,6.72,3.18C319.12,152.31,319.25,152.56,319.44,153Z"/><path class="cls-4" d="M178.25,146.47a9.44,9.44,0,0,1,6.87-4.2c5.68-.9,11,.37,16.23,2.15A35,35,0,0,1,215.4,153c.65-2.09,1.66-3.69,4.13-4.24a8.07,8.07,0,0,1,4.68.59c4.68,1.72,8.54,4.48,12.27,7.39,4.38,3.42,8.19,7.36,12.68,10.69a23.17,23.17,0,0,0,3.6,2.34c2.25,1.08,3.77.77,5.2-1,.43,1.49-1.08,2.69-3.18,2.49a10,10,0,0,1-5-2.2c-3.66-2.69-7-5.67-10.33-8.64A60.76,60.76,0,0,0,226.2,151a11.75,11.75,0,0,0-5.78-1.62c-2.89.1-4.91,2.83-3.81,5.16.37.8,1.06,1.65.07,2.48-.39,0-.63-.18-.65-.4-.29-3-2.77-4.84-5.22-6.55a38.52,38.52,0,0,0-23.93-7.36,11.1,11.1,0,0,0-7.37,2.93C179.2,145.94,179,146.42,178.25,146.47Z"/><path class="cls-4" d="M68.72,162.63h92.75a.61.61,0,0,0,0-1.2H51c-8.12-.29-10.59,1.35-11,4.69a4.46,4.46,0,0,0,3.71,5.21c1.25.13,2.8-.05,3.43-1.74a2.13,2.13,0,0,0-2-3c-1.51-.13-2,1.45-2,2.74-1.9-.72-2.15-3-1.16-4.63s5.56-1.07,9.63,1.33a9.57,9.57,0,0,0,9.16-.85c-.71,4.1,2.53,5.71,5.11,5.42C61.82,167.08,67.39,163.42,68.72,162.63Z"/><path class="cls-4" d="M483.79,162.38H373.28a.62.62,0,0,0,0,1.21H466c1.32.78,6.89,4.45,2.82,8,2.58.28,5.83-1.32,5.12-5.42a9.56,9.56,0,0,0,9.15.85c4.07-2.4,8.63-2.94,9.63-1.34s.75,3.92-1.16,4.63c.08-1.29-.44-2.87-2-2.73a2.13,2.13,0,0,0-2,3c.62,1.69,2.17,1.87,3.42,1.73a4.45,4.45,0,0,0,3.71-5.2C494.38,163.74,491.92,162.1,483.79,162.38Z"/><path class="cls-5" d="M0,99c2.76-4,6.05-4.14,7.07-4.14,1.8,0,3.15.56,5.77,1.75,3.35,1.52,3.94,1.8,5.54,1.8A6.67,6.67,0,0,0,24,95.74l1.27.93c-2.56,3.77-5.63,4.11-7.15,4.11-1.83,0-2.82-.45-6-1.86C9.35,97.65,8.5,97.29,7,97.29a6.9,6.9,0,0,0-5.68,2.59Z"/><path class="cls-5" d="M49,96.56h4.9v1.57H49v3.63h3v1.55H42.59v2.62H53.94v1.55H42.59v3.43H39v-3.43H27.64v-1.55H39v-2.62H29.64v-1.55h2.87V98.13H27.7V96.56h4.81V93.07H29.59V91.49H51.88v1.58H49ZM34.43,86.34c0-.54-.06-1.13-.12-1.72l3.78.06c.08,0,.22.17.22.25a1,1,0,0,1-.14.48V87.1h5.29v-.93c0-.34-.08-1.16-.14-1.58l3.75.09c.14,0,.22,0,.22.22a1.21,1.21,0,0,1-.14.54V87.1h6.76v1.55H47.15V90.9H43.46V88.65H38.17V90.9H34.43V88.65H27.67V87.1h6.76ZM39,93.07H36.2v3.49H39Zm0,5.06H36.2v3.63H39Zm6.33-5.06H42.59v3.49h2.73Zm0,5.06H42.59v3.63h2.73Z"/><path class="cls-5" d="M66.12,110.27c-.78-4.11-2.45-12-3.18-15.4a46.71,46.71,0,0,0-5.8,2.31l-.67-2.65c.87-.2,5.09-1.38,6.05-1.63-.14-.74-1.1-5.16-1.52-6.62L64.41,86c1.09-.08,1.09.06,1.09.25s-.11.59-.11.71c0,.28.85,4.3,1,5a42.85,42.85,0,0,1,4.22-.76,17.21,17.21,0,0,0,2.22-5.72l3.61.82c.45.11.9.2.9.45s-.54.62-.62.73C76.37,88,75,90,74.23,91c1.83.17,7,.68,7,5.66,0,4.17-3.71,6-8.22,6a18.86,18.86,0,0,1-2.76-.2l.17-2a10.7,10.7,0,0,0,2,.2c2.54,0,4.48-1.35,4.48-3.75,0-2.56-2-3.82-4.93-3.82a22.64,22.64,0,0,0-5.18.73q1.65,7.85,3.46,15.65Z"/><path class="cls-5" d="M84.93,93.18c3.77-.9,4.19-1,5.74-1.3L93,85.21l3,1.1c.29.11.76.31.76.53s-.22.34-.3.45a41.89,41.89,0,0,0-1.55,4.09c.7-.06,1.6-.17,2.62-.17,4.1,0,5.26,2.08,5.26,6.44,0,1.13-.09,12.25-5.6,12.25-1.8,0-4.2-1.35-5.13-1.86l.74-2.11a5.93,5.93,0,0,0,2.92,1.52c.62,0,1-.51,1.27-1,1.44-2.56,1.91-6.45,1.91-9.49s-.47-4-2.47-4a15.57,15.57,0,0,0-2.11.22c-3.13,9.4-5,15.49-5.38,16.75l-4-1.43c1.24-3.33,3.07-8.62,5.07-14.47a29.28,29.28,0,0,0-4.48,1.54Zm19.73-5.13a38.71,38.71,0,0,1,5.63,8.17l-3.88,2.7a22.73,22.73,0,0,0-3.63-9.51Z"/><path class="cls-5" d="M113.84,90.56c1.46.11,2.16.11,4.28.11.25-.73,1.57-4.36,1.85-5.18l3,.73c.76.2.87.31.87.51s-.48.65-.56.79c-.23.31-1,2.36-1.24,2.9a27.24,27.24,0,0,0,4.31-.7v2.13c-1.63.23-2.9.34-5,.48A107.6,107.6,0,0,0,117,106.18l-3.8-1c1.61-5,3.18-9.51,4.28-12.64-.82,0-3,.17-3.6.2Zm16.72,4c1,.08,1.1.19,1.1.34s-.26.61-.28.73a14.82,14.82,0,0,0-.09,2.08c0,.76,0,2.62.17,5.77a27.93,27.93,0,0,1,5.69,2.51l-2.34,2.84a15.28,15.28,0,0,0-3.18-2.45,3.14,3.14,0,0,1-1,2.37c-1.26,1.12-3.43,1.29-4.89,1.29-4.45,0-6-1.88-6-3.63,0-2.08,2.19-3.91,5.74-3.91a21.33,21.33,0,0,1,2.23.14c-.17-2.14-.17-2.82-.26-8.34Zm-4.67,9.79c-.65,0-2.76.12-2.76,1.86,0,1.3,1,1.89,2.39,1.89s2.45-.54,2.45-1.83c0,0-.09-1.35-.11-1.61A7.66,7.66,0,0,0,125.89,104.35Zm9.76-9.68a24.78,24.78,0,0,0-7.57-4l1.07-1.52a63.39,63.39,0,0,1,8.33,2.56Z"/><path class="cls-5" d="M162.14,108.27a28.13,28.13,0,0,0-6.47-7.41c-3.66,4-7.29,5.83-13.46,7.69l-.76-1.72a21.59,21.59,0,0,0,9.07-5c3.88-3.72,5.54-8.75,6.5-12.1l-8.45,0c-1,0-3.82.09-4.89.11l0-2c1.83.09,2.92.12,4.9.09l7.68-.06c.4,0,3.44,0,4.45-.11l1.38,1.49c-.14.28-1.21,2.87-1.44,3.41a31.46,31.46,0,0,1-3.6,6.5,37.66,37.66,0,0,1,8.64,6.56Z"/><path class="cls-5" d="M190.71,106.83a132.59,132.59,0,0,0-9-13.26c-.92-1.21-2-2.62-2.5-2.62s-1.44,1.44-2.28,2.79a83.61,83.61,0,0,0-4.65,8.5c-.08.45-.11.51-.25.51a1.41,1.41,0,0,1-.51-.23l-3.12-2.16c.9-1,5-6.14,5.94-7.29,2.31-2.76,3.52-4.2,4.95-4.2,1.27,0,2.42,1.15,4.4,3.18,2.3,2.34,7,7.46,10.64,12.08Zm-.81-20.77A2.9,2.9,0,1,1,187,89,2.89,2.89,0,0,1,189.9,86.06Zm0,1.49a1.41,1.41,0,1,0,0,2.81,1.39,1.39,0,0,0,1.38-1.4A1.41,1.41,0,0,0,189.9,87.55Z"/><path class="cls-5" d="M197.27,98.16c7.55-2.31,13.21-5.6,18.55-13.51l3.52,2.22c.09.06.54.34.54.48s-.71.59-.85.73a47.41,47.41,0,0,1-5.94,5.35v12.95c0,.48,0,3.46.06,3.83H209c0-.39,0-3.29,0-3.8V95.85A39.84,39.84,0,0,1,198,99.71Z"/><path class="cls-5" d="M226.83,105.48c9.74-1.1,16.24-4.45,21.76-13L250,93.57a28.39,28.39,0,0,1-5.94,8.42,27.86,27.86,0,0,1-10,6.14c-.76.25-4.5,1.38-5.35,1.66Zm8.89-12a18.73,18.73,0,0,0-7.57-6.33l.87-1.52a24.19,24.19,0,0,1,9.72,4.53Z"/><path class="cls-5" d="M278.94,87.8v1.58H258.75v8.3c0,8.48-4,12-5.18,13.09l-1.44-1.07c1.05-1.43,2.71-3.8,2.71-11.34V87.8h9.32V86.06c0-.31,0-1.1,0-1.5l3.91,0c.08,0,.25.23.25.4a1,1,0,0,1-.08.42V87.8Zm-7.3,10a45.15,45.15,0,0,1,7.61,11.26l-4.31,1.8a25.63,25.63,0,0,0-1-4c-2.65.79-11.12,2.79-14.22,3.38a1,1,0,0,1-.59.31c-.09,0-.28,0-.31-.12l-1-2.87a25.29,25.29,0,0,0,3.38-.31,101.41,101.41,0,0,0,3.92-14c.17-.87.33-2.11.42-3l4.59,1s.08.11.08.19a4.48,4.48,0,0,1-.56,1.24,135.38,135.38,0,0,1-5.72,14.22c6.06-.87,7.69-1.13,9.43-1.55a39.82,39.82,0,0,0-3.15-6.56Z"/><path class="cls-5" d="M290.33,91.8v1.55h-3v8.5c1.16-.42,1.83-.7,2.54-1l-.2,1.86c-1.72,1-7.07,3.38-7.57,3.61-.46.39-.51.45-.65.45s-.26-.2-.31-.37l-.65-2.56a13,13,0,0,0,3.18-.73V93.35H281V91.8h2.62V86.67a16.75,16.75,0,0,0-.11-2h3.74c.23,0,.37.08.37.31a1.39,1.39,0,0,1-.34.7V91.8Zm-2.75,16.5c5.82-2.06,7.63-5.66,8.22-7.1h-1.24a14.74,14.74,0,0,1-6.45,5.38l-1.27-1.13a10.26,10.26,0,0,0,5.55-7.6h-3V96.33h17.88v1.52h-11a11.18,11.18,0,0,1-.65,1.77h11a37.72,37.72,0,0,1-.59,7.32c-.42,2-.93,3.69-4.17,3.69h-3.63l-.53-1.74a12.08,12.08,0,0,0,2.33.22c1.55,0,2.45-.19,2.71-7.91h-.15a15.48,15.48,0,0,1-8.22,9.43L293,109.45a13.41,13.41,0,0,0,6.76-8.25h-1c-1.15,2.79-3.49,6.11-9.91,8.39Zm18.07-22.67v9.21H291.21V85.63Zm-10.76,1.55v2.25H302V87.18Zm0,3.83v2.28H302V91Z"/><path class="cls-5" d="M332.22,95.82A41.55,41.55,0,0,0,324.4,97c-3.66.93-7.92,2.31-7.92,6.31s4.93,4.47,7.55,4.47a31.65,31.65,0,0,0,7.83-1v2.73c-2.23.25-5.44.33-7.66.33-4.06,0-12,0-12-6.16,0-3.38,2.56-5.35,6.87-7.15-.62-1.83-.62-2.45-.62-8.14,0-1,0-2.14-.06-3.15l3.58.34c.95.08,1,.28,1,.42a6.31,6.31,0,0,1-.37,1,45.39,45.39,0,0,0-.33,5.12,11.76,11.76,0,0,0,.33,3.21c1.27-.39,7.63-2.11,9.07-2.56Z"/><path class="cls-5" d="M345.56,89.24c0-1.89,0-2.79-.05-3.52l3.71.28c.2,0,.59.06.59.25s-.16.85-.16,1v6.64a30.76,30.76,0,0,1,11.57,4.65l-2.9,3.4a23.22,23.22,0,0,0-8.67-6v7.85c0,.23,0,5.18,0,5.89h-4.16c.05-1.78.05-4.23.05-6Z"/><path class="cls-5" d="M374.19,104.66c10.14-2.22,12.92-8.19,13.88-10.24l1.63.93a20.61,20.61,0,0,1-4.08,7,20.34,20.34,0,0,1-8.22,5.52c-.7.25-4.25,1.29-5,1.57L370,107.06c0-.76.11-1.52.11-2.2V89.35c0-1.15-.06-2.2-.08-3.27l3.66.26c.67,0,.78.14.78.33a7.4,7.4,0,0,1-.25,1.3Z"/><path class="cls-5" d="M404.37,87.86c0-.76,0-1.64-.09-2.34l3.78.23c.47,0,.47.11.47.19s-.14.62-.14.73v3.64h4.51c.67,0,2.67-.06,3.1-.12l1.51,1.3c-.19,2.84-.56,8.56-4.11,12.89-4,4.85-9.6,5.46-12.49,5.8l-.91-1.77c2.42-.34,7.32-1.1,10.2-5.32,2.39-3.55,2.53-7.77,2.59-11H400V94.9c0,.39,0,2.7.09,3.46h-4.23c.06-.73.09-2.68.09-3.46V90.22c1.38.09,3,.09,3.24.09h5.15Zm12.89,1.6a16.39,16.39,0,0,0-3.21-3.18l1.16-1.1a22.22,22.22,0,0,1,3.71,2.76Zm2.31-2a16.64,16.64,0,0,0-3-2.85l1.16-1.1a19.38,19.38,0,0,1,3.4,2.37Z"/><path class="cls-5" d="M424.78,100.92c5.82-1.8,10.47-4.36,14.83-10.81l2.82,1.77c.11.09.39.26.39.4s-.48.42-.56.5a38.35,38.35,0,0,1-4.84,4.34v10.39c0,.67,0,2.36,0,3h-3.32c0-.59,0-2.23,0-3V99.09a34,34,0,0,1-8.84,3.07Z"/><path class="cls-5" d="M463.9,107.14c1.89-.39,7.38-1.57,7.38-9.91,0-2.78-.76-7.09-6.33-8.25-.79,10.81-2.43,18.92-7.86,18.92-4,0-6.5-4.08-6.5-8.53,0-6.45,4.76-12.55,13.17-12.55,6,0,11.77,3,11.77,10.75,0,9.57-8.59,11-11,11.46ZM454,100.22c0,4,1.27,5.46,2.65,5.46s3.66-5.24,4.22-16.67C454.3,91,454,98.27,454,100.22Z"/><path class="cls-5" d="M488.53,100.05c-.61,4.56-4.33,8.13-9.82,10.22l-1.07-1.38a11.1,11.1,0,0,0,6.19-7.29h-5.26v-1.55Zm14.73,10.72c-4.76-1.38-8-3.54-10.19-6.19V108c0,2-.17,2.81-2.65,2.81H486.2l-.51-1.77a19.8,19.8,0,0,0,2.7.22c.76,0,.85-.31.85-1.21V98.41H481V87.6h6.19a10.84,10.84,0,0,0,1-3.32l4.62.65A.2.2,0,0,1,493,85c0,.29-.39.54-.62.65a26.63,26.63,0,0,1-1.83,1.94h10.76V98.41h-1.41l3,2s.17.37-.67.56a46.83,46.83,0,0,1-5.72,3.52,20.21,20.21,0,0,0,7.74,4.73ZM484.88,92.19h12.55v-3H484.88Zm12.55,1.55H484.88v3.13h12.55Zm-4.36,4.67V99a16,16,0,0,0,2.08,3.83,22.94,22.94,0,0,0,4.25-4.45Z"/><path class="cls-5" d="M506.69,99c2.76-4,6.05-4.14,7.07-4.14,1.8,0,3.15.56,5.77,1.75,3.35,1.52,3.94,1.8,5.54,1.8a6.67,6.67,0,0,0,5.63-2.62l1.27.93c-2.56,3.77-5.63,4.11-7.15,4.11-1.83,0-2.82-.45-6-1.86-2.81-1.27-3.66-1.63-5.21-1.63A6.88,6.88,0,0,0,508,99.88Z"/><path class="cls-3" d="M0,99c2.76-4,6.05-4.14,7.07-4.14,1.8,0,3.15.56,5.77,1.75,3.35,1.52,3.94,1.8,5.54,1.8A6.67,6.67,0,0,0,24,95.74l1.27.93c-2.56,3.77-5.63,4.11-7.15,4.11-1.83,0-2.82-.45-6-1.86C9.35,97.65,8.5,97.29,7,97.29a6.9,6.9,0,0,0-5.68,2.59Z"/><path class="cls-3" d="M49,96.56h4.9v1.57H49v3.63h3v1.55H42.59v2.62H53.94v1.55H42.59v3.43H39v-3.43H27.64v-1.55H39v-2.62H29.64v-1.55h2.87V98.13H27.7V96.56h4.81V93.07H29.59V91.49H51.88v1.58H49ZM34.43,86.34c0-.54-.06-1.13-.12-1.72l3.78.06c.08,0,.22.17.22.25a1,1,0,0,1-.14.48V87.1h5.29v-.93c0-.34-.08-1.16-.14-1.58l3.75.09c.14,0,.22,0,.22.22a1.21,1.21,0,0,1-.14.54V87.1h6.76v1.55H47.15V90.9H43.46V88.65H38.17V90.9H34.43V88.65H27.67V87.1h6.76ZM39,93.07H36.2v3.49H39Zm0,5.06H36.2v3.63H39Zm6.33-5.06H42.59v3.49h2.73Zm0,5.06H42.59v3.63h2.73Z"/><path class="cls-3" d="M66.12,110.27c-.78-4.11-2.45-12-3.18-15.4a46.71,46.71,0,0,0-5.8,2.31l-.67-2.65c.87-.2,5.09-1.38,6.05-1.63-.14-.74-1.1-5.16-1.52-6.62L64.41,86c1.09-.08,1.09.06,1.09.25s-.11.59-.11.71c0,.28.85,4.3,1,5a42.85,42.85,0,0,1,4.22-.76,17.21,17.21,0,0,0,2.22-5.72l3.61.82c.45.11.9.2.9.45s-.54.62-.62.73C76.37,88,75,90,74.23,91c1.83.17,7,.68,7,5.66,0,4.17-3.71,6-8.22,6a18.86,18.86,0,0,1-2.76-.2l.17-2a10.7,10.7,0,0,0,2,.2c2.54,0,4.48-1.35,4.48-3.75,0-2.56-2-3.82-4.93-3.82a22.64,22.64,0,0,0-5.18.73q1.65,7.85,3.46,15.65Z"/><path class="cls-3" d="M84.93,93.18c3.77-.9,4.19-1,5.74-1.3L93,85.21l3,1.1c.29.11.76.31.76.53s-.22.34-.3.45a41.89,41.89,0,0,0-1.55,4.09c.7-.06,1.6-.17,2.62-.17,4.1,0,5.26,2.08,5.26,6.44,0,1.13-.09,12.25-5.6,12.25-1.8,0-4.2-1.35-5.13-1.86l.74-2.11a5.93,5.93,0,0,0,2.92,1.52c.62,0,1-.51,1.27-1,1.44-2.56,1.91-6.45,1.91-9.49s-.47-4-2.47-4a15.57,15.57,0,0,0-2.11.22c-3.13,9.4-5,15.49-5.38,16.75l-4-1.43c1.24-3.33,3.07-8.62,5.07-14.47a29.28,29.28,0,0,0-4.48,1.54Zm19.73-5.13a38.71,38.71,0,0,1,5.63,8.17l-3.88,2.7a22.73,22.73,0,0,0-3.63-9.51Z"/><path class="cls-3" d="M113.84,90.56c1.46.11,2.16.11,4.28.11.25-.73,1.57-4.36,1.85-5.18l3,.73c.76.2.87.31.87.51s-.48.65-.56.79c-.23.31-1,2.36-1.24,2.9a27.24,27.24,0,0,0,4.31-.7v2.13c-1.63.23-2.9.34-5,.48A107.6,107.6,0,0,0,117,106.18l-3.8-1c1.61-5,3.18-9.51,4.28-12.64-.82,0-3,.17-3.6.2Zm16.72,4c1,.08,1.1.19,1.1.34s-.26.61-.28.73a14.82,14.82,0,0,0-.09,2.08c0,.76,0,2.62.17,5.77a27.93,27.93,0,0,1,5.69,2.51l-2.34,2.84a15.28,15.28,0,0,0-3.18-2.45,3.14,3.14,0,0,1-1,2.37c-1.26,1.12-3.43,1.29-4.89,1.29-4.45,0-6-1.88-6-3.63,0-2.08,2.19-3.91,5.74-3.91a21.33,21.33,0,0,1,2.23.14c-.17-2.14-.17-2.82-.26-8.34Zm-4.67,9.79c-.65,0-2.76.12-2.76,1.86,0,1.3,1,1.89,2.39,1.89s2.45-.54,2.45-1.83c0,0-.09-1.35-.11-1.61A7.66,7.66,0,0,0,125.89,104.35Zm9.76-9.68a24.78,24.78,0,0,0-7.57-4l1.07-1.52a63.39,63.39,0,0,1,8.33,2.56Z"/><path class="cls-3" d="M162.14,108.27a28.13,28.13,0,0,0-6.47-7.41c-3.66,4-7.29,5.83-13.46,7.69l-.76-1.72a21.59,21.59,0,0,0,9.07-5c3.88-3.72,5.54-8.75,6.5-12.1l-8.45,0c-1,0-3.82.09-4.89.11l0-2c1.83.09,2.92.12,4.9.09l7.68-.06c.4,0,3.44,0,4.45-.11l1.38,1.49c-.14.28-1.21,2.87-1.44,3.41a31.46,31.46,0,0,1-3.6,6.5,37.66,37.66,0,0,1,8.64,6.56Z"/><path class="cls-3" d="M190.71,106.83a132.59,132.59,0,0,0-9-13.26c-.92-1.21-2-2.62-2.5-2.62s-1.44,1.44-2.28,2.79a83.61,83.61,0,0,0-4.65,8.5c-.08.45-.11.51-.25.51a1.41,1.41,0,0,1-.51-.23l-3.12-2.16c.9-1,5-6.14,5.94-7.29,2.31-2.76,3.52-4.2,4.95-4.2,1.27,0,2.42,1.15,4.4,3.18,2.3,2.34,7,7.46,10.64,12.08Zm-.81-20.77A2.9,2.9,0,1,1,187,89,2.89,2.89,0,0,1,189.9,86.06Zm0,1.49a1.41,1.41,0,1,0,0,2.81,1.39,1.39,0,0,0,1.38-1.4A1.41,1.41,0,0,0,189.9,87.55Z"/><path class="cls-3" d="M197.27,98.16c7.55-2.31,13.21-5.6,18.55-13.51l3.52,2.22c.09.06.54.34.54.48s-.71.59-.85.73a47.41,47.41,0,0,1-5.94,5.35v12.95c0,.48,0,3.46.06,3.83H209c0-.39,0-3.29,0-3.8V95.85A39.84,39.84,0,0,1,198,99.71Z"/><path class="cls-3" d="M226.83,105.48c9.74-1.1,16.24-4.45,21.76-13L250,93.57a28.39,28.39,0,0,1-5.94,8.42,27.86,27.86,0,0,1-10,6.14c-.76.25-4.5,1.38-5.35,1.66Zm8.89-12a18.73,18.73,0,0,0-7.57-6.33l.87-1.52a24.19,24.19,0,0,1,9.72,4.53Z"/><path class="cls-3" d="M278.94,87.8v1.58H258.75v8.3c0,8.48-4,12-5.18,13.09l-1.44-1.07c1.05-1.43,2.71-3.8,2.71-11.34V87.8h9.32V86.06c0-.31,0-1.1,0-1.5l3.91,0c.08,0,.25.23.25.4a1,1,0,0,1-.08.42V87.8Zm-7.3,10a45.15,45.15,0,0,1,7.61,11.26l-4.31,1.8a25.63,25.63,0,0,0-1-4c-2.65.79-11.12,2.79-14.22,3.38a1,1,0,0,1-.59.31c-.09,0-.28,0-.31-.12l-1-2.87a25.29,25.29,0,0,0,3.38-.31,101.41,101.41,0,0,0,3.92-14c.17-.87.33-2.11.42-3l4.59,1s.08.11.08.19a4.48,4.48,0,0,1-.56,1.24,135.38,135.38,0,0,1-5.72,14.22c6.06-.87,7.69-1.13,9.43-1.55a39.82,39.82,0,0,0-3.15-6.56Z"/><path class="cls-3" d="M290.33,91.8v1.55h-3v8.5c1.16-.42,1.83-.7,2.54-1l-.2,1.86c-1.72,1-7.07,3.38-7.57,3.61-.46.39-.51.45-.65.45s-.26-.2-.31-.37l-.65-2.56a13,13,0,0,0,3.18-.73V93.35H281V91.8h2.62V86.67a16.75,16.75,0,0,0-.11-2h3.74c.23,0,.37.08.37.31a1.39,1.39,0,0,1-.34.7V91.8Zm-2.75,16.5c5.82-2.06,7.63-5.66,8.22-7.1h-1.24a14.74,14.74,0,0,1-6.45,5.38l-1.27-1.13a10.26,10.26,0,0,0,5.55-7.6h-3V96.33h17.88v1.52h-11a11.18,11.18,0,0,1-.65,1.77h11a37.72,37.72,0,0,1-.59,7.32c-.42,2-.93,3.69-4.17,3.69h-3.63l-.53-1.74a12.08,12.08,0,0,0,2.33.22c1.55,0,2.45-.19,2.71-7.91h-.15a15.48,15.48,0,0,1-8.22,9.43L293,109.45a13.41,13.41,0,0,0,6.76-8.25h-1c-1.15,2.79-3.49,6.11-9.91,8.39Zm18.07-22.67v9.21H291.21V85.63Zm-10.76,1.55v2.25H302V87.18Zm0,3.83v2.28H302V91Z"/><path class="cls-3" d="M332.22,95.82A41.55,41.55,0,0,0,324.4,97c-3.66.93-7.92,2.31-7.92,6.31s4.93,4.47,7.55,4.47a31.65,31.65,0,0,0,7.83-1v2.73c-2.23.25-5.44.33-7.66.33-4.06,0-12,0-12-6.16,0-3.38,2.56-5.35,6.87-7.15-.62-1.83-.62-2.45-.62-8.14,0-1,0-2.14-.06-3.15l3.58.34c.95.08,1,.28,1,.42a6.31,6.31,0,0,1-.37,1,45.39,45.39,0,0,0-.33,5.12,11.76,11.76,0,0,0,.33,3.21c1.27-.39,7.63-2.11,9.07-2.56Z"/><path class="cls-3" d="M345.56,89.24c0-1.89,0-2.79-.05-3.52l3.71.28c.2,0,.59.06.59.25s-.16.85-.16,1v6.64a30.76,30.76,0,0,1,11.57,4.65l-2.9,3.4a23.22,23.22,0,0,0-8.67-6v7.85c0,.23,0,5.18,0,5.89h-4.16c.05-1.78.05-4.23.05-6Z"/><path class="cls-3" d="M374.19,104.66c10.14-2.22,12.92-8.19,13.88-10.24l1.63.93a20.61,20.61,0,0,1-4.08,7,20.34,20.34,0,0,1-8.22,5.52c-.7.25-4.25,1.29-5,1.57L370,107.06c0-.76.11-1.52.11-2.2V89.35c0-1.15-.06-2.2-.08-3.27l3.66.26c.67,0,.78.14.78.33a7.4,7.4,0,0,1-.25,1.3Z"/><path class="cls-3" d="M404.37,87.86c0-.76,0-1.64-.09-2.34l3.78.23c.47,0,.47.11.47.19s-.14.62-.14.73v3.64h4.51c.67,0,2.67-.06,3.1-.12l1.51,1.3c-.19,2.84-.56,8.56-4.11,12.89-4,4.85-9.6,5.46-12.49,5.8l-.91-1.77c2.42-.34,7.32-1.1,10.2-5.32,2.39-3.55,2.53-7.77,2.59-11H400V94.9c0,.39,0,2.7.09,3.46h-4.23c.06-.73.09-2.68.09-3.46V90.22c1.38.09,3,.09,3.24.09h5.15Zm12.89,1.6a16.39,16.39,0,0,0-3.21-3.18l1.16-1.1a22.22,22.22,0,0,1,3.71,2.76Zm2.31-2a16.64,16.64,0,0,0-3-2.85l1.16-1.1a19.38,19.38,0,0,1,3.4,2.37Z"/><path class="cls-3" d="M424.78,100.92c5.82-1.8,10.47-4.36,14.83-10.81l2.82,1.77c.11.09.39.26.39.4s-.48.42-.56.5a38.35,38.35,0,0,1-4.84,4.34v10.39c0,.67,0,2.36,0,3h-3.32c0-.59,0-2.23,0-3V99.09a34,34,0,0,1-8.84,3.07Z"/><path class="cls-3" d="M463.9,107.14c1.89-.39,7.38-1.57,7.38-9.91,0-2.78-.76-7.09-6.33-8.25-.79,10.81-2.43,18.92-7.86,18.92-4,0-6.5-4.08-6.5-8.53,0-6.45,4.76-12.55,13.17-12.55,6,0,11.77,3,11.77,10.75,0,9.57-8.59,11-11,11.46ZM454,100.22c0,4,1.27,5.46,2.65,5.46s3.66-5.24,4.22-16.67C454.3,91,454,98.27,454,100.22Z"/><path class="cls-3" d="M488.53,100.05c-.61,4.56-4.33,8.13-9.82,10.22l-1.07-1.38a11.1,11.1,0,0,0,6.19-7.29h-5.26v-1.55Zm14.73,10.72c-4.76-1.38-8-3.54-10.19-6.19V108c0,2-.17,2.81-2.65,2.81H486.2l-.51-1.77a19.8,19.8,0,0,0,2.7.22c.76,0,.85-.31.85-1.21V98.41H481V87.6h6.19a10.84,10.84,0,0,0,1-3.32l4.62.65A.2.2,0,0,1,493,85c0,.29-.39.54-.62.65a26.63,26.63,0,0,1-1.83,1.94h10.76V98.41h-1.41l3,2s.17.37-.67.56a46.83,46.83,0,0,1-5.72,3.52,20.21,20.21,0,0,0,7.74,4.73ZM484.88,92.19h12.55v-3H484.88Zm12.55,1.55H484.88v3.13h12.55Zm-4.36,4.67V99a16,16,0,0,0,2.08,3.83,22.94,22.94,0,0,0,4.25-4.45Z"/><path class="cls-3" d="M506.69,99c2.76-4,6.05-4.14,7.07-4.14,1.8,0,3.15.56,5.77,1.75,3.35,1.52,3.94,1.8,5.54,1.8a6.67,6.67,0,0,0,5.63-2.62l1.27.93c-2.56,3.77-5.63,4.11-7.15,4.11-1.83,0-2.82-.45-6-1.86-2.81-1.27-3.66-1.63-5.21-1.63A6.88,6.88,0,0,0,508,99.88Z"/></g></g></svg>