<svg xmlns="http://www.w3.org/2000/svg" viewBox="0 0 625.43 278.25"><defs><style>.cls-1,.cls-3,.cls-4,.cls-5,.cls-6,.cls-7{fill:none;stroke:#e0cc40;stroke-linecap:round;stroke-linejoin:round;}.cls-1{stroke-width:4.5px;}.cls-2{fill:#0f8531;}.cls-3{stroke-width:5.71px;}.cls-4{stroke-width:4.92px;}.cls-5{stroke-width:4.5px;}.cls-6{stroke-width:4.73px;}.cls-7{stroke-width:5.7px;}.cls-8{fill:#c8b82c;}</style></defs><g id="レイヤー_2" data-name="レイヤー 2"><g id="レイヤー_1-2" data-name="レイヤー 1"><path class="cls-1" d="M118,25.62c9.73.23,19.22.23,28.94.11,0-3.08.12-18.14,0-21.58L160.11,5c3.44.24,3.91.59,3.91,1.42a28.38,28.38,0,0,1-1,3c0,.23-.35,6.76-.47,15.89,14.58-.71,20.28-1.07,27.75-1.78v8.3c-7.71.24-24.08.71-27.75.83,0,0-.12,9.49-.12,13.64a85,85,0,0,1,9.13-.47c26.21,0,39.85,12.93,39.85,31.19,0,26.57-29.18,30-40.32,31.43l-2.61-7.59c16.36-1.78,25.73-9.37,25.73-24,0-24.07-27.75-23-31.78-22.53-.12,4-.24,24-.24,33.32,0,10.32,0,20.88-17.79,20.88-15.42,0-29.18-7.47-29.18-23.6,0-18.74,15.42-30.37,31.67-35.47V33.09c-5.93.12-23.72.47-28.94.83Zm10.56,59.89c0,11.15,6.64,15.18,11.27,15.18,3.55,0,6.28-2,6.76-6.88.23-3,.23-30.36.35-36.05C135.2,63.09,128.56,72.94,128.56,85.51Zm76.85-45.19A89.79,89.79,0,0,0,187.27,6.88l6-4.63a113.41,113.41,0,0,1,28.23,28.82Z"/><path class="cls-2" d="M118,25.62c9.73.23,19.22.23,28.94.11,0-3.08.12-18.14,0-21.58L160.11,5c3.44.24,3.91.59,3.91,1.42a28.38,28.38,0,0,1-1,3c0,.23-.35,6.76-.47,15.89,14.58-.71,20.28-1.07,27.75-1.78v8.3c-7.71.24-24.08.71-27.75.83,0,0-.12,9.49-.12,13.64a85,85,0,0,1,9.13-.47c26.21,0,39.85,12.93,39.85,31.19,0,26.57-29.18,30-40.32,31.43l-2.61-7.59c16.36-1.78,25.73-9.37,25.73-24,0-24.07-27.75-23-31.78-22.53-.12,4-.24,24-.24,33.32,0,10.32,0,20.88-17.79,20.88-15.42,0-29.18-7.47-29.18-23.6,0-18.74,15.42-30.37,31.67-35.47V33.09c-5.93.12-23.72.47-28.94.83Zm10.56,59.89c0,11.15,6.64,15.18,11.27,15.18,3.55,0,6.28-2,6.76-6.88.23-3,.23-30.36.35-36.05C135.2,63.09,128.56,72.94,128.56,85.51Zm76.85-45.19A89.79,89.79,0,0,0,187.27,6.88l6-4.63a113.41,113.41,0,0,1,28.23,28.82Z"/><path class="cls-1" d="M231.3,49.13c26.45-10.39,33-13,45.41-13,16.92,0,25.84,11.28,25.84,25.47,0,34.16-37.4,41.36-49.86,43.75l-4.16-6c9.32-1.5,38.31-6.39,38.31-37.76,0-8.09-1.93-18-13.48-18-4.56,0-14,.8-36.08,15.28Zm17.94-36.26c16.52-.1,30,1.6,44.19,5.59l-6.49,13.19c-16-10.39-33.14-11.79-40.13-12.39Z"/><path class="cls-2" d="M231.3,49.13c26.45-10.39,33-13,45.41-13,16.92,0,25.84,11.28,25.84,25.47,0,34.16-37.4,41.36-49.86,43.75l-4.16-6c9.32-1.5,38.31-6.39,38.31-37.76,0-8.09-1.93-18-13.48-18-4.56,0-14,.8-36.08,15.28Zm17.94-36.26c16.52-.1,30,1.6,44.19,5.59l-6.49,13.19c-16-10.39-33.14-11.79-40.13-12.39Z"/><path class="cls-1" d="M339.28,94.42a86.76,86.76,0,0,0,11.77.71c19.85,0,30-7.67,30-18.72,0-11.57-9.93-15.76-19-15.76-15.15,0-23.23,11.46-27.12,16.78L322.7,72c5.43-11.26,12-30.5,13.61-35.2-1.33,0-16.37.61-18,.71V30.26c8.39.1,13.81,0,20.15-.21.92-3,3.89-12.38,4.91-18.93l12,2.77c3.48.81,3.68,1.43,3.68,1.94a20.19,20.19,0,0,1-1.84,2.87c-.31.4-2.56,7.26-3.79,10.94,2.56-.1,22.41-.81,34.79-2.45l-.1,7.47c-5.53.2-28.65,1.23-36.94,1.64-5.32,15.14-6.65,18.62-8.59,23.43,3.47-1.95,12.38-7.17,24.55-7.17,15.56,0,29.27,7.88,29.27,23.33,0,11.26-6.86,20-19.75,23.85-8,2.35-16.17,2.25-35.81,2Z"/><path class="cls-2" d="M339.28,94.42a86.76,86.76,0,0,0,11.77.71c19.85,0,30-7.67,30-18.72,0-11.57-9.93-15.76-19-15.76-15.15,0-23.23,11.46-27.12,16.78L322.7,72c5.43-11.26,12-30.5,13.61-35.2-1.33,0-16.37.61-18,.71V30.26c8.39.1,13.81,0,20.15-.21.92-3,3.89-12.38,4.91-18.93l12,2.77c3.48.81,3.68,1.43,3.68,1.94a20.19,20.19,0,0,1-1.84,2.87c-.31.4-2.56,7.26-3.79,10.94,2.56-.1,22.41-.81,34.79-2.45l-.1,7.47c-5.53.2-28.65,1.23-36.94,1.64-5.32,15.14-6.65,18.62-8.59,23.43,3.47-1.95,12.38-7.17,24.55-7.17,15.56,0,29.27,7.88,29.27,23.33,0,11.26-6.86,20-19.75,23.85-8,2.35-16.17,2.25-35.81,2Z"/><path class="cls-1" d="M403.75,19.48C414,19,463.92,16.58,475.31,16c3.37-.11,20.33-.81,24.16-1v8.83c-2.21-.12-5-.23-7.2-.23-26.26,0-45.66,15.56-45.66,41.24,0,15.8,7.9,34,39.15,32.41l-1.51,8.94c-12.31-.23-55.53-1.16-55.53-39.38,0-24.86,19.52-36.36,29.63-42.29-17.08.35-40.08,2.33-53.9,3.84Zm82.71,17.89a64.41,64.41,0,0,1,12.66,14.29l-7.9,5A66,66,0,0,0,481,40.74ZM498,32.49a54.9,54.9,0,0,1,12.2,12.43l-7.9,5a55.28,55.28,0,0,0-9.64-13.83Z"/><path class="cls-2" d="M403.75,19.48C414,19,463.92,16.58,475.31,16c3.37-.11,20.33-.81,24.16-1v8.83c-2.21-.12-5-.23-7.2-.23-26.26,0-45.66,15.56-45.66,41.24,0,15.8,7.9,34,39.15,32.41l-1.51,8.94c-12.31-.23-55.53-1.16-55.53-39.38,0-24.86,19.52-36.36,29.63-42.29-17.08.35-40.08,2.33-53.9,3.84Zm82.71,17.89a64.41,64.41,0,0,1,12.66,14.29l-7.9,5A66,66,0,0,0,481,40.74ZM498,32.49a54.9,54.9,0,0,1,12.2,12.43l-7.9,5a55.28,55.28,0,0,0-9.64-13.83Z"/><path class="cls-3" d="M2.85,185.38C37.1,174.91,62.79,160,87.07,124l16,10.1c.38.25,2.43,1.53,2.43,2.17s-3.2,2.68-3.84,3.32c-8.18,9.08-19.42,18.53-27,24.28V222.7c0,2.18.12,15.72.25,17.38H56c.13-1.79.13-15,.13-17.25V174.91c-12,6.26-23.9,11.63-50.23,17.5Z"/><path class="cls-2" d="M2.85,185.38C37.1,174.91,62.79,160,87.07,124l16,10.1c.38.25,2.43,1.53,2.43,2.17s-3.2,2.68-3.84,3.32c-8.18,9.08-19.42,18.53-27,24.28V222.7c0,2.18.12,15.72.25,17.38H56c.13-1.79.13-15,.13-17.25V174.91c-12,6.26-23.9,11.63-50.23,17.5Z"/><path class="cls-4" d="M110,215.07c25.54-3.63,37.32-11.23,48-21.25a74.1,74.1,0,0,0-24-22l4.18-5.62A84.38,84.38,0,0,1,167,181.6c6.94-12.33,9-21.91,10.57-31.38H144.6c-10.24,15.85-20.37,23.23-33.58,30.28l-4.52-5.95c13.44-8.59,21.58-20.48,26.21-36.44a49.4,49.4,0,0,0,2.2-11.35L150.77,131c.66.22,2.31.66,2.31,1.32,0,.33-1.21,1.76-1.32,2.2-1.21,3.31-2.31,6.39-3.42,8.81h22.58c2.09,0,16.84-.33,18.61-.55l6.27,5.4c-4.29,16.18-7.37,27.74-15.52,39.86-18.5,27.41-49.33,32-67.17,34.35Z"/><path class="cls-2" d="M110,215.07c25.54-3.63,37.32-11.23,48-21.25a74.1,74.1,0,0,0-24-22l4.18-5.62A84.38,84.38,0,0,1,167,181.6c6.94-12.33,9-21.91,10.57-31.38H144.6c-10.24,15.85-20.37,23.23-33.58,30.28l-4.52-5.95c13.44-8.59,21.58-20.48,26.21-36.44a49.4,49.4,0,0,0,2.2-11.35L150.77,131c.66.22,2.31.66,2.31,1.32,0,.33-1.21,1.76-1.32,2.2-1.21,3.31-2.31,6.39-3.42,8.81h22.58c2.09,0,16.84-.33,18.61-.55l6.27,5.4c-4.29,16.18-7.37,27.74-15.52,39.86-18.5,27.41-49.33,32-67.17,34.35Z"/><path class="cls-1" d="M215.62,137.05c0-2.52-.1-5.75-.2-8.27l13.62.81c1.31.1,1.81.2,1.81.81,0,.4-.71,2.11-.71,2.52V166.2c0,5,.21,12.51.31,17.15h-15c0-.91.2-12.1.2-17.25Zm13.11,72.32c9.28-1.91,24.51-5.14,30-23.7,2.42-8.37,2.52-19.37,2.52-38.73,0-5.45-.1-13.42-.6-18.56l14,.91c.5,0,1.61.1,1.61.7,0,.41-.5,2.42-.5,2.93v29.25c0,37.12-11.6,47.91-44.08,53.56Z"/><path class="cls-2" d="M215.62,137.05c0-2.52-.1-5.75-.2-8.27l13.62.81c1.31.1,1.81.2,1.81.81,0,.4-.71,2.11-.71,2.52V166.2c0,5,.21,12.51.31,17.15h-15c0-.91.2-12.1.2-17.25Zm13.11,72.32c9.28-1.91,24.51-5.14,30-23.7,2.42-8.37,2.52-19.37,2.52-38.73,0-5.45-.1-13.42-.6-18.56l14,.91c.5,0,1.61.1,1.61.7,0,.41-.5,2.42-.5,2.93v29.25c0,37.12-11.6,47.91-44.08,53.56Z"/><path class="cls-5" d="M376.37,136.13c-.59,1-3.63,6.21-4.31,7.35a114.44,114.44,0,0,1-23.72,26.59l-5.2-4.76c11.37-13.24,14.9-27.52,14.9-27.93,0-.21-.59-.21-.88-.21l-45.19.1c-3.14,0-14.32.21-17.26.42v-7.25c3.14.21,14.22.31,17.26.31l45.38-.1a112.25,112.25,0,0,0,13.14-.72Zm-52.15,11.28,13.43.62c.59.11,2.06.11,2.06.73s-.39,3-.39,3.51v5.59c0,32-14.81,43.24-40.59,49.76l-2.35-6.21c7.06-1.75,27.84-6.82,27.84-38.58Z"/><path class="cls-2" d="M376.37,136.13c-.59,1-3.63,6.21-4.31,7.35a114.44,114.44,0,0,1-23.72,26.59l-5.2-4.76c11.37-13.24,14.9-27.52,14.9-27.93,0-.21-.59-.21-.88-.21l-45.19.1c-3.14,0-14.32.21-17.26.42v-7.25c3.14.21,14.22.31,17.26.31l45.38-.1a112.25,112.25,0,0,0,13.14-.72Zm-52.15,11.28,13.43.62c.59.11,2.06.11,2.06.73s-.39,3-.39,3.51v5.59c0,32-14.81,43.24-40.59,49.76l-2.35-6.21c7.06-1.75,27.84-6.82,27.84-38.58Z"/><path class="cls-6" d="M470.07,151.69c.21,0,.32.32.32.53,0,1-.64,1.38-2.12,2.44a128.31,128.31,0,0,1-9.44,10.61h11.45a88.16,88.16,0,0,0,.64,11.56,83.22,83.22,0,0,0,10.82-13.9L490,172.8c.32.31-.43,1.59-1.91,2A123.07,123.07,0,0,1,472.19,185c4.14,20.36,14,30.23,17.5,33.83l-5.09,4.56c-8.38-6.26-25.24-20.47-28.1-55.78l-2.66,2.65v53.13H440.27V182.13c-2.44,2-3.82,3-5.83,4.45l-4.14-4.35c-.74,34.36-2.86,40.3-15.8,40.3H403.89l-2.12-6.78a25.87,25.87,0,0,0,6.79.95c5.09,0,5.73-2.23,6.47-5.73.85-4.56,2.23-22.58,2.12-41.36h-5.94c-.74,12.2-2.23,35-19.41,52.82l-4.56-3.93c6.58-10.18,10.72-21.42,10.72-52.17V148.62h-7.85v-5.84h15.06V130.91c0-2,0-4.78-.11-6.79l14.11.1a1.22,1.22,0,0,1,.53,1.07,14.07,14.07,0,0,1-.53,2.33v15.16h14v5.84H411.53v15.16h19.2c0,.11-.32,16.12-.32,17.5,11-10.5,22.37-28.1,25.13-36.06Zm18.66-13.78v5.83H449c-7.64,11.66-12.73,16.75-16.23,20L427,160.71c8.38-11.35,14.43-26.2,16-38.18l16,3.6c.21.11.32.53.32.85,0,1-1.06,1.7-1.59,2-2,3.81-3.29,6-5.09,8.91Z"/><path class="cls-2" d="M470.07,151.69c.21,0,.32.32.32.53,0,1-.64,1.38-2.12,2.44a128.31,128.31,0,0,1-9.44,10.61h11.45a88.16,88.16,0,0,0,.64,11.56,83.22,83.22,0,0,0,10.82-13.9L490,172.8c.32.31-.43,1.59-1.91,2A123.07,123.07,0,0,1,472.19,185c4.14,20.36,14,30.23,17.5,33.83l-5.09,4.56c-8.38-6.26-25.24-20.47-28.1-55.78l-2.66,2.65v53.13H440.27V182.13c-2.44,2-3.82,3-5.83,4.45l-4.14-4.35c-.74,34.36-2.86,40.3-15.8,40.3H403.89l-2.12-6.78a25.87,25.87,0,0,0,6.79.95c5.09,0,5.73-2.23,6.47-5.73.85-4.56,2.23-22.58,2.12-41.36h-5.94c-.74,12.2-2.23,35-19.41,52.82l-4.56-3.93c6.58-10.18,10.72-21.42,10.72-52.17V148.62h-7.85v-5.84h15.06V130.91c0-2,0-4.78-.11-6.79l14.11.1a1.22,1.22,0,0,1,.53,1.07,14.07,14.07,0,0,1-.53,2.33v15.16h14v5.84H411.53v15.16h19.2c0,.11-.32,16.12-.32,17.5,11-10.5,22.37-28.1,25.13-36.06Zm18.66-13.78v5.83H449c-7.64,11.66-12.73,16.75-16.23,20L427,160.71c8.38-11.35,14.43-26.2,16-38.18l16,3.6c.21.11.32.53.32.85,0,1-1.06,1.7-1.59,2-2,3.81-3.29,6-5.09,8.91Z"/><path class="cls-7" d="M501.38,196.24c20.82-18.65,29.88-38.83,32-47.89l15.71,7.15c.39.13.39.51.39,1,0,1-.9,1.79-1.66,2.43a118.28,118.28,0,0,1-11.5,15.45v69.35h-16.6V191.26a108.36,108.36,0,0,1-12.52,9.58Zm44.7-66.8c.25.13.25.52.25.9,0,1-.63,1.53-2.3,2.68a143.55,143.55,0,0,1-35.88,32.31l-5.75-4.47c11-9.19,23.63-26.56,27.33-37.93Zm55,100.39c0,8.94-2,13.28-15.46,13.28H564l-2.3-8a86.23,86.23,0,0,0,14.82,1.4c6.76,0,7.28-2.3,7.28-7.66V175.3H543.53v-7h79.05v7H601.13Zm16-91.7H549.91V131h67.18Z"/><path class="cls-2" d="M501.38,196.24c20.82-18.65,29.88-38.83,32-47.89l15.71,7.15c.39.13.39.51.39,1,0,1-.9,1.79-1.66,2.43a118.28,118.28,0,0,1-11.5,15.45v69.35h-16.6V191.26a108.36,108.36,0,0,1-12.52,9.58Zm44.7-66.8c.25.13.25.52.25.9,0,1-.63,1.53-2.3,2.68a143.55,143.55,0,0,1-35.88,32.31l-5.75-4.47c11-9.19,23.63-26.56,27.33-37.93Zm55,100.39c0,8.94-2,13.28-15.46,13.28H564l-2.3-8a86.23,86.23,0,0,0,14.82,1.4c6.76,0,7.28-2.3,7.28-7.66V175.3H543.53v-7h79.05v7H601.13Zm16-91.7H549.91V131h67.18Z"/><path class="cls-1" d="M2.85,185.38C37.1,174.91,62.79,160,87.07,124l16,10.1c.38.25,2.43,1.53,2.43,2.17s-3.2,2.68-3.84,3.32c-8.18,9.08-19.42,18.53-27,24.28V222.7c0,2.18.12,15.72.25,17.38H56c.13-1.79.13-15,.13-17.25V174.91c-12,6.26-23.9,11.63-50.23,17.5Z"/><path class="cls-1" d="M2.85,185.38C37.1,174.91,62.79,160,87.07,124l16,10.1c.38.25,2.43,1.53,2.43,2.17s-3.2,2.68-3.84,3.32c-8.18,9.08-19.42,18.53-27,24.28V222.7c0,2.18.12,15.72.25,17.38H56c.13-1.79.13-15,.13-17.25V174.91c-12,6.26-23.9,11.63-50.23,17.5Z"/><path class="cls-1" d="M110,215.07c25.54-3.63,37.32-11.23,48-21.25a74.1,74.1,0,0,0-24-22l4.18-5.62A84.38,84.38,0,0,1,167,181.6c6.94-12.33,9-21.91,10.57-31.38H144.6c-10.24,15.85-20.37,23.23-33.58,30.28l-4.52-5.95c13.44-8.59,21.58-20.48,26.21-36.44a49.4,49.4,0,0,0,2.2-11.35L150.77,131c.66.22,2.31.66,2.31,1.32,0,.33-1.21,1.76-1.32,2.2-1.21,3.31-2.31,6.39-3.42,8.81h22.58c2.09,0,16.84-.33,18.61-.55l6.27,5.4c-4.29,16.18-7.37,27.74-15.52,39.86-18.5,27.41-49.33,32-67.17,34.35Z"/><path class="cls-1" d="M110,215.07c25.54-3.63,37.32-11.23,48-21.25a74.1,74.1,0,0,0-24-22l4.18-5.62A84.38,84.38,0,0,1,167,181.6c6.94-12.33,9-21.91,10.57-31.38H144.6c-10.24,15.85-20.37,23.23-33.58,30.28l-4.52-5.95c13.44-8.59,21.58-20.48,26.21-36.44a49.4,49.4,0,0,0,2.2-11.35L150.77,131c.66.22,2.31.66,2.31,1.32,0,.33-1.21,1.76-1.32,2.2-1.21,3.31-2.31,6.39-3.42,8.81h22.58c2.09,0,16.84-.33,18.61-.55l6.27,5.4c-4.29,16.18-7.37,27.74-15.52,39.86-18.5,27.41-49.33,32-67.17,34.35Z"/><path class="cls-1" d="M215.62,137.05c0-2.52-.1-5.75-.2-8.27l13.62.81c1.31.1,1.81.2,1.81.81,0,.4-.71,2.11-.71,2.52V166.2c0,5,.21,12.51.31,17.15h-15c0-.91.2-12.1.2-17.25Zm13.11,72.32c9.28-1.91,24.51-5.14,30-23.7,2.42-8.37,2.52-19.37,2.52-38.73,0-5.45-.1-13.42-.6-18.56l14,.91c.5,0,1.61.1,1.61.7,0,.41-.5,2.42-.5,2.93v29.25c0,37.12-11.6,47.91-44.08,53.56Z"/><path class="cls-1" d="M215.62,137.05c0-2.52-.1-5.75-.2-8.27l13.62.81c1.31.1,1.81.2,1.81.81,0,.4-.71,2.11-.71,2.52V166.2c0,5,.21,12.51.31,17.15h-15c0-.91.2-12.1.2-17.25Zm13.11,72.32c9.28-1.91,24.51-5.14,30-23.7,2.42-8.37,2.52-19.37,2.52-38.73,0-5.45-.1-13.42-.6-18.56l14,.91c.5,0,1.61.1,1.61.7,0,.41-.5,2.42-.5,2.93v29.25c0,37.12-11.6,47.91-44.08,53.56Z"/><path class="cls-1" d="M376.37,136.13c-.59,1-3.63,6.21-4.31,7.35a114.44,114.44,0,0,1-23.72,26.59l-5.2-4.76c11.37-13.24,14.9-27.52,14.9-27.93,0-.21-.59-.21-.88-.21l-45.19.1c-3.14,0-14.32.21-17.26.42v-7.25c3.14.21,14.22.31,17.26.31l45.38-.1a112.25,112.25,0,0,0,13.14-.72Zm-52.15,11.28,13.43.62c.59.11,2.06.11,2.06.73s-.39,3-.39,3.51v5.59c0,32-14.81,43.24-40.59,49.76l-2.35-6.21c7.06-1.75,27.84-6.82,27.84-38.58Z"/><path class="cls-1" d="M376.37,136.13c-.59,1-3.63,6.21-4.31,7.35a114.44,114.44,0,0,1-23.72,26.59l-5.2-4.76c11.37-13.24,14.9-27.52,14.9-27.93,0-.21-.59-.21-.88-.21l-45.19.1c-3.14,0-14.32.21-17.26.42v-7.25c3.14.21,14.22.31,17.26.31l45.38-.1a112.25,112.25,0,0,0,13.14-.72Zm-52.15,11.28,13.43.62c.59.11,2.06.11,2.06.73s-.39,3-.39,3.51v5.59c0,32-14.81,43.24-40.59,49.76l-2.35-6.21c7.06-1.75,27.84-6.82,27.84-38.58Z"/><path class="cls-1" d="M470.07,151.69c.21,0,.32.32.32.53,0,1-.64,1.38-2.12,2.44a128.31,128.31,0,0,1-9.44,10.61h11.45a88.16,88.16,0,0,0,.64,11.56,83.22,83.22,0,0,0,10.82-13.9L490,172.8c.32.31-.43,1.59-1.91,2A123.07,123.07,0,0,1,472.19,185c4.14,20.36,14,30.23,17.5,33.83l-5.09,4.56c-8.38-6.26-25.24-20.47-28.1-55.78l-2.66,2.65v53.13H440.27V182.13c-2.44,2-3.82,3-5.83,4.45l-4.14-4.35c-.74,34.36-2.86,40.3-15.8,40.3H403.89l-2.12-6.78a25.87,25.87,0,0,0,6.79.95c5.09,0,5.73-2.23,6.47-5.73.85-4.56,2.23-22.58,2.12-41.36h-5.94c-.74,12.2-2.23,35-19.41,52.82l-4.56-3.93c6.58-10.18,10.72-21.42,10.72-52.17V148.62h-7.85v-5.84h15.06V130.91c0-2,0-4.78-.11-6.79l14.11.1a1.22,1.22,0,0,1,.53,1.07,14.07,14.07,0,0,1-.53,2.33v15.16h14v5.84H411.53v15.16h19.2c0,.11-.32,16.12-.32,17.5,11-10.5,22.37-28.1,25.13-36.06Zm18.66-13.78v5.83H449c-7.64,11.66-12.73,16.75-16.23,20L427,160.71c8.38-11.35,14.43-26.2,16-38.18l16,3.6c.21.11.32.53.32.85,0,1-1.06,1.7-1.59,2-2,3.81-3.29,6-5.09,8.91Z"/><path class="cls-1" d="M470.07,151.69c.21,0,.32.32.32.53,0,1-.64,1.38-2.12,2.44a128.31,128.31,0,0,1-9.44,10.61h11.45a88.16,88.16,0,0,0,.64,11.56,83.22,83.22,0,0,0,10.82-13.9L490,172.8c.32.31-.43,1.59-1.91,2A123.07,123.07,0,0,1,472.19,185c4.14,20.36,14,30.23,17.5,33.83l-5.09,4.56c-8.38-6.26-25.24-20.47-28.1-55.78l-2.66,2.65v53.13H440.27V182.13c-2.44,2-3.82,3-5.83,4.45l-4.14-4.35c-.74,34.36-2.86,40.3-15.8,40.3H403.89l-2.12-6.78a25.87,25.87,0,0,0,6.79.95c5.09,0,5.73-2.23,6.47-5.73.85-4.56,2.23-22.58,2.12-41.36h-5.94c-.74,12.2-2.23,35-19.41,52.82l-4.56-3.93c6.58-10.18,10.72-21.42,10.72-52.17V148.62h-7.85v-5.84h15.06V130.91c0-2,0-4.78-.11-6.79l14.11.1a1.22,1.22,0,0,1,.53,1.07,14.07,14.07,0,0,1-.53,2.33v15.16h14v5.84H411.53v15.16h19.2c0,.11-.32,16.12-.32,17.5,11-10.5,22.37-28.1,25.13-36.06Zm18.66-13.78v5.83H449c-7.64,11.66-12.73,16.75-16.23,20L427,160.71c8.38-11.35,14.43-26.2,16-38.18l16,3.6c.21.11.32.53.32.85,0,1-1.06,1.7-1.59,2-2,3.81-3.29,6-5.09,8.91Z"/><path class="cls-1" d="M501.38,196.24c20.82-18.65,29.88-38.83,32-47.89l15.71,7.15c.39.13.39.51.39,1,0,1-.9,1.79-1.66,2.43a118.28,118.28,0,0,1-11.5,15.45v69.35h-16.6V191.26a108.36,108.36,0,0,1-12.52,9.58Zm44.7-66.8c.25.13.25.52.25.9,0,1-.63,1.53-2.3,2.68a143.55,143.55,0,0,1-35.88,32.31l-5.75-4.47c11-9.19,23.63-26.56,27.33-37.93Zm55,100.39c0,8.94-2,13.28-15.46,13.28H564l-2.3-8a86.23,86.23,0,0,0,14.82,1.4c6.76,0,7.28-2.3,7.28-7.66V175.3H543.53v-7h79.05v7H601.13Zm16-91.7H549.91V131h67.18Z"/><path class="cls-1" d="M501.38,196.24c20.82-18.65,29.88-38.83,32-47.89l15.71,7.15c.39.13.39.51.39,1,0,1-.9,1.79-1.66,2.43a118.28,118.28,0,0,1-11.5,15.45v69.35h-16.6V191.26a108.36,108.36,0,0,1-12.52,9.58Zm44.7-66.8c.25.13.25.52.25.9,0,1-.63,1.53-2.3,2.68a143.55,143.55,0,0,1-35.88,32.31l-5.75-4.47c11-9.19,23.63-26.56,27.33-37.93Zm55,100.39c0,8.94-2,13.28-15.46,13.28H564l-2.3-8a86.23,86.23,0,0,0,14.82,1.4c6.76,0,7.28-2.3,7.28-7.66V175.3H543.53v-7h79.05v7H601.13Zm16-91.7H549.91V131h67.18Z"/><path class="cls-2" d="M2.85,185.38C37.1,174.91,62.79,160,87.07,124l16,10.1c.38.25,2.43,1.53,2.43,2.17s-3.2,2.68-3.84,3.32c-8.18,9.08-19.42,18.53-27,24.28V222.7c0,2.18.12,15.72.25,17.38H56c.13-1.79.13-15,.13-17.25V174.91c-12,6.26-23.9,11.63-50.23,17.5Z"/><path class="cls-2" d="M2.85,185.38C37.1,174.91,62.79,160,87.07,124l16,10.1c.38.25,2.43,1.53,2.43,2.17s-3.2,2.68-3.84,3.32c-8.18,9.08-19.42,18.53-27,24.28V222.7c0,2.18.12,15.72.25,17.38H56c.13-1.79.13-15,.13-17.25V174.91c-12,6.26-23.9,11.63-50.23,17.5Z"/><path class="cls-2" d="M110,215.07c25.54-3.63,37.32-11.23,48-21.25a74.1,74.1,0,0,0-24-22l4.18-5.62A84.38,84.38,0,0,1,167,181.6c6.94-12.33,9-21.91,10.57-31.38H144.6c-10.24,15.85-20.37,23.23-33.58,30.28l-4.52-5.95c13.44-8.59,21.58-20.48,26.21-36.44a49.4,49.4,0,0,0,2.2-11.35L150.77,131c.66.22,2.31.66,2.31,1.32,0,.33-1.21,1.76-1.32,2.2-1.21,3.31-2.31,6.39-3.42,8.81h22.58c2.09,0,16.84-.33,18.61-.55l6.27,5.4c-4.29,16.18-7.37,27.74-15.52,39.86-18.5,27.41-49.33,32-67.17,34.35Z"/><path class="cls-2" d="M110,215.07c25.54-3.63,37.32-11.23,48-21.25a74.1,74.1,0,0,0-24-22l4.18-5.62A84.38,84.38,0,0,1,167,181.6c6.94-12.33,9-21.91,10.57-31.38H144.6c-10.24,15.85-20.37,23.23-33.58,30.28l-4.52-5.95c13.44-8.59,21.58-20.48,26.21-36.44a49.4,49.4,0,0,0,2.2-11.35L150.77,131c.66.22,2.31.66,2.31,1.32,0,.33-1.21,1.76-1.32,2.2-1.21,3.31-2.31,6.39-3.42,8.81h22.58c2.09,0,16.84-.33,18.61-.55l6.27,5.4c-4.29,16.18-7.37,27.74-15.52,39.86-18.5,27.41-49.33,32-67.17,34.35Z"/><path class="cls-2" d="M215.62,137.05c0-2.52-.1-5.75-.2-8.27l13.62.81c1.31.1,1.81.2,1.81.81,0,.4-.71,2.11-.71,2.52V166.2c0,5,.21,12.51.31,17.15h-15c0-.91.2-12.1.2-17.25Zm13.11,72.32c9.28-1.91,24.51-5.14,30-23.7,2.42-8.37,2.52-19.37,2.52-38.73,0-5.45-.1-13.42-.6-18.56l14,.91c.5,0,1.61.1,1.61.7,0,.41-.5,2.42-.5,2.93v29.25c0,37.12-11.6,47.91-44.08,53.56Z"/><path class="cls-2" d="M215.62,137.05c0-2.52-.1-5.75-.2-8.27l13.62.81c1.31.1,1.81.2,1.81.81,0,.4-.71,2.11-.71,2.52V166.2c0,5,.21,12.51.31,17.15h-15c0-.91.2-12.1.2-17.25Zm13.11,72.32c9.28-1.91,24.51-5.14,30-23.7,2.42-8.37,2.52-19.37,2.52-38.73,0-5.45-.1-13.42-.6-18.56l14,.91c.5,0,1.61.1,1.61.7,0,.41-.5,2.42-.5,2.93v29.25c0,37.12-11.6,47.91-44.08,53.56Z"/><path class="cls-2" d="M376.37,136.13c-.59,1-3.63,6.21-4.31,7.35a114.44,114.44,0,0,1-23.72,26.59l-5.2-4.76c11.37-13.24,14.9-27.52,14.9-27.93,0-.21-.59-.21-.88-.21l-45.19.1c-3.14,0-14.32.21-17.26.42v-7.25c3.14.21,14.22.31,17.26.31l45.38-.1a112.25,112.25,0,0,0,13.14-.72Zm-52.15,11.28,13.43.62c.59.11,2.06.11,2.06.73s-.39,3-.39,3.51v5.59c0,32-14.81,43.24-40.59,49.76l-2.35-6.21c7.06-1.75,27.84-6.82,27.84-38.58Z"/><path class="cls-2" d="M376.37,136.13c-.59,1-3.63,6.21-4.31,7.35a114.44,114.44,0,0,1-23.72,26.59l-5.2-4.76c11.37-13.24,14.9-27.52,14.9-27.93,0-.21-.59-.21-.88-.21l-45.19.1c-3.14,0-14.32.21-17.26.42v-7.25c3.14.21,14.22.31,17.26.31l45.38-.1a112.25,112.25,0,0,0,13.14-.72Zm-52.15,11.28,13.43.62c.59.11,2.06.11,2.06.73s-.39,3-.39,3.51v5.59c0,32-14.81,43.24-40.59,49.76l-2.35-6.21c7.06-1.75,27.84-6.82,27.84-38.58Z"/><path class="cls-2" d="M470.07,151.69c.21,0,.32.32.32.53,0,1-.64,1.38-2.12,2.44a128.31,128.31,0,0,1-9.44,10.61h11.45a88.16,88.16,0,0,0,.64,11.56,83.22,83.22,0,0,0,10.82-13.9L490,172.8c.32.31-.43,1.59-1.91,2A123.07,123.07,0,0,1,472.19,185c4.14,20.36,14,30.23,17.5,33.83l-5.09,4.56c-8.38-6.26-25.24-20.47-28.1-55.78l-2.66,2.65v53.13H440.27V182.13c-2.44,2-3.82,3-5.83,4.45l-4.14-4.35c-.74,34.36-2.86,40.3-15.8,40.3H403.89l-2.12-6.78a25.87,25.87,0,0,0,6.79.95c5.09,0,5.73-2.23,6.47-5.73.85-4.56,2.23-22.58,2.12-41.36h-5.94c-.74,12.2-2.23,35-19.41,52.82l-4.56-3.93c6.58-10.18,10.72-21.42,10.72-52.17V148.62h-7.85v-5.84h15.06V130.91c0-2,0-4.78-.11-6.79l14.11.1a1.22,1.22,0,0,1,.53,1.07,14.07,14.07,0,0,1-.53,2.33v15.16h14v5.84H411.53v15.16h19.2c0,.11-.32,16.12-.32,17.5,11-10.5,22.37-28.1,25.13-36.06Zm18.66-13.78v5.83H449c-7.64,11.66-12.73,16.75-16.23,20L427,160.71c8.38-11.35,14.43-26.2,16-38.18l16,3.6c.21.11.32.53.32.85,0,1-1.06,1.7-1.59,2-2,3.81-3.29,6-5.09,8.91Z"/><path class="cls-2" d="M470.07,151.69c.21,0,.32.32.32.53,0,1-.64,1.38-2.12,2.44a128.31,128.31,0,0,1-9.44,10.61h11.45a88.16,88.16,0,0,0,.64,11.56,83.22,83.22,0,0,0,10.82-13.9L490,172.8c.32.31-.43,1.59-1.91,2A123.07,123.07,0,0,1,472.19,185c4.14,20.36,14,30.23,17.5,33.83l-5.09,4.56c-8.38-6.26-25.24-20.47-28.1-55.78l-2.66,2.65v53.13H440.27V182.13c-2.44,2-3.82,3-5.83,4.45l-4.14-4.35c-.74,34.36-2.86,40.3-15.8,40.3H403.89l-2.12-6.78a25.87,25.87,0,0,0,6.79.95c5.09,0,5.73-2.23,6.47-5.73.85-4.56,2.23-22.58,2.12-41.36h-5.94c-.74,12.2-2.23,35-19.41,52.82l-4.56-3.93c6.58-10.18,10.72-21.42,10.72-52.17V148.62h-7.85v-5.84h15.06V130.91c0-2,0-4.78-.11-6.79l14.11.1a1.22,1.22,0,0,1,.53,1.07,14.07,14.07,0,0,1-.53,2.33v15.16h14v5.84H411.53v15.16h19.2c0,.11-.32,16.12-.32,17.5,11-10.5,22.37-28.1,25.13-36.06Zm18.66-13.78v5.83H449c-7.64,11.66-12.73,16.75-16.23,20L427,160.71c8.38-11.35,14.43-26.2,16-38.18l16,3.6c.21.11.32.53.32.85,0,1-1.06,1.7-1.59,2-2,3.81-3.29,6-5.09,8.91Z"/><path class="cls-2" d="M501.38,196.24c20.82-18.65,29.88-38.83,32-47.89l15.71,7.15c.39.13.39.51.39,1,0,1-.9,1.79-1.66,2.43a118.28,118.28,0,0,1-11.5,15.45v69.35h-16.6V191.26a108.36,108.36,0,0,1-12.52,9.58Zm44.7-66.8c.25.13.25.52.25.9,0,1-.63,1.53-2.3,2.68a143.55,143.55,0,0,1-35.88,32.31l-5.75-4.47c11-9.19,23.63-26.56,27.33-37.93Zm55,100.39c0,8.94-2,13.28-15.46,13.28H564l-2.3-8a86.23,86.23,0,0,0,14.82,1.4c6.76,0,7.28-2.3,7.28-7.66V175.3H543.53v-7h79.05v7H601.13Zm16-91.7H549.91V131h67.18Z"/><path class="cls-2" d="M501.38,196.24c20.82-18.65,29.88-38.83,32-47.89l15.71,7.15c.39.13.39.51.39,1,0,1-.9,1.79-1.66,2.43a118.28,118.28,0,0,1-11.5,15.45v69.35h-16.6V191.26a108.36,108.36,0,0,1-12.52,9.58Zm44.7-66.8c.25.13.25.52.25.9,0,1-.63,1.53-2.3,2.68a143.55,143.55,0,0,1-35.88,32.31l-5.75-4.47c11-9.19,23.63-26.56,27.33-37.93Zm55,100.39c0,8.94-2,13.28-15.46,13.28H564l-2.3-8a86.23,86.23,0,0,0,14.82,1.4c6.76,0,7.28-2.3,7.28-7.66V175.3H543.53v-7h79.05v7H601.13Zm16-91.7H549.91V131h67.18Z"/><path class="cls-8" d="M269.52,249.1a1.73,1.73,0,0,1,1.84.18c.58.54.33,1.12-.14,1.6a7.64,7.64,0,0,1-3.66,1.82c-.43.11-1,0-1.29.49a2.83,2.83,0,0,0,.3,3.24,3.19,3.19,0,0,0,3.21,1,16.52,16.52,0,0,0,5.64-2,42.88,42.88,0,0,0,8-6,38.4,38.4,0,0,1,6.74-5.29c3-1.72,6.28-2.93,10.16-2.39,4.2.59,7.55,3.4,7.27,6.26-.49,4.91-3.83,8.35-8.9,10.83a6.74,6.74,0,0,1-4.06.5,2.78,2.78,0,0,1-2.29-1.61c-.85-2,.53-4.49,2.92-5.38,1.39-.51,3-.32,3.46.54.58,1.07.11,2-.9,2.81A1.67,1.67,0,0,1,296,256a1.15,1.15,0,0,1-.6-1.57,10.51,10.51,0,0,1,.87-1.33,3.63,3.63,0,0,0-2,1c-1.16,1.09-1.47,3-.63,3.9s2.73,1,4.49.17c4.38-2.11,7.43-5,8.25-9.23a3.94,3.94,0,0,0-.84-3.63c-1.78-1.95-5.76-3.11-8.7-2.59a18.6,18.6,0,0,0-8.59,4c-2.72,2.22-5.28,4.56-8,6.74a22,22,0,0,1-9.48,4.69c-3.43.69-5.79-.81-5.69-3.65a14.45,14.45,0,0,1,.24-1.68,6.2,6.2,0,0,1-2.37-2.23c-.09,0-.15,0-.17,0-.16.19-.31.37-.45.57-6.2,9.34-16.22,14.55-28.68,17a16.46,16.46,0,0,1-11.95-1.92c-3.28-2-4.66-4.78-4.43-8.06.08-1.07-.09-1.75-1.62-2a7.41,7.41,0,0,1-3.44-1.86,2.17,2.17,0,0,1-1-2.06c.09-.47.15-.92.87-1a1,1,0,0,1,1.1.67,7.43,7.43,0,0,0,4.37,3.73,32.1,32.1,0,0,1,1.4-2.89A19.12,19.12,0,0,1,231,243.61c3.8-1,7.21,1.18,6.65,4.07a5.72,5.72,0,0,1-1.87,3c-4.24,4-9.69,6-16.18,6.13-1.07,0-1.38.26-1.43,1A7.69,7.69,0,0,0,220.2,264c3.42,3.55,8.14,4.33,13.26,3.45A44.22,44.22,0,0,0,255.94,257c3.4-3,6.41-6.38,7.1-10.67a7.26,7.26,0,0,1,.95-2,1,1,0,0,1,1.1-.65c.7.14.54.64.49,1a12,12,0,0,1-1.39,3.46c-.73,1.5-.18,2.84,1.57,3.72A9.14,9.14,0,0,1,269.52,249.1Zm-44.29,6.26c4.2-1.06,7.86-2.81,10.41-5.8.88-1,1.46-2.16.9-3.43-.72-1.66-2.84-2.39-5.27-1.75A18.58,18.58,0,0,0,219.86,253a4.87,4.87,0,0,0-1.07,2.88A18,18,0,0,0,225.23,255.36Zm42-3.49c1.66-.31,2.78-.86,3.37-2A4.37,4.37,0,0,0,267.22,251.87Z"/><path class="cls-8" d="M409.76,251.9a1.1,1.1,0,0,1,1.15-.61c.6.08.73.46.8.9a2,2,0,0,1-.6,1.77,6.77,6.77,0,0,1-3.44,2.09c-2,.38-2.06,1.27-2,2.63.13,6.63-6.68,10.33-13.59,9.77A45,45,0,0,1,365.4,257a38.54,38.54,0,0,1-5.41-6.57,4.56,4.56,0,0,1-2.47,2.32c.06.25.09.42.14.59,1,3.6-1.65,5.65-6.06,4.68a21.14,21.14,0,0,1-6.58-2.9c-3.72-2.31-6.54-5.33-9.84-8a22,22,0,0,0-7-3.93,11,11,0,0,0-9.37.88,4.27,4.27,0,0,0-2.41,3.11c-.45,4.19,4.15,9.89,9.12,11.23,1.22.33,2.6.53,3.58-.41s.64-1.87.23-2.83a3.53,3.53,0,0,0-2.88-2.13,10.72,10.72,0,0,1,1,1.38,1.16,1.16,0,0,1-.4,1.38,1.49,1.49,0,0,1-1.4.23,2.54,2.54,0,0,1-1.74-2.81c.27-.83,1.62-1.38,2.9-1.07a4.48,4.48,0,0,1,3.64,3.08c.33,1.26.59,2.69-1,3.62s-3.5.66-5.26.06l-.15-.07c-4.26-2.13-7.4-5-8.52-9-.65-2.32-.39-4.5,2.09-6.16,3.5-2.34,7.3-2.61,11.44-1.19s7.18,4.12,10.14,6.77a51.62,51.62,0,0,0,6.62,5.2,18.8,18.8,0,0,0,7.26,3,3.12,3.12,0,0,0,3.72-2.07c.46-1.53-.07-2.3-1.93-2.8a7.53,7.53,0,0,1-2.75-1.26c-.71-.54-1.43-1.19-.72-2s1.69-.33,2.54,0c1.39.55,2.16,1.65,3.15,2.51,1.7-1,2.24-2.24,1.57-3.65a18.1,18.1,0,0,1-1-2.14c-.22-.78-1.15-2,0-2.29,1.43-.39,1.38,1.1,1.83,1.83.79,1.25.52,2.72,1.29,4,4.62,7.77,12.18,12.92,21.93,16.14a28.78,28.78,0,0,0,12,1.81c4.43-.43,8.23-2.82,9.43-6.21a5.56,5.56,0,0,0,.13-4.57,25,25,0,0,1-14.43-3.89,10.83,10.83,0,0,1-4.42-4.51c-.75-1.72-.09-3.39,1.77-4.39a6.52,6.52,0,0,1,4.68-.4,18.58,18.58,0,0,1,9,5.19,17.76,17.76,0,0,1,4.41,6.93C408.13,254.35,408.14,254.35,409.76,251.9ZM394,245.15a9.23,9.23,0,0,0-4.12-1c-2.7,0-4.38,1.92-3.51,4a8.71,8.71,0,0,0,3.22,3.57,23,23,0,0,0,14.73,4.19C402.52,251.08,399.16,247.54,394,245.15Zm-41.61,4.52c.12,1.17,1.27,1.9,3.23,2A5.8,5.8,0,0,0,352.35,249.67Z"/><path class="cls-8" d="M313.05,245.9c-1.36.32-1.07,1.19-1.53,1.79-.85-.38-.27-1.57-1.57-1.71a2.3,2.3,0,0,0-.07,2c1.48,6-1.39,10.93-6.09,15.32-1.71,1.6-1.86,1.52.19,2.83a13.14,13.14,0,0,1,6.1,9.17c.19,1,.3,2,.45,3h1.69c.32-1.63.54-3.28,1-4.89a12.5,12.5,0,0,1,6.09-7.54c1.24-.72,1.36-1.32.16-2.22-3.93-2.94-5.78-6.83-7-10.89-.4-1.43.16-3,.39-4.56A10.7,10.7,0,0,0,313.05,245.9Z"/><path class="cls-8" d="M363.78,262.34c4.53,4.34,10.25,7.07,16.73,8.79,4.42,1.18,8.95,2,13.66,1.25a9.92,9.92,0,0,0,6.93-3.91c-.72-.05-.84.37-1.11.6a11.49,11.49,0,0,1-7.69,2.86c-11.19.12-20.4-3.37-27.84-10a3,3,0,0,1-1-1.67c-.12-.58-.07-1.28-.85-1.77-1.2.62-.67,1.48-.26,2.11,1,1.52.4,2.84-.74,4a5,5,0,0,1-4.91,1c-4.44-1.1-8-3.42-11.45-5.76-4.66-3.14-8.56-6.91-13-10.22a38.36,38.36,0,0,0-5-3.39,6.47,6.47,0,0,0-4.59-.82c-1.34.31-2,1.05-1.92,2.21a3.63,3.63,0,0,1,3.33-1.51,8.21,8.21,0,0,1,3.72,1.44,116.15,116.15,0,0,1,11.44,8.78,64.58,64.58,0,0,0,12.19,8.06,20.1,20.1,0,0,0,5.16,1.88c3.37.66,5.63-.33,6.77-3C363.45,263,363.59,262.72,363.78,262.34Z"/><path class="cls-8" d="M221.71,268.42a9.64,9.64,0,0,0,6.92,3.95c5.71.84,11.08-.35,16.32-2a35.79,35.79,0,0,0,14.14-8.05c.66,2,1.67,3.46,4.16,4a8.65,8.65,0,0,0,4.7-.56,46,46,0,0,0,12.35-6.93c4.41-3.21,8.24-6.9,12.76-10a22.62,22.62,0,0,1,3.62-2.19c2.27-1,3.8-.73,5.23,1,.44-1.4-1.08-2.53-3.19-2.34a10.15,10.15,0,0,0-5,2.07c-3.69,2.51-7,5.31-10.4,8.1a61.59,61.59,0,0,1-13.36,8.8,12.47,12.47,0,0,1-5.82,1.52c-2.91-.1-4.94-2.66-3.84-4.84.38-.75,1.08-1.55.08-2.33-.39,0-.64.17-.66.37-.28,2.87-2.78,4.55-5.25,6.15a40.73,40.73,0,0,1-24.08,6.9,11.6,11.6,0,0,1-7.41-2.74C222.66,268.92,222.5,268.48,221.71,268.42Z"/></g></g></svg>