<svg xmlns="http://www.w3.org/2000/svg" xmlns:xlink="http://www.w3.org/1999/xlink" viewBox="0 0 413.71 76.81"><defs><style>.cls-1{isolation:isolate;}.cls-2{fill:url(#linear-gradient);}.cls-3{mix-blend-mode:multiply;}.cls-4{fill:url(#linear-gradient-2);}.cls-5{fill:url(#linear-gradient-3);}.cls-6{fill:url(#linear-gradient-4);}.cls-7{fill:url(#linear-gradient-5);}.cls-8{fill:url(#linear-gradient-6);}.cls-9{fill-rule:evenodd;fill:url(#linear-gradient-7);}.cls-10{fill:url(#linear-gradient-8);}.cls-11{fill:url(#linear-gradient-9);}.cls-12{fill:url(#linear-gradient-10);}.cls-13{fill:url(#linear-gradient-11);}.cls-14{fill:url(#linear-gradient-12);}.cls-15{fill:url(#linear-gradient-13);}.cls-16{fill:url(#linear-gradient-14);}.cls-17{fill:url(#linear-gradient-15);}.cls-18{fill:url(#linear-gradient-16);}.cls-19{fill:url(#linear-gradient-17);}.cls-20{fill:url(#linear-gradient-18);}.cls-21{fill:url(#linear-gradient-19);}.cls-22{fill:#fe0;}.cls-23{fill:#e6e0d5;mix-blend-mode:color-burn;}.cls-24{fill:#ffed85;}</style><linearGradient id="linear-gradient" x1="303.49" y1="50.24" x2="410.18" y2="50.24" gradientUnits="userSpaceOnUse"><stop offset="0.02" stop-color="#8c0001"/><stop offset="0.14" stop-color="#e72b32"/><stop offset="0.28" stop-color="#ae0101"/><stop offset="0.37" stop-color="#b10101"/><stop offset="0.49" stop-color="#c00101"/><stop offset="0.72" stop-color="#ff404b"/><stop offset="0.74" stop-color="#f93842"/><stop offset="0.78" stop-color="#ea242b"/><stop offset="0.81" stop-color="#d90d11"/><stop offset="0.81" stop-color="#d80d11"/><stop offset="0.89" stop-color="#a60405"/><stop offset="0.92" stop-color="#930100"/><stop offset="1" stop-color="#d35b60"/></linearGradient><linearGradient id="linear-gradient-2" x1="309.57" y1="50.24" x2="394.32" y2="50.24" gradientUnits="userSpaceOnUse"><stop offset="0" stop-color="#d35b60"/><stop offset="0.08" stop-color="#930100"/><stop offset="0.11" stop-color="#a60405"/><stop offset="0.19" stop-color="#d80d11"/><stop offset="0.19" stop-color="#d90d11"/><stop offset="0.22" stop-color="#ea242b"/><stop offset="0.26" stop-color="#f93842"/><stop offset="0.28" stop-color="#ff404b"/><stop offset="0.51" stop-color="#c00101"/><stop offset="0.63" stop-color="#b10101"/><stop offset="0.72" stop-color="#ae0101"/><stop offset="0.86" stop-color="#e72b32"/><stop offset="0.98" stop-color="#8c0001"/></linearGradient><linearGradient id="linear-gradient-3" x1="303.47" y1="58.42" x2="344.52" y2="58.42" gradientUnits="userSpaceOnUse"><stop offset="0" stop-color="#800a15"/><stop offset="0.04" stop-color="#850b15"/><stop offset="0.09" stop-color="#940e16"/><stop offset="0.14" stop-color="#ac1417"/><stop offset="0.19" stop-color="#ce1b19"/><stop offset="0.2" stop-color="#d41c19"/><stop offset="0.36" stop-color="#ff2605"/><stop offset="0.44" stop-color="#ff2105"/><stop offset="0.51" stop-color="#e12303"/><stop offset="0.58" stop-color="#be2600"/><stop offset="0.8" stop-color="#ff401a"/><stop offset="0.84" stop-color="#e73119"/><stop offset="0.91" stop-color="#c61c17"/><stop offset="0.96" stop-color="#b10f15"/><stop offset="1" stop-color="#aa0a15"/></linearGradient><linearGradient id="linear-gradient-4" x1="1.99" y1="50.04" x2="108.68" y2="50.04" xlink:href="#linear-gradient-2"/><linearGradient id="linear-gradient-5" x1="17.85" y1="50.04" x2="102.6" y2="50.04" xlink:href="#linear-gradient-2"/><linearGradient id="linear-gradient-6" x1="67.93" y1="58.26" x2="108.7" y2="58.26" xlink:href="#linear-gradient-3"/><linearGradient id="linear-gradient-7" x1="67.8" y1="32.78" x2="344.53" y2="32.78" xlink:href="#linear-gradient-2"/><linearGradient id="linear-gradient-8" x1="74.43" y1="50.55" x2="337.84" y2="50.55" xlink:href="#linear-gradient-2"/><linearGradient id="linear-gradient-9" x1="73.98" y1="7.21" x2="338.34" y2="7.21" xlink:href="#linear-gradient-2"/><linearGradient id="linear-gradient-10" x1="303.48" y1="68.11" x2="344.52" y2="68.11" gradientUnits="userSpaceOnUse"><stop offset="0" stop-color="#b2691f"/><stop offset="0.12" stop-color="#ecb04a"/><stop offset="0.21" stop-color="#ffb"/><stop offset="0.29" stop-color="#f9eb98"/><stop offset="0.4" stop-color="#dbae59"/><stop offset="0.48" stop-color="#f9eb98"/><stop offset="0.64" stop-color="#e09e3b"/><stop offset="0.73" stop-color="#dbae59"/><stop offset="0.82" stop-color="#ca8832"/><stop offset="0.92" stop-color="#ca8832"/><stop offset="1" stop-color="#b0681f"/></linearGradient><linearGradient id="linear-gradient-11" x1="344.52" y1="58.44" x2="344.53" y2="58.44" xlink:href="#linear-gradient-10"/><linearGradient id="linear-gradient-12" x1="68.15" y1="61.01" x2="344.53" y2="61.01" xlink:href="#linear-gradient-10"/><linearGradient id="linear-gradient-13" x1="303.5" y1="62.31" x2="303.54" y2="62.31" xlink:href="#linear-gradient-10"/><linearGradient id="linear-gradient-14" x1="383.73" y1="39.04" x2="410.18" y2="39.04" xlink:href="#linear-gradient-10"/><linearGradient id="linear-gradient-15" x1="303.5" y1="71.07" x2="413.71" y2="71.07" xlink:href="#linear-gradient-10"/><linearGradient id="linear-gradient-16" x1="108.65" y1="62.1" x2="108.69" y2="62.1" xlink:href="#linear-gradient-10"/><linearGradient id="linear-gradient-17" x1="1.99" y1="38.84" x2="28.45" y2="38.84" xlink:href="#linear-gradient-10"/><linearGradient id="linear-gradient-18" x1="0" y1="70.87" x2="108.69" y2="70.87" xlink:href="#linear-gradient-10"/><linearGradient id="linear-gradient-19" x1="67.94" y1="67.94" x2="108.71" y2="67.94" xlink:href="#linear-gradient-10"/></defs><g class="cls-1"><g id="レイヤー_2" data-name="レイヤー 2"><g id="レイヤー_1-2" data-name="レイヤー 1"><path class="cls-2" d="M397.16,26.45H315.69c-6.71,0-12.16,6.61-12.16,14.75V59.28c0,2.49-.09,5.1,0,7C303.8,71.85,311,74,315.69,74h94.49L383.72,50.24l26.46-23.79Z"/><g class="cls-3"><path class="cls-4" d="M394.32,68H315.69a10.5,10.5,0,0,1-5.79-1.64l-.3-.25v-.39c0-1,0-2.42,0-3.76,0-.87,0-1.76,0-2.63V41.2c0-5.18,3.15-8.67,6.08-8.67h78.63L374.63,50.24Zm-83-2.77a9.9,9.9,0,0,0,4.37,1h74.1L372,50.24l17.76-16h-74.1c-1.81,0-4.34,2.64-4.34,6.93V59.28c0,.88,0,1.78,0,2.65C311.31,63.07,311.3,64.23,311.32,65.18Z"/></g><path class="cls-5" d="M303.79,67.57s-.83-.32.18-20.81c0-.9,41.9,4.87,40.51,15.56-1.2,9.3-9.76,8.62-15,6.61a111.49,111.49,0,0,1-11.13-4.23c-5.57-2.64-11.24-1.66-14.52,2.87"/><path class="cls-6" d="M15,26.25H96.48c6.72,0,12.16,6.6,12.16,14.75V59.07c0,2.5.09,5.1,0,7-.27,5.57-7.5,7.75-12.16,7.75H2L28.45,50,2,26.25Z"/><g class="cls-3"><path class="cls-7" d="M96.48,67.74H17.85L37.54,50,17.85,32.33H96.48c2.94,0,6.08,3.48,6.08,8.67V59.07c0,.88,0,1.77,0,2.64,0,1.33,0,2.72,0,3.76v.39l-.3.25A10.59,10.59,0,0,1,96.48,67.74ZM22.38,66h74.1a9.74,9.74,0,0,0,4.37-1c0-.94,0-2.11,0-3.24,0-.88,0-1.77,0-2.66V41c0-4.29-2.53-6.93-4.34-6.93H22.38L40.14,50Z"/></g><path class="cls-8" d="M108.38,67.37s.83-.32-.18-20.81c0-.9-41.62,5.12-40.23,15.81,1.2,9.29,9.48,8.37,14.77,6.35A110.55,110.55,0,0,0,93.86,64.5c5.57-2.64,11.25-1.66,14.52,2.87"/><path class="cls-9" d="M344.52,60.27V10.57C344.52,4.76,336.23,0,326.11,0H86.21C76.08,0,67.8,4.76,67.8,10.57v49.7c0,1.43.1,4,1,5.3,2.78-3.82,9.77-7.77,17.4-7.77h26.57v.07l93.38-.07,93.37.07V57.8h26.58c7.62,0,14.9,3.18,17.69,7C344.7,63.55,344.52,61.7,344.52,60.27Z"/><g class="cls-3"><path class="cls-10" d="M292.58,48.59l-.86.07-85.56-.06-85.56.06v-.07H86.21a32.39,32.39,0,0,0-11.78,2.3l.64,1.61a30.85,30.85,0,0,1,11.14-2.17h32.66v.07l87.29-.07,86.42.07.87-.07h32.66a35.21,35.21,0,0,1,11.18,1.83l.55-1.64a36.84,36.84,0,0,0-11.73-1.93Z"/><path class="cls-11" d="M86.21,6.43h239.9c6.74,0,10.32,2.6,10.68,3.3l1.55-.79c-.76-1.48-5.13-4.25-12.23-4.25H86.21C79.1,4.69,74.73,7.46,74,8.94l1.54.79C75.88,9,79.46,6.43,86.21,6.43Z"/></g><path class="cls-12" d="M329.44,68.93a111.72,111.72,0,0,1-11.12-4.23c-5.57-2.64-11.25-1.66-14.52,2.87,0,0-.26-.1-.31-3.79-.07,6.42.31,6.57.31,6.57,3.27-4.53,8.95-5.51,14.52-2.87a111.72,111.72,0,0,0,11.12,4.23c5.28,2,13.84,2.69,15.05-6.61a4.09,4.09,0,0,0-.17-1.77C342.64,71.56,334.52,70.87,329.44,68.93Z"/><path class="cls-13" d="M344.52,57.46v2C344.55,58.75,344.52,58.07,344.52,57.46Z"/><path class="cls-14" d="M344.52,60.24v-.81A4.78,4.78,0,0,1,343.8,62c-2.79-3.82-10.07-7-17.69-7H299.53v.08L206.16,55l-93.38.07V55H86.21c-7.63,0-15.28,4.56-18.06,8.38L68.36,67c2.78-3.81,10.22-9.26,17.85-9.26h26.57v.08l93.38-.07,93.37.07v-.08h26.58c7.62,0,14.9,3.19,17.69,7C344.7,63.53,344.52,61.67,344.52,60.24Z"/><path class="cls-15" d="M303.54,59.28c0,2.1-.07,4.28,0,6.06,0-1.07,0-2.19,0-3.28Z"/><polygon class="cls-16" points="410.18 26.45 383.73 50.24 385.28 51.63 410.19 29.23 410.18 26.45"/><path class="cls-17" d="M378.57,74H315.7c-4.66,0-11.89-2.18-12.16-7.75,0-.29,0-.61,0-.94,0,1.36,0,2.65,0,3.72.27,5.57,7.5,7.75,12.16,7.75h98L410.18,74H378.57Z"/><path class="cls-18" d="M108.68,65.13c0-1.77,0-3.95,0-6.06v2.78C108.65,63,108.67,64.06,108.68,65.13Z"/><polygon class="cls-19" points="1.99 26.25 2 29.03 26.91 51.43 28.45 50.04 1.99 26.25"/><path class="cls-20" d="M108.65,66.08c-.27,5.57-7.51,7.75-12.16,7.75H2L0,76.61H96.49c4.65,0,11.89-2.18,12.16-7.75,0-1.07,0-2.36,0-3.73C108.67,65.46,108.66,65.78,108.65,66.08Z"/><path class="cls-21" d="M108.39,67.37c-3.28-4.53-9-5.51-14.52-2.87a110.33,110.33,0,0,1-11.13,4.22c-5.08,2-12.93,2.87-14.59-5.35A4,4,0,0,0,68,65.15c1.2,9.29,9.48,8.37,14.76,6.35a110.33,110.33,0,0,0,11.13-4.22c5.57-2.64,11.24-1.66,14.52,2.87,0,0,.38-.16.31-6.58C108.65,67.26,108.39,67.37,108.39,67.37Z"/><path class="cls-22" d="M344.52,60.27v2C344.55,61.55,344.52,60.87,344.52,60.27Z"/><path class="cls-23" d="M383.72,50.24l26.46-23.79H344.52V10.57C344.52,4.76,336.23,0,326.11,0H86.21C76.08,0,67.8,4.76,67.8,10.57V26.25H2V29L26.91,51.42,2,73.83,0,76.61H96.49c4.65,0,11.89-2.18,12.16-7.75,0-.58,0-1.24,0-1.93,0-.86,0-2,0-3.36,0,.31,0,.58,0,.84,0-.17,0-.33,0-.5,0-1.38,0-3.31,0-6v-.1h4.14v.07l93.38-.07,93.37.07v0h0V57.8h4v.31c-.06,2.68-.07,4.61,0,6s0,2.24,0,3,0,1.34,0,1.92c.27,5.57,7.5,7.75,12.16,7.75h98L410.18,74ZM96.49,73.83h0c3.66,0,8.92-1.35,11.13-4.64h0C105.4,72.48,100.15,73.83,96.49,73.83Z"/><polygon class="cls-23" points="385.28 51.63 410.19 29.23 410.18 26.45 383.73 50.24 385.28 51.63"/><path class="cls-24" d="M81.12,25.1a23.14,23.14,0,0,1,6,1.79l-1.55,2.5a15.17,15.17,0,0,0-5.26-3.12Zm.29,8.35c9-.37,12.63-6.35,14.17-8.85l1.06.64C93.21,32.85,88.07,35.16,83,36.42c-.06,0-.39.19-.47.19s-.11-.11-.21-.39ZM83.8,20a18.19,18.19,0,0,1,5.31,2.46l-1.7,2.35A15.56,15.56,0,0,0,82.86,21Z"/><path class="cls-24" d="M105.34,26.34c0-.13-.44-2.29-.48-2.42l2.17-.14c.16,0,.23,0,.23,0s0,.19,0,.23a2.88,2.88,0,0,0,0,.33l.47,2.6,4-.38c.19,0,.93-.1,1.94-.26l.87.88c-.17.25-.29.46-.38.62a11,11,0,0,1-4,4.11l-.8-.77a8,8,0,0,0,2.22-3.44c0-.08,0-.1-.24-.08l-3.35.31,1.14,6.29c.27,1.46.33,1.79.45,2.33l-2.35.41c-.08-.64-.27-1.79-.31-2l-1.19-6.77-2.19.21-2.46.27-.06-1.1c.79,0,1.61-.08,2.4-.16l2.14-.21Z"/><path class="cls-24" d="M125,27A12.42,12.42,0,0,1,123.67,33a9.86,9.86,0,0,1-4.6,3.67l-.72-1c3.15-2,4-4.68,4-8.66V22.83c0-.27,0-2.13,0-2.33l2.56.18c.12,0,.33.05.33.23s-.11.41-.13.5Zm1.86-4.39c0-.31,0-1.65-.06-2.12l2.66.2c.1,0,.33,0,.33.13s-.13.49-.13.59V32.54a9.43,9.43,0,0,0,5.14-5.09l1,.72A13.76,13.76,0,0,1,130,35.41c-.26.13-1.52.76-1.81.89l-1.42-1.49a24.89,24.89,0,0,0,.12-3.07Z"/><path class="cls-24" d="M143.39,33.21c7-1.53,8.91-5.64,9.57-7.06l1.13.64a14.32,14.32,0,0,1-2.82,4.81,14,14,0,0,1-5.66,3.81c-.49.17-2.94.89-3.48,1.09l-1.65-1.64c0-.52.08-1,.08-1.51V22.66c0-.8,0-1.52-.06-2.26l2.52.18c.47,0,.55.1.55.23a5.51,5.51,0,0,1-.18.9Z"/><path class="cls-24" d="M166.24,25.43c-.54,7-3.24,9.49-8.11,11.32l-.66-1.19c5.53-2.07,5.76-8,5.84-10.13h-1.94l-2.93,0V24.13c.15,0,2.58.06,2.91.06h2c0-.72,0-3.46,0-4.19l2.85.19c.25,0,.29.08.29.14a3.4,3.4,0,0,1-.09.46c-.06.43,0,2.86-.06,3.4h4c1.28,0,2.06,0,3.34-.08,0,.76-.08,4.47-.14,5.32-.54,7.24-2.19,7.24-3.2,7.24a11.8,11.8,0,0,1-4.19-1.42l.36-1.3a6.59,6.59,0,0,0,2.49.86c.54,0,.79-.14,1.05-1.15a36.47,36.47,0,0,0,.77-8.23Z"/><path class="cls-24" d="M178.45,35c4.27-1,9.53-3.34,11-12.21l-7.75,0c-1.18,0-2,0-3.37.08V21.53c1.39.06,3,0,3.33,0l7.69,0c.51,0,1.83,0,2.25,0l1.13.84c-.12.46-.68,2.67-.84,3.16-2.6,8.09-8.73,9.76-12.75,10.67Z"/><path class="cls-24" d="M203.47,26.17h-1.76c-.25,0-1.4,0-2.62.06V25.14c.54,0,1.78,0,2.62,0h5.82c1.55,0,2.1,0,2.64,0v1.09c-.85-.06-2.21-.06-2.66-.06H205.8v8.35h2.95c.37,0,1.63,0,2.53-.06v1.08c-.74,0-1.65,0-2.51,0h-8.28c-.84,0-1.33,0-2.47,0V34.46c.62,0,1.22.06,2.47.06h3Z"/><path class="cls-24" d="M218.62,23.53V20.72c0-.12,0-.92-.08-1.34l2.52,0c.06,0,.16.11.16.25a1.12,1.12,0,0,1-.1.33v3.53h1.4v1.09h-1.4v4.23l1.3-.57.19,1.07a16.05,16.05,0,0,1-1.49.86v7.33h-2.5v-6c-.45.21-2.33,1.18-2.72,1.37,0,.08-.08.28-.23.28s-.12,0-.16-.06l-.79-2a28.83,28.83,0,0,0,3.9-1.22V24.62h-1.25a9.23,9.23,0,0,1-1.76,3.94l-1-.47a19.16,19.16,0,0,0,1.12-6.42,10.51,10.51,0,0,0-.09-1.25l2.23.35c.06,0,.13.12.13.24s0,.07-.13.27c-.16,1.2-.25,1.76-.33,2.25ZM233,29.8v1.07h-2v4.65c0,1.75-.8,1.91-2.18,1.91H226l-.39-1.21a9.53,9.53,0,0,0,2,.18c.8,0,.8-.22.8-1V30.87h-5.92V29.8h5.92v-.62a5.52,5.52,0,0,0-.1-1.4l2.68,0a.18.18,0,0,1,.14.19,1.53,1.53,0,0,1-.08.35V29.8Zm-.49-7.59V23.3h-3.37v2.87H233v1.07H222.52V26.17h4V23.3h-3.23V22.21h3.23V20.75a10.49,10.49,0,0,0-.08-1.37l2.7,0c.05,0,.13.11.13.21a1.2,1.2,0,0,1-.09.35v2.23ZM223.9,31.1a21.75,21.75,0,0,1,2.85,2.83l-2.39,1.63a13.06,13.06,0,0,0-1.43-3.78Z"/><path class="cls-24" d="M244.3,29c0,1.73-.18,6.25-.93,7.49-.43.7-1.15.86-2.39.86h-2.31l-.47-1.24a10.24,10.24,0,0,0,1.65.17,1.08,1.08,0,0,0,1.17-.72,22.15,22.15,0,0,0,.62-5.49h-2.25c-.24,2-.82,4.52-4.31,7.39l-.87-.67c2.62-3.09,2.64-5.44,2.65-10.12H235.2V20.07h9.1v6.62h-4.76c0,.74,0,1.44,0,2.33Zm-6.56-7.88v4.47h4V21.14Zm10.11-.46a.21.21,0,0,1,.18.23s-.08.29-.1.37V33.47H245.6V21.82c0-.19,0-.83-.08-1.18Zm3.88-1.15c.1,0,.16.2.16.29a2.37,2.37,0,0,1-.06.31V35.27c0,1,0,2.16-2,2.16h-2.74l-.46-1.26a12.67,12.67,0,0,0,1.82.15c.78,0,.88-.06.88-.93V20.64c0-.18,0-1,0-1.15Z"/><path class="cls-24" d="M269.71,37.14A17.84,17.84,0,0,0,268,32.75l.85-.6c-.52-.18-1-.51-2-1.81a13,13,0,0,1-2.74,1.89l-.95-.86A12.15,12.15,0,0,0,266,28.85a16.14,16.14,0,0,1-1.41-6.06h-7.21V25a9.15,9.15,0,0,1-3,7.28l-.88-.75c.76-1.38,1.3-2.68,1.3-6V21.71h9.67c-.06-.61-.18-2-.18-2.28l2.7.1a.18.18,0,0,1,.2.18.57.57,0,0,1-.14.33c0,.91,0,1.22,0,1.67h1.86a7.06,7.06,0,0,0-1.43-1.83l.93-.72a18.32,18.32,0,0,1,2.79,1.44l-1.67,1.11h2.33v1.08h-4.77a14.25,14.25,0,0,0,.5,3.46,9,9,0,0,0,.86-2.76L271,24.54a.13.13,0,0,1,.08.1.51.51,0,0,1-.25.36,16.07,16.07,0,0,1-2.22,3.6c.06.11.76,1.3,1.19,1.3s.72-1.13.81-1.87a6.16,6.16,0,0,0,1.63,1c-.31,1.3-.79,3.26-2.56,3.26a1.87,1.87,0,0,1-.39,0,18.13,18.13,0,0,1,2.91,3.3ZM257,32.54a18.1,18.1,0,0,1-1.11,4.79l-2.33-1a14.76,14.76,0,0,0,2.25-4.17ZM264,24.31v1.08h-6.11V24.31Zm-.11,2.33v3.9h-5.85v-3.9Zm-3.32,5.18a.25.25,0,0,1,.25.23.53.53,0,0,1-.16.29v3.22c0,.7.28.7,1,.7h2.61c.81,0,1.26,0,1.59-2.54a10,10,0,0,0,2.42.89c-.48,2.72-1.9,2.72-2.66,2.72H260c-1.48,0-1.81-.31-1.81-1.92V33.12c0-.24-.06-1.07-.08-1.36Zm-.45-4.1v1.73h1.73V27.72Zm2.14,3.65a32.09,32.09,0,0,1,3,2.31l-2.58,1.51a13,13,0,0,0-1.34-3.29Z"/><path class="cls-24" d="M279.36,22.71V23.8h-6.08V22.71Zm-.47,11.94a15,15,0,0,0,3-3.76c-.31.09-1.78.66-2.11.77-.12.16-.18.22-.28.22a.15.15,0,0,1-.13-.06l-.56-1.65c.25,0,.4-.06,1-.18V21.51H281a11.45,11.45,0,0,0,.48-2.21l2.64.54s0,.1,0,.14-.09.13-.33.27a10.19,10.19,0,0,1-1.16,1.26h2.6v6.6l.62,1c0,.08.08.12.08.19s-.25.12-.37.08a4.94,4.94,0,0,1-.33.51v5.64c0,1,0,1.95-1.83,1.95h-2.6l-.29-1.23a11.25,11.25,0,0,0,1.75.22c.68,0,.7-.2.7-.86V32.55a18.84,18.84,0,0,1-3.4,3.05l-.72-.77v1.92h-3v.77h-2.08V30.94h5.08Zm0-14.65v1.08h-5V20Zm0,5.49v1.07h-5V25.49Zm0,2.74v1.08h-5V28.23Zm-3,3.8v3.63h1.2V32Zm5.9-8H283V22.6h-1.22ZM283,25.14h-1.22v1.53H283Zm0,2.62h-1.22v1.81l1-.24c0-.06.18-.35.22-.39Zm8.32-3.34v1.09h-.93v9.8c0,.93,0,2.16-1.86,2.16h-2.43l-.31-1.21a15.23,15.23,0,0,0,1.63.16c.51,0,.51-.22.51-1V31.14l-1.44.68A21.5,21.5,0,0,0,286,27.1l1-.45a19.22,19.22,0,0,1,1,2V25.51h-2.16V24.42h2.16V20.93a14.34,14.34,0,0,0-.1-1.44l2.51,0s.11.12.11.18a3.12,3.12,0,0,1-.06.37v4.36Z"/><path class="cls-24" d="M303.76,19.49c.8,2.39,3.09,5.28,7.36,7.63l-.66.93a19.87,19.87,0,0,1-8.74-6.42A20.34,20.34,0,0,1,293,28l-.78-.85a16.1,16.1,0,0,0,7.49-7.69Zm6.58,16.44V37h-17.2V35.93h2.68V29.59a11,11,0,0,0-.06-1.34l2.6,0a.22.22,0,0,1,.16.23.74.74,0,0,1-.06.27v7.16h2.27V26.5a11.9,11.9,0,0,0-.06-1.4l2.62,0c.08,0,.16.12.16.2a2.25,2.25,0,0,1-.06.36v4.1h4.76v1.07h-4.76v5.08Z"/><path class="cls-24" d="M322.42,24h3.45v9.57h-9.51V24h3.4V21.38h-7.63V20.29h18.05v1.09h-7.76Zm4.5,11.48V25.32c0-.37,0-.8-.06-1.15l2.37,0c.12,0,.31,0,.31.23a.8.8,0,0,1-.17.41V37.5h-2.45v-.93H315.31v.93h-2.46V25.37c0-.27,0-.95-.06-1.2l2.43,0c.07,0,.29,0,.29.21s0,.2-.2.45V35.49Zm-7.16-7.26V25.08h-1.32v3.15Zm-1.32,1.06v3.23h1.32V29.29Zm5.34-1.06V25.08h-1.36v3.15Zm-1.36,1.06v3.23h1.36V29.29Z"/></g></g></g></svg>