<svg xmlns="http://www.w3.org/2000/svg" viewBox="0 0 123.73 129.44"><defs><style>.cls-1{fill:#9c978f;}</style></defs><g id="レイヤー_2" data-name="レイヤー 2"><g id="レイヤー_1-2" data-name="レイヤー 1"><path class="cls-1" d="M123.45,77.57a.72.72,0,0,0,.12-1C116.4,67.94,107,61.88,97.15,56.75c-5.71-3-10.8-3.91-9.49-14.17.38-3,3.57-6.85,4.94-9.46Q98,22.73,103.52,12.35a1,1,0,0,0,0-.73,3.59,3.59,0,0,0-.46-2.86c-1.38-1.75-3.72-1-5.36.12a1.44,1.44,0,0,0-1.61.06Q85.84,16.18,75.53,23.43c-4.87,3.44-11.92,9.91-18.68,6.29-3.14-1.68-7-7.26-9.48-10C40.82,12.41,34.57,2.86,24.55.63A1.09,1.09,0,0,0,22.81.3l-.06.06a.85.85,0,0,0-.55.56c-5,5.39,1.65,17.91,3.49,23.54,3.41,10.41,11.2,21.32-1.17,30C17.62,59.24,8.3,62.25.8,66.09a.7.7,0,0,0,0,1.26c-2.52,3.54,1.41,6.28,5.07,7.58,5.34,1.9,11.67,2.24,17.28,2.27,8,0,16.4-2.77,23.68,1.5,2.3,5.75.65,15.14.79,20.53.12,4.77.38,9.54.82,14.3.56,6,.92,11.59,5.8,15.6a1.13,1.13,0,0,0,1.5.05c6.27-1.06,6.5-8.38,7.46-13.74,2.26-12.67,4.56-25.34,6.63-38a.27.27,0,0,0,0-.09c14,2.69,28.18,5,42.32,6.83,5.63.75,11.06,1.1,11.56-5.65A1.31,1.31,0,0,0,123.45,77.57Zm-2.45.65c-1.19,6.87-45.63-2.11-51.45-2.7a.76.76,0,0,0-.86.6,1,1,0,0,0-1.17.73c-1.88,7-2.8,14.29-4,21.43-1.28,7.37-1.26,23.65-7.27,29.23a1.33,1.33,0,0,0-.38-.59c-8.18-7.55-5.51-29.85-5.58-39.38,0-3.3,0-6.16-1.19-8.61A1.17,1.17,0,0,0,49,77.18c-4.12-3.4-8.2-3.78-13.51-3.55-5.16.22-10.25,1-15.45.79-2.18-.09-20.46-1.35-17.35-6.91a.83.83,0,0,0,.06-.62A189.72,189.72,0,0,0,27.47,56c3.43-1.87,7.35-3.87,8.32-8.07C37,42.89,33.1,37,31.46,32.59c-1.88-5-11.39-24.71-7.33-30.09,10,3.76,16.8,14.4,23.67,22.13,2.87,3.23,6.2,7.91,10.55,9.24,4.87,1.48,8.29-.75,12.24-3.26,9.29-5.92,18.12-12.74,27.11-19.1C104,16.58,78.19,42.11,84.07,52c2,3.38,7.08,5,10.29,6.64A147.3,147.3,0,0,1,122,77.12,1.32,1.32,0,0,0,121,78.22Z"/><path class="cls-1" d="M59,51a.84.84,0,0,0-.83.33,7,7,0,0,0-7,3.39,8,8,0,0,0,3.53,10.9A8,8,0,0,0,65.2,60.92C66.72,56.51,63.48,51.71,59,51Zm4,9.49a5.43,5.43,0,1,1-9.59-4.95A6.37,6.37,0,0,1,58.88,53C61.89,54,64.38,57.17,63.05,60.44Z"/><path class="cls-1" d="M46.39,36.08a.74.74,0,0,0-.92.24l0,0a3.52,3.52,0,0,0-4.12,2.77,3.59,3.59,0,0,0,2.86,4.31,3.66,3.66,0,0,0,4.5-2.55A4,4,0,0,0,46.39,36.08Zm-1.8,5.6a2,2,0,0,1-1.7-2.2,3,3,0,0,1,2.43-2.38.81.81,0,0,0,.46.54C48,38.68,47.17,42.25,44.59,41.68Z"/><path class="cls-1" d="M38.9,21.68a4.74,4.74,0,0,0-4.14-2.62.58.58,0,0,0-.35-.55,2.05,2.05,0,0,0-2.56.82,3.35,3.35,0,0,0,0,3.33c.88,1.89,3,4.27,5.33,3.43A3.34,3.34,0,0,0,38.9,21.68ZM37.44,24c-.74,1.35-2.26.35-3-.48a6.12,6.12,0,0,1-1-1.55,2.59,2.59,0,0,1-.23-1.67s.07.06.13.06a6.64,6.64,0,0,1,3.31.83A2.2,2.2,0,0,1,37.44,24Z"/><path class="cls-1" d="M39.08,59.81c-.34-.07-.5.29-.41.56-3.15,1.25-3.59,6.87.54,7.12a4,4,0,0,0,4.17-3.3C43.61,61.8,41.11,60.25,39.08,59.81Zm.46,6.11c-2.9.19-1.91-4.12.27-4.67a4,4,0,0,1,2,2.29C42.08,64.81,40.7,65.85,39.54,65.92Z"/><path class="cls-1" d="M25.61,65.57a3.91,3.91,0,0,0-5-1.61.48.48,0,0,0-.29.4A3.88,3.88,0,0,0,19.18,69a3.37,3.37,0,0,0,4.7,1.47A3.53,3.53,0,0,0,25.61,65.57Zm-2.54,3.79c-2.89,1.41-4.58-2.72-2.3-4.4a.44.44,0,0,0,.3,0,2.73,2.73,0,0,1,3.12,1.19A2.23,2.23,0,0,1,23.07,69.36Z"/><path class="cls-1" d="M60.35,75.72a.39.39,0,0,0,0-.47c-1.07-1.62-3.78-1.28-5.07-.17a3.39,3.39,0,0,0,.45,5.3,3.15,3.15,0,0,0,4.85-1A3.93,3.93,0,0,0,60.35,75.72Zm-.9,2.69c-.39,1.42-1.91,1.51-2.9.6a2,2,0,0,1,.08-3.14,2.57,2.57,0,0,1,1.47-.51.5.5,0,0,0,.26.51A2.16,2.16,0,0,1,59.45,78.41Z"/><path class="cls-1" d="M58.35,100.22c-.74-1.74-3.22-3.13-5-2.07a.71.71,0,0,0-.29.85,3.51,3.51,0,0,0-1.33,3.5A3.19,3.19,0,0,0,56,104.84,3.56,3.56,0,0,0,58.35,100.22Zm-2.72,3.07c-2.57,1-3.25-2.76-1.15-3.73a.49.49,0,0,0,.21-.22,2.41,2.41,0,0,1,2.06,1.13A1.91,1.91,0,0,1,55.63,103.29Z"/><path class="cls-1" d="M82.37,64A4.2,4.2,0,0,0,79,62a.68.68,0,0,0-.79-.24c-2.1.71-3.46,3.37-2.26,5.4a4.19,4.19,0,0,0,4.87,1.57A3.16,3.16,0,0,0,82.37,64Zm-2.32,3.09a2.53,2.53,0,0,1-2.55-.74,2.09,2.09,0,0,1,.24-2.59.44.44,0,0,0,.16-.06C80.13,62.45,82.68,66.34,80.05,67.12Z"/><path class="cls-1" d="M102.35,68.82a.72.72,0,0,0-.94.62,3.5,3.5,0,0,0-3.17,2,3.2,3.2,0,0,0,2.27,4.4,3.43,3.43,0,0,0,4.39-2.28A3.9,3.9,0,0,0,102.35,68.82Zm-1.09,5.46a1.72,1.72,0,0,1-1.63-2,2.16,2.16,0,0,1,2.87-1.38.42.42,0,0,0,.27,0C103.83,72.2,103.43,74.61,101.26,74.28Z"/><path class="cls-1" d="M76.1,41.58a3.21,3.21,0,0,0-2.54-2.48.45.45,0,0,0-.31-.68,3.4,3.4,0,0,0-3.45,3.36,3.19,3.19,0,0,0,3.46,3.16A2.84,2.84,0,0,0,76.1,41.58Zm-3.45,1.88a1.68,1.68,0,0,1-1.38-2.08,2.43,2.43,0,0,1,.63-1.17.7.7,0,0,0,.81.26c1-.33,2.11.79,2.05,1.78S73.51,43.63,72.65,43.46Z"/><path class="cls-1" d="M89.58,28.08a4,4,0,0,0-2.36-2.81.58.58,0,0,0-.42-.66,4,4,0,0,0-4.45,3.58,3.6,3.6,0,0,0,3.8,3.71A3.29,3.29,0,0,0,89.58,28.08Zm-3.75,2.06c-2.13-.26-2.07-2.14-1-3.39a.66.66,0,0,0,.58.09,2,2,0,0,1,2.53,1.53C88.16,29.63,86.92,30.27,85.83,30.14Z"/></g></g></svg>