<svg xmlns="http://www.w3.org/2000/svg" viewBox="0 0 335.38 222.36"><defs><style>.cls-1{fill:#dc2715;}.cls-2,.cls-3,.cls-9{fill:#fff;}.cls-3{stroke:#d3c9b3;stroke-miterlimit:10;}.cls-3,.cls-5{stroke-width:3.74px;}.cls-4{fill:#efeb64;}.cls-5,.cls-8{fill:none;}.cls-5{stroke:#fff;}.cls-6{fill:#040000;}.cls-7{fill:#231815;}.cls-8,.cls-9{stroke:#040000;stroke-linecap:round;stroke-linejoin:round;stroke-width:1.87px;}.cls-10{fill:#edea65;}</style></defs><g id="レイヤー_2" data-name="レイヤー 2"><g id="レイヤー_1-2" data-name="レイヤー 1"><rect class="cls-1" x="72.87" y="5.68" width="222.36" height="211.01" transform="translate(295.23 -72.87) rotate(90)"/><path class="cls-2" d="M106.12,21.77c-2.19.12-5.65.25-9.25.25-1.08,0-2.07,0-4.17-.05V20.41c3.88-.2,6.32-.25,10-.25.32,0,1.65,0,3.36,0Z"/><path class="cls-2" d="M121.7,16.54c-2.51.25-7.6.46-9.18.46V15.87a45.75,45.75,0,0,1-3.1,4.51l-1.19-.71a54.61,54.61,0,0,1,4.44-6.78l1.13.78a20,20,0,0,1-1.11,1.91c1-.1,5.71-.4,9-.4Zm.76,4.22c-1,.1-3.89.24-5,.29V24c3.58-.14,3.87-.14,5.84-.15V25.2c-1.3.12-1.8.15-5.85.36,0,2.08,0,2.7-.07,3.32h-1.5c0-.62-.07-1.49-.07-3.24-2.3.12-4.59.22-6.89.22V24.43c1.16-.1,5.47-.34,6.88-.42,0-1.15,0-1.31,0-2.89-2.89.06-4,.1-5,.1V19.87c1.33-.12,1.7-.13,5-.3,0-1.21,0-1.63.09-2.09l1.46,0c0,.57.05.79.07,2.05,2.92-.1,3.29-.1,5-.12ZM113.59,23a1,1,0,0,1-1,.94,1.1,1.1,0,0,1-1.19-1,1,1,0,0,1,1-1A1.16,1.16,0,0,1,113.59,23Z"/><path class="cls-2" d="M130.93,15.31v-.23s-2,.1-2.76.1l0-1.26a32.14,32.14,0,0,1,4.24-.22c0,.54.09,1.63.09,3.57,0,1.1,0,1.64,0,2.18-.79.1-3.76.22-4.74.25,0,2.93,0,3.33-.12,9.05h-1.49c0-2.39-.09-4.76-.09-7.16,0-2,0-5.3.12-8h1.48c.07,2.27.07,2.52.08,4.71l3.27-.17c0-.22,0-.37,0-1.57Zm-1.06,1.35c0,.32-.27.74-1,.74a.74.74,0,0,1-.84-.77.85.85,0,0,1,.86-.84A.87.87,0,0,1,129.87,16.66ZM133,24.82c-.34,0-1.21.06-1.58.08v.87c.4,0,2.25-.1,2.62-.1,0-1.07,0-1.81,0-2.69-.42,0-2.09.09-2.19.09V21.69c1.18-.05,2.52-.12,3.58-.12,0,.44,0,1.46,0,2.83s0,1.79,0,2.6c-.52.05-.92.07-1.14.07-1.38.05-3.94.1-4.34.1-.07-.93-.08-1.85-.08-2.77,0-1.82,0-2.28,0-2.8l1.43-.06c0,.37,0,2,0,2.32.54,0,1.29-.07,1.6-.07Zm2.76-10.88c1.32-.12,2.95-.14,4.18-.14.07,2.72.1,5.31.1,7.43,0,2.46,0,5-.1,7.4-.38,0-.69,0-1.88-.06a12.43,12.43,0,0,1-1.68-.17l.1-1.37a9.69,9.69,0,0,0,1.06,0h.89c-.07-2.54-.09-5.09-.09-7.63-.84.06-4,.1-4.64.1,0-.56-.06-1.43-.06-2.69,0-1.5,0-2.49.08-3.26h1.38c0,.53.08,1.34.08,2.77,0,.81,0,1.21,0,1.7,1.23-.05,1.24-.05,3.19-.09,0-.94,0-1.8,0-2.75-.89,0-1.92.06-2.62.06Zm1.63,2.65a.93.93,0,0,1-1,.79.81.81,0,0,1-.86-.77.86.86,0,0,1,.91-.84A.89.89,0,0,1,137.37,16.59Z"/><path class="cls-2" d="M149.15,19a11.06,11.06,0,0,1-.76,4.76,3.52,3.52,0,0,1-3.09,2.47c-.34,0-2.47-.12-2.47-3.32a7.7,7.7,0,0,1,7.55-7.63,6.2,6.2,0,0,1,6.27,6.49,10.48,10.48,0,0,1-3.13,6.86l-1.19-.89a10.35,10.35,0,0,0,2.52-5.94c0-2.6-1.73-4.87-4.46-4.87a6.18,6.18,0,0,0-5.85,5.83c0,1.4.72,1.63,1,1.63.89,0,1.37-1.36,1.49-1.73a13.19,13.19,0,0,0,.64-3.66Z"/><path class="cls-2" d="M164.13,13.75c.1,1.31.15,5.52.15,7,0,.83-.05,5.42-.19,8h-1.71c-.07-1.72-.09-3.52-.09-7.11,0-.51.07-4.86.12-6.7,0-.52,0-.87.07-1.19Zm8.94,9.87a78.75,78.75,0,0,1-8.36-2.25l.47-1.45a53.58,53.58,0,0,1,8.31,2.31Z"/><path class="cls-2" d="M180.58,14.15c.09,1.8.09,4.63.09,6.5,0,.84-.09,4.52-.09,5.27,1.31-.4,2.62-.87,3.94-1.32l4.74-1.75.57,1.43a46.12,46.12,0,0,1-5,2.22,45.25,45.25,0,0,1-6.06,1.66c-.07-1.43-.07-2.89-.07-4,0-3.07,0-4.81.16-9.16,0-.34,0-.57,0-.88Z"/><path class="cls-2" d="M206.76,21.59c-1,.06-9.52.35-13,.28V20.38c1.2-.14,7-.44,13-.37Z"/><path class="cls-2" d="M223.9,26.85c-1.14.08-2.17.1-6.59.22-1.13,0-4.64,0-7.14,0V25.54c2.5-.15,6.67-.29,9.29-.29l4.44.05Zm-1.56-8.58c-2,.17-7.13.24-7.6.22h-3.1V16.93c1.55-.14,4.8-.25,6.33-.25s3,0,4.39.06Z"/><path class="cls-2" d="M240.38,21.59c-1,.06-9.52.35-13,.28V20.38c1.19-.14,7-.44,13-.37Z"/><path class="cls-2" d="M249.06,13.28c0,.92,0,2.4,0,3.35.72,0,2-.05,2.69-.05l0,1.32c-.4,0-2.27.14-2.65.16v1.49c1,0,2,0,2.92,0v1.33c-.46,0-2.49.13-2.9.15l0,1.73c1.68-.08,2.24-.08,2.84-.08,0,.55.05,1.56.05,2.85,0,1.52,0,2.36-.06,3-.37,0-1.58-.05-2.49-.17l0-1.34c.22,0,.79,0,1,0V25.57c0-.23,0-1.24,0-1.44-.22,0-.94.05-1.42.06,0,.54-.05,2.9-.05,3.38s0,.93-.08,1.31h-1.46c0-.43,0-3.83,0-4.62l-1.09,0V22.93c.37-.05.59-.07,1.09-.1V21.07l-2.28.06a3.3,3.3,0,0,1-.63,0V19.8c.76-.06,1.72-.13,2.91-.18l0-1.48c-.24,0-1.21,0-1.42.05h-.48l0-1a25.43,25.43,0,0,1-2.1,3.8l-1.16-.62a37.14,37.14,0,0,1,3-5.91l1.23.54a19.54,19.54,0,0,1-.79,1.85l1.73-.12c0-.54.05-2.91.1-3.39Zm-3.21,9.37c0,.38.05.8.05,2.43,0,1,0,2.78-.07,3.7h-1.42c0-.53,0-.7,0-2s0-3,.1-4.13ZM254.58,15c.1,2,.12,4.73.12,5,0,1.38,0,4.29-.09,5.5h-1.39c-.05-.74-.07-4.84-.07-5.73,0-1.5,0-3.27,0-4.73Zm3.14-1.34c.1,3.33.12,6.08.12,7.4,0,2.52,0,5.06-.13,7.58a26.63,26.63,0,0,1-3.27-.17l.12-1.41h1.7c0-3.71,0-7.16.07-13,0-.13,0-.34,0-.4Z"/><path class="cls-2" d="M263.82,15.35a56.08,56.08,0,0,1-3,13.37l-1.26-.37c.13-.68.82-3.65,1-4.26.65-3,1.31-5.95,2-8.94ZM270,24.16l-2.61.1c-1.75.08-1.95.08-3.45.12V23.15c3.43-.27,3.87-.3,7.79-.4a19,19,0,0,1,1.92,0A20.61,20.61,0,0,1,270,26a43.8,43.8,0,0,1,4.37,1.82L273.84,29c-2-.59-4.91-1.68-5.49-1.92A29.58,29.58,0,0,1,264,29.19l-.69-1.11,3.22-1.79c-.24-.1-1.3-.55-1.5-.65l.52-1.14c1.38.42,1.65.52,2.61.84.1-.07.17-.12.42-.27Zm-2.58-6.73c0,.19,0,1.05,0,1.21l2-.1a9.36,9.36,0,0,1,0-1.12l1.43-.07c.05.6.05.82.07,1.13.94,0,1.07,0,2.67,0v1.2c-.82.1-1,.1-2.62.2A18.51,18.51,0,0,1,271,22c-1.13.12-4.19.24-5,.24-.05-.52-.05-1.56-.05-2.12q-1,0-2.07,0V18.9c.41,0,1.6-.14,2.09-.17,0-.74,0-1,.05-1.28Zm6.66-.87c-1.58.2-8.14.49-9.87.49V15.79c.49-.07.54-.07,2.07-.17,3.13-.19,4.47-.27,7.82-.29Zm-4.42-2.42c0,.91-1,1-1.16,1a1.23,1.23,0,0,1-1.28-1.16,1.1,1.1,0,0,1,1-1.08A1.34,1.34,0,0,1,269.69,14.14Zm-.18,5.78c-.44,0-.59,0-2,.1,0,.61,0,.67,0,.91.91-.08,1-.08,2-.13Z"/><rect class="cls-3" x="15.88" y="41.01" width="312.37" height="63.53"/><circle class="cls-4" cx="26.5" cy="54" r="26.5"/><path class="cls-5" d="M26.05,51.4c-5,.32-16.15.56-17,.56l0-1.6c2.6-.21,7.69-.38,10.64-.47l-.8-.67a19,19,0,0,1,2.75-3.07l1.29,1.07a31.82,31.82,0,0,1-2.3,2.65c1.66-.06,3.75-.06,5.45-.06ZM14.7,58.05a20.13,20.13,0,0,1-2.34.19c0,.41,0,.44,0,.86.75,0,1.57-.08,2.32-.06l0,1.34c-1.1.1-2,.14-2.32.15,0,1.24,0,1.31-.13,3.5l-1.6,0c0-.68-.06-1.83-.06-3.68,0-3.33.11-5.49.21-7.23h1.57c0,1.81,0,1.89,0,3.68.69,0,1.63-.08,2.3-.06Zm.91-9.86a1.14,1.14,0,0,1-1.21,1,1.5,1.5,0,0,1-1.5-1.4,1.2,1.2,0,0,1,1.2-1.19A1.56,1.56,0,0,1,15.61,48.19Zm-1.51,14c.26,0,1.36.07,1.59,0,0-2.78,0-5.3,0-7.32-.41,0-2.26.08-2.64.08l0-1.5a29.56,29.56,0,0,1,4.36-.24c.05.93.05,2,.05,3.14,0,2.24,0,5.3-.15,7.49A25.45,25.45,0,0,1,14,63.61Zm6.69-8.52c0,.8.09,3.74.09,4.28,0,1.77-.08,2.78-.11,3.55H19.2c0-.86-.08-1.89-.08-3.66,0-2.13.06-3.29.1-4.17Zm3.51-1c0,.82.11,4.44.11,5.19,0,1.66,0,4.63-.09,6.18a21.07,21.07,0,0,1-3.57-.35l.17-1.46,1.66.06c0-2.64,0-5.31,0-7.9,0-.68,0-1.1.07-1.7Z"/><path class="cls-5" d="M42.94,54.59c-1.67.14-2.06.15-5.72.32v.54c0,.34,0,1.85,0,2.15.3,0,1.93,0,3.14,0l4,0v1.57c-1.52.13-1.61.13-7.14.34,0,2.43,0,3-.11,4.69H35.32c-.1-1.69-.1-2.71-.1-4.62-5,.13-5.51.15-6.83.15v-1.6c1.27-.14,1.81-.15,6.83-.42V55c-1.23,0-5,.13-6,.11V53.53c1.28-.13,1.77-.15,6-.37,0-4.15,0-4.84.13-6.48h1.68c0,.33.06.65.08,1.13,0,1.29,0,1.69.07,5.29,2.11-.06,3.27-.06,5.74,0ZM33.3,50.84A1.25,1.25,0,0,1,32,52a1.57,1.57,0,0,1-1.53-1.5,1.22,1.22,0,0,1,1.31-1.19A1.54,1.54,0,0,1,33.3,50.84Zm9.9-1.76a28.38,28.38,0,0,1-3.78,3.74l-1.15-1.1A22.65,22.65,0,0,1,42.1,48Z"/><path class="cls-6" d="M26.05,51.4c-5,.32-16.15.56-17,.56l0-1.6c2.6-.21,7.69-.38,10.64-.47l-.8-.67a19,19,0,0,1,2.75-3.07l1.29,1.07a31.82,31.82,0,0,1-2.3,2.65c1.66-.06,3.75-.06,5.45-.06ZM14.7,58.05a20.13,20.13,0,0,1-2.34.19c0,.41,0,.44,0,.86.75,0,1.57-.08,2.32-.06l0,1.34c-1.1.1-2,.14-2.32.15,0,1.24,0,1.31-.13,3.5l-1.6,0c0-.68-.06-1.83-.06-3.68,0-3.33.11-5.49.21-7.23h1.57c0,1.81,0,1.89,0,3.68.69,0,1.63-.08,2.3-.06Zm.91-9.86a1.14,1.14,0,0,1-1.21,1,1.5,1.5,0,0,1-1.5-1.4,1.2,1.2,0,0,1,1.2-1.19A1.56,1.56,0,0,1,15.61,48.19Zm-1.51,14c.26,0,1.36.07,1.59,0,0-2.78,0-5.3,0-7.32-.41,0-2.26.08-2.64.08l0-1.5a29.56,29.56,0,0,1,4.36-.24c.05.93.05,2,.05,3.14,0,2.24,0,5.3-.15,7.49A25.45,25.45,0,0,1,14,63.61Zm6.69-8.52c0,.8.09,3.74.09,4.28,0,1.77-.08,2.78-.11,3.55H19.2c0-.86-.08-1.89-.08-3.66,0-2.13.06-3.29.1-4.17Zm3.51-1c0,.82.11,4.44.11,5.19,0,1.66,0,4.63-.09,6.18a21.07,21.07,0,0,1-3.57-.35l.17-1.46,1.66.06c0-2.64,0-5.31,0-7.9,0-.68,0-1.1.07-1.7Z"/><path class="cls-6" d="M42.94,54.59c-1.67.14-2.06.15-5.72.32v.54c0,.34,0,1.85,0,2.15.3,0,1.93,0,3.14,0l4,0v1.57c-1.52.13-1.61.13-7.14.34,0,2.43,0,3-.11,4.69H35.32c-.1-1.69-.1-2.71-.1-4.62-5,.13-5.51.15-6.83.15v-1.6c1.27-.14,1.81-.15,6.83-.42V55c-1.23,0-5,.13-6,.11V53.53c1.28-.13,1.77-.15,6-.37,0-4.15,0-4.84.13-6.48h1.68c0,.33.06.65.08,1.13,0,1.29,0,1.69.07,5.29,2.11-.06,3.27-.06,5.74,0ZM33.3,50.84A1.25,1.25,0,0,1,32,52a1.57,1.57,0,0,1-1.53-1.5,1.22,1.22,0,0,1,1.31-1.19A1.54,1.54,0,0,1,33.3,50.84Zm9.9-1.76a28.38,28.38,0,0,1-3.78,3.74l-1.15-1.1A22.65,22.65,0,0,1,42.1,48Z"/><path class="cls-7" d="M72.33,55.37c0-.62,0-1.18-.08-1.7a14.86,14.86,0,0,0,1.77.08H81.7a13.39,13.39,0,0,0,1.71-.08,15.14,15.14,0,0,0-.08,1.62V65.54a14.64,14.64,0,0,0,.1,1.92H81.51v-.95H74.13v.95H72.24a17.55,17.55,0,0,0,.09-1.92Zm1.8,3.74h7.38V55.43H74.13Zm0,5.73h7.38V60.78H74.13Z"/><path class="cls-7" d="M88.46,57.32a16.47,16.47,0,0,0-1.89.1V55.48a13.75,13.75,0,0,0,1.89.11h4.08V54.46A10.43,10.43,0,0,0,92.45,53h2a7.82,7.82,0,0,0-.11,1.46v1.14h4.3a13,13,0,0,0,1.92-.11v1.94a17,17,0,0,0-1.92-.1h-3.4a15.63,15.63,0,0,0,2.38,3.33,13.68,13.68,0,0,0,3.46,2.67A6.71,6.71,0,0,0,100,65.05a17.7,17.7,0,0,1-2.66-2.21v1.81a12.21,12.21,0,0,0-1.59-.09H94.32v1.08a14.14,14.14,0,0,0,.11,2h-2a14.43,14.43,0,0,0,.11-2V64.56H91.29a12.1,12.1,0,0,0-1.59.09V62.86a15.14,15.14,0,0,1-2.57,2.22,5.7,5.7,0,0,0-1.08-1.67,14.87,14.87,0,0,0,5.52-6.09Zm4.08,3a15.68,15.68,0,0,1,.13-1.78,15.53,15.53,0,0,1-2.89,4.21,9.73,9.73,0,0,0,1.41.06h1.35Zm3.32,2.49a9.58,9.58,0,0,0,1.39-.06,17.37,17.37,0,0,1-3.07-4.21,13.84,13.84,0,0,1,.14,1.77v2.5Z"/><path class="cls-7" d="M106.18,62.84v2.7c1.52-.24,1.65-.25,3.09-.57v1.52c-1.68.4-2.92.64-5.76,1.11l-.73.16-.3-1.82h.24c.21,0,1.16-.08,1.79-.16V58.62c0-.19,0-.3,0-.71a20.92,20.92,0,0,1-2,.9,7.72,7.72,0,0,0-.77-1.73A13.74,13.74,0,0,0,108.21,53h1.87a10.68,10.68,0,0,0,2.83,2.37A16,16,0,0,0,116.76,57,7.32,7.32,0,0,0,116,58.8a15.17,15.17,0,0,1-2.09-.94v3.87c0,.32,0,.46,0,.72l.3-.35,1.61.85A24.38,24.38,0,0,1,113,65.14a13.08,13.08,0,0,0,3.6.81,10,10,0,0,0-.81,1.77,12.34,12.34,0,0,1-5.55-2.29,8.76,8.76,0,0,1-2.32-2.59ZM108.34,57v-.46a3.88,3.88,0,0,0-.08-1H110a5.87,5.87,0,0,0-.06,1V57h2.44a14.66,14.66,0,0,1-3.22-2.65A14.39,14.39,0,0,1,106,57Zm-2.16,2.22h6v-.79h-6Zm0,2.24h6v-.89h-6Zm3.6,1.39a5.67,5.67,0,0,0,1.65,1.54,11.81,11.81,0,0,0,2-1.52c-.34,0-.62,0-1,0Z"/><path class="cls-7" d="M126.09,66.75a41.21,41.21,0,0,1-5.22.77,3.37,3.37,0,0,0-.62.12L120,66l.17,0c.36,0,1.24,0,1.71-.08v-2h-1.57a8.81,8.81,0,0,1-1.47,3.88,8,8,0,0,0-1.34-1.41c1-1.3,1.27-2.63,1.27-5.38,0-.68,0-1.58-.08-2a13.3,13.3,0,0,0,1.57.08h10.1a10.43,10.43,0,0,0,1.52-.08v1.43c-.29,0-.87-.07-1.52-.07h-9.87v1c0,.41,0,.69,0,1.28h10.25a8.91,8.91,0,0,0,1.32-.06V64a9.07,9.07,0,0,0-1.32-.06h-1.32l1.35.52a10.6,10.6,0,0,1-1.52,1.08,13.36,13.36,0,0,0,3.32.52,10.83,10.83,0,0,0-.72,1.62,10.58,10.58,0,0,1-5.7-2.16Zm3.2-12.86c.86,0,1.1,0,1.79-.06a13.72,13.72,0,0,0-.06,1.48V57.1c0,.6,0,1.11,0,1.44-.64,0-.86,0-1.59,0h-8.92c-.43,0-1,0-1.41,0,0-.38,0-.71,0-1.46V55.32a14.06,14.06,0,0,0-.06-1.49c.49,0,1.11.06,1.79.06h1.68a9.11,9.11,0,0,0-.08-1h1.75a4.3,4.3,0,0,0-.08,1H126a9.17,9.17,0,0,0-.07-1h1.76a4.3,4.3,0,0,0-.08,1Zm-8.46,1.18v.62h1.78v-.62Zm0,1.71v.62h1.78v-.62Zm.18,4.08a9.57,9.57,0,0,0,1.41.06h7.08a9.65,9.65,0,0,0,1.41-.06v1.29a10,10,0,0,0-1.41-.07h-7.08a10.1,10.1,0,0,0-1.41.07Zm2.44,4.9c.54-.06,1.37-.19,2.49-.38a5.43,5.43,0,0,1-1.14-1.47h-1.35Zm.75-10.07H126v-.62H124.2Zm0,1.71H126v-.62H124.2Zm2.28,6.51A3.24,3.24,0,0,0,127.8,65a9,9,0,0,0,1.37-1.08Zm1.1-8.22h1.79v-.62h-1.79Zm0,1.71h1.79v-.62h-1.79Z"/><path class="cls-7" d="M133.49,59a7.44,7.44,0,0,0,1.27.08H136a7.47,7.47,0,0,0,1.2-.08c0,.49-.06.87-.06,1.73v3.4a2.29,2.29,0,0,0,.73.82c.78.51,1.7.68,3.68.68a50.51,50.51,0,0,0,6.79-.31,7.33,7.33,0,0,0-.47,1.87c-1.33.06-3.64.09-5.52.09-2.75,0-3.64-.11-4.64-.6a3.43,3.43,0,0,1-1.39-1.14,16.16,16.16,0,0,1-1.86,1.52c-.18.14-.32.24-.46.37l-.78-1.81a9.51,9.51,0,0,0,2.25-1.54V60.65h-.87a6.15,6.15,0,0,0-1.06.08Zm1.3-5.9A19.83,19.83,0,0,1,137.55,56l-1.33,1.29a15.9,15.9,0,0,0-2.7-3Zm4.09,2.46a6.59,6.59,0,0,0-1.3.07V54.08a12.18,12.18,0,0,0,1.8.08h2.39a8.14,8.14,0,0,0-.09-1.19h1.77a9.66,9.66,0,0,0-.09,1.19H146a17.06,17.06,0,0,0,1.81-.08v1.57a10.59,10.59,0,0,0-1.61-.07h-2.82v.76h2.46a10.42,10.42,0,0,0,1.32-.07,8.69,8.69,0,0,0-.07,1.23v3.27a7.53,7.53,0,0,0,.07,1.15c-.45,0-.8,0-1.32,0h-2.46v.76h2.9a11.78,11.78,0,0,0,1.59-.07v1.54a10.37,10.37,0,0,0-1.59-.08h-2.9a9.21,9.21,0,0,0,.09,1.34h-1.77a8.32,8.32,0,0,0,.11-1.34h-2.53a13.64,13.64,0,0,0-1.57.07V62.57a10.68,10.68,0,0,0,1.57.07h2.53v-.76h-2.25c-.48,0-.93,0-1.32,0a8,8,0,0,0,.06-1.15V57.4a8.12,8.12,0,0,0-.06-1.13,9.68,9.68,0,0,0,1.3.07h2.27v-.76Zm1,2v.89h1.95v-.89Zm0,2.06v.92h1.95v-.92Zm3.52-1.17h2.11v-.89h-2.11Zm0,2.09h2.11v-.92h-2.11Z"/><path class="cls-7" d="M160.25,60h1.92a7.29,7.29,0,0,0,1.44-.08v1.4a9.22,9.22,0,0,0-1.42-.08H156c-.4,0-.65,0-1.19,0,0-.41,0-.68,0-1.21V58.75c0-.54,0-.65,0-1.19a3.78,3.78,0,0,1-.77.9,3.68,3.68,0,0,0-.72-1.06h-.58v2.48c.49-.18.73-.26,1.58-.59v1.55c-.77.31-.94.37-1.57.59V66l0,.26c1.89-.49,2.89-1.42,3.22-3h-1a6.79,6.79,0,0,0-1.13.07V61.76a6.84,6.84,0,0,0,1.26.08h5.22c.6,0,1,0,1.31,0-.08.28-.08.28-.2.73-.07.19-.19.58-.29.85h1.27a5,5,0,0,0,1.16-.08c-.08.5-.08.53-.14.92a6.81,6.81,0,0,1-.8,2.64c-.36.51-.84.68-1.84.68-.47,0-1.12,0-1.84-.09a4.41,4.41,0,0,0-.4-1.56,11.22,11.22,0,0,0,1.89.21c.51,0,.65,0,.81-.3a3.2,3.2,0,0,0,.35-1H160a9.23,9.23,0,0,0-1,0,9.65,9.65,0,0,0,.54-1.47h-1.9a5.57,5.57,0,0,1-1.3,2.74,6.34,6.34,0,0,1-2.77,1.7,6.71,6.71,0,0,0-.84-1.35.94.94,0,0,1-.76,1,4.67,4.67,0,0,1-1.51.19l-.8,0a5.59,5.59,0,0,0-.35-1.67,7.78,7.78,0,0,0,1.27.11c.41,0,.5-.09.5-.46V62c-.39.13-.52.18-.85.27s-.51.18-.78.29l-.3-1.78a9.86,9.86,0,0,0,1.93-.41v-3h-.6a10.57,10.57,0,0,0-1.16.06V55.75a5.5,5.5,0,0,0,1.18.11h.58V54.64A9,9,0,0,0,151,53h1.87a12,12,0,0,0-.09,1.58v1.24H153a3.22,3.22,0,0,0,.87-.08v.64a8.92,8.92,0,0,0,2-3.56l1.66.35a5.83,5.83,0,0,1-.65,1.33h1.95A5.53,5.53,0,0,0,159.6,53l1.67.3c-.34.62-.5.87-.73,1.22h1.55a10.31,10.31,0,0,0,1.43-.06v1.43a7.36,7.36,0,0,0-1.24-.08h-2v.63h1.32A9.7,9.7,0,0,0,163,56.4v1.25c-.37,0-.72,0-1.46,0h-1.32v.62h1.32a9.28,9.28,0,0,0,1.46-.07v1.26a12.5,12.5,0,0,0-1.46-.05h-1.32Zm-1.52-4.17h-2.35v.63h2.35Zm0,1.78h-2.35v.62h2.35Zm-2.35,1.76V60h2.35v-.63Z"/><path class="cls-7" d="M178,53.73a14.51,14.51,0,0,1-1.35,2c.19.2.22.25.43.49.33-.46.48-.7,1-1.53l1.16.85c-.33.41-.33.41-1.11,1.42a15.63,15.63,0,0,1-1.27,1.43c.48,0,.65,0,1.15-.09a4.88,4.88,0,0,0-.29-.62l1-.37a13.68,13.68,0,0,1,.94,2.5l-1.12.36c-.07-.35-.11-.46-.17-.76-.32.05-.7.09-1.16.14a4.54,4.54,0,0,1,.83.65l-.61.57h.35a8.15,8.15,0,0,0,1.67-.09V62.3a13.78,13.78,0,0,0-1.67-.09h-.54l1.23.78a12.89,12.89,0,0,1-1.73,1.9c.46.63.87,1,1.11,1s.43-.44.58-1.92a4,4,0,0,0,1.21.88,5.66,5.66,0,0,1-.65,2.24,1.11,1.11,0,0,1-1,.5c-.8,0-1.53-.52-2.43-1.71a12.55,12.55,0,0,1-3.48,1.78,4.42,4.42,0,0,0-.9-1.42,10.61,10.61,0,0,0,3.65-1.57,9.26,9.26,0,0,1-.81-2.44h-2.11c0,.25,0,.32,0,.51a5.7,5.7,0,0,0,1.76,1.33,5.11,5.11,0,0,0-.43.7c-.22.39-.22.39-.33.6a5.68,5.68,0,0,1-1.32-1.11,7.18,7.18,0,0,1-2,3.3,6.18,6.18,0,0,0-1.27-1.14,5.35,5.35,0,0,0,2.06-4.19c-.59,0-.87,0-1.19.06v-1.6a8.68,8.68,0,0,0,1.3.06h3.27c-.06-.46-.08-.58-.11-.89l-.89.32c0-.27,0-.36-.06-.54l-1.11.18-2.27.31-.07-.49a6.57,6.57,0,0,0-.46,1.11,8,8,0,0,1-.74-1.46c0,.45.06,1.38.06,1.94v4.57a14.53,14.53,0,0,0,.08,2h-1.73a15.57,15.57,0,0,0,.1-2V63c0-.72,0-1.29.12-2.62a15,15,0,0,1-1.38,3.55,4.93,4.93,0,0,0-.76-1.74,12.44,12.44,0,0,0,1.19-2.53,18.3,18.3,0,0,0,.65-2.14H166a10.76,10.76,0,0,0-1.08.06V55.88A4.59,4.59,0,0,0,166,56h.54V54.64a12,12,0,0,0-.08-1.67h1.71a15.35,15.35,0,0,0-.06,1.65V56h.29a8,8,0,0,0,.81,0l-.35-.31.92-1.1.35.34a7.59,7.59,0,0,0,1-1.89l1.3.65A15.28,15.28,0,0,1,171,55.83c.16.19.22.27.38.49a7.37,7.37,0,0,0,.83-1.49l1.13.76v-.74a10.1,10.1,0,0,0-.12-1.81H175a3.83,3.83,0,0,0-.1,1.06s0,.25,0,.51v.49l.49-.68.35.33a6.89,6.89,0,0,0,1-1.73Zm-8.73,3.84a7.54,7.54,0,0,0-.9-.06h-.22a5.23,5.23,0,0,0,1,1.56l0-.35h.52c.54-.62.71-.84,1-1.22A10.63,10.63,0,0,0,169.3,56Zm3.8-.06a7.14,7.14,0,0,1,.41,1.05c-.1-1.33-.13-2.06-.13-2.78l-.35.51a17.09,17.09,0,0,1-1.81,2.33c.62,0,.62,0,1.16-.12-.11-.26-.14-.35-.28-.67Zm1.82-1.68c0,1.44,0,1.44.08,2.57h.22a13.4,13.4,0,0,0,1-1.14A8.52,8.52,0,0,0,174.92,55.83Zm1.59,3.76-.3,0a4.23,4.23,0,0,1-.69.08l-.39,0c0,.37,0,.42.12,1H177a2.87,2.87,0,0,0-1-.68Zm-1,2.62A6.26,6.26,0,0,0,176,63.7a4.26,4.26,0,0,0,1.21-1.49Z"/><path class="cls-7" d="M185.81,61.29c0-.46,0-.76,0-1.13a4.2,4.2,0,0,0-.82,1.1,6.46,6.46,0,0,1-.92-1.72c0,.54.08,1.24.08,2.29v3.92a16.39,16.39,0,0,0,.09,1.93h-1.78a12.87,12.87,0,0,0,.11-1.93V62.69c0-.61.05-1.43.13-2.2a13.33,13.33,0,0,1-1.4,3.21,4.79,4.79,0,0,0-1-1.35,14.72,14.72,0,0,0,2.1-4.9h-.53a5.9,5.9,0,0,0-1.06.06V55.83a6,6,0,0,0,1.06.06h.72V54.61a9.09,9.09,0,0,0-.1-1.65h1.76a11.8,11.8,0,0,0-.07,1.63v1.3h.36a5.17,5.17,0,0,0,.94-.06v1.68a5,5,0,0,0-.91-.06h-.25a8.87,8.87,0,0,0,.92,1.73V57.83a8.2,8.2,0,0,0,1.38.08h.86v-.67H187c-.56,0-.91,0-1.23,0V56a8.79,8.79,0,0,0,1.23.07h.38v-.68h-.65a10.71,10.71,0,0,0-1.34.06V54.1a8.41,8.41,0,0,0,1.32.08h.67a5,5,0,0,0-.08-1.14h1.73a3.74,3.74,0,0,0-.1,1.14H191a3.5,3.5,0,0,0-.1-1.14h1.75a4.39,4.39,0,0,0-.1,1.14h1a8.86,8.86,0,0,0,1.31-.08v1.36a7.83,7.83,0,0,0-1.31-.07h-1v.68h.7a10.83,10.83,0,0,0,1.21-.07v1.31a7.28,7.28,0,0,0-1.21-.07h-.7v.67h1.13a7.83,7.83,0,0,0,1.46-.1V59.3a10.54,10.54,0,0,0-1.48-.07h-3v.65h2.06a11,11,0,0,0,1.47-.07,15.41,15.41,0,0,0-.06,1.57v2.37a5,5,0,0,0,1.06-.08v1.49a6.45,6.45,0,0,0-1.06-.06V66c0,1.26-.33,1.49-2,1.49l-1.22,0a4.74,4.74,0,0,0-.3-1.41,10.47,10.47,0,0,0,1.37.11c.53,0,.65-.06.65-.36V65.1h-5.23v.63a17.53,17.53,0,0,0,.07,2h-1.72a14.47,14.47,0,0,0,.08-2V65.1a5.29,5.29,0,0,0-.95.06V63.69a6,6,0,0,0,.95.06Zm1.45-1.41h1.92v-.65h-2.54a11.36,11.36,0,0,0-1.4.06,4.81,4.81,0,0,0,.51.54C186.21,59.86,186.56,59.88,187.26,59.88Zm1.92,2v-.73h-1.8v.73Zm0,1.89V63h-1.8v.73ZM191,56.07v-.68H189v.68Zm0,1.84v-.67H189v.67Zm1.59,4v-.73h-1.92v.73Zm0,1.89V63h-1.92v.73Z"/><path class="cls-7" d="M197.55,62.69a18.39,18.39,0,0,1,3.57,3.49l-1.48,1.38a17,17,0,0,0-3.44-3.62Z"/><path class="cls-7" d="M218.44,54.53a9.84,9.84,0,0,0-.1-1.57h2a10.55,10.55,0,0,0-.1,1.57v4.25h4a7,7,0,0,0,1.27-.08,10.27,10.27,0,0,0-.07,1.33v5.88a12.87,12.87,0,0,0,.1,1.81h-1.84v-.78h-9.16a8.5,8.5,0,0,0-1.73.09V65.22a10.3,10.3,0,0,0,1.65.08h9.27V63.61H215a12,12,0,0,0-1.52.06V61.89A11.64,11.64,0,0,0,215,62h8.76V60.43h-9.16c-.7,0-1.16,0-1.63.06v-1.8a10,10,0,0,0,1.65.09h3.84Zm-3.92-.81A19.44,19.44,0,0,1,217,57.61l-1.55.92a18,18,0,0,0-2.44-4Zm11.11.73a19.11,19.11,0,0,1-2.48,4.09l-1.47-.92a13.21,13.21,0,0,0,2.26-3.95Z"/><path class="cls-7" d="M231.84,66a10.47,10.47,0,0,0,.08,1.62H230a9.57,9.57,0,0,0,.09-1.65V62a10.57,10.57,0,0,1-1.76,1.35,6.34,6.34,0,0,0-.81-1.65,11,11,0,0,0,2.73-2.14A9.25,9.25,0,0,0,232,57.11h-2.59a10.27,10.27,0,0,0-1.33.07V55.42a11.37,11.37,0,0,0,1.25.06h.8V54.15a6.66,6.66,0,0,0-.1-1.21h1.92a7.24,7.24,0,0,0-.09,1.24v1.3h.65a6,6,0,0,0,.92,0l.76.83a4.59,4.59,0,0,0-.35.66,12.47,12.47,0,0,1-1.59,2.72,9.36,9.36,0,0,0,2.53,2,7.22,7.22,0,0,0-.88,1.56,8.81,8.81,0,0,1-2-1.79Zm6.73-.75h1.9a14.42,14.42,0,0,0,1.81-.09V67.1a12.94,12.94,0,0,0-1.81-.11H235a12.75,12.75,0,0,0-1.79.11V65.18a15.24,15.24,0,0,0,1.83.09h1.72v-6.2h-1.18c-.54,0-1.05,0-1.56.08v-1.8a9.85,9.85,0,0,0,1.56.08h1.18V54.64a11.15,11.15,0,0,0-.11-1.65h2a8.86,8.86,0,0,0-.11,1.65v2.79h1.68a9.44,9.44,0,0,0,1.55-.08v1.8a15.29,15.29,0,0,0-1.55-.08h-1.68Z"/><path class="cls-7" d="M245.06,66.81a5.7,5.7,0,0,0-.08-.74,27.89,27.89,0,0,1-.41-4.75,30.51,30.51,0,0,1,.65-6.21,9.26,9.26,0,0,0,.24-1.47l2.1.22a21.24,21.24,0,0,0-1,4.75,25.22,25.22,0,0,0-.24,3.5c0,.35,0,.48,0,.88a14.78,14.78,0,0,1,.82-2.1l1.27.57A13.06,13.06,0,0,0,247,66.27c0,.1,0,.22,0,.43Zm6.76-6.27a3.61,3.61,0,0,0-1.12,2.29c0,.9.87,1.38,2.52,1.38a11.18,11.18,0,0,0,3.78-.6l.16,2a4.75,4.75,0,0,0-.65.1,20.28,20.28,0,0,1-3.29.3c-2,0-3.24-.45-3.93-1.38a2.63,2.63,0,0,1-.48-1.56,5.22,5.22,0,0,1,1.46-3.27Zm-2.61-5.25a11.43,11.43,0,0,0,2.93.25,17.33,17.33,0,0,0,4.32-.43l.09,1.93-1.12.14a27.86,27.86,0,0,1-3.4.19,18.36,18.36,0,0,1-2.86-.18Z"/><path class="cls-7" d="M259.77,55.29l.6,0c.28,0,.28,0,2.62-.16.89,0,3.52-.19,7.92-.4a8.45,8.45,0,0,0,1.82-.16l.11,2h-.33a7.06,7.06,0,0,0-3.14.85c-2,1-3.21,2.64-3.21,4.24a2.67,2.67,0,0,0,2.11,2.59,9.51,9.51,0,0,0,2.37.41l.31,0-.28,2.16a3,3,0,0,0-.54-.09,9.7,9.7,0,0,1-3.72-1,4.25,4.25,0,0,1-2.26-3.82,5.58,5.58,0,0,1,1.5-3.75,7.23,7.23,0,0,1,2.21-1.59c-1.29.19-1.91.24-5.35.5a22.78,22.78,0,0,0-2.63.31Z"/><path class="cls-7" d="M136.79,81a9,9,0,0,0-1.49.08v-.84h-1.46a6.43,6.43,0,0,0,.08-1.17V77.86a9.28,9.28,0,0,0-.07-1.19,16.81,16.81,0,0,0,1.75.06h4.12v-.36a5.24,5.24,0,0,0-.09-1h2a5.06,5.06,0,0,0-.08,1v.36h4.35a17.25,17.25,0,0,0,1.76-.06,8.74,8.74,0,0,0-.06,1.16V79a8.29,8.29,0,0,0,.06,1.17h-1.46v.84a9.45,9.45,0,0,0-1.51-.08h-3.19c0,.51,0,.51,0,.88h3a9.11,9.11,0,0,0,1.41-.07v1.51a10.07,10.07,0,0,0-1.41-.06h-3.06c-.05.39-.07.52-.13.85h5a10.16,10.16,0,0,0,1.64-.08v1.67a14.77,14.77,0,0,0-1.72-.1h-4a5.48,5.48,0,0,0,1.48,1.34A10,10,0,0,0,146.29,88c.4.11.89.2,1.76.36a6.66,6.66,0,0,0-.82,1.72,15.07,15.07,0,0,1-3-.93,8.32,8.32,0,0,1-3.76-3,6.17,6.17,0,0,1-2.32,2.49,10.27,10.27,0,0,1-3.87,1.43,5.14,5.14,0,0,0-.84-1.65,9.68,9.68,0,0,0,3.44-1,4.75,4.75,0,0,0,2-1.86h-3.51a15.54,15.54,0,0,0-1.7.1V84a9.54,9.54,0,0,0,1.61.08h4.16c.06-.3.09-.47.14-.85H137a10.14,10.14,0,0,0-1.43.06V81.78a9.42,9.42,0,0,0,1.43.07h2.79c0-.45,0-.45,0-.88Zm3-1.39c0-.51,0-.72-.06-1h1.84a5.13,5.13,0,0,0-.07,1h3.16c.61,0,.86,0,1.26,0v-1.3H135.57v1.3a11.24,11.24,0,0,0,1.22,0Z"/><path class="cls-7" d="M156.47,85.49a7.84,7.84,0,0,0-1.25.07V84c-.16.4-.22.51-.43.94a4.15,4.15,0,0,0-1.16-.87,8.48,8.48,0,0,0,.91-2h-1l0,6.43a1.38,1.38,0,0,1-.34,1.06,2.29,2.29,0,0,1-1.47.32c-.35,0-.84,0-1.32,0a4.44,4.44,0,0,0-.33-1.55,9.28,9.28,0,0,0,1.41.16c.43,0,.52-.07.51-.38l0-3.8a9.4,9.4,0,0,1-2.33,3.37,6.73,6.73,0,0,0-.79-1.73,8.75,8.75,0,0,0,2.68-3.83h-1.1a7.84,7.84,0,0,0-1.33.08V80.48a9.12,9.12,0,0,0,1.43.08h1.59A17.1,17.1,0,0,0,150,78.77l1-1a16.18,16.18,0,0,1,1.36,1.07,6,6,0,0,0,1.29-1.4h-2.76a13.39,13.39,0,0,0-1.37.06V75.91A12.07,12.07,0,0,0,151,76h2.72a12.92,12.92,0,0,0,1.35,0l.85.92c-.06.08-.19.23-.35.46a15.75,15.75,0,0,1-2.22,2.49,4.26,4.26,0,0,1,.35.38l-.35.38h1a10.62,10.62,0,0,0,1.16,0l.69.84a2,2,0,0,0-.19.5,10.12,10.12,0,0,0,2.6-1,7.1,7.1,0,0,1-1.3-1.63,14.14,14.14,0,0,1-1.23,1.39,5.42,5.42,0,0,0-1.2-1.08,8.07,8.07,0,0,0,2.36-3.06,4,4,0,0,0,.4-1.21l1.65.32a4.71,4.71,0,0,0-.24.56c-.08.2-.14.35-.27.62h3.29a16.59,16.59,0,0,0,1.68-.08v1.62a7.47,7.47,0,0,0-1.14-.07A7,7,0,0,1,161,80.73a10.36,10.36,0,0,0,3,.89,5.91,5.91,0,0,0-.73,1.65,12,12,0,0,1-3.57-1.47,9,9,0,0,1-1.47.81h1.62a.78.78,0,0,0,0,.21c0,.08,0,.17-.05.28a1.7,1.7,0,0,1,0,.26c0,.22,0,.33-.08.62H162a6.89,6.89,0,0,0,1.26-.07,6.37,6.37,0,0,0-.07.7,19.29,19.29,0,0,1-.55,4c-.32,1-.73,1.22-2,1.22a15.26,15.26,0,0,1-1.68-.11,5.3,5.3,0,0,0-.37-1.65,10.27,10.27,0,0,0,1.83.22c.51,0,.67-.19.84-1a11.92,11.92,0,0,0,.21-1.8h-2.08c-.69,2.18-1.94,3.48-4.45,4.58a6.11,6.11,0,0,0-1-1.42c2-.76,3.08-1.65,3.71-3.16Zm1.62-1.5a10.48,10.48,0,0,0,.08-1.19.25.25,0,0,0,0-.13c-.6.25-.93.36-1.81.65a5.84,5.84,0,0,0-.52-.95c-.21.66-.33,1-.55,1.57a11.27,11.27,0,0,0,1.3,0Zm.32-5.75A5.6,5.6,0,0,0,159.77,80a4.49,4.49,0,0,0,1.13-1.72Z"/><path class="cls-7" d="M166,77.32a19.38,19.38,0,0,0,3.69.21,6.37,6.37,0,0,0,.63-2l2.08.22a10.18,10.18,0,0,0-.63,1.43c-.08.18-.12.22-.15.29.13,0,.13,0,1-.07a20.88,20.88,0,0,0,4.16-.54l.11,1.81c-.44,0-.44,0-1.25.13-1.16.14-3.18.27-4.78.32a8.15,8.15,0,0,1-1.46,2.11l0,0,.31-.24a3.88,3.88,0,0,1,2.24-.71A2.08,2.08,0,0,1,174.22,82c1.22-.45,2-.73,2.43-.86a4.73,4.73,0,0,0,1.17-.47l.75,1.82a12.91,12.91,0,0,0-1.76.43c-.23.06-1,.33-2.38.81v.17c0,.42,0,.42,0,.64v.63c0,.27,0,.42,0,.53a7,7,0,0,0,0,.84l-1.84,0a11.62,11.62,0,0,0,.1-1.84v-.39a9.48,9.48,0,0,0-1.52.83,1.66,1.66,0,0,0-.83,1.3c0,.83.76,1.16,2.68,1.16a13.76,13.76,0,0,0,4.67-.67l.16,2a5.72,5.72,0,0,0-.73.06,28.11,28.11,0,0,1-4.07.29,6.78,6.78,0,0,1-3.54-.67,2.3,2.3,0,0,1-1.15-2,2.57,2.57,0,0,1,.69-1.77,7.73,7.73,0,0,1,3.42-2.23.87.87,0,0,0-1-.86,5.34,5.34,0,0,0-3.25,1.63,7.33,7.33,0,0,0-1.39,1.45l-1.44-1.43a10.23,10.23,0,0,0,1.43-1.41,19.75,19.75,0,0,0,1.9-2.72,1.4,1.4,0,0,1,.13-.2h-.27l-2,0-.44,0a1.43,1.43,0,0,0-.26,0Z"/><path class="cls-7" d="M182,79.94a9.46,9.46,0,0,0-1.23.08V78.31a5.77,5.77,0,0,0,1.23.09h.73V77.1a9,9,0,0,0-.09-1.62h1.89a8.68,8.68,0,0,0-.1,1.6V78.4h.61a5.77,5.77,0,0,0,1-.06V80a8.14,8.14,0,0,0-1-.06h-.59v2.4c.65-.21.83-.27,1.54-.53v1.56c-.73.28-.86.33-1.54.57v4.51c0,1.09-.55,1.5-2,1.5-.35,0-.79,0-1.3,0a5.66,5.66,0,0,0-.37-1.69,13.06,13.06,0,0,0,1.5.1c.41,0,.5-.08.5-.46V84.53l-1.11.35a3.75,3.75,0,0,0-.66.23l-.34-1.77a10.49,10.49,0,0,0,2.11-.48V79.94Zm3.18,7.81a16.2,16.2,0,0,0,1.85.09h6.35a15.71,15.71,0,0,0,1.83-.09v1.79a16.52,16.52,0,0,0-1.84-.09h-6.34c-.79,0-1.34,0-1.85.07Zm2.92-1.43c-.59,0-1.13,0-1.6.06,0-.36,0-.82,0-1.5v-7c0-.79,0-1.29,0-1.71a15.68,15.68,0,0,0,1.63.06h4.3a16.47,16.47,0,0,0,1.7-.06,18.36,18.36,0,0,0-.07,1.92v6.5c0,.81,0,1.26.07,1.84-.38,0-.94-.06-1.62-.06Zm.12-5.84h4.12V77.73h-4.12Zm0,4.3h4.12V82h-4.12Z"/><path class="cls-7" d="M202.72,76.94a9.84,9.84,0,0,0-.1-1.57h2a10.78,10.78,0,0,0-.09,1.57v4.25h4a7,7,0,0,0,1.27-.08,10.44,10.44,0,0,0-.07,1.34v5.87a14.48,14.48,0,0,0,.1,1.81H208v-.78h-9.16a9.27,9.27,0,0,0-1.73.1V87.64a11.73,11.73,0,0,0,1.65.08H208V86h-8.78a12.13,12.13,0,0,0-1.52.06V84.3a11.31,11.31,0,0,0,1.54.07H208V82.84h-9.16a14.92,14.92,0,0,0-1.63.07V81.1a10,10,0,0,0,1.65.09h3.84Zm-3.92-.81A19.52,19.52,0,0,1,201.28,80l-1.56.92a18.2,18.2,0,0,0-2.44-4Zm11.11.73a19.2,19.2,0,0,1-2.48,4.1L206,80a13.63,13.63,0,0,0,2.27-4Z"/><rect class="cls-3" x="15.88" y="126.41" width="312.37" height="63.53"/><path class="cls-7" d="M64.52,140.37a14.34,14.34,0,0,0-.09-1.83h1.82a11.24,11.24,0,0,0-.09,1.84v2h.34a5.32,5.32,0,0,0,1.07-.06V144a6.89,6.89,0,0,0-1.11-.07h-.3v4.32c.61-.29.79-.37,1.5-.73l0,1.68A25.91,25.91,0,0,1,63.79,151c-.44.18-.59.24-.82.35l-.34-1.82a8.8,8.8,0,0,0,1.89-.57v-5h-.36a6.78,6.78,0,0,0-1.24.08v-1.7a5.77,5.77,0,0,0,1.24.08h.36Zm5.7,10.11c0,.31.11.42.46.49a12.35,12.35,0,0,0,2.16.11c1.88,0,2.39-.08,2.63-.41a3.63,3.63,0,0,0,.29-1.89,8,8,0,0,0,1.73.52c-.19,3.18-.53,3.4-5,3.4-3.21,0-3.9-.3-3.9-1.7v-5.46l-.32.1a7.62,7.62,0,0,0-1,.36l-.4-1.73a8.56,8.56,0,0,0,1.54-.35l.15,0V141.7a9.94,9.94,0,0,0-.1-1.68h1.87a12.82,12.82,0,0,0-.09,1.62v1.73l1.54-.5v-2.76a11.73,11.73,0,0,0-.08-1.58h1.84a13.64,13.64,0,0,0-.1,1.61v2.23l2.29-.72a9.78,9.78,0,0,0,1.3-.47c0,.69-.05.81-.08,1.66a29.35,29.35,0,0,1-.35,4.37c-.2.9-.63,1.17-1.79,1.17-.21,0-.35,0-.75,0a4.8,4.8,0,0,0-.43-1.64,4.42,4.42,0,0,0,.89.13c.4,0,.5-.06.56-.4.08-.52.14-1.5.19-3l-1.83.57v3.95a12,12,0,0,0,.1,1.59H71.68a12.71,12.71,0,0,0,.08-1.64v-3.36l-1.54.49Z"/><path class="cls-7" d="M80.46,144.73a13,13,0,0,0-1.78.1v-1.89a14.8,14.8,0,0,0,1.78.09H91.08a14.1,14.1,0,0,0,1.76-.09v1.89a13,13,0,0,0-1.76-.1H88.43v5.78c0,.43.17.49,1.22.49s1.38-.1,1.51-.56a13.92,13.92,0,0,0,.23-2.22,5.63,5.63,0,0,0,1.69.57c-.19,2.19-.27,2.62-.59,3.13s-1.1.78-3.16.78c-1.32,0-2-.13-2.35-.45s-.31-.47-.31-1v-6.52H84.38a11.49,11.49,0,0,1-.92,4.92,6.44,6.44,0,0,1-2.09,2.49,12,12,0,0,1-1.69,1,6,6,0,0,0-1.2-1.59,6.12,6.12,0,0,0,3.35-2.73,8.68,8.68,0,0,0,.74-4.06ZM91.36,141a9.77,9.77,0,0,0-1.62-.1h-7.9a9.61,9.61,0,0,0-1.62.1V139.1a11.57,11.57,0,0,0,1.67.09h7.82a11.07,11.07,0,0,0,1.65-.09Z"/><path class="cls-7" d="M95.83,152.22c0-.28,0-.38-.08-.74a27.89,27.89,0,0,1-.41-4.75,30.51,30.51,0,0,1,.65-6.21,12.54,12.54,0,0,0,.24-1.47l2.09.22a21.82,21.82,0,0,0-1,4.75,26.86,26.86,0,0,0-.24,3.5c0,.35,0,.48,0,.88a17.05,17.05,0,0,1,.83-2.1l1.27.57a12.91,12.91,0,0,0-1.42,4.81,4,4,0,0,0,0,.43Zm6.76-6.27a3.63,3.63,0,0,0-1.13,2.29c0,.9.87,1.38,2.53,1.38a11.16,11.16,0,0,0,3.77-.6l.16,2a5.25,5.25,0,0,0-.65.1,20.26,20.26,0,0,1-3.28.3c-2,0-3.24-.45-3.94-1.38a2.7,2.7,0,0,1-.48-1.56,5.22,5.22,0,0,1,1.46-3.27ZM100,140.7a11.52,11.52,0,0,0,2.94.25,17.19,17.19,0,0,0,4.31-.43l.1,1.93-1.13.14a27.74,27.74,0,0,1-3.4.19,18.24,18.24,0,0,1-2.85-.18Z"/><path class="cls-7" d="M113.05,145.32c-.08,3.66-.58,5.54-2.08,7.66a7.21,7.21,0,0,0-1.38-1.3c1.46-2.05,1.81-3.73,1.81-8.81a15.36,15.36,0,0,0-.06-1.58c.49,0,1,.06,1.73.06h8.81a12,12,0,0,0,1.42-.06c0,.33,0,.65,0,1.17v1.7c0,.55,0,.86,0,1.22a11,11,0,0,0-1.42-.06Zm11.21-4.76a13.11,13.11,0,0,0-1.84-.08H112.05a14,14,0,0,0-1.84.08v-1.72a13.64,13.64,0,0,0,1.84.1h10.37a12.87,12.87,0,0,0,1.84-.1Zm-4.81,7.92a5.09,5.09,0,0,0,2,1.87,9,9,0,0,0,3.07.89,7,7,0,0,0-.62,1.73,9.61,9.61,0,0,1-3.59-1.42,6.5,6.5,0,0,1-2.06-2.17,5.26,5.26,0,0,1-1.8,2A10.6,10.6,0,0,1,113,153a5.87,5.87,0,0,0-.87-1.65c2.62-.5,4-1.34,4.79-2.84H115a12.16,12.16,0,0,0-1.65.08V146.9A10.3,10.3,0,0,0,115,147h2.35a5.82,5.82,0,0,0,.08-1c0-.07,0-.16,0-.34h1.79a4.75,4.75,0,0,0-.08.69c0,.19,0,.33-.08.69h3.43a10.79,10.79,0,0,0,1.7-.08v1.67a14.8,14.8,0,0,0-1.7-.09Zm2.16-4.54v-1.21h-8.53v.56c0,.25,0,.46,0,.65Z"/><path class="cls-7" d="M129,138.76a15.69,15.69,0,0,0-.57,3.07c-.11.66-.18,1.2-.21,1.58h.05c0-.09,0-.09.1-.35a6.33,6.33,0,0,1,1-1.88,3.8,3.8,0,0,1,3-1.62,3.32,3.32,0,0,1,2.71,1.43,6.58,6.58,0,0,1,1.15,4.22,6.67,6.67,0,0,1-4.1,6.52,14,14,0,0,1-3.11.89,5.83,5.83,0,0,0-.94-1.87,9.42,9.42,0,0,0,3.48-.91c1.84-.94,2.68-2.44,2.68-4.86s-.76-3.55-2.12-3.55a2.37,2.37,0,0,0-1.72.84,7.61,7.61,0,0,0-2,5.13v.33l-1.9,0a1.82,1.82,0,0,0,0-.2v-.31c0-.46,0-1.63,0-1.95a41.1,41.1,0,0,1,.22-4.14l.24-2a3.81,3.81,0,0,0,0-.54Z"/><path class="cls-7" d="M147.79,140.19c.47,0,.66,0,.93,0a1.84,1.84,0,1,1,1.83,1.83,1.65,1.65,0,0,1-.3,0,14.27,14.27,0,0,1-9.11,10.53,5.61,5.61,0,0,0-1.4-1.89,11.53,11.53,0,0,0,8.29-8.54h-7.56a12.79,12.79,0,0,0-2,.09v-2.06a10.46,10.46,0,0,0,2,.11Zm1.73-.05a1,1,0,1,0,1-1A1,1,0,0,0,149.52,140.14Z"/><path class="cls-7" d="M155.81,150.81v1.11h-2.05a10.29,10.29,0,0,0,.06-1.37v-9.09a10.18,10.18,0,0,0-.06-1.33c.38,0,.71.05,1.35.05h9c.69,0,1,0,1.34-.05a12.31,12.31,0,0,0-.05,1.32v9.07a10.46,10.46,0,0,0,.06,1.38h-2.05v-1.09Zm7.61-8.84h-7.61v7h7.61Z"/><path class="cls-7" d="M169.14,143.1a25.37,25.37,0,0,1,4.23,2.15l-1,1.8a18.46,18.46,0,0,0-4.3-2.32Zm-.71,7.11a14.31,14.31,0,0,0,4.59-1,10.88,10.88,0,0,0,6.42-7,7.86,7.86,0,0,0,1.65,1.41c-2,4.81-5.31,7.41-11,8.52a7.64,7.64,0,0,0-1.11.27Zm1.94-11a26.74,26.74,0,0,1,4.22,2l-1,1.75a19.46,19.46,0,0,0-4.24-2.18Zm8.25-.32a10.16,10.16,0,0,1,1.66,2.33l-1.11.59a10.69,10.69,0,0,0-1.66-2.37Zm2.46,1.92a11.82,11.82,0,0,0-1.62-2.3l1.06-.56a9.07,9.07,0,0,1,1.65,2.24Z"/><path class="cls-7" d="M189.51,150.32h3.24a7.08,7.08,0,0,0,1.47-.1V152a11.91,11.91,0,0,0-1.47-.06h-8.17a11.71,11.71,0,0,0-1.48.06v-1.78a7,7,0,0,0,1.46.1h3.11v-5.11h-2.13a8.68,8.68,0,0,0-1.46.09v-1.82a7.31,7.31,0,0,0,1.45.11h6.23a7.28,7.28,0,0,0,1.46-.11v1.79a10.39,10.39,0,0,0-1.44-.06h-2.27Z"/><path class="cls-7" d="M208.73,141.57a3.14,3.14,0,0,0-.39,1,16.37,16.37,0,0,1-3.26,6.13,16,16,0,0,1-5.65,4,4.89,4.89,0,0,0-1.34-1.66,14.56,14.56,0,0,0,3.47-1.88,12.59,12.59,0,0,0,4.64-6.69l-4.78.07a15.73,15.73,0,0,1-3.71,4.07,4.33,4.33,0,0,0-1.54-1.37,12.27,12.27,0,0,0,4.11-4.6,5.8,5.8,0,0,0,.8-2.09l2.18.42a3,3,0,0,0-.27.5,2.93,2.93,0,0,0-.21.44,3.71,3.71,0,0,1-.2.41,5,5,0,0,1-.26.51c.21,0,.46,0,.76,0l3.48-.05a2.78,2.78,0,0,0,1.16-.16Z"/><path class="cls-7" d="M212.39,152.44a10.38,10.38,0,0,0,.1-1.77V140.49a10.62,10.62,0,0,0-.1-1.62h2.17a11.37,11.37,0,0,0-.06,1.67v3a46.57,46.57,0,0,1,7.21,3.35l-1.12,1.87a37.28,37.28,0,0,0-5.61-3,3.47,3.47,0,0,1-.54-.27,9.91,9.91,0,0,1,.06,1.08v4.19c0,.83,0,1.24.06,1.76Z"/><path class="cls-7" d="M227.71,139.22a8.6,8.6,0,0,0-.06,1.43V145a8.12,8.12,0,0,0,.06,1.4h-2.17a13.6,13.6,0,0,0,.07-1.43v-4.36a9.8,9.8,0,0,0-.06-1.43Zm7.2,0a7.84,7.84,0,0,0-.08,1.48v2.14a18.36,18.36,0,0,1-.41,4.81,6.06,6.06,0,0,1-3.13,3.69,13.21,13.21,0,0,1-3.09,1.23,5.26,5.26,0,0,0-1.11-1.89,8.58,8.58,0,0,0,3.43-1.27c1.49-1,2-2,2.19-4.05.06-.68.08-1.38.08-2.65v-2a8.75,8.75,0,0,0-.08-1.51Z"/><path class="cls-7" d="M237.57,144.54a15.09,15.09,0,0,0,2.57.11h8.46a15.09,15.09,0,0,0,2.57-.11v2.21a17.27,17.27,0,0,0-2.59-.08h-8.42a17.36,17.36,0,0,0-2.59.08Z"/><path class="cls-7" d="M265.75,141.73a3.23,3.23,0,0,0-.5,1.06c-1.88,5.19-4.34,7.92-9.14,10.15a5.46,5.46,0,0,0-1.32-1.66,14.2,14.2,0,0,0,5.7-3.79,18.63,18.63,0,0,0-3.25-2.25l1.21-1.41a21.45,21.45,0,0,1,3.18,2.12,15.28,15.28,0,0,0,1.78-3.74l-4.93,0a17.12,17.12,0,0,1-3.72,4.26,5,5,0,0,0-1.58-1.27,14,14,0,0,0,4-4.53,8.66,8.66,0,0,0,.94-2.21l2.06.46c-.17.3-.19.32-.47.9s-.3.62-.38.77l.44,0h.38l3.3,0a8.26,8.26,0,0,0,.88-.06,10.49,10.49,0,0,0-1.15-1.79l1.22-.37a9.36,9.36,0,0,1,1.46,2.46l-.58.19Zm1-1.09a11.72,11.72,0,0,0-1.42-2.43l1.18-.38a9.11,9.11,0,0,1,1.46,2.38Z"/><path class="cls-7" d="M267.42,144.54a15.09,15.09,0,0,0,2.57.11h8.46a15.09,15.09,0,0,0,2.57-.11v2.21a17.36,17.36,0,0,0-2.59-.08H270a17.19,17.19,0,0,0-2.58.08Z"/><path class="cls-7" d="M116,161.1a26.33,26.33,0,0,0,1.05,5c1-.39,1-.39,4.11-1.4a5.76,5.76,0,0,0,.6-.24l.68,2a39,39,0,0,0-5.24,1.52c-2.31.86-3.47,1.88-3.47,3s1.08,1.65,3.63,1.65a17.46,17.46,0,0,0,5.13-.65l.17,2.17a10.73,10.73,0,0,0-1.28.11,32.38,32.38,0,0,1-3.72.24,8.94,8.94,0,0,1-4.6-.87,3,3,0,0,1-1.38-2.65,3.72,3.72,0,0,1,1.41-2.84,9.87,9.87,0,0,1,2.16-1.37,42.9,42.9,0,0,1-1.06-4.3,9.17,9.17,0,0,0-.25-1Z"/><path class="cls-7" d="M130.37,161.49a16.47,16.47,0,0,0-.19,2.15c-.06,1.47-.16,4.69-.16,5.82a4.39,4.39,0,0,0,.42,2.56,2.5,2.5,0,0,0,2.12.82,4.08,4.08,0,0,0,3.84-2.71,10.44,10.44,0,0,0,.73-2.67,7,7,0,0,0,1.92,1.22,9.63,9.63,0,0,1-1.89,4,6,6,0,0,1-4.76,2,5.18,5.18,0,0,1-2.77-.7c-1.1-.73-1.56-2-1.56-4.08,0-.83,0-2.41.13-6.4,0-.47,0-.81,0-1a7.65,7.65,0,0,0-.06-1.08Z"/><path class="cls-7" d="M141.88,163.11l.61,0c.28,0,.28,0,2.62-.16.88-.05,3.52-.19,7.91-.4a8.6,8.6,0,0,0,1.83-.16l.11,2-.33,0a7.08,7.08,0,0,0-3.14.86c-2,1-3.21,2.63-3.21,4.23a2.67,2.67,0,0,0,2.11,2.59,9.52,9.52,0,0,0,2.36.41h.32l-.28,2.16a2.91,2.91,0,0,0-.54-.1,9.52,9.52,0,0,1-3.72-1,4.23,4.23,0,0,1-2.27-3.82,5.61,5.61,0,0,1,1.51-3.75,7.06,7.06,0,0,1,2.21-1.58c-1.29.19-1.91.24-5.35.49a22.17,22.17,0,0,0-2.63.32Z"/><path class="cls-7" d="M163.3,168.78h-3.76a12.72,12.72,0,0,0-1.46.06v-1.38a11.51,11.51,0,0,0,1.49.06h3.73v-.6h-3.37c-.57,0-1,0-1.33.05,0-.33.05-.67.05-1.06v-1c0-.45,0-.73-.05-1.11.41,0,.75.05,1.35.05h3.35v-.61H159a14.06,14.06,0,0,0-1.86.1v-1.57a15.73,15.73,0,0,0,1.95.09h4.26a5.66,5.66,0,0,0-.1-1.08h1.92a4.7,4.7,0,0,0-.11,1.08h4.46a15.62,15.62,0,0,0,1.95-.09v1.57a13.9,13.9,0,0,0-1.85-.1H165v.61h3.59c.6,0,1,0,1.33-.05,0,.35-.05.62-.05,1.11v1a10.47,10.47,0,0,0,.05,1.06c-.35,0-.76-.05-1.27-.05H165v.6h3.56c.93,0,1.25,0,1.69,0a12.67,12.67,0,0,0,0,1.44v.56a10.1,10.1,0,0,0,1.38-.08v1.5a11,11,0,0,0-1.38-.07v.92a11,11,0,0,0,.08,1.71h-1.78v-.62H165v.89c0,1.43-.39,1.73-2.33,1.73-.38,0-1,0-1.52-.06a4.48,4.48,0,0,0-.5-1.58,17.28,17.28,0,0,0,2,.15c.49,0,.62-.08.62-.37v-.76h-3.73a11.29,11.29,0,0,0-1.57.08v-1.48a10.9,10.9,0,0,0,1.51.07h3.79v-.68h-4.56a12.15,12.15,0,0,0-1.74.07v-1.5a11.27,11.27,0,0,0,1.71.08h4.59Zm-3-3.75v.65h3V165Zm4.68.65h3.19V165H165Zm3.51,3.8v-.7H165v.7Zm-3.51,2h3.51v-.68H165Z"/><path class="cls-7" d="M175.08,167.16a12.25,12.25,0,0,0-1.63.08v-1.51a13.87,13.87,0,0,0,1.63.06H177c-.24-.5-.41-.87-.59-1.17H174.7c-.78,0-1.38,0-1.89.08v-1.59a12.32,12.32,0,0,0,1.81.1h.51a6.56,6.56,0,0,0-1.08-1.48l1.59-.6a11.4,11.4,0,0,1,1.22,2.08h.9v-1.13a8.59,8.59,0,0,0-.08-1.24h1.73a11.79,11.79,0,0,0,0,1.18v1.19h1.12V162a9.46,9.46,0,0,0-.05-1.18h1.73a9.62,9.62,0,0,0-.08,1.24v1.13h1a8.59,8.59,0,0,0,1.15-2.13l1.63.61c-.38.63-.63,1-1,1.52h.44a11.9,11.9,0,0,0,1.8-.1v1.59c-.5,0-1.12-.08-1.89-.08h-1.59a11.2,11.2,0,0,1-.59,1.17h1.84a14.26,14.26,0,0,0,1.64-.06v1.51a12.22,12.22,0,0,0-1.64-.08h-4.14v.76h3.32a10.53,10.53,0,0,0,1.63-.08v1.43a12.06,12.06,0,0,0-1.63-.08h-3.32V170h4.43a14.86,14.86,0,0,0,1.92-.09v1.59a15.59,15.59,0,0,0-1.9-.1H182a8.08,8.08,0,0,0,2.15,1.27,13.87,13.87,0,0,0,3.3.91,6.42,6.42,0,0,0-.9,1.61,12.33,12.33,0,0,1-5.89-3.14,10.38,10.38,0,0,1,0,1.13v.78a9,9,0,0,0,.11,1.6H179a12.59,12.59,0,0,0,.09-1.62v-.76a10.14,10.14,0,0,1,.05-1.08,8.68,8.68,0,0,1-2.28,1.74,15.59,15.59,0,0,1-3.24,1.34,6.92,6.92,0,0,0-1-1.53,11.41,11.41,0,0,0,5.19-2.25h-2.95a15.82,15.82,0,0,0-1.92.1v-1.59a15.6,15.6,0,0,0,1.9.09h4.21v-.79h-3.14a11.9,11.9,0,0,0-1.62.08v-1.43a10.32,10.32,0,0,0,1.62.08h3.14v-.76Zm6.22-1.37a9.09,9.09,0,0,0,.53-1.17h-3.62a11,11,0,0,1,.47,1.17Z"/><path class="cls-7" d="M189.56,162.73a19.32,19.32,0,0,0,3.68.21,6.46,6.46,0,0,0,.64-2l2.08.22a10.66,10.66,0,0,0-.64,1.43c-.08.18-.11.22-.14.29a9.8,9.8,0,0,1,1-.07,20.76,20.76,0,0,0,4.15-.54l.12,1.81c-.45,0-.45,0-1.26.13-1.16.14-3.17.27-4.77.32a8.4,8.4,0,0,1-1.46,2.11v0l.32-.24a3.88,3.88,0,0,1,2.24-.71,2.09,2.09,0,0,1,2.27,1.68c1.22-.45,2-.73,2.42-.86a5.11,5.11,0,0,0,1.18-.47l.74,1.82a13.27,13.27,0,0,0-1.76.43c-.22.06-1,.33-2.38.81v.17c0,.42,0,.42,0,.64v.63c0,.27,0,.42,0,.53a6.78,6.78,0,0,0,.05.84l-1.84.05a13.37,13.37,0,0,0,.09-1.84v-.39a10,10,0,0,0-1.52.83,1.65,1.65,0,0,0-.82,1.3c0,.83.76,1.16,2.68,1.16a13.69,13.69,0,0,0,4.66-.67l.16,2.05a5.72,5.72,0,0,0-.73.06,27.86,27.86,0,0,1-4.06.29,6.78,6.78,0,0,1-3.54-.67,2.29,2.29,0,0,1-1.16-2,2.54,2.54,0,0,1,.7-1.77,7.69,7.69,0,0,1,3.41-2.23.87.87,0,0,0-1-.86,5.34,5.34,0,0,0-3.25,1.63,7.24,7.24,0,0,0-1.38,1.45L189,168.89a9.72,9.72,0,0,0,1.42-1.41,20.81,20.81,0,0,0,1.91-2.72.63.63,0,0,1,.13-.2h-.27l-2,0-.45,0a1.34,1.34,0,0,0-.25,0Z"/><path class="cls-7" d="M208.55,167.59c.54-.38.76-.54,1.3-1H206v1.87h-1.7a6.76,6.76,0,0,0,.06-1.05v-1.18a7,7,0,0,0-.06-1.08c.54,0,1,.06,1.76.06h2.78a12,12,0,0,0-2-1l1.25-.83a9.88,9.88,0,0,1,1.14.59,10.29,10.29,0,0,0,.81-.79h-3.85a13.57,13.57,0,0,0-1.8.08v-1.6a17.55,17.55,0,0,0,1.88.09h4.14v-.11a5,5,0,0,0-.08-1h1.85a6.81,6.81,0,0,0-.08,1v.13h4.58a14.91,14.91,0,0,0,1.76-.09v1.6a16.78,16.78,0,0,0-1.73-.08h-4.84a12.14,12.14,0,0,1-1.53,1.47c.34.23.48.32.8.56h.43a11.36,11.36,0,0,0,1.92-1.92l1.55.59-1.11.93c-.08.08-.1.08-.48.4h3.26c.77,0,1.22,0,1.74-.06a8.94,8.94,0,0,0-.05,1.09v1.24a5.19,5.19,0,0,0,.07,1h-1.7v-1.9h-2.57a26.37,26.37,0,0,1,2.48,2.06l-1.35.91a11.26,11.26,0,0,0-1-1.07c-2.25.18-5.33.32-6.66.32l1.22.4c-.25.35-.36.49-.49.66h2v-.06a4.14,4.14,0,0,0-.06-.79h1.79a4.7,4.7,0,0,0-.06.79v.06h3.33a10.85,10.85,0,0,0,1.73-.07v1.49a13.43,13.43,0,0,0-1.71-.07H212.1v.81h4.51a12.92,12.92,0,0,0,1.89-.08v1.54a13.45,13.45,0,0,0-1.88-.09H212.1v.32a11.09,11.09,0,0,0,.11,1.82h-1.89a11.19,11.19,0,0,0,.11-1.81v-.33h-4.31a13.19,13.19,0,0,0-1.87.09V172a11.12,11.12,0,0,0,1.8.08h4.38v-.81h-3.28a9.28,9.28,0,0,1-.94.77,4.16,4.16,0,0,0-1.33-1,6.72,6.72,0,0,0,1.86-1.38,3.92,3.92,0,0,0,.57-.83l-.76,0-.21-1.33c.3,0,.84.06,1.11.06Zm3.12-1c-.62.46-.85.62-1.36.95,2,0,2,0,2.9-.11-.16-.11-.3-.22-.63-.44l.87-.4Z"/><path class="cls-7" d="M226.66,168.33a9.52,9.52,0,0,0,1.3-.06c0,.32-.05.43-.06.84a13.39,13.39,0,0,1-.94,5c-.4.79-1.08,1.06-2.6,1.06-.75,0-1.49,0-2.51-.14a7.09,7.09,0,0,0-.41-1.81,16.66,16.66,0,0,0,2.93.3c.62,0,.89-.09,1-.39a9.73,9.73,0,0,0,.63-3.24h-4.38c-.44,0-.81,0-1.17,0a23.67,23.67,0,0,0,.76-5,8.43,8.43,0,0,0,1.24.06H226V163h-3.73a14.59,14.59,0,0,0-1.66.09v-1.76a13.68,13.68,0,0,0,1.68.1h4a13.54,13.54,0,0,0,1.54-.07c0,.4,0,.76,0,1.29v2.6c0,.52,0,.86,0,1.24-.39,0-.9,0-1.41,0h-3.54c-.09.68-.19,1.22-.33,1.9ZM233,161a11,11,0,0,0-.1,1.77v10.55a14.22,14.22,0,0,0,.1,2h-2a14.65,14.65,0,0,0,.11-2V162.8A9.24,9.24,0,0,0,231,161Z"/><circle class="cls-4" cx="26.5" cy="139.41" r="26.5"/><path class="cls-5" d="M13.56,133.41a62.58,62.58,0,0,1-5.16,4.84l-1-1.12a48.58,48.58,0,0,1,5.14-4.84Zm.07,4.07c-.71,1-4.59,5.1-5.08,5.55L7.39,142a56.19,56.19,0,0,1,5.1-5.56Zm-3.53,12c-.06-1.47-.06-3.17-.06-4s0-2.68.14-4H11.8c.06,1,.08,2,.08,3.72,0,1.42,0,2.91-.08,4.33Zm7.25-7.32,0,.06a52.8,52.8,0,0,1,6.28-.4,27,27,0,0,1-3.46,3.85c1.49.69,3.16,1.55,4.58,2.37l-.77,1.29A47.15,47.15,0,0,1,18.65,147,34.42,34.42,0,0,1,15,149.58l-1-1.21c.46-.37,2.57-2,3-2.34-.54-.29-.8-.48-1.08-.65l.78-1.25c.29.11,1.48.64,1.72.75.08-.06.56-.49,1.46-1.33l-2.2.15a5.06,5.06,0,0,1-.55,0l0-1.29a41.86,41.86,0,0,1-3.3,3.55l-1.16-1a42.75,42.75,0,0,1,3.42-3.7l-2.38.23-.59,0L13,140c.66-.1,1.12-.15,3-.38a66.07,66.07,0,0,1,5.14-6.07l1.19,1.05a60.64,60.64,0,0,1-3.85,4.76c.55,0,2.95-.22,3.46-.28l.32,0,.18,1.5c-1.68.31-4.09.54-6.14.72Zm2.28-9.43c-1,1.12-2.81,2.82-3.09,3.08.34.39.73.84,1,1.19l-1.18,1.05a25.32,25.32,0,0,1-2.11-2.28,39.44,39.44,0,0,1,4.37-4.18Zm4.16,9a23.24,23.24,0,0,1-1.7-3.85l1.31-.61a22,22,0,0,1,1.72,3.88Z"/><path class="cls-5" d="M41.93,140c-1.67.13-2.06.15-5.72.32v.54c0,.34,0,1.85,0,2.15.3,0,1.93,0,3.14,0l4,0v1.57c-1.52.13-1.61.13-7.14.34,0,2.42,0,3-.11,4.68H34.31c-.1-1.68-.1-2.7-.1-4.61-5,.13-5.51.15-6.83.15v-1.61c1.27-.13,1.81-.15,6.83-.41v-2.72c-1.23,0-5,.13-6,.11v-1.55c1.28-.13,1.77-.15,6-.38,0-4.14,0-4.83.13-6.48H36c0,.34.06.66.08,1.14,0,1.29,0,1.68.07,5.29,2.11-.06,3.27-.06,5.74,0Zm-9.64-3.75a1.25,1.25,0,0,1-1.35,1.19A1.56,1.56,0,0,1,29.41,136a1.22,1.22,0,0,1,1.31-1.2A1.55,1.55,0,0,1,32.29,136.25Zm9.9-1.76a28.92,28.92,0,0,1-3.77,3.74l-1.16-1.1a22.65,22.65,0,0,1,3.83-3.74Z"/><path class="cls-6" d="M13.56,133.41a62.58,62.58,0,0,1-5.16,4.84l-1-1.12a48.58,48.58,0,0,1,5.14-4.84Zm.07,4.07c-.71,1-4.59,5.1-5.08,5.55L7.39,142a56.19,56.19,0,0,1,5.1-5.56Zm-3.53,12c-.06-1.47-.06-3.17-.06-4s0-2.68.14-4H11.8c.06,1,.08,2,.08,3.72,0,1.42,0,2.91-.08,4.33Zm7.25-7.32,0,.06a52.8,52.8,0,0,1,6.28-.4,27,27,0,0,1-3.46,3.85c1.49.69,3.16,1.55,4.58,2.37l-.77,1.29A47.15,47.15,0,0,1,18.65,147,34.42,34.42,0,0,1,15,149.58l-1-1.21c.46-.37,2.57-2,3-2.34-.54-.29-.8-.48-1.08-.65l.78-1.25c.29.11,1.48.64,1.72.75.08-.06.56-.49,1.46-1.33l-2.2.15a5.06,5.06,0,0,1-.55,0l0-1.29a41.86,41.86,0,0,1-3.3,3.55l-1.16-1a42.75,42.75,0,0,1,3.42-3.7l-2.38.23-.59,0L13,140c.66-.1,1.12-.15,3-.38a66.07,66.07,0,0,1,5.14-6.07l1.19,1.05a60.64,60.64,0,0,1-3.85,4.76c.55,0,2.95-.22,3.46-.28l.32,0,.18,1.5c-1.68.31-4.09.54-6.14.72Zm2.28-9.43c-1,1.12-2.81,2.82-3.09,3.08.34.39.73.84,1,1.19l-1.18,1.05a25.32,25.32,0,0,1-2.11-2.28,39.44,39.44,0,0,1,4.37-4.18Zm4.16,9a23.24,23.24,0,0,1-1.7-3.85l1.31-.61a22,22,0,0,1,1.72,3.88Z"/><path class="cls-6" d="M41.93,140c-1.67.13-2.06.15-5.72.32v.54c0,.34,0,1.85,0,2.15.3,0,1.93,0,3.14,0l4,0v1.57c-1.52.13-1.61.13-7.14.34,0,2.42,0,3-.11,4.68H34.31c-.1-1.68-.1-2.7-.1-4.61-5,.13-5.51.15-6.83.15v-1.61c1.27-.13,1.81-.15,6.83-.41v-2.72c-1.23,0-5,.13-6,.11v-1.55c1.28-.13,1.77-.15,6-.38,0-4.14,0-4.83.13-6.48H36c0,.34.06.66.08,1.14,0,1.29,0,1.68.07,5.29,2.11-.06,3.27-.06,5.74,0Zm-9.64-3.75a1.25,1.25,0,0,1-1.35,1.19A1.56,1.56,0,0,1,29.41,136a1.22,1.22,0,0,1,1.31-1.2A1.55,1.55,0,0,1,32.29,136.25Zm9.9-1.76a28.92,28.92,0,0,1-3.77,3.74l-1.16-1.1a22.65,22.65,0,0,1,3.83-3.74Z"/><path class="cls-2" d="M293.94,144.3a4.67,4.67,0,1,0-4.67-4.67,4.71,4.71,0,0,0,4.67,4.67Z"/><path class="cls-2" d="M326.82,203.08a7.65,7.65,0,0,0,5.33-4.25,13.68,13.68,0,0,0,1-7q-.19-2.85-.57-5.69c-.29-2.2-.51-4.58-1.92-6.4a5.12,5.12,0,0,0-2.79-2.15,4.79,4.79,0,0,0-3.59.48,4.7,4.7,0,0,0-2.15,2.79,4.46,4.46,0,0,0,.47,3.59,7.74,7.74,0,0,0,.54.85c-.3-.73-.36-.87-.2-.4,0,.12.07.24.1.36a16.79,16.79,0,0,1,.35,2l-.17-1.24q.31,2.37.51,4.74a22.28,22.28,0,0,1,.11,4.47l.16-1.25a5.82,5.82,0,0,0-.26,1.1q.51-1.12.18-.48c-.26.4-.15.28.33-.37a3.4,3.4,0,0,1-.32.34c.66-.47.79-.58.4-.32s-.26.15.49-.2a2.14,2.14,0,0,1-.44.08,4.67,4.67,0,0,0-2.79,2.15,4.68,4.68,0,0,0,1.67,6.39,5.58,5.58,0,0,0,3.6.47Z"/><path class="cls-2" d="M335.11,187.09a87.06,87.06,0,0,0-1.24-9.09c-.14-.78-.31-1.54-.47-2.31.07-.84.1-1.68.12-2.5a42.53,42.53,0,0,0-4.64-19.92,3.73,3.73,0,0,0-2.62-2,5.34,5.34,0,0,0-2.37-1.57c0-.22-.05-.43-.08-.65a36.75,36.75,0,0,0-1.33-6.4,8.22,8.22,0,0,0-2.07-3.24,1.59,1.59,0,0,0,.2.07A5,5,0,0,0,324,139l.9-.7a4.39,4.39,0,0,0,1.14-2c.06-.4.11-.79.16-1.18,0-.8-1.71-1.55-2.11-2.24-.06-.13,1.38-.26,1.3-.38a1.27,1.27,0,0,0-.13-.19c-.24-.33-.49-.65-.74-1a.6.6,0,0,1-.08-.08.08.08,0,0,0,0,0,21.88,21.88,0,0,0,1.34-2.7,4.13,4.13,0,0,0,2.6.1,4.41,4.41,0,0,0,2.66-2,6.56,6.56,0,0,0,.79-3.38,8,8,0,0,0-.93-3.26,18.24,18.24,0,0,0-2.47-3.15,24.66,24.66,0,0,0-3.12-3,9.52,9.52,0,0,0-4.72-3.31,12.32,12.32,0,0,0-.1-3,15.66,15.66,0,0,0-7.63-11.14A15.89,15.89,0,0,0,298,96.15c-4.16,2.09-7.05,6.13-8.84,10.32h-.24a4,4,0,0,0-2.25.65c-2.67.31-5.63.64-8,1.9-2.54,1.36-4.21,4.17-3.24,7.06.9,2.69,3.58,4.84,5.48,6.88a3.85,3.85,0,0,0,4,1.23c.17,3,.24,6,.16,8.94a4.48,4.48,0,0,0,3.26,4.28,13.7,13.7,0,0,1,4.67,2.08c-3,.2-6.3.74-7.87,3.66a4.64,4.64,0,0,0-.45,3.42,4.43,4.43,0,0,0,.65,1.33,22.45,22.45,0,0,0-3,2.33,7.69,7.69,0,0,0-2.43,5.3c-2.63-1.2-4.14,1.16-5.38,4-1.31,3.07,0,6.19,1.29,9.05a36.87,36.87,0,0,0-5.47,21.15,4.58,4.58,0,0,0,1.08,2.8.39.39,0,0,1-.08.1,3.88,3.88,0,0,0-.44.61,6.12,6.12,0,0,0-.49,1.15,12,12,0,0,0-.19,1.36,3.38,3.38,0,0,0,.3,1.48,3.17,3.17,0,0,0-.63.53,4.43,4.43,0,0,0,0,6.27,4.41,4.41,0,0,0,3.13,1.3,6,6,0,0,0,3-.9,9.43,9.43,0,0,0,1.63-1.39c.59-.62,1.15-1.26,1.7-1.92s.94-1.18,1.4-1.78a3.73,3.73,0,0,0,.4-.2,5.14,5.14,0,0,0,1.84-1.92,5.29,5.29,0,0,0,.66-2.67,9.12,9.12,0,0,0-.24-1.73l-.45-1.06-.09-.12c.4-.08.79-.19,1.18-.26a18.17,18.17,0,0,0,2.27-.23.22.22,0,0,0,.07-.06c.2.37.38.74.57,1.12a8.07,8.07,0,0,0,3,3.67c4.46,2.52,8.17-.28,10.57-4.1a63.63,63.63,0,0,0,7.11-1.35c.18.07.34.15.54.21a21,21,0,0,0,9.69.51c0,.2.1.41.16.61s.07.33.12.5.18.44.24.58.16.41.26.59l0,.06,0,.05-.08.06a3.32,3.32,0,0,0-1.14,1.24,4.54,4.54,0,0,0-.45,3.42,4.39,4.39,0,0,0,2,2.65,13.57,13.57,0,0,0,2.21.88,15.1,15.1,0,0,0,2.39.4,6.47,6.47,0,0,0,1.32,0h0a3,3,0,0,0,.74.13,3.33,3.33,0,0,0,1.77-.08,4.45,4.45,0,0,0,2.65-2l.45-1a4.48,4.48,0,0,0,0-2.27,5.2,5.2,0,0,0,2.72-2A12,12,0,0,0,335.11,187.09ZM282.94,159h0C283.17,159.08,283.17,159.09,282.94,159Zm36.37,34.11c-.06-.07-.11-.15-.16-.22h0c0,.08.11.14.16.22Z"/><path class="cls-8" d="M281.33,123.52S270,116.17,277,109.81s37.7-6.15,49.62,5,0,14.43,0,14.43"/><path class="cls-8" d="M287.8,115.85s18.34-7.55,34.26,1.66"/><path class="cls-8" d="M290.77,103.12S296.43,91,309.38,94.7c11.43,3.24,11.06,12.67,11.06,12.67"/><path class="cls-8" d="M316.39,138.82c1.62,12.18-8.09,24.5-8.09,24.5s14.57,10.79,15.91-7.55-9.44-21.63-9.44-21.63"/><path class="cls-8" d="M295.22,139.52s-12.81-1.28-10.65,8a67,67,0,0,0,7.55,17.87"/><path class="cls-8" d="M303,162.65s-14.46-10.12-13.19-25.22"/><path class="cls-8" d="M302.19,139.46c-5.55.33-10.89-8.6-10.37-13.73"/><path class="cls-8" d="M307.82,139.12s7.85-1.25,9.75-13.4"/><path class="cls-8" d="M317.26,129.15s4.51-1.43,5.23-5.49-1.93-4.61-3.4-3.49"/><path class="cls-8" d="M291.24,128.81a6.66,6.66,0,0,1-4.32-5.15c-.73-4.11,1.13-5.41,4.12-3.49"/><path class="cls-8" d="M301.33,131s2.23,2.49,5.77,0"/><circle class="cls-6" cx="309.72" cy="121.62" r="1.19"/><circle class="cls-6" cx="298.62" cy="121.62" r="1.19"/><line class="cls-8" x1="311.54" y1="137.43" x2="311.54" y2="144.98"/><line class="cls-8" x1="298.59" y1="138.51" x2="298.62" y2="144.98"/><path class="cls-8" d="M295.22,143.81s.24,4.23,7.74,4.32S313.52,145,313.52,145"/><path class="cls-8" d="M296.54,117.44a2.18,2.18,0,0,1,3.7-.47"/><path class="cls-8" d="M308.3,116.94a2.18,2.18,0,0,1,3.69.5"/><path class="cls-8" d="M319.09,189.92a8.84,8.84,0,0,0-4.32-3.41"/><path class="cls-8" d="M319.09,131.57s1.08,4.93,3.78,7.55"/><path class="cls-8" d="M324.48,124.4s-1.08,7.78,1.08,10.94"/><path class="cls-8" d="M284.32,122.81s2,8.29-1.57,12.53"/><path class="cls-8" d="M289.77,131.57a8.24,8.24,0,0,1-2.09,5.86"/><path class="cls-8" d="M334.45,191.74v-5.23c-.83-36.14-7.81-35.42-7.81-35.42"/><path class="cls-9" d="M313.26,177.56v2.37c0,1.31-3.18,2.38-7.12,2.38s-7.12-1.07-7.12-2.38v-2.37"/><path class="cls-8" d="M300.21,181.12c-2.37,1.19-2.37,5.1-2.37,5.1V196c0,1.64,3.72,3,8.3,3s8.31-1.33,8.31-3V185.72s-.29-3.56-1.67-4.94"/><ellipse class="cls-8" cx="306.14" cy="177.56" rx="7.12" ry="2.37"/><path class="cls-10" d="M299,184.83a49.84,49.84,0,0,0,6.53.44c3.56,0,7.71.45,7.71-.07V196a16.19,16.19,0,0,1-7.12,1.88c-3.56-.1-7.12-1.28-7.12-1.88Z"/><path class="cls-9" d="M294.92,173.24v2.38c0,1.31-3.18,2.37-7.12,2.37s-7.12-1.06-7.12-2.37v-2.38"/><path class="cls-8" d="M281.87,176.8c-2.37,1.19-2.37,5.11-2.37,5.11v9.73c0,1.64,3.72,3,8.3,3s8.31-1.32,8.31-3V181.4s-.29-3.56-1.67-4.93"/><ellipse class="cls-8" cx="287.8" cy="173.24" rx="7.12" ry="2.37"/><path class="cls-10" d="M280.68,180.51a48.75,48.75,0,0,0,6.53.45c3.56,0,7.71.44,7.71-.08v10.76a16.1,16.1,0,0,1-7.12,1.87c-3.56-.09-7.12-1.28-7.12-1.87Z"/><path class="cls-8" d="M319.09,193.53s-3.24,2.15-3.24,3.23.54,2.16,3,1.08a18.63,18.63,0,0,0,4.58-3.15"/><path class="cls-8" d="M321.25,200s3.23-1.08,4.31-3.24"/><path class="cls-8" d="M323.49,201.75s1.8-.13,3-2.56"/><path class="cls-9" d="M322.33,188.22c-3.24-.09-8.63,1.47-9.71,3.39s2.15,2.69,4.85,1.22"/><path class="cls-8" d="M325,188.22c4.88,1,11,8.81,3.62,14.07"/><path class="cls-8" d="M279.29,200.55s-3.41,0-5.1-1.76"/><path class="cls-8" d="M277.69,202.91s-1.76.42-3.65-1.52"/><path class="cls-9" d="M272.12,190.49c-4.34,2.43-7.77,11.74.85,14.5"/><path class="cls-9" d="M282.75,150.31s-11.61-.52-12.45,38.07"/><path class="cls-2" d="M273,192.18c-.27.27,6.32-1.42,6.32-1.42l2.18,5Z"/><path class="cls-8" d="M279.37,193.73s3.74,1.06,4.07,2.09.14,2.22-2.5,1.94a18.78,18.78,0,0,1-5.32-1.6"/><path class="cls-9" d="M279.17,193.53c3,.56,7.56-1.08,5.77-3.61-1.27-1.79-7.22-1.33-10.27-.25"/><path class="cls-6" d="M300.46,191.22a2.26,2.26,0,0,1-.46,1.67,1.78,1.78,0,0,1-1.17.44l-.07-.5c1-.07,1.07-.69,1.07-1.88v-3.52h.63Zm-.32-4.51a.4.4,0,0,1-.4-.43.41.41,0,0,1,.42-.43.4.4,0,0,1,.4.43A.41.41,0,0,1,300.14,186.71Z"/><path class="cls-6" d="M304.38,190.57a6.07,6.07,0,0,0,.06,1h-.57l-.06-.53h0a1.43,1.43,0,0,1-1.21.62,1.14,1.14,0,0,1-1.2-1.17c0-1,.86-1.53,2.38-1.52,0-.35,0-1.13-.93-1.13a1.84,1.84,0,0,0-1,.29l-.15-.43a2.35,2.35,0,0,1,1.26-.35c1.16,0,1.46.83,1.46,1.64Zm-.62-1.16c-.78,0-1.75.11-1.75,1a.69.69,0,0,0,.71.77,1,1,0,0,0,1-1Z"/><path class="cls-6" d="M311.19,191.55h-.62v-2.38c0-.8-.28-1.31-.9-1.31a1,1,0,0,0-1,1.1v2.59h-.62V189c0-.66-.28-1.15-.86-1.15a1.11,1.11,0,0,0-1,1.17v2.52h-.62v-3.06c0-.42,0-.73,0-1.07h.55l0,.67h0a1.38,1.38,0,0,1,1.25-.76,1.18,1.18,0,0,1,1.13.83h0a1.44,1.44,0,0,1,1.32-.83c.5,0,1.3.33,1.3,1.74Z"/><path class="cls-6" d="M282.12,188a2.26,2.26,0,0,1-.46,1.67,1.78,1.78,0,0,1-1.17.44l-.07-.5c1-.06,1.07-.69,1.07-1.88v-3.52h.63Zm-.32-4.51a.4.4,0,0,1-.4-.43.41.41,0,0,1,.42-.43.4.4,0,0,1,.4.43A.41.41,0,0,1,281.8,183.47Z"/><path class="cls-6" d="M286,187.33a6.07,6.07,0,0,0,.06,1h-.57l-.06-.53h0a1.41,1.41,0,0,1-1.21.62,1.14,1.14,0,0,1-1.2-1.17c0-1,.86-1.53,2.38-1.52,0-.35,0-1.13-.93-1.13a1.84,1.84,0,0,0-1,.29l-.15-.43a2.32,2.32,0,0,1,1.26-.34c1.16,0,1.46.82,1.46,1.63Zm-.62-1.16c-.78,0-1.75.12-1.75,1a.69.69,0,0,0,.71.77,1,1,0,0,0,1-1Z"/><path class="cls-6" d="M292.85,188.31h-.62v-2.38c0-.8-.28-1.31-.9-1.31a1,1,0,0,0-1,1.1v2.59h-.62v-2.54c0-.66-.28-1.15-.86-1.15a1.12,1.12,0,0,0-1,1.17v2.52h-.62v-3.06c0-.42,0-.72,0-1.06h.55l0,.66h0a1.37,1.37,0,0,1,1.25-.75,1.17,1.17,0,0,1,1.13.82h0a1.46,1.46,0,0,1,1.33-.82c.5,0,1.3.32,1.3,1.73Z"/><path class="cls-9" d="M289.42,189.75c-2.37,1.19-2.37,5.1-2.37,5.1v9.73c0,1.64,3.72,3,8.31,3s8.3-1.33,8.3-3V194.35s-.29-3.56-1.66-4.94"/><path class="cls-10" d="M288.24,193.46a49.58,49.58,0,0,0,6.52.44c3.56,0,7.72.45,7.72-.07v10.75a16.19,16.19,0,0,1-7.12,1.88c-3.56-.1-7.12-1.28-7.12-1.88Z"/><path class="cls-9" d="M302.48,186.19v2.37c0,1.31-3.19,2.38-7.12,2.38s-7.12-1.07-7.12-2.38v-2.37"/><ellipse class="cls-9" cx="295.36" cy="186.19" rx="7.12" ry="2.37"/><path class="cls-6" d="M289.67,200.93a2.25,2.25,0,0,1-.46,1.66A1.75,1.75,0,0,1,288,203l-.07-.5c1-.07,1.07-.7,1.07-1.88v-3.52h.63Zm-.32-4.52a.4.4,0,0,1-.4-.43.41.41,0,0,1,.42-.42.43.43,0,0,1,0,.85Z"/><path class="cls-6" d="M293.59,200.27a6.2,6.2,0,0,0,.06,1h-.57l-.06-.53h0a1.46,1.46,0,0,1-1.22.62,1.14,1.14,0,0,1-1.2-1.17c0-1,.86-1.53,2.38-1.52,0-.35,0-1.14-.93-1.14a1.76,1.76,0,0,0-1,.3l-.15-.43a2.38,2.38,0,0,1,1.26-.35c1.16,0,1.46.82,1.46,1.64Zm-.62-1.15c-.77,0-1.75.11-1.75,1a.68.68,0,0,0,.71.76,1,1,0,0,0,1-1Z"/><path class="cls-6" d="M300.4,201.26h-.61v-2.38c0-.8-.29-1.32-.91-1.32a1.05,1.05,0,0,0-1,1.1v2.6h-.62v-2.54c0-.66-.28-1.16-.86-1.16a1.12,1.12,0,0,0-1,1.17v2.53h-.62V198.2c0-.43,0-.73,0-1.07h.55l0,.67h0a1.39,1.39,0,0,1,1.26-.76,1.17,1.17,0,0,1,1.12.82h0a1.43,1.43,0,0,1,1.32-.82c.5,0,1.3.33,1.3,1.74Z"/><path class="cls-10" d="M294.92,102.93s3.56-5.71,8.74-6.91,10.14,2.08,13.6,6.91.31,4.44.31,4.44S304.74,99.18,294.92,102.93Z"/><path class="cls-10" d="M282.75,120.43s-10.8-5.36-2.07-10.1,32,0,32,0S281.47,110.44,282.75,120.43Z"/></g></g></svg>