<svg xmlns="http://www.w3.org/2000/svg" viewBox="0 0 418.07 195.41"><defs><style>.cls-1{fill:#231815;}.cls-2,.cls-6{fill:none;}.cls-2{stroke:#d3c9b3;stroke-width:4.01px;}.cls-2,.cls-6,.cls-8,.cls-9{stroke-linecap:round;stroke-linejoin:round;}.cls-3{fill:#dc2715;}.cls-4,.cls-9{fill:#fff;}.cls-5{fill:#040000;}.cls-6,.cls-8,.cls-9{stroke:#040000;stroke-width:2.01px;}.cls-7{fill:#efeb64;}.cls-8{fill:#fcfdfd;}</style></defs><g id="レイヤー_2" data-name="レイヤー 2"><g id="レイヤー_1-2" data-name="レイヤー 1"><path class="cls-1" d="M21.64,83.55a8.66,8.66,0,0,0-.1-1.61h2a12,12,0,0,0-.09,1.61v1h1.21a8.71,8.71,0,0,0,1.64-.1v1.83A10.86,10.86,0,0,0,25,86.17a17.39,17.39,0,0,1-1.16,5.17c1.07,1.37,1.21,1.56,2.42,3.26l-1.35,1.5a24.23,24.23,0,0,0-2-2.95,16.65,16.65,0,0,1-3.39,4.22,6.16,6.16,0,0,0-1.3-1.59,11.8,11.8,0,0,0,3.5-4.18,31.7,31.7,0,0,0-2.9-3.14l1.24-1.26,1.35,1.38c.14.14.43.46,1.08,1.21a16.32,16.32,0,0,0,.66-3.62H20a10.67,10.67,0,0,0-1.59.09V84.4a12,12,0,0,0,1.69.1h1.55Zm5.68,4.6a22.31,22.31,0,0,1,2.41,3.94l-1.56,1A14.92,14.92,0,0,0,25.78,89Zm1-1.05a10.39,10.39,0,0,0-1.62.08V85.3a10,10,0,0,0,1.62.09h2.16V84a11.05,11.05,0,0,0-.12-2h2a15.16,15.16,0,0,0-.1,2v1.35h.2a9.72,9.72,0,0,0,1.61-.1V87.2l-.4,0a8.78,8.78,0,0,0-1.19-.05h-.22v8.24c0,.88-.05,1.17-.31,1.48s-.94.58-2.06.58c-.7,0-1.33,0-2-.07a5.64,5.64,0,0,0-.53-1.89,17.66,17.66,0,0,0,2.07.2c.92,0,1,0,1-.41V87.1Z"/><path class="cls-1" d="M38.24,85.2c0,7.42-.33,9.59-1.76,12.25A6.84,6.84,0,0,0,35,96a8.42,8.42,0,0,0,1.11-3,49.49,49.49,0,0,0,.35-7.22c0-1.23,0-1.81-.06-2.39a13.28,13.28,0,0,0,1.77.09h4.35v-.75a4.36,4.36,0,0,0-.09-1h2.07a3.78,3.78,0,0,0-.09,1v.74h4.42a13.92,13.92,0,0,0,2-.11v1.9a15.86,15.86,0,0,0-2-.09H43.15A21.78,21.78,0,0,1,47.42,88L46.1,89.48a16.8,16.8,0,0,0-4.33-3.12l1.31-1.16Zm-.14,10a10.2,10.2,0,0,0,.92-2.8,21.23,21.23,0,0,0,.38-3.29l1.77.46a22.56,22.56,0,0,1-1.34,6.74ZM44,88.12a12.7,12.7,0,0,0-.08,1.6v5.36c0,.46.13.53,1.16.53,1.35,0,1.36-.07,1.36-3.14a7.36,7.36,0,0,0,1.81.6c-.13,2.33-.29,3.19-.66,3.67s-1.08.66-2.53.66c-2.37,0-3-.26-3-1.28V89.71a7.34,7.34,0,0,0-.1-1.59ZM49.24,96a20.54,20.54,0,0,0-2-6.18L48.9,89a30.41,30.41,0,0,1,2.17,6.11Z"/><path class="cls-1" d="M55,84.71a10,10,0,0,1-1.73,1.84A7.24,7.24,0,0,0,52,85.27a7,7,0,0,0,2.63-3.48l1.83.33c-.07.11-.24.46-.55,1h2.28a12.85,12.85,0,0,0,1.66-.1v1.19a5.76,5.76,0,0,0,1.3-2.44l1.82.33c-.34.71-.34.71-.49,1h3.36a13.93,13.93,0,0,0,1.87-.11v1.76a13.16,13.16,0,0,0-1.79-.08h-1.4A12.89,12.89,0,0,1,65.26,86l-1.72.46a10.37,10.37,0,0,0-.82-1.75H61.59a8.69,8.69,0,0,1-1,1.21h.26a5.51,5.51,0,0,0-.09.92h5a10.51,10.51,0,0,0,1.82-.12v1.77a13,13,0,0,0-1.82-.08h-5v.85h3.88a15.5,15.5,0,0,0,1.58-.07,11,11,0,0,0-.07,1.42v1.6a1.16,1.16,0,0,1-.49,1.11,2.67,2.67,0,0,1-1.26.19c-.31,0-.72,0-1.2,0A4.38,4.38,0,0,0,62.87,92a9.22,9.22,0,0,0,1.08.1c.36,0,.47-.06.47-.32v-1H60.77v.62a11.18,11.18,0,0,0,3.36,2.71,18.41,18.41,0,0,0,3.76,1.4,6.74,6.74,0,0,0-1.23,1.69,18.86,18.86,0,0,1-3.33-1.57,10.54,10.54,0,0,1-1.55-1.16,5.8,5.8,0,0,1-1.07-1.15c0,.57,0,.79,0,1.25l0,1.3a8.47,8.47,0,0,0,.13,1.77H58.81A9,9,0,0,0,59,96v-.19l0-1.25c0-.22,0-.75,0-1.19a9.64,9.64,0,0,1-2.66,2.37,19,19,0,0,1-2.86,1.42,6.38,6.38,0,0,0-1.32-1.64,19,19,0,0,0,3.58-1.47,12.21,12.21,0,0,0,2-1.4,6.61,6.61,0,0,0,1.24-1.29v-.62H55.61v1.5a9.59,9.59,0,0,0,.06,1.38H53.76a13.19,13.19,0,0,0,.09-1.57v-1.5a11.55,11.55,0,0,0-.07-1.38,12.54,12.54,0,0,0,1.48.07h3.67v-.85H54.28c-.71,0-1.29,0-1.81.08V86.74a11.46,11.46,0,0,0,1.81.12h4.65a6.26,6.26,0,0,0-.08-.92H60a5.46,5.46,0,0,0-1-.87l.37-.33a7.52,7.52,0,0,0-.77,0h-1A13.67,13.67,0,0,1,58.32,86l-1.67.48a13.27,13.27,0,0,0-.77-1.76Z"/><path class="cls-1" d="M70.24,83.94a21,21,0,0,0,4,.22,6.75,6.75,0,0,0,.68-2.11l2.24.24a14,14,0,0,0-.68,1.53c-.09.19-.12.24-.16.31.14,0,.14,0,1.08-.07a23.34,23.34,0,0,0,4.47-.58L82,85.42l-1.35.14c-1.25.16-3.41.29-5.14.34a8.46,8.46,0,0,1-1.57,2.27l0,0,.34-.26a4.12,4.12,0,0,1,2.41-.77A2.25,2.25,0,0,1,79.1,89c1.31-.48,2.18-.78,2.61-.92A5.12,5.12,0,0,0,83,87.56l.8,2a14.35,14.35,0,0,0-1.89.46c-.24.07-1.1.36-2.56.87V91c0,.44,0,.44,0,.68v.68c0,.29,0,.45,0,.57a7.85,7.85,0,0,0,.05.9l-2,0a13.4,13.4,0,0,0,.1-2v-.41a9.56,9.56,0,0,0-1.63.89,1.78,1.78,0,0,0-.89,1.4c0,.89.82,1.24,2.88,1.24a14.87,14.87,0,0,0,5-.71l.17,2.2a4.21,4.21,0,0,0-.79.07,32.15,32.15,0,0,1-4.37.3,7.36,7.36,0,0,1-3.8-.71A2.49,2.49,0,0,1,72.84,94a2.72,2.72,0,0,1,.75-1.9,8.34,8.34,0,0,1,3.66-2.4.93.93,0,0,0-1-.92,5.73,5.73,0,0,0-3.49,1.75,8.08,8.08,0,0,0-1.49,1.55l-1.55-1.53A10.23,10.23,0,0,0,71.21,89a21.67,21.67,0,0,0,2.05-2.92,1,1,0,0,1,.14-.22l-.29,0-2.15,0h-.75Z"/><path class="cls-1" d="M87.47,83.6a9.6,9.6,0,0,0-.12-1.74h2.07a8.2,8.2,0,0,0-.11,1.69v2.51A6.66,6.66,0,0,0,90.58,86v1.87a8,8,0,0,0-1.27,0v7.73a13.19,13.19,0,0,0,.11,2.12H87.35a13.79,13.79,0,0,0,.12-2.15v-7.7h-.1a12.86,12.86,0,0,0-1.54.07V86a9.2,9.2,0,0,0,1.54.09h.1Zm4.28,5a5.65,5.65,0,0,0-1-1.28,5.84,5.84,0,0,0,3.17-2.37H92.59A10.09,10.09,0,0,0,91,85V83.17a16.68,16.68,0,0,0,1.74.09H94.4a6.82,6.82,0,0,0,.08-1.18s0-.14,0-.31l2,.11c-.05.15-.06.32-.15.83,0,.24,0,.34-.08.55h2.84a11.1,11.1,0,0,0,1.59-.09c0,.36-.07.62-.1,1.2-.14,2.16-.34,3-.84,3.44s-.87.43-2.18.43c-.39,0-.7,0-1.47,0a4.94,4.94,0,0,0-.42-1.72,11.92,11.92,0,0,0,2.08.18c.66,0,.78-.22.87-1.74H95.8a6.81,6.81,0,0,1-3.59,3.65l.94,0a4.62,4.62,0,0,0-.08.9,2.58,2.58,0,0,1,0,.35h.87a13.61,13.61,0,0,0,1.55-.07,9.68,9.68,0,0,0,0,1.07,24.2,24.2,0,0,1-.51,5.33,7.14,7.14,0,0,0,2-4.68h-.41a4,4,0,0,0-.58,0V89.76a5.16,5.16,0,0,0,1.13.07v-.6a5.88,5.88,0,0,0,0-.7l1.79,0a5.75,5.75,0,0,0-.08,1,1.42,1.42,0,0,1,0,.29h1.25a13.47,13.47,0,0,0,1.53-.07c0,.39,0,.53,0,1.06-.1,3.27-.29,5-.65,5.71s-.8.84-2.05.84a6.67,6.67,0,0,1-.76,0,5.58,5.58,0,0,0-.33-1.82,5.93,5.93,0,0,0,1.2.13c.34,0,.47-.08.53-.32a18.49,18.49,0,0,0,.35-3.84H98.56a13,13,0,0,1-.92,3.74,7.55,7.55,0,0,1-1.48,2.37,5.23,5.23,0,0,0-1.28-1.33,1.28,1.28,0,0,1-.74.92,4.47,4.47,0,0,1-1.33.17,5.22,5.22,0,0,1-.66,0,6.8,6.8,0,0,0-.29-1.72,8.08,8.08,0,0,1-1.25,2A9,9,0,0,0,89.37,96a5.58,5.58,0,0,0,1.21-1.81,9.09,9.09,0,0,0,.7-2.75h-.41a5.38,5.38,0,0,0-.84,0V89.77a5.36,5.36,0,0,0,1,.06h.41v-.36a6.59,6.59,0,0,0-.05-.91Zm1.15,2.92a13,13,0,0,1-1,4,5.41,5.41,0,0,0,1.11.13c.33,0,.43-.1.51-.47a19.3,19.3,0,0,0,.31-3.69Z"/><path class="cls-1" d="M108.12,86.48a8.74,8.74,0,0,0-1.27-.07h-2.74a8,8,0,0,0-1.27.07V84.74a6.37,6.37,0,0,0,1.27.09h2.67a9.18,9.18,0,0,0,1.34-.07Zm-4.94,11.16a12.19,12.19,0,0,0,.11-1.69V93.53a11.83,11.83,0,0,0-.07-1.44,6.35,6.35,0,0,0,1.12.06h2.31a6.83,6.83,0,0,0,1.14-.06c0,.36,0,.53,0,1.4v2.43c0,.58,0,.9,0,1.38h-1.49v-.53h-1.53v.87Zm.16-15.32a5.91,5.91,0,0,0,1.21.09h2.06a5.73,5.73,0,0,0,1.21-.09v1.74a7.77,7.77,0,0,0-1.21-.07h-2.06a7.69,7.69,0,0,0-1.21.07Zm0,5a10.76,10.76,0,0,0,1.21,0h1.86c.63,0,.9,0,1.26,0v1.58c-.41,0-.63,0-1.26,0H104.6a11.57,11.57,0,0,0-1.21,0Zm0,2.37a11,11,0,0,0,1.21,0h1.86a12.41,12.41,0,0,0,1.26,0v1.58a8.74,8.74,0,0,0-1.26,0H104.6a11.85,11.85,0,0,0-1.21,0Zm1.4,5.66h1.53V93.55h-1.53ZM118,93.24c-.4.46-1.33,1.43-1.64,1.74.34.49.63.73.83.73s.43-.44.57-1.52a4.11,4.11,0,0,0,1.23.86,4.49,4.49,0,0,1-.53,1.82,1.12,1.12,0,0,1-1,.58A3,3,0,0,1,115.19,96a16.25,16.25,0,0,1-2.26,1.38,8.76,8.76,0,0,0-1-1.33,11.49,11.49,0,0,0,2.52-1.38,9.35,9.35,0,0,1-.71-2.31h-2.15v.81c.63-.12,1-.21,1.77-.38l0,1.35c-.4.08-.52.1-1.22.27l-.59.14V96a1.33,1.33,0,0,1-.45,1.21c-.29.24-.68.31-1.6.31-.27,0-.44,0-.85,0a6.14,6.14,0,0,0-.31-1.47,7.27,7.27,0,0,0,1.19.1c.38,0,.48-.08.48-.37v-.94l-1.69.3-.23-1.51h.15a12.3,12.3,0,0,0,1.77-.21V92.33h-.63a6.51,6.51,0,0,0-1.26.09V90.83a7.82,7.82,0,0,0,1.3.07H110v-.61c-.37,0-.7.08-1.26.13a3.43,3.43,0,0,0-.51-1.09,10,10,0,0,0,4-.8l.89,1-.21.09a12.07,12.07,0,0,1-1.36.36v.9h2c0-.37,0-.49-.07-.82a8.61,8.61,0,0,0-.12-1.28H115a5.49,5.49,0,0,0-.05.7c0,.31,0,.85.08,1.4H117a7.16,7.16,0,0,0,1.45-.1v1.62a7.4,7.4,0,0,0-1.45-.09h-1.69a5.72,5.72,0,0,0,.39,1.3,5,5,0,0,0,1.08-1.28Zm-7.32-10a6.06,6.06,0,0,0-.74-1.21l1.66-.43a10.2,10.2,0,0,1,.87,1.64H114a8.07,8.07,0,0,0,.74-1.64l1.74.39c-.22.45-.41.82-.67,1.25h.79a7.33,7.33,0,0,0,1.4-.09v1.47a11.67,11.67,0,0,0-1.4-.07h-2.72v.65h2.14a10.49,10.49,0,0,0,1.38-.07v1.37a11.55,11.55,0,0,0-1.38-.07h-2.14v.63h3a7.31,7.31,0,0,0,1.47-.09v1.47a10.1,10.1,0,0,0-1.45-.07h-7.18a9.47,9.47,0,0,0-1.45.07V87a9.82,9.82,0,0,0,1.45.07h2.59v-.63h-1.89a9.26,9.26,0,0,0-1.38.07V85.15a10.59,10.59,0,0,0,1.38.07h1.89v-.65H110a11.92,11.92,0,0,0-1.42.07V83.17a7.69,7.69,0,0,0,1.42.09Zm5.61,5.27a13.43,13.43,0,0,1,1.62,1.36l-1.14.84a6.71,6.71,0,0,0-1.59-1.48Z"/><path class="cls-1" d="M129.56,89.72a2,2,0,1,1-2-2A2,2,0,0,1,129.56,89.72Z"/><path class="cls-1" d="M147.76,95.52a14.25,14.25,0,0,0,1.83.09,27.88,27.88,0,0,0,2.83-.12A7.5,7.5,0,0,0,152,97.3h-1.72a10.91,10.91,0,0,1-4.83-.71,6.22,6.22,0,0,1-1.91-1.55,10.9,10.9,0,0,1-1.79,2.64,6.41,6.41,0,0,0-1.29-1.18c-.18.79-.64,1-2,1-.38,0-.8,0-1.42-.05a5,5,0,0,0-.39-1.76,13.31,13.31,0,0,0,1.45.1c.5,0,.6-.08.6-.51V91.48c-.39.15-.6.22-.92.32s-.65.24-.89.35l-.27-1.9a11.54,11.54,0,0,0,2.08-.54v-3h-.74a10.83,10.83,0,0,0-1.22.07V84.91A5.65,5.65,0,0,0,138,85h.7V83.67a9.93,9.93,0,0,0-.1-1.74h2a8.65,8.65,0,0,0-.11,1.72V85h1.3a.88.88,0,0,1,.15,0,.42.42,0,0,1,.14,0v1.77c-.36,0-.61,0-1,0h-.58v2.39c.63-.24.8-.31,1.49-.62v.75a9.42,9.42,0,0,0,1.41.07h7.1a9.92,9.92,0,0,0,1.57-.08v1.74a10.3,10.3,0,0,0-1.57-.09h-2.73v1.42h2.13a8.72,8.72,0,0,0,1.52-.09v1.66a9.09,9.09,0,0,0-1.52-.09h-2.13Zm-3-3.7c-.05.14-.12.34-.31,1-.07.22-.12.38-.2.67a4.23,4.23,0,0,0,1.79,1.6V90.83h-2.77a9.17,9.17,0,0,0-1.31.07v-.7c-.58.26-.77.34-1.42.6v5.07c0,.15,0,.23,0,.42A7.39,7.39,0,0,0,142,94.42a8.36,8.36,0,0,0,1-3Zm-.6-3.39c-.68,0-1,0-1.43,0,0-.25,0-.83,0-1.74V84c0-.67,0-1.18,0-1.61a16.21,16.21,0,0,0,1.65.07h5.09a14.92,14.92,0,0,0,1.63-.07A10.82,10.82,0,0,0,151,84v2.81c0,.63,0,.69.07,1.71-.45,0-1,0-1.69,0Zm.36-3.67h4.76V84h-4.76Zm0,2.22h4.76v-.82h-4.76Z"/><path class="cls-1" d="M166.94,91.8a14.87,14.87,0,0,0,1.94-.1v1.73a16.82,16.82,0,0,0-1.94-.09h-3.48a14.88,14.88,0,0,0,5.8,2.47,6.94,6.94,0,0,0-.94,1.71,15.59,15.59,0,0,1-3.79-1.59A13.49,13.49,0,0,1,162,94.06c0,.49.05,1.12.05,1.34v.77a8.29,8.29,0,0,0,.09,1.43h-2a7.07,7.07,0,0,0,.1-1.43v-.75c0-.2,0-.27,0-.54v-.43a2.79,2.79,0,0,1,0-.36,15.67,15.67,0,0,1-6,3.45,5.46,5.46,0,0,0-1.06-1.64,15.44,15.44,0,0,0,5.59-2.56h-3.13a14.56,14.56,0,0,0-1.93.09V91.7a14.55,14.55,0,0,0,1.89.1h4.64v-.11a6.44,6.44,0,0,0-.08-1.11h2a5.36,5.36,0,0,0-.09,1.11v.11Zm-1.59-4.6a6.86,6.86,0,0,1-1.54,1.55A38.15,38.15,0,0,1,168.13,90L167,91.38a38.41,38.41,0,0,0-4.91-1.64,20.5,20.5,0,0,1-7.37,1.42,4.29,4.29,0,0,0-.72-1.47h.53a23.94,23.94,0,0,0,4.93-.55c-.61-.1-.92-.15-3.28-.46a11.84,11.84,0,0,0,1.56-1.48h-2c-.75,0-1.31,0-1.87.08V85.72a11.26,11.26,0,0,0,1.72.08h3.27a9.87,9.87,0,0,0,.89-1.43l1.83.42a4.36,4.36,0,0,0-.34.45l-.23.3a1.37,1.37,0,0,1-.18.26H167a12.1,12.1,0,0,0,1.74-.08v1.56a15.94,15.94,0,0,0-1.87-.08Zm-5.08-4.35a6.92,6.92,0,0,0-.09-1.14h2.08a5.18,5.18,0,0,0-.08,1.14h4.57c.83,0,1.28,0,1.84-.07a8.39,8.39,0,0,0-.07,1.21v.5a9.23,9.23,0,0,0,0,1h-1.82V84.33H156v1.15h-1.84a5.94,5.94,0,0,0,.07-1V84a9.17,9.17,0,0,0-.07-1.19c.59,0,1.12.07,1.87.07Zm-.53,4.35c-.19.22-.29.32-.57.61,1.27.22,1.54.28,2.6.5a6,6,0,0,0,1.48-1.11Z"/><path class="cls-1" d="M22.15,27.17a19.21,19.21,0,0,0-2.1.07V25a11.2,11.2,0,0,0,2.14.12H30V17.72H22.48a18.75,18.75,0,0,0-2.19.08V15.59a11.67,11.67,0,0,0,2.2.12H30.7c.89,0,.89,0,1.48,0a10.61,10.61,0,0,0,0,1.42v9.36a10.92,10.92,0,0,0,.09,1.76H29.93v-1Z"/><path class="cls-1" d="M36.6,26a16.41,16.41,0,0,0,5-1.26,11.46,11.46,0,0,0,5.07-4.18,14.26,14.26,0,0,0,1.74-3.42,7.26,7.26,0,0,0,1.81,1.68,14.93,14.93,0,0,1-5.41,6.68A18.41,18.41,0,0,1,38.36,28a7,7,0,0,0-1.13.29Zm1.45-10.59a23.71,23.71,0,0,1,4.4,3.29L41,20.52a18.09,18.09,0,0,0-4.36-3.47Z"/><path class="cls-1" d="M62.17,17.5l0-.77v-.55a12.06,12.06,0,0,0-.08-1.89h2.2a5.53,5.53,0,0,0-.07,1.14c0,1,0,1,0,2.07h1.09a12.38,12.38,0,0,0,2.22-.12v2.08a16.83,16.83,0,0,0-2.18-.09H64.2a19.2,19.2,0,0,1-.12,2.82,6.84,6.84,0,0,1-2.45,4.9,9.68,9.68,0,0,1-3.33,1.79A5,5,0,0,0,57,27.07a8.09,8.09,0,0,0,3.26-1.62,5.37,5.37,0,0,0,1.81-4.1c0-.39,0-.8.07-2H57.74v2.56a9.32,9.32,0,0,0,.07,1.44H55.59a11.5,11.5,0,0,0,.07-1.47V19.37h-1a16.91,16.91,0,0,0-2.19.09V17.38a12.38,12.38,0,0,0,2.22.12h1V15.79a8.94,8.94,0,0,0-.09-1.52h2.24a8.4,8.4,0,0,0-.07,1.47V17.5Z"/><path class="cls-1" d="M74.63,14.79a33.89,33.89,0,0,0-.17,3.82c-.12,3.32-.5,5.25-1.39,7a10.6,10.6,0,0,1-2.35,3.15A6.23,6.23,0,0,0,69,27.12a7,7,0,0,0,1.75-2c1.23-2,1.62-4.17,1.62-8.94a9.69,9.69,0,0,0-.06-1.55Zm4.52-.21A8.28,8.28,0,0,0,79,16.2l-.09,9.71A6.87,6.87,0,0,0,81.55,24a8.23,8.23,0,0,0,1.67-3.12,7,7,0,0,0,1.61,1.6,10.7,10.7,0,0,1-2.71,4,11.26,11.26,0,0,1-3.64,2,7,7,0,0,0-.73.3l-1.09-1.16a7.76,7.76,0,0,0,.15-1.8l.09-9.63v-.51a7.46,7.46,0,0,0-.07-1.12Z"/><path class="cls-1" d="M95.78,21.52a2,2,0,1,1-2-2A2,2,0,0,1,95.78,21.52Z"/><path class="cls-1" d="M111.15,18.4a8.25,8.25,0,0,0-.07,1.38c-.07,2.92-.53,4.56-1.69,6a9.74,9.74,0,0,1-4.4,3.07A5.89,5.89,0,0,0,103.64,27a8,8,0,0,0,3-1.45c1.74-1.38,2.29-2.85,2.29-6.08a4.18,4.18,0,0,0-.09-1Zm6.93-2.15a4.86,4.86,0,0,0-.69,1.2,10.82,10.82,0,0,1-4.67,4.84,5.77,5.77,0,0,0-1.53-1.55,8,8,0,0,0,2.49-1.57A7.38,7.38,0,0,0,115.3,17h-9a17.37,17.37,0,0,0-2.32.1V15a12.8,12.8,0,0,0,2.35.14h8.91a4.84,4.84,0,0,0,1.65-.15Z"/><path class="cls-1" d="M123.23,28.77a12.15,12.15,0,0,0,.1-1.91V15.93a11.44,11.44,0,0,0-.1-1.74h2.34A14.2,14.2,0,0,0,125.5,16v3.17a49.33,49.33,0,0,1,7.74,3.6l-1.19,2a41.56,41.56,0,0,0-6-3.25c-.39-.19-.44-.21-.58-.29a9.84,9.84,0,0,1,.07,1.16v4.5a17.59,17.59,0,0,0,.07,1.89Zm7-13.69a11.15,11.15,0,0,1,1.79,2.5l-1.19.63a11.84,11.84,0,0,0-1.8-2.54Zm2.64,2.06a12.13,12.13,0,0,0-1.74-2.47l1.14-.6a9.78,9.78,0,0,1,1.78,2.4Z"/><path class="cls-1" d="M143,15.66a1.36,1.36,0,0,0-.08.34l0,.29-.08.49-.06.41c-.71,4.9-2,8.26-4.33,10.88a7.37,7.37,0,0,0-1.94-1.46A11.72,11.72,0,0,0,138.86,23a20.69,20.69,0,0,0,1.6-5.85,12.83,12.83,0,0,0,.15-1.65v-.24Zm4.84-.43a21.74,21.74,0,0,0,.72,3.92,16.49,16.49,0,0,0,3.81,7.37,7.21,7.21,0,0,0-1.88,1.57,22.52,22.52,0,0,1-4.52-11.22,6.39,6.39,0,0,0-.24-1.23Zm1.45-1A9.85,9.85,0,0,1,150.66,17l-1.29.41a11.89,11.89,0,0,0-1.4-2.78Zm2.36,2.47a11.57,11.57,0,0,0-1.37-2.7l1.27-.35a10.46,10.46,0,0,1,1.4,2.64Z"/><path class="cls-1" d="M167.77,15.52a6,6,0,0,0-.63.6,31,31,0,0,1-4,3.51v7.28a12.92,12.92,0,0,0,.08,1.9h-2.39a9.31,9.31,0,0,0,.1-1.84V21a27.42,27.42,0,0,1-6.09,2.76,6.27,6.27,0,0,0-1.14-1.94,24.94,24.94,0,0,0,9-4.44,13.29,13.29,0,0,0,3.17-3.19Z"/><path class="cls-1" d="M180.22,17.62V16.2a13.31,13.31,0,0,0-.06-1.69h2.18a7.21,7.21,0,0,0-.05,1.13c0,.63,0,1.29,0,2h1.08a11.59,11.59,0,0,0,2.23-.12v2.08a14.61,14.61,0,0,0-2.2-.09h-1.12c0,3.07-.21,4.17-.84,5.51a8.22,8.22,0,0,1-5.07,4,5.27,5.27,0,0,0-1.28-1.81c2.43-.68,3.86-1.76,4.59-3.41a10.88,10.88,0,0,0,.55-4.27h-4.42V22a9.87,9.87,0,0,0,.07,1.43h-2.22a11.74,11.74,0,0,0,.07-1.47V19.49h-1a14.53,14.53,0,0,0-2.19.09V17.5a11.6,11.6,0,0,0,2.22.12h1V15.91a7.71,7.71,0,0,0-.09-1.52h2.24a8.45,8.45,0,0,0-.07,1.45v1.78Zm3.26-4.1a10.66,10.66,0,0,1,1.18,2.66l-1.18.35a10,10,0,0,0-1.16-2.68Zm2.1,2.44a10.5,10.5,0,0,0-1.16-2.57l1.09-.34a10.64,10.64,0,0,1,1.16,2.55Z"/><path class="cls-1" d="M187.77,20.28a16.94,16.94,0,0,0,2.76.12h9.09a17.17,17.17,0,0,0,2.77-.12v2.37a17.81,17.81,0,0,0-2.78-.09h-9.06a17.73,17.73,0,0,0-2.78.09Z"/><path class="cls-1" d="M210.56,15.09c-.09.5-.21,1.2-.38,2.12-.05.29-.05.29-.1.51.51,0,.75,0,1.06,0a3.29,3.29,0,0,1,2.52.91,4.15,4.15,0,0,1,.8,3c0,2.93-.49,5.27-1.31,6.21a2.17,2.17,0,0,1-1.89.77,7.81,7.81,0,0,1-2.63-.52c0-.32,0-.58,0-.75a6.25,6.25,0,0,0-.17-1.45,7.2,7.2,0,0,0,2.49.69c.5,0,.77-.33,1-1.16a15.33,15.33,0,0,0,.44-3.89c0-1.57-.39-2-1.71-2a9.15,9.15,0,0,0-1,.05,36.38,36.38,0,0,1-3.48,9.28l-2-1.09a25.06,25.06,0,0,0,3.43-8l-.8.14-1.55.25c-.28.05-.46.11-.7.17l-.21-2a34.91,34.91,0,0,0,3.64-.36,24.32,24.32,0,0,0,.44-3.44v-.31l2.22.22c0,.14-.1.36-.14.53Zm5.18-.7a11,11,0,0,1,1.79,2.51l-1.19.63A11.46,11.46,0,0,0,214.55,15Zm1.59,3.38a15.86,15.86,0,0,1,2.56,5.43l-1.95,1a16.16,16.16,0,0,0-2.33-5.55Zm1.06-1.31A12.91,12.91,0,0,0,216.65,14l1.14-.59a9.5,9.5,0,0,1,1.77,2.4Z"/><path class="cls-1" d="M221.19,16.47a7.19,7.19,0,0,0,1.36.09h3.51a9.46,9.46,0,0,0,1.37-.07v1.76a8,8,0,0,0-1.3-.07h-3.58a10.16,10.16,0,0,0-1.36.07ZM229,17.82a6.31,6.31,0,0,0-1.23.09V16a9.49,9.49,0,0,0,1.81.1H231v-.92a9.14,9.14,0,0,0-.1-1.48h2a8.52,8.52,0,0,0-.11,1.48v.92h2.1a9.61,9.61,0,0,0,1.81-.1v1.89a10.79,10.79,0,0,0-1.79-.1h-3.47v.75c0,.67,0,.67,0,1.33h3a8,8,0,0,0,1.38-.07,12.3,12.3,0,0,0,0,1.47,29,29,0,0,1-.52,6.38c-.4,1.15-.87,1.4-2.66,1.4-.3,0-.65,0-1.34-.07a6.43,6.43,0,0,0-.41-1.86,12.15,12.15,0,0,0,1.8.21c.75,0,.88-.14,1-1a31.78,31.78,0,0,0,.27-4.79H231.3a18.3,18.3,0,0,1-.92,4.37,9.39,9.39,0,0,1-2.18,3.49,7.53,7.53,0,0,0-1.2-1.33c0,.48,0,.65,0,.94h-1.71v-.53h-1.88v.87h-1.77c0-.52.09-1.14.09-1.67V25.05a10.69,10.69,0,0,0-.07-1.33,5.7,5.7,0,0,0,1.14.07H226a6,6,0,0,0,1-.05A6.87,6.87,0,0,0,227,25v2.71A7.3,7.3,0,0,0,229,24.36a20.5,20.5,0,0,0,.63-4.34c0-.54,0-.54,0-2.2ZM221.78,19a9.75,9.75,0,0,0,1.08.05H226a8.46,8.46,0,0,0,1-.05v1.6a9.21,9.21,0,0,0-1-.05h-3.17a9.49,9.49,0,0,0-1.08.05Zm0,2.38a7.51,7.51,0,0,0,1.08.06H226a6.66,6.66,0,0,0,1.06-.06V23a9.42,9.42,0,0,0-1.07,0h-3.16a9.62,9.62,0,0,0-1.06,0Zm0-7.33a7.31,7.31,0,0,0,1.38.08h2.49a7.31,7.31,0,0,0,1.38-.08v1.64a13.55,13.55,0,0,0-1.38-.05h-2.49a13.32,13.32,0,0,0-1.38.05ZM223.42,27h1.91V25.26h-1.91Z"/><path class="cls-1" d="M240.45,27.24a14.58,14.58,0,0,0,.1,2.1h-2a15.1,15.1,0,0,0,.1-2.12V16.05c0-.91,0-1.38-.06-1.93a16.17,16.17,0,0,0,1.74.07h3a14.76,14.76,0,0,0,1.74-.07c0,.55-.06.94-.06,1.6v2.82a13.52,13.52,0,0,0,.06,1.53c-.41,0-1-.05-1.57-.05h-3.07Zm0-10.77h2.91v-.88h-2.91Zm0,2.22h2.91v-.9h-2.91Zm8.63,6.76a9.5,9.5,0,0,0,0,1.16,10.72,10.72,0,0,0-1.21-.05h-3.81V27.7H242.3a13.27,13.27,0,0,0,.09-1.66V22.39c0-.46,0-.83,0-1.19.37,0,.77.05,1.26.05h4.22c.52,0,1,0,1.31-.05a9.86,9.86,0,0,0,0,1.18Zm-5-.45h3.25V22.77h-3.25Zm8.81,2.24c0,.94-.16,1.38-.6,1.65a3.39,3.39,0,0,1-1.79.28c-.28,0-.46,0-1.59-.07a5.77,5.77,0,0,0-.48-1.81,18.8,18.8,0,0,0,2.1.15c.48,0,.56-.06.56-.44V20h-3.29c-.56,0-1.17,0-1.55.05,0-.46,0-.8,0-1.53V15.72c0-.64,0-1.11-.05-1.6a15.68,15.68,0,0,0,1.74.07h3.24a16.58,16.58,0,0,0,1.76-.07,14.76,14.76,0,0,0-.08,1.91ZM248,16.47h3.12v-.88H248Zm0,2.22h3.12v-.9H248Z"/><path class="cls-1" d="M22,157.21a9,9,0,0,0-1.6.09v-.91H18.81a7.46,7.46,0,0,0,.08-1.26v-1.26a10.75,10.75,0,0,0-.07-1.28c.55,0,1,.07,1.88.07h4.44v-.4a5.24,5.24,0,0,0-.11-1.07h2.1a5.07,5.07,0,0,0-.08,1.07v.4h4.67c.87,0,1.31,0,1.9-.07a8.28,8.28,0,0,0-.07,1.24v1.3a8,8,0,0,0,.07,1.26H32v.91a9.3,9.3,0,0,0-1.62-.09H27c0,.55,0,.55,0,.94h3.19a10.59,10.59,0,0,0,1.52-.07v1.62a11.26,11.26,0,0,0-1.52-.07H26.86c-.05.43-.07.57-.14.93H32a11.31,11.31,0,0,0,1.76-.09v1.79a14.58,14.58,0,0,0-1.84-.1H27.61a5.79,5.79,0,0,0,1.59,1.43,10.73,10.73,0,0,0,3,1.16c.42.12.95.22,1.89.39A7.2,7.2,0,0,0,33.2,167,17.14,17.14,0,0,1,30,166,9,9,0,0,1,26,162.76a6.65,6.65,0,0,1-2.49,2.67A11.14,11.14,0,0,1,19.32,167a5.5,5.5,0,0,0-.91-1.77,10.7,10.7,0,0,0,3.71-1,5.06,5.06,0,0,0,2.16-2H20.51a15.25,15.25,0,0,0-1.82.1v-1.79a10.66,10.66,0,0,0,1.72.09h4.47a9.08,9.08,0,0,0,.15-.93H22.15a11.23,11.23,0,0,0-1.53.07v-1.62a10.76,10.76,0,0,0,1.53.07h3c0-.48,0-.48,0-.94Zm3.21-1.5a8.84,8.84,0,0,0-.07-1.09h2a5.86,5.86,0,0,0-.07,1.09h3.39c.65,0,.93,0,1.35-.05v-1.4H20.67v1.4a13,13,0,0,0,1.31.05Z"/><path class="cls-1" d="M37.79,158.05a12.45,12.45,0,0,0-1.75.08v-1.62a15.65,15.65,0,0,0,1.75.07h2.07c-.26-.55-.45-.94-.63-1.26H37.38c-.83,0-1.48,0-2,.08v-1.7a14.07,14.07,0,0,0,1.94.1h.55a7.47,7.47,0,0,0-1.16-1.59l1.7-.64a11.81,11.81,0,0,1,1.31,2.23h1v-1.21a9.58,9.58,0,0,0-.09-1.33h1.86c0,.31-.05.68-.05,1.26v1.28h1.21v-1.28c0-.55,0-.94,0-1.26h1.86a8.92,8.92,0,0,0-.09,1.33v1.21h1.08a9,9,0,0,0,1.23-2.29l1.75.65c-.4.68-.68,1.11-1,1.64h.47a13.62,13.62,0,0,0,1.93-.1v1.7c-.53-.05-1.19-.08-2-.08H47c-.33.68-.4.83-.64,1.26h2a15.85,15.85,0,0,0,1.76-.07v1.62a12.36,12.36,0,0,0-1.76-.08H43.9v.82h3.57a11.91,11.91,0,0,0,1.75-.09v1.54a12,12,0,0,0-1.75-.09H43.9v.85h4.76a15,15,0,0,0,2.07-.1v1.71a18.27,18.27,0,0,0-2-.1H45.25A9,9,0,0,0,47.57,164a14.53,14.53,0,0,0,3.55,1,6.81,6.81,0,0,0-1,1.74,13.24,13.24,0,0,1-6.33-3.37,11.84,11.84,0,0,1,0,1.21v.83a9.16,9.16,0,0,0,.12,1.72H42a12.21,12.21,0,0,0,.11-1.74v-.81c0-.4,0-.46.05-1.16a9.42,9.42,0,0,1-2.46,1.87,16.67,16.67,0,0,1-3.48,1.44,7,7,0,0,0-1-1.64,12.34,12.34,0,0,0,5.58-2.42H37.56a18.4,18.4,0,0,0-2.07.1V161a15.7,15.7,0,0,0,2,.1h4.52v-.85H38.68a11.93,11.93,0,0,0-1.74.09v-1.54a11.76,11.76,0,0,0,1.74.09h3.38v-.82Zm6.69-1.47a9,9,0,0,0,.56-1.26H41.16a12.8,12.8,0,0,1,.51,1.26Z"/><path class="cls-1" d="M53.88,166.08c0-.3,0-.41-.08-.8a29.21,29.21,0,0,1-.45-5.1,33.06,33.06,0,0,1,.7-6.67,12.12,12.12,0,0,0,.26-1.59l2.25.24a24,24,0,0,0-1.08,5.1,29.2,29.2,0,0,0-.25,3.77c0,.38,0,.52,0,.94a16.64,16.64,0,0,1,.88-2.25l1.37.61a14,14,0,0,0-1.52,5.17,4.6,4.6,0,0,0,0,.46Zm7.27-6.74a3.89,3.89,0,0,0-1.21,2.46c0,1,.93,1.49,2.71,1.49a12,12,0,0,0,4.06-.65l.17,2.16a6.24,6.24,0,0,0-.7.11,21.09,21.09,0,0,1-3.53.32c-2.12,0-3.48-.48-4.23-1.48a2.91,2.91,0,0,1-.51-1.68,5.57,5.57,0,0,1,1.57-3.51Zm-2.82-5.64a12.62,12.62,0,0,0,3.16.27,18.72,18.72,0,0,0,4.64-.46l.1,2.06-1.21.16a32,32,0,0,1-3.65.2,20,20,0,0,1-3.07-.19Z"/><path class="cls-1" d="M71.25,161.14a18,18,0,0,1-.74,5L69,165.42a13,13,0,0,0,.73-4.56ZM69,158.41c.46,0,.69.05,1.13.05h.32l.81-1.09A19.56,19.56,0,0,0,69,154.86l.94-1.42.51.55a10.6,10.6,0,0,0,1.35-2.94l1.69.67a3.11,3.11,0,0,0-.36.63,21.46,21.46,0,0,1-1.6,2.8c.29.32.36.41.66.78a16.2,16.2,0,0,0,1.57-2.83l1.55.87a10.55,10.55,0,0,0-.59.89c-1,1.62-1.71,2.59-2.46,3.56.84,0,1.16-.07,1.88-.13a8.8,8.8,0,0,0-.5-1.25l1.27-.51A17.62,17.62,0,0,1,76.14,160l-1.34.54c-.09-.36-.12-.49-.19-.73l-1.2.1v5.29a9.78,9.78,0,0,0,.11,1.79h-1.9a10.08,10.08,0,0,0,.11-1.81V160l-2.53.17Zm6.2,2.37a31.41,31.41,0,0,1,.56,4.13l-1.45.27a23.07,23.07,0,0,0-.45-4.1Zm2.32-5.65a14.77,14.77,0,0,0-1.86.1v-1.84a13.24,13.24,0,0,0,1.87.1h1.57v-.9a7.39,7.39,0,0,0-.1-1.3h2a7.36,7.36,0,0,0-.11,1.33v.87h1.95a13.56,13.56,0,0,0,1.89-.1v1.84a16.58,16.58,0,0,0-1.89-.1H80.9v2h1.57c.77,0,1.33,0,1.85-.08v1.84a14.09,14.09,0,0,0-1.83-.1H78c-.61,0-1.28,0-1.81.08V157c.52.05,1.1.08,1.85.08h1.12v-2Zm.59,11.81H76.26a11.46,11.46,0,0,0,.09-1.68v-3.6a13,13,0,0,0-.07-1.63,13,13,0,0,0,1.52.06h4.64a11.5,11.5,0,0,0,1.5-.06,12.69,12.69,0,0,0-.07,1.63v3.45c0,.67,0,1.31.09,1.81H82.08v-.84h-4Zm0-2.49h4v-2.73h-4Z"/><path class="cls-1" d="M86.65,152.91a5.61,5.61,0,0,0,.86.05,17.07,17.07,0,0,0,4.84-.54l1.08,1.84a9.65,9.65,0,0,0-4.3,6.91A2.85,2.85,0,0,0,92,164.26a3.33,3.33,0,0,0,3.13-2.12,9.21,9.21,0,0,0,.63-3.72,14,14,0,0,0-.93-5.18l2-.6a12.32,12.32,0,0,0,4.56,6.29l-1.06,2a.81.81,0,0,1-.14-.16l-.25-.22a13.18,13.18,0,0,1-2.73-3.5,10.77,10.77,0,0,1,.36,3c0,3.67-2.32,6.28-5.55,6.28a5.43,5.43,0,0,1-2.93-.81,5.12,5.12,0,0,1-2.12-4.35,8.43,8.43,0,0,1,1.18-4.11,11,11,0,0,1,1.72-2.2,2.59,2.59,0,0,0,.29-.25.82.82,0,0,1,.19-.19,1.15,1.15,0,0,0-.26.05l-.22.05a23.7,23.7,0,0,1-2.85.33,1.73,1.73,0,0,0-.42.05Zm11.76-1.29a11.15,11.15,0,0,1,1.79,2.5l-1.2.64a11.53,11.53,0,0,0-1.79-2.55Zm2.64,2.06a12.13,12.13,0,0,0-1.74-2.47l1.14-.6a9.78,9.78,0,0,1,1.78,2.4Z"/><path class="cls-1" d="M106.92,164.89c0,.77,0,1.4.08,2.05h-2a17.21,17.21,0,0,0,.1-2.05v-5c0-.84,0-1.23,0-1.91a9.07,9.07,0,0,1-1.46,1.94,7.47,7.47,0,0,0-1-1.94,14.78,14.78,0,0,0,3.16-4.75,9.07,9.07,0,0,0,.7-2.13l2,.55c-.12.25-.24.54-.41,1s-.68,1.63-1.16,2.59Zm7.42-11.45a14.39,14.39,0,0,0-.12-2.11h2.06c-.06.64-.1,1.26-.1,2.11v1.5h.5a10.1,10.1,0,0,0,1.65-.1v1.88c-.46,0-1-.07-1.6-.07h-.55v8c0,.88-.19,1.41-.58,1.67s-.83.32-2.1.32c-.61,0-1.07,0-1.8-.07a6.45,6.45,0,0,0-.55-1.92,16.2,16.2,0,0,0,2.1.17c1,0,1.09,0,1.09-.43v-7.71H109.7a17.53,17.53,0,0,0-2,.1v-1.91a14.8,14.8,0,0,0,1.93.1h4.72ZM110,157.79a20,20,0,0,1,2.62,4L111,162.89a16.35,16.35,0,0,0-2.53-4.14Z"/><path class="cls-1" d="M123.16,153a19.09,19.09,0,0,0-.14,2.6,31.53,31.53,0,0,0,.33,4.57c.29,1.77.83,2.87,1.38,2.87.26,0,.49-.26.7-.74a12.15,12.15,0,0,0,.9-3.09,8.39,8.39,0,0,0,1.71,1.56c-.89,3.32-1.88,4.71-3.33,4.71-1.14,0-2.06-.84-2.74-2.48s-1-4.18-1.08-8.9a9,9,0,0,0-.07-1.1Zm8.07.77a17.08,17.08,0,0,1,3.84,9.18l-2.12.8a17.12,17.12,0,0,0-1.09-4.93,14.93,14.93,0,0,0-2.42-4.19Z"/><path class="cls-1" d="M137.51,154.23a13.77,13.77,0,0,0,2.28.15c.21,0,.4,0,.79,0a21.24,21.24,0,0,0,.32-2.61,1.85,1.85,0,0,0,0-.3l2.26.2a9.77,9.77,0,0,0-.33,1.64c-.08.48-.1.58-.17,1a14,14,0,0,0,2.92-.51l.08,2-.54.09a21.92,21.92,0,0,1-2.8.35c-.19,1.06-.61,2.87-1.06,4.42a55,55,0,0,1-1.91,5.65l-2.15-.84a36.55,36.55,0,0,0,3.06-9.17h-1.76c-.31,0-.55,0-.68,0a2.26,2.26,0,0,0-.33,0Zm8.46,6.62a2.84,2.84,0,0,0-.89,1.87c0,.87.85,1.32,2.56,1.32a13,13,0,0,0,3.87-.64l.16,2.1c-.31,0-.45.05-.84.12a19.26,19.26,0,0,1-3.17.27,6.94,6.94,0,0,1-3.43-.68,2.44,2.44,0,0,1-1.21-2.1,4.8,4.8,0,0,1,1.26-3Zm5.06-2.24a18.66,18.66,0,0,0-2.14-.12,18.24,18.24,0,0,0-4.51.5l-.15-1.88a21.93,21.93,0,0,1,5.08-.55l1.69,0Z"/><path class="cls-1" d="M155.88,152.93a12.37,12.37,0,0,0-.1-1.74h2a13.51,13.51,0,0,0-.1,1.72v1.45h.38a8.23,8.23,0,0,0,1.31-.08v1.82a12.14,12.14,0,0,0-1.31-.07h-.38v2.7c.65-.19.92-.26,1.73-.51v1.64l-1.74.59v4.76c0,.77-.25,1.23-.78,1.42a5.38,5.38,0,0,1-1.67.17c-.34,0-.62,0-1.25-.05a5.75,5.75,0,0,0-.41-1.83,13.68,13.68,0,0,0,1.76.16c.41,0,.51-.09.51-.46V161c-.22.07-.7.19-1.42.36a6.7,6.7,0,0,0-.66.19l-.31-2a12.9,12.9,0,0,0,2.39-.41V156H155a8.83,8.83,0,0,0-1.33.09v-1.86a8.16,8.16,0,0,0,1.33.1h.89Zm6,.17a16,16,0,0,0,5.51-1.6l1.35,1.55c-1.45.44-2.51.75-3.15.9a28.11,28.11,0,0,1-3.71.65v.84c0,.54.28.63,2.1.63,2.32,0,2.82,0,3.06-.33s.3-.61.34-1.63a9.07,9.07,0,0,0,1.77.54,5,5,0,0,1-.44,2c-.51.92-1.16,1.08-4.54,1.08s-4.11-.26-4.11-1.62v-3.25a10.52,10.52,0,0,0-.09-1.62h2a9,9,0,0,0-.09,1.52Zm-1.77,7c0-.72,0-1.11-.05-1.45a11.76,11.76,0,0,0,1.52.07h5.1a11.53,11.53,0,0,0,1.57-.07,10.68,10.68,0,0,0-.07,1.48v5.07a11.49,11.49,0,0,0,.08,1.74H166.3v-.77h-4.47v.77H160a10,10,0,0,0,.09-1.67Zm1.77,1.55h4.47v-1.36h-4.47Zm0,2.93h4.47v-1.43h-4.47Z"/><path class="cls-1" d="M181.06,161.92l-2,0c-3.45,0-4.63-.34-5.41-1.58a17.3,17.3,0,0,1-2.54,1.65l-.72-1.72a11.46,11.46,0,0,0,2.42-1.25v-2h-1a8.36,8.36,0,0,0-1.17.07v-1.67a7.63,7.63,0,0,0,1.37.08h1.28a8.19,8.19,0,0,0,1.3-.07,10.13,10.13,0,0,0-.07,1.61v2.06a2,2,0,0,0,1.29,1.13,12.34,12.34,0,0,0,3.19.24c3.47,0,5.63-.07,7.19-.21a4.41,4.41,0,0,0-.5,1.57c-.51,0-.51,0-2.86.05v.58h.92a14.86,14.86,0,0,0,2-.1v1.72a17.59,17.59,0,0,0-2.07-.1h-.88v1.54c0,1.16-.52,1.43-2.61,1.43-.38,0-.65,0-1.3,0a4.18,4.18,0,0,0-.51-1.76,17.66,17.66,0,0,0,1.91.13c.56,0,.68-.06.68-.39V164H175.6a14.49,14.49,0,0,1,2,1.66l-1.4,1.22a10.07,10.07,0,0,0-2.37-2.14l1-.74h-2.08a17.9,17.9,0,0,0-2.06.1v-1.72a14.67,14.67,0,0,0,2,.1h8.34Zm-9-10.64a16,16,0,0,1,2.66,2.23l-1.25,1.31a13.91,13.91,0,0,0-2.62-2.38Zm5.32,1.17a6.48,6.48,0,0,0-.8-1.12l1.83-.33a10.76,10.76,0,0,1,.9,1.45h1.67a7.66,7.66,0,0,0,.85-1.41l1.88.35-.73,1.06H184a10.42,10.42,0,0,0,1.71-.08v1.57a12.42,12.42,0,0,0-1.71-.07h-3c-.12.24-.12.27-.24.48h2.28c.75,0,1.2,0,1.55,0a9.91,9.91,0,0,0-.06,1.33v3a9.69,9.69,0,0,0,.06,1.37,11.79,11.79,0,0,0-1.31,0h-5.85c-.77,0-1.16,0-1.6,0a11.93,11.93,0,0,0,0-1.27v-3.1a8.46,8.46,0,0,0-.07-1.31c.32,0,.9,0,1.67,0h1.37c.1-.19.13-.26.25-.48h-2.52a12.84,12.84,0,0,0-1.73.07v-1.57a9.33,9.33,0,0,0,1.63.08Zm.24,3.53h5.27v-.47h-5.27Zm0,1.37h5.27v-.5h-5.27Zm0,1.4h5.27v-.48h-5.27Z"/><path class="cls-2" d="M250,138.27H13.39A11.37,11.37,0,0,0,2,149.65v18.84a11.37,11.37,0,0,0,11.38,11.38H250"/><rect class="cls-2" x="2.01" y="2.01" width="296.03" height="41.6" rx="11.38"/><polygon class="cls-3" points="119.84 55.55 150.02 68.33 180.21 55.55 119.84 55.55"/><rect class="cls-3" x="144.23" y="34.48" width="11.59" height="34.42" transform="translate(201.72 -98.33) rotate(90)"/><polygon class="cls-3" points="119.84 123.34 150.02 136.12 180.21 123.34 119.84 123.34"/><rect class="cls-3" x="144.23" y="102.27" width="11.59" height="34.42" transform="translate(269.51 -30.54) rotate(90)"/><path class="cls-2" d="M246,111.81H13.39A11.38,11.38,0,0,1,2,100.43V81.58A11.37,11.37,0,0,1,13.39,70.21H286.66A11.37,11.37,0,0,1,298,81.58v18.85"/><rect class="cls-4" x="292.16" y="84.4" width="14.51" height="24.66"/><circle class="cls-5" cx="279.81" cy="115.6" r="1.59"/><path class="cls-6" d="M276.69,131.68c9,.1,10.71-4.84,10.71-8.55a13.84,13.84,0,0,0-.61-4,4.37,4.37,0,0,0,1-2.51c-.13-1.09-1.65-1.95-3.17,0"/><path class="cls-6" d="M258.11,142.06l-1.14-6.3s14-2,21.62,3.15"/><path class="cls-6" d="M269.49,97.3S245.21,91.23,251.28,117"/><line class="cls-6" x1="263.37" y1="128.22" x2="262.13" y2="135.43"/><path class="cls-6" d="M278.32,102.77s0,4.55-9.1,7.59"/><line class="cls-6" x1="292.25" y1="183.79" x2="378.64" y2="183.79"/><line class="cls-6" x1="370.5" y1="177.72" x2="311.41" y2="177.72"/><path class="cls-6" d="M292.25,162.55a85.65,85.65,0,0,1-10.62-16.7c-4.57-9.12-28.08-5.12-28.08-5.12S249,150,250.14,157.8"/><path class="cls-6" d="M284.66,176.2s12.14,9.1,24.28-4.55c0,0,1.52-4.55-6.07-6.07s-13.65,3-13.65,3"/><path class="cls-6" d="M300.59,165.27s-.75-7.28,5.32-5.76"/><path class="cls-6" d="M305.15,162.55s3.79-5,7.58-3.25.76,3.25.76,3.25,4.55,4.55,3,7.58-4.56,3-7.59,1.52"/><polyline class="cls-6" points="261.9 157.99 242.94 157.8 255.83 194.41"/><polyline class="cls-6" points="284.66 194.41 269.49 157.99 266.45 157.99"/><path class="cls-6" d="M264.94,127.65s-5-.14-6.07-4.55c-1.52-6.07,4.55-4.56,4.55-4.56"/><polygon class="cls-7" points="245.97 160.27 268.73 160.27 283.15 194.41 257.86 194.41 245.97 160.27"/><path class="cls-6" d="M279.81,111s-3.51-.38-3.12,1.32"/><path class="cls-6" d="M267.78,94.27s7.78-6.07,16.88,2.41"/><path class="cls-6" d="M281.41,99.39s3.25.19,4.77,2.08"/><line class="cls-6" x1="294.53" y1="118.71" x2="299.05" y2="116.6"/><line class="cls-6" x1="294.53" y1="123.47" x2="299.05" y2="123.47"/><line class="cls-6" x1="294.53" y1="128.22" x2="299.05" y2="131.68"/><path class="cls-6" d="M283.77,121.88h-4.85S282.25,131,283.77,121.88Z"/><circle class="cls-5" cx="380.19" cy="115.6" r="1.59"/><path class="cls-6" d="M383.32,131.68c-9,.1-10.71-4.84-10.71-8.55a14,14,0,0,1,.6-4s-2-1.42-2-2.51.52-.13,2.54-2.13"/><line class="cls-6" x1="396.64" y1="128.22" x2="397.04" y2="132.2"/><path class="cls-6" d="M346.52,168.61s-1.52-4.55,6.07-6.06a36.91,36.91,0,0,1,14.1,0"/><polyline class="cls-6" points="398.1 157.99 417.07 157.8 404.17 194.41"/><polyline class="cls-6" points="375.35 194.41 390.52 157.99 393.55 157.99"/><path class="cls-6" d="M395.07,127.65s5-.14,6.07-4.55c1.52-6.07-4.55-4.56-4.55-4.56"/><polygon class="cls-7" points="414.04 160.27 391.28 160.27 376.86 194.41 402.15 194.41 414.04 160.27"/><line class="cls-6" x1="365.48" y1="118.71" x2="360.96" y2="116.6"/><line class="cls-6" x1="365.48" y1="123.47" x2="360.96" y2="123.47"/><line class="cls-6" x1="365.48" y1="128.22" x2="360.96" y2="131.68"/><path class="cls-6" d="M376.24,123.07s2.42,2.55,4.85,0"/><path class="cls-6" d="M386.79,103.32S385.74,115.53,394,114c0,0,.42,11.13-5.1,11.63"/><path class="cls-6" d="M392.22,94.42s23-.53,20,17.86,1.83,19.4,1.83,19.4"/><path class="cls-6" d="M407.59,130s-1.22,2.64,2.46,5.48"/><path class="cls-6" d="M386.75,138.71c1.85-2.59.61-3.35.61-3.35l12.33-3.68s-.19,5.09,1.69,5.64c3.24,1,6.89,4.74,7.34,7.4s0,11.95,0,11.95"/><path class="cls-6" d="M389.26,142.06s-8,8.73-11.49,13.85a61.24,61.24,0,0,1-6.53,8.15"/><path class="cls-6" d="M378.6,109.06s3.15-3.41,4.72,0"/><path class="cls-6" d="M371.24,105.27s3.71-16.8,15.51-8.59"/><path class="cls-6" d="M350,170.13s3.55,5.88,23.78,6"/><path class="cls-6" d="M343.93,167.1s-4.55-1.52-1.52-3,2,0,2,0-4.05-6.07,7.58-3.79"/><polyline class="cls-6" points="368.59 113.05 344.6 113.05 344.6 74.29 383.29 74.29 383.29 77.58"/><line class="cls-6" x1="383.29" y1="82.13" x2="383.29" y2="90.47"/><polyline class="cls-6" points="339 71.25 339 85.42 320.32 85.42 320.32 75.81"/><line class="cls-6" x1="336.25" y1="71.25" x2="320.32" y2="71.25"/><polyline class="cls-6" points="339 89.46 339 103.62 320.32 103.62 320.32 94.01"/><line class="cls-6" x1="336.25" y1="89.46" x2="320.32" y2="89.46"/><polyline class="cls-8" points="278.24 89.72 278.24 80.11 312.48 80.11 312.48 83.39"/><polyline class="cls-9" points="311.98 86.68 311.98 113.05 287.84 113.05"/><circle class="cls-7" cx="371.91" cy="85.92" r="7.59"/><rect class="cls-7" x="349.15" y="79.85" width="10.62" height="1.52"/><rect class="cls-7" x="349.15" y="84.4" width="10.62" height="1.52"/><rect class="cls-7" x="323.35" y="75.3" width="10.62" height="1.52"/><rect class="cls-7" x="323.35" y="91.99" width="12.14" height="9.1"/><polyline class="cls-6" points="339 121.83 339 107.67 320.32 107.67 320.32 117.28"/><line class="cls-6" x1="336.25" y1="121.83" x2="320.32" y2="121.83"/><rect class="cls-7" x="323.35" y="110.2" width="12.14" height="9.1"/><rect class="cls-7" x="323.35" y="79.85" width="10.62" height="1.52"/><rect class="cls-7" x="349.15" y="88.96" width="10.62" height="1.52"/><rect class="cls-7" x="349.15" y="93.51" width="10.62" height="1.52"/><rect class="cls-7" x="349.15" y="98.06" width="10.62" height="1.52"/><rect class="cls-7" x="362.8" y="95.03" width="10.62" height="1.52"/><rect class="cls-7" x="283.9" y="84.4" width="22.76" height="9.1"/><polygon class="cls-7" points="306.66 97.3 306.66 108.3 298.38 108.3 306.66 97.3"/></g></g></svg>