<svg xmlns="http://www.w3.org/2000/svg" viewBox="0 0 345.33 199.07"><defs><style>.cls-1,.cls-4{fill:#efeb64;}.cls-2{fill:#231815;}.cls-3,.cls-7{fill:none;}.cls-3,.cls-4,.cls-6{stroke:#040000;stroke-width:1.94px;}.cls-3,.cls-4,.cls-6,.cls-7{stroke-linecap:round;stroke-linejoin:round;}.cls-5{fill:#040000;}.cls-6{fill:#fff;}.cls-7{stroke:#d3c9b3;stroke-width:3.89px;}</style></defs><g id="レイヤー_2" data-name="レイヤー 2"><g id="レイヤー_1-2" data-name="レイヤー 1"><rect class="cls-1" x="27.1" y="9.81" width="95.2" height="3.08"/><rect class="cls-1" x="27.1" y="16.17" width="95.2" height="3.08"/><path class="cls-2" d="M120.17,147v-1a9.89,9.89,0,0,0-.1-2h1.85a7.55,7.55,0,0,0-.1,1.42c0,.42,0,.82,0,1.56h1.63a13.82,13.82,0,0,0,1.59-.06c-.05.58-.07,1-.08,2a27.46,27.46,0,0,1-.64,6.3,7.12,7.12,0,0,0,1.27.28c-.08,1.69-.37,2.5-1,2.89s-1.62.45-4.81.45a13.77,13.77,0,0,1-3.77-.23c-.69-.19-.92-.55-.92-1.44V153h-.76a10.41,10.41,0,0,1-.45,2.74,6.67,6.67,0,0,1-1.43,2.46,11.08,11.08,0,0,1-1.1.95,5.46,5.46,0,0,0-1.19-1.47,4.56,4.56,0,0,0,2.16-2.59,7.09,7.09,0,0,0,.31-2.09h-.13c-.48,0-.9,0-1.31.05,0-.35,0-.65,0-1.21v-2.48c-.18.17-.25.22-.46.4a5.31,5.31,0,0,0-.74-1.67,8.14,8.14,0,0,0,1.84-1.91,7.48,7.48,0,0,0,1.14-2.45l1.88.27c-.07.11-.07.13-.17.31a.88.88,0,0,1-.11.25l-.2.4h1.36c.57,0,.85,0,1.27-.05l.71.76c-.13.18-.28.43-.43.69-.34.63-.8,1.37-1.08,1.77h1.12c.47,0,.83,0,1.16,0V146.9a9.29,9.29,0,0,0,1.35.06Zm-5.77,1.18a8.16,8.16,0,0,0,1-1.66h-1.83a11.41,11.41,0,0,1-1.21,1.66Zm-1.75,3.31h1.49v-1.78h-1.49Zm2.9,0h1.53v-1.78h-1.53Zm6.17-2.87a16.63,16.63,0,0,1-.7,3.86,10,10,0,0,1-2.66,4.36,4.58,4.58,0,0,0-1.23-1.32,7.69,7.69,0,0,0,1.69-2,11.35,11.35,0,0,0,1.27-4.86h-.33a10.46,10.46,0,0,0-1.19,0c0,.25,0,.43,0,.68v2.57c0,.52,0,.83,0,1.18a12.14,12.14,0,0,0-1.3-.05h-.59v3.51c0,.61.24.68,2.81.68s3.4,0,3.74-.23.44-.43.51-1.11a2.54,2.54,0,0,1-1.49.32c-.31,0-.8,0-1.32-.05a5.18,5.18,0,0,0-.33-1.72,9.57,9.57,0,0,0,1.58.18c.48,0,.64-.21.76-.94a41.2,41.2,0,0,0,.31-5.07Z"/><path class="cls-2" d="M130.15,151.75a10.33,10.33,0,0,0,1.14-.05c0,.33,0,.45,0,.79a23.06,23.06,0,0,1-.41,4.38c-.21,1-.52,1.52-1.09,1.8a3.38,3.38,0,0,1-1.42.21c-.51,0-.93,0-1.43,0a7.49,7.49,0,0,0-.34-1.83,10.78,10.78,0,0,0,1.6.15c.61,0,.8-.09.92-.42a11,11,0,0,0,.46-3.45h-1.88c-.45,0-.76,0-1.13,0a31.5,31.5,0,0,0,.49-5.25,8.33,8.33,0,0,0,1.36.06h1.24v-2H128a10.49,10.49,0,0,0-1.43.06v-1.76a7.1,7.1,0,0,0,1.52.1h2c.54,0,.88,0,1.26,0a10,10,0,0,0-.05,1.25v2.48c0,.49,0,1,.05,1.53a11.61,11.61,0,0,0-1.16-.05h-1.55c-.12,1.41-.12,1.41-.2,2.05Zm5.28-3.2c-2.18.11-3.37.2-3.57.23l-.18-1.73a7,7,0,0,0,.85,0l.48,0a15,15,0,0,0,1.5-3.19l1.88.35c-.18.36-.18.36-.61,1.16a15.15,15.15,0,0,1-1,1.63c1.21-.07,2.37-.13,3.46-.22-.37-.49-.62-.77-1.27-1.51l1.36-.73a25,25,0,0,1,3,3.75l-1.42,1c-.31-.56-.44-.75-.65-1.09-.9.1-1.44.15-2.23.21v1.39h2.21a9.74,9.74,0,0,0,1.31-.07,5.77,5.77,0,0,0-.07,1.16v2.46a7.21,7.21,0,0,0,.07,1.29,11.66,11.66,0,0,0-1.36-.07H137v1.95c.89-.1.89-.1,1.72-.22-.16-.29-.3-.51-.57-1l1.4-.58a18.91,18.91,0,0,1,1.95,3.75l-1.54.64a14.67,14.67,0,0,0-.57-1.45c-2,.33-4.79.71-6.75.91-.77.08-.8.08-1.1.13l-.27-1.88a2.91,2.91,0,0,0,.49,0c.67,0,2.17-.08,3.63-.2v-2.11h-2a11.24,11.24,0,0,0-1.4.07c0-.4.06-.81.06-1.31V151c0-.43,0-.84-.06-1.22.41,0,.75,0,1.37,0h2Zm-1.75,2.72v1.85h1.75v-1.85Zm3.36,1.85h1.87v-1.85H137Z"/><path class="cls-2" d="M145.55,149.29a15.31,15.31,0,0,1-2.62,1.42,7.68,7.68,0,0,0-1-1.68,15,15,0,0,0,4.11-2.3,10.69,10.69,0,0,0,2.58-2.77h1.94a10,10,0,0,0,2.77,2.74,17.38,17.38,0,0,0,4.2,2.23,7.3,7.3,0,0,0-.9,1.85,17.78,17.78,0,0,1-2.8-1.51v1.29a12.3,12.3,0,0,0-1.47-.06H147a12.78,12.78,0,0,0-1.4.06Zm-.9,4.26a14.5,14.5,0,0,0-1.93.1v-1.92a15.12,15.12,0,0,0,1.93.1h10.18a14.47,14.47,0,0,0,1.91-.1v1.92a14.27,14.27,0,0,0-1.91-.1h-5.62a18.33,18.33,0,0,1-1.7,3.2c2.89-.16,2.89-.16,5.18-.41-.52-.58-.8-.87-1.72-1.83l1.62-.73a33.91,33.91,0,0,1,3.78,4.41l-1.57,1c-.54-.81-.71-1-1-1.44-1.36.19-2.34.3-2.94.37l-5.51.49a21.16,21.16,0,0,0-2.11.23l-.26-2c.44,0,.72,0,.95,0l1.43-.07a17.15,17.15,0,0,0,1.75-3.3Zm7.74-4.77c.27,0,.41,0,.72,0a13.45,13.45,0,0,1-3.41-3.2,14.06,14.06,0,0,1-3.4,3.2c.28,0,.38,0,.67,0Z"/><path class="cls-2" d="M167.57,151.49a1.95,1.95,0,1,1-1.95-2A1.95,1.95,0,0,1,167.57,151.49Z"/><path class="cls-2" d="M188.48,148.33a3.9,3.9,0,0,0-.46.81,12,12,0,0,1-4,4.82,5.22,5.22,0,0,0-1.63-1.33,8.28,8.28,0,0,0,2.7-2.33c.22-.33.32-.48.62-1l-.62.1c-1.65.2-3.34.42-5,.66v3.72a7.43,7.43,0,0,0,.07,1.42c.11.64.63.82,2.3.82a18.07,18.07,0,0,0,5-.64l.1,2.23c-.44,0-.57,0-1,.06a35.85,35.85,0,0,1-4.05.29,10.7,10.7,0,0,1-2.91-.29,2.13,2.13,0,0,1-1.41-1.51,6.69,6.69,0,0,1-.16-2.08v-3.79l-1.54.2a9.6,9.6,0,0,0-1.81.32l-.21-2.05a3.3,3.3,0,0,0,.39,0,12.08,12.08,0,0,0,1.44-.12l1.73-.21V146.2a8.34,8.34,0,0,0-.1-1.56h2.26a7.35,7.35,0,0,0-.1,1.53v2.08l5.95-.73a2.88,2.88,0,0,0,1.26-.28Z"/><path class="cls-2" d="M192.14,153.77a50.59,50.59,0,0,1,10.85,2.6l-.7,2.08a29.61,29.61,0,0,0-5.79-1.84,44.6,44.6,0,0,0-5.13-1Zm1.31-4.66A50.85,50.85,0,0,1,202,151l-.63,2a28.18,28.18,0,0,0-4.5-1.33,34.82,34.82,0,0,0-4.13-.72Zm.24-4.56a53.92,53.92,0,0,1,8.84,1.79l-.65,2a42.67,42.67,0,0,0-8.92-1.9Z"/><path class="cls-2" d="M218.16,148.37a11.46,11.46,0,0,0,2.13-.12v2.08a18,18,0,0,0-2.09-.08h-3.35a9.22,9.22,0,0,1-1.18,4.65,9.8,9.8,0,0,1-4.17,3.7,5.06,5.06,0,0,0-1.48-1.78,7.53,7.53,0,0,0,3.93-3.25,7.32,7.32,0,0,0,.81-3.32H208.7a18,18,0,0,0-2.09.08v-2.08a11.59,11.59,0,0,0,2.13.12h4.11c0-.7,0-1,0-1.29v-1a11.42,11.42,0,0,0-.08-1.59H215a12,12,0,0,0-.08,1.59v1c0,1.09,0,1.09,0,1.27Z"/><path class="cls-2" d="M222.37,150.28a15.64,15.64,0,0,0,2.65.12h8.71a15.64,15.64,0,0,0,2.65-.12v2.3a16.45,16.45,0,0,0-2.67-.09H225a16.22,16.22,0,0,0-2.66.09Z"/><path class="cls-2" d="M31.36,176v-8.73h4.88v1.8H33.3V176Z"/><path class="cls-2" d="M41.45,177.69v2.81c1.57-.25,1.7-.26,3.18-.59v1.58c-1.73.41-3,.66-5.93,1.16l-.75.16-.31-1.9h.24c.22,0,1.2-.08,1.85-.16V173.3c0-.19,0-.31,0-.74a19.73,19.73,0,0,1-2,.94,7.7,7.7,0,0,0-.8-1.8,14.13,14.13,0,0,0,6.67-4.24h1.93a10.85,10.85,0,0,0,2.91,2.46,15.67,15.67,0,0,0,4,1.73,7.69,7.69,0,0,0-.82,1.83,16.81,16.81,0,0,1-2.16-1v4c0,.33,0,.48,0,.74.13-.15.16-.2.31-.36l1.65.89a26.2,26.2,0,0,1-2.91,2.28,13.7,13.7,0,0,0,3.71.84,9.83,9.83,0,0,0-.83,1.83,12.56,12.56,0,0,1-5.72-2.37,9.25,9.25,0,0,1-2.39-2.7Zm2.22-6.09v-.48a4.31,4.31,0,0,0-.08-1h1.8a5.31,5.31,0,0,0-.07,1v.48h2.52a14.65,14.65,0,0,1-3.32-2.75,14.85,14.85,0,0,1-3.22,2.75Zm-2.22,2.31h6.21v-.82H41.45Zm0,2.33h6.21v-.92H41.45Zm3.71,1.45a5.83,5.83,0,0,0,1.7,1.61A13.08,13.08,0,0,0,49,177.71c-.36,0-.64,0-1,0Z"/><path class="cls-2" d="M57.91,174v8.73H53V181H56V174Z"/><path class="cls-2" d="M68.81,167.74a28.69,28.69,0,0,0,1.08,5.17c1.06-.4,1.06-.4,4.23-1.46a4.15,4.15,0,0,0,.63-.24l.7,2.08a39,39,0,0,0-5.39,1.58c-2.39.89-3.58,1.95-3.58,3.14s1.11,1.72,3.74,1.72a17.73,17.73,0,0,0,5.28-.68l.18,2.26a10.41,10.41,0,0,0-1.33.12,34.19,34.19,0,0,1-3.82.24,9.18,9.18,0,0,1-4.74-.9A3.14,3.14,0,0,1,64.37,178a3.91,3.91,0,0,1,1.45-3,10.4,10.4,0,0,1,2.23-1.42,41.74,41.74,0,0,1-1.1-4.47,6.67,6.67,0,0,0-.26-1.07Z"/><path class="cls-2" d="M80.42,176v-8.73h4.89v1.8h-3V176Z"/><path class="cls-2" d="M94.82,181.76a42.25,42.25,0,0,1-5.37.8,3.67,3.67,0,0,0-.64.12L88.5,181l.18,0c.38,0,1.27-.05,1.76-.09V178.8H88.83a9.23,9.23,0,0,1-1.52,4,8,8,0,0,0-1.38-1.47c1-1.36,1.31-2.74,1.31-5.6,0-.71,0-1.65-.08-2.06a14.06,14.06,0,0,0,1.62.08H99.17a11.11,11.11,0,0,0,1.57-.08v1.48c-.3,0-.9-.06-1.57-.06H89v1c0,.43,0,.72-.05,1.33H99.51a9.36,9.36,0,0,0,1.36-.06v1.47a9.31,9.31,0,0,0-1.36-.07H98.16l1.39.55A12.21,12.21,0,0,1,98,180.47a14.1,14.1,0,0,0,3.41.54,12.68,12.68,0,0,0-.73,1.69,10.73,10.73,0,0,1-5.87-2.25Zm3.3-13.38c.89,0,1.13,0,1.85-.06a12.21,12.21,0,0,0-.06,1.53v1.87c0,.63,0,1.15,0,1.5-.65-.05-.88-.05-1.63-.05H89.14c-.45,0-1,0-1.46.05,0-.4,0-.74,0-1.52v-1.83a15.24,15.24,0,0,0-.06-1.55c.5,0,1.14.06,1.84.06h1.73a7.49,7.49,0,0,0-.08-1H93a4.67,4.67,0,0,0-.08,1h1.83c0-.38,0-.79-.08-1h1.81a5.44,5.44,0,0,0-.08,1Zm-8.71,1.22v.65h1.83v-.65Zm0,1.79V172h1.83v-.64Zm.18,4.24a10,10,0,0,0,1.46.07h7.29a9.82,9.82,0,0,0,1.45-.07V177a10.66,10.66,0,0,0-1.45-.07H91.05a10.93,10.93,0,0,0-1.46.07Zm2.52,5.1c.56-.06,1.41-.2,2.57-.39a5.5,5.5,0,0,1-1.18-1.54H92.11Zm.77-10.48h1.83v-.65H92.88Zm0,1.78h1.83v-.64H92.88Zm2.35,6.77a3.17,3.17,0,0,0,1.36,1.12A8,8,0,0,0,98,178.8Zm1.13-8.55h1.85v-.65H96.36Zm0,1.78h1.85v-.64H96.36Z"/><path class="cls-2" d="M107,174v8.73h-4.88V181H105V174Z"/><path class="cls-2" d="M113.2,181.82c0-.3,0-.39-.08-.77a29.22,29.22,0,0,1-.43-4.94,32.38,32.38,0,0,1,.67-6.46,10.7,10.7,0,0,0,.25-1.53l2.16.23a22.89,22.89,0,0,0-1,4.94,27.19,27.19,0,0,0-.25,3.65c0,.36,0,.49,0,.9a17.28,17.28,0,0,1,.85-2.18l1.31.6a13.64,13.64,0,0,0-1.46,5,4.43,4.43,0,0,0,0,.45Zm7-6.52a3.8,3.8,0,0,0-1.16,2.38c0,.94.9,1.43,2.6,1.43a11.54,11.54,0,0,0,3.89-.62l.16,2.09c-.22,0-.29,0-.67.1a19.36,19.36,0,0,1-3.38.32c-2,0-3.33-.47-4-1.44a2.78,2.78,0,0,1-.49-1.62,5.43,5.43,0,0,1,1.5-3.4Zm-2.69-5.46a12,12,0,0,0,3,.26,17.62,17.62,0,0,0,4.44-.45l.1,2-1.16.15a29.19,29.19,0,0,1-3.49.2,19.48,19.48,0,0,1-2.95-.18Z"/><path class="cls-2" d="M129.86,180.62a13.46,13.46,0,0,0,.1,2h-1.91a16.08,16.08,0,0,0,.09-2V169.69a18.5,18.5,0,0,0-.06-1.85,14.53,14.53,0,0,0,1.67.06h2.95a13.92,13.92,0,0,0,1.67-.06c0,.46-.05.89-.05,1.53v2.35c0,.74,0,1.12.05,1.48-.44,0-.91,0-1.52,0h-3Zm0-10.67h2.86v-.81h-2.86Zm0,1.93h2.86v-.81h-2.86Zm6.08,6.61a5.42,5.42,0,0,0,2.91,1.58,5.85,5.85,0,0,0-.36.7,7.34,7.34,0,0,0,1.18.09c.4,0,.5-.08.5-.44v-7.27H137c-.57,0-1.08,0-1.5,0,0-.41.05-.76.05-1.48v-2.35c0-.62,0-1.05-.05-1.53a14.22,14.22,0,0,0,1.67.06h3.17a14.84,14.84,0,0,0,1.68-.06,14.14,14.14,0,0,0-.08,1.83v11c0,1.56-.38,1.85-2.32,1.85h-.95a5.1,5.1,0,0,0-.28-1.36c-.08.22-.1.3-.18.55a7.66,7.66,0,0,1-3.2-2.25,5.75,5.75,0,0,1-3.69,2.73,4.87,4.87,0,0,0-.92-1.44,6.9,6.9,0,0,0,2.11-.79,3.41,3.41,0,0,0,1.26-1.42h-1.6a8.7,8.7,0,0,0-1.43.08v-1.52a6.69,6.69,0,0,0,1.31.08h2c0-.36,0-.51.05-1h-1.9a7.71,7.71,0,0,0-1.18.06v-1.43a7.29,7.29,0,0,0,1.15.06h.55a7.39,7.39,0,0,0-.8-1.14l1.51-.38a16.42,16.42,0,0,1,.93,1.52h1.34a7.5,7.5,0,0,0,.72-1.52l1.58.32a11.33,11.33,0,0,1-.68,1.2h.55a7.71,7.71,0,0,0,1.18-.06v1.43a7.35,7.35,0,0,0-1.16-.06h-2.19c0,.36,0,.66-.07,1H138a6.57,6.57,0,0,0,1.31-.08v1.52a7.22,7.22,0,0,0-1.33-.08Zm1.18-8.54h3v-.81h-3Zm0,1.93h3v-.81h-3Z"/><path class="cls-2" d="M153.27,174c0,.06,0,.2,0,.39a5.2,5.2,0,0,1,.52,2.33,5.31,5.31,0,0,1-2.44,4.46,11.38,11.38,0,0,1-3,1.35,5.57,5.57,0,0,0-1.16-1.86,7.71,7.71,0,0,0,2.77-1,3.48,3.48,0,0,0,1.9-2.41,2.69,2.69,0,0,1-2.4,1.17,3,3,0,0,1-1.9-.59,2.59,2.59,0,0,1-1.13-2.23,3,3,0,0,1,3.26-3,2.64,2.64,0,0,1,1.69.5,1.09,1.09,0,0,1,0-.2s0-1,0-1.4c-2.33.06-3.87.11-4.59.16-2.47.18-2.47.18-2.91.25l-.06-2a7.68,7.68,0,0,0,.8,0c.4,0,.67,0,2.77-.08,1.07,0,1.23,0,2.57-.07l1.39,0a9.4,9.4,0,0,0-.1-2h2.06a14.66,14.66,0,0,0-.08,2c2.84,0,4.12-.05,4.72-.12l0,1.9c-.61-.05-1.39-.08-2.75-.08-.39,0-.68,0-2,0v1.08Zm-3.34.16a1.43,1.43,0,0,0-1.51,1.32,1.3,1.3,0,0,0,1.38,1.31,1.5,1.5,0,0,0,1.61-1.49C151.41,174.56,150.83,174.11,149.93,174.11Z"/><path class="cls-2" d="M165.16,174.49a7.93,7.93,0,0,1,3.43-.76c2.79,0,4.59,1.46,4.59,3.72A4.05,4.05,0,0,1,171,181.1a8.05,8.05,0,0,1-4,.94,5.54,5.54,0,0,1-3.17-.76,2.38,2.38,0,0,1-1-1.9,2.53,2.53,0,0,1,2.81-2.36,3.52,3.52,0,0,1,2.83,1.35,4.3,4.3,0,0,1,.75,1.49c1.36-.51,1.95-1.22,1.95-2.4s-1.26-2.13-3.24-2.13a10,10,0,0,0-6.73,2.78l-1.11-1.79a14.44,14.44,0,0,0,2.3-1.55,55.73,55.73,0,0,0,4.89-4.29l.29-.3h0c-.62.08-1.66.14-4.62.28a4.8,4.8,0,0,0-.79.08l-.08-2a15.8,15.8,0,0,0,1.93.1c1.39,0,3.38-.09,5-.2a2.25,2.25,0,0,0,1-.22l1,1.46a3.52,3.52,0,0,0-.85.67c-.82.76-2,1.84-2.57,2.32-.29.24-1.47,1.13-1.8,1.35a7.19,7.19,0,0,1-.67.43Zm.49,4.11c-.59,0-1,.3-1,.76,0,.66.74,1,1.95,1a4.83,4.83,0,0,0,.85-.06C167.18,179.2,166.56,178.6,165.65,178.6Z"/><path class="cls-2" d="M186,169.31c.49,0,.68,0,1,0a1.89,1.89,0,1,1,1.88,1.9l-.31,0a14.77,14.77,0,0,1-9.38,11,6,6,0,0,0-1.44-2,11.9,11.9,0,0,0,8.53-8.88h-7.77a11.83,11.83,0,0,0-2.06.1v-2.15a10.85,10.85,0,0,0,2.09.12Zm1.78-.05a1.07,1.07,0,1,0,2.14,0,1.07,1.07,0,1,0-2.14,0Z"/><path class="cls-2" d="M194.83,180.35v1.16h-2.11a10.85,10.85,0,0,0,.07-1.42v-9.46a10.86,10.86,0,0,0-.07-1.39c.39,0,.74,0,1.39,0h9.28c.71,0,1,0,1.38,0a13.34,13.34,0,0,0-.05,1.37v9.45a11.31,11.31,0,0,0,.06,1.43h-2.11v-1.14Zm7.84-9.19h-7.84v7.31h7.84Z"/><path class="cls-2" d="M209.14,172.33a26,26,0,0,1,4.34,2.24l-1,1.87A19,19,0,0,0,208,174Zm-.74,7.4a14.43,14.43,0,0,0,4.72-1.08,11.3,11.3,0,0,0,6.62-7.28,8.13,8.13,0,0,0,1.7,1.47c-2,5-5.47,7.71-11.32,8.87A9.5,9.5,0,0,0,209,182Zm2-11.4a27.54,27.54,0,0,1,4.35,2.13l-1.05,1.82a19.59,19.59,0,0,0-4.36-2.26Zm8.5-.33a11,11,0,0,1,1.72,2.43l-1.15.61a11,11,0,0,0-1.71-2.46Zm2.53,2a12.36,12.36,0,0,0-1.66-2.39l1.09-.58a9.3,9.3,0,0,1,1.7,2.33Z"/><path class="cls-2" d="M231.5,179.84h3.33a7.57,7.57,0,0,0,1.52-.1v1.85a12.38,12.38,0,0,0-1.52-.07h-8.42a12.17,12.17,0,0,0-1.52.07v-1.85a7.58,7.58,0,0,0,1.51.1h3.2v-5.32h-2.19a9.07,9.07,0,0,0-1.5.1v-1.89a7.68,7.68,0,0,0,1.49.11h6.42a7.79,7.79,0,0,0,1.5-.11v1.86a10.66,10.66,0,0,0-1.49-.07H231.5Z"/><path class="cls-2" d="M252.68,170.74a3.28,3.28,0,0,0-.41,1,17.34,17.34,0,0,1-3.34,6.38,16.66,16.66,0,0,1-5.82,4.19,5.07,5.07,0,0,0-1.39-1.73,14.74,14.74,0,0,0,3.58-1.95,13.11,13.11,0,0,0,4.77-7l-4.92.08a16,16,0,0,1-3.82,4.23,4.36,4.36,0,0,0-1.59-1.42,12.67,12.67,0,0,0,4.23-4.79,6.22,6.22,0,0,0,.84-2.18l2.24.45a3.35,3.35,0,0,0-.28.51,2.71,2.71,0,0,0-.21.46l-.22.43a5,5,0,0,1-.26.53c.21,0,.48,0,.79,0l3.57,0a2.77,2.77,0,0,0,1.2-.17Z"/><path class="cls-2" d="M258.65,182.05a10.34,10.34,0,0,0,.1-1.85V169.62a10,10,0,0,0-.1-1.68h2.24a12.1,12.1,0,0,0-.06,1.73v3.07a47.44,47.44,0,0,1,7.42,3.49l-1.15,1.94a38.1,38.1,0,0,0-5.78-3.15,5.25,5.25,0,0,1-.56-.28,8.42,8.42,0,0,1,.07,1.12v4.36a18.18,18.18,0,0,0,.06,1.83Z"/><path class="cls-2" d="M278,177.46c-.93,2.13-2,3.11-3.32,3.11-1.86,0-3.2-1.92-3.2-4.58a7.14,7.14,0,0,1,1.8-4.8,7.29,7.29,0,0,1,5.62-2.31c3.92,0,6.47,2.41,6.47,6.12a6.36,6.36,0,0,1-4,6.16,10.58,10.58,0,0,1-2.57.7,5.25,5.25,0,0,0-1-1.94,8.61,8.61,0,0,0,3.25-.9,4.66,4.66,0,0,0,2.27-4.13,4.1,4.1,0,0,0-2-3.67,3.56,3.56,0,0,0-1.65-.49A23.89,23.89,0,0,1,278,177.46Zm-2.4-5.91a5.52,5.52,0,0,0-2.22,4.46c0,1.35.57,2.43,1.29,2.43.54,0,1.09-.7,1.68-2.12a22,22,0,0,0,1.36-5.58A4.14,4.14,0,0,0,275.61,171.55Z"/><path class="cls-2" d="M289.24,180.58a15.58,15.58,0,0,0,.1,2h-1.91a15.67,15.67,0,0,0,.1-2v-10.9a17.77,17.77,0,0,0-.07-1.84c.46,0,.88.06,1.68.06h3a16.46,16.46,0,0,0,1.67-.06c0,.47-.05.95-.05,1.53v2.54a14.24,14.24,0,0,0,.05,1.49c-.43,0-.94-.05-1.51-.05h-3Zm0-10.6h2.9v-.87h-2.9Zm0,2.07h2.9v-.89h-2.9ZM292,177c0-.58,0-.76,0-1.52a13.84,13.84,0,0,0-1.64.07V174a10.15,10.15,0,0,0,1.65.09h4.74a10.77,10.77,0,0,0,1.7-.09v1.49a14.32,14.32,0,0,0-1.7-.07V177H297a14.73,14.73,0,0,0,1.68-.06v1.51a12.59,12.59,0,0,0-1.68-.08h-.25v2.45a7.66,7.66,0,0,0,.08,1.4h-1.71a8.35,8.35,0,0,0,.08-1.42v-2.43h-1.83a6,6,0,0,1-2,4.08,7.35,7.35,0,0,0-1.31-1.14,4,4,0,0,0,1.75-2.94,12.12,12.12,0,0,0-1.73.08v-1.51a14.91,14.91,0,0,0,1.7.06Zm1.55-1.52c0,.75,0,.75,0,1.52h1.72v-1.52Zm7.75,5.14c0,1.47-.49,1.85-2.32,1.85-.29,0-.52,0-1.06,0a6.16,6.16,0,0,0-.44-1.75,10.55,10.55,0,0,0,1.5.14c.52,0,.62-.07.62-.43v-7h-3.2c-.57,0-1.1,0-1.49.05,0-.48,0-.74,0-1.49v-2.54c0-.63,0-1.06-.05-1.53.46,0,.84.06,1.67.06h3.12c.82,0,1.23,0,1.69-.06,0,.61-.07,1-.07,1.83ZM296.53,170h3v-.87h-3Zm0,2.07h3v-.89h-3Z"/><path class="cls-2" d="M313.7,180.45h2.63a8.87,8.87,0,0,0,1.37-.06v1.68a16.45,16.45,0,0,0-1.81-.1h-6.51v.73h-1.76a15,15,0,0,0,.1-1.89v-3.73c0-.28,0-.28,0-1a6.17,6.17,0,0,1-1,1.32,4.57,4.57,0,0,0-.67-1.24v4.51a19.15,19.15,0,0,0,.08,2h-2a12.63,12.63,0,0,0,.1-2v-4.39c0-.53,0-1.22.05-2.12a9.17,9.17,0,0,1-1.16,1.66,9.86,9.86,0,0,0-.69-2.07,12.21,12.21,0,0,0,2.52-4.49,9.88,9.88,0,0,0,.46-2l1.8.59a6.29,6.29,0,0,0-.26.8,24,24,0,0,1-.94,2.42v4.53a10.58,10.58,0,0,0,2.81-4l1.7.43a11.17,11.17,0,0,1-.62,1.12h2.32a5.43,5.43,0,0,0,.84-1.55l1.7.33c-.26.46-.56,1-.74,1.22h2.06a10.78,10.78,0,0,0,1.52-.08v1.67a10.75,10.75,0,0,0-1.34-.07H313.7v.91h1.91a8.81,8.81,0,0,0,1.39-.07v1.57a11.15,11.15,0,0,0-1.37-.07H313.7V178h1.93a9.06,9.06,0,0,0,1.39-.07v1.57a11.2,11.2,0,0,0-1.38-.06H313.7Zm-2.31-11.69a6.91,6.91,0,0,0-.09-1.27h1.84a7.4,7.4,0,0,0-.08,1.29V170h2.4v-.75a9.27,9.27,0,0,0,0-1.13h1.8a9.15,9.15,0,0,0-.06,1.26v1.1a7.23,7.23,0,0,0,0,1.08c-.52,0-.63,0-1.16,0H308.6c-.57,0-.8,0-1.14,0,0-.36,0-.56,0-1.12v-1.25a7.54,7.54,0,0,0-.07-1.08h1.77a10.18,10.18,0,0,0-.05,1.14V170h2.25Zm.69,6.84v-.91h-2.7v.91Zm-2.7,2.36h2.7V177h-2.7Zm0,2.49h2.7v-1h-2.7Z"/><path class="cls-3" d="M308.63,82.33l4.19,46.16s1,4.53-2.2,5.15-3.21-3.09-3.21-3.09l-3.47-42.66"/><path class="cls-3" d="M214,82.33l-4.18,46.16s-1,4.53,2.19,5.15,3.22-3.09,3.22-3.09l3.46-42.66"/><polygon class="cls-1" points="221.84 65.42 221.84 77.39 227.7 77.39 227.7 61.05 221.84 65.42"/><polygon class="cls-1" points="237.02 55.53 237.02 77.39 242.88 77.39 242.88 51.16 237.02 55.53"/><polygon class="cls-1" points="252.19 43.17 252.19 77.39 258.05 77.39 258.05 38.8 252.19 43.17"/><polygon class="cls-1" points="267.37 37.82 267.37 77.39 273.23 77.39 273.23 42.51 267.37 37.82"/><polygon class="cls-1" points="282.55 51.42 282.55 77.39 288.41 77.39 288.41 54.87 282.55 51.42"/><polygon class="cls-1" points="297.73 61.31 297.73 77.39 303.58 77.39 303.58 66 297.73 61.31"/><path class="cls-3" d="M265.79,26.7c4.9,0,10.41-5.57,10.41-5.57-4.9,1.24-14.08-4.53-14.08-4.53V35.35l-56.3,42H320.16L265.79,37.82"/><path class="cls-3" d="M171.26,59.06c-5.44.33-10.67-8.51-10.16-13.59"/><path class="cls-3" d="M176.78,58.73s7.7-1.24,9.56-13.27"/><line class="cls-3" x1="167.39" y1="58.74" x2="166.93" y2="61.8"/><line class="cls-3" x1="180.53" y1="57.72" x2="180.53" y2="61.8"/><path class="cls-3" d="M186,48.85s4.43-1.41,5.13-5.43-2-6.34-3.46-5.23"/><path class="cls-3" d="M160.53,48.52a6.59,6.59,0,0,1-4.24-5.1c-.71-4.07,1.31-7.13,4.24-5.23"/><path class="cls-3" d="M161.63,35.26s2-4.09,6.06-4.09,12.12,0,14.14-4.08c0,0,4,8.17,4,12.25"/><path class="cls-3" d="M183.86,18.93s9.94,4,6.83,16.58"/><path class="cls-3" d="M179.81,16.89s-10.88-5.71-18.65,2.92c-4.43,4.93-3.57,11.36-3.57,15.45"/><path class="cls-3" d="M170.42,50.7s2.18,2.46,5.66,0"/><path class="cls-3" d="M177.68,34.31S179,33,180.26,35"/><polyline class="cls-4" points="171.45 71.11 168.93 107.73 173.42 111.13 178.26 107.73 176.5 71.11"/><ellipse class="cls-5" cx="178.65" cy="41.4" rx="1.17" ry="1.18"/><ellipse class="cls-5" cx="167.77" cy="41.4" rx="1.17" ry="1.18"/><polyline class="cls-3" points="122.31 82.61 18.17 82.61 18.17 0.97 148.73 0.97 148.73 67.29"/><rect class="cls-1" x="27.1" y="36.9" width="95.2" height="3.08"/><rect class="cls-1" x="27.1" y="43.26" width="95.2" height="3.08"/><rect class="cls-1" x="27.1" y="49.62" width="75.9" height="3.08"/><rect class="cls-1" x="27.1" y="55.98" width="75.9" height="3.08"/><polyline class="cls-3" points="144.84 82.61 134.22 63.1 129.3 65.84"/><path class="cls-3" d="M161.06,65.44a21.78,21.78,0,0,0-16.22,11.67"/><path class="cls-3" d="M186.34,65.44s14.45,6.72,15.23,25.68"/><path class="cls-3" d="M128.55,53.29a1.63,1.63,0,0,1,2-1.3c1.68.32.82,2.73,2.64,5.5,1.56,2.35-1.44,6.54-1.44,6.54"/><path class="cls-3" d="M126.87,53a1.65,1.65,0,0,0-2,1.3,1.66,1.66,0,0,0-2,1.31,1.65,1.65,0,0,0-2,1.3s-1.71-.17-1.71,2.19"/><path class="cls-3" d="M129.11,58c-.2,2.06-2.39,1.42-2.39,1.42a1.64,1.64,0,0,1-2,1.3,1.64,1.64,0,0,1-2,1.31s-.44,1.75-2,1"/><line class="cls-3" x1="126.19" y1="50.7" x2="112.98" y2="17.46"/><polygon class="cls-4" points="178.26 66.12 176.5 71.11 171.45 71.11 169.71 66.91 173.04 63.84 178.26 66.12"/><polygon class="cls-6" points="173.04 63.84 182.34 61.8 183.85 64.61 177.79 68.31 173.04 63.84"/><polygon class="cls-6" points="173.04 63.84 165.67 62.31 163.35 64.86 169.71 68.56 173.04 63.84"/><path class="cls-3" d="M126.19,67.48l-2.33,1.08s4.49,19.54,10,26.61,12.84,4.54,15.62,3.14"/><path class="cls-7" d="M1.94,56V186A10.9,10.9,0,0,0,12.6,197.12H332.73A10.9,10.9,0,0,0,343.39,186v-3.72"/><path class="cls-7" d="M330.77,94.18h2a10.9,10.9,0,0,1,10.66,11.13v64.37"/><path class="cls-7" d="M1.94,44.32V40.6A10.9,10.9,0,0,1,12.6,29.47h2.24"/><path class="cls-1" d="M278.25,128s9.38-7.22,11.17-12c1.69-4.52-1.73-4.51-3.49-3.16-2,1.57-5.29,10.73-11.67,12.34-7.33,1.86-11.21,5.25-9,6.82,3.47,2.44,10.47-2.63,10.47-2.63"/><path class="cls-1" d="M261.18,92.61s4.86-10.2-4-9.82c0,0,.86-10-5.17-11.19s-4.48,3.52-4.48,3.52-6.48.78-6.49,5.34,7.87,8.08,7.87,8.08-4.94,6.75,7.23,8.87"/><ellipse class="cls-1" cx="260.27" cy="117.12" rx="11.94" ry="9.69" transform="translate(-22.44 156.28) rotate(-32.11)"/><path class="cls-1" d="M283.5,122s3.69-12.16,1.71-13.13-2.94.21-4.73,3.65-3.48,8-6.56,9.37-11.7,1.1-11.95,3.9,1.31,2.38,5.07,2.25"/><path class="cls-3" d="M277.92,127.63s9.38-7.22,11.18-12c1.68-4.52-1.74-4.51-3.5-3.16-2,1.57-5.29,10.73-11.67,12.34-7.33,1.86-11.21,5.25-9,6.82,3.47,2.44,10.47-2.63,10.47-2.63"/><path class="cls-3" d="M256.4,102s.62-5.77,5-5.14,12.2,16.74,12.2,16.74"/><path class="cls-3" d="M276.05,109.38s-5.28-4.87.52-9.82c4.26-3.64,12.31,2.5,8.48,7.52"/><path class="cls-3" d="M284.42,101S286,96.09,291,97.89s4.84,10.49-.58,10"/><path class="cls-3" d="M260.93,92.44s4.86-10.2-4-9.81c0,0,.85-10-5.18-11.19S247.31,75,247.31,75s-6.48.78-6.49,5.34,7.87,8.08,7.87,8.08-4.94,6.75,7.23,8.87"/><line class="cls-3" x1="247.31" y1="74.96" x2="257.86" y2="93.93"/><path class="cls-3" d="M256.23,119.87s-.3-3-2.43-2.73-4.86.93-2.67-5c2.52-6.87,13.26-6.91,13.26-6.91"/><path class="cls-3" d="M249.66,118.66s-1,9.06,6.38,8.69,13.58-2.65,15.07-9a8.62,8.62,0,0,0-4.18-9.33"/><path class="cls-3" d="M285.6,112.45s1.26-2.93-.72-3.9-2.93.21-4.73,3.65-3.48,8-6.55,9.37-11.71,1.1-12,3.9,1.31,2.38,5.07,2.25"/><path class="cls-3" d="M253.62,103.78s-4.29-8.78-5.46-7.39a3.38,3.38,0,0,0-.71,3s-1.14-8-2.09-6.84A8,8,0,0,0,244,95.38s-1.38-7.08-2.32-6.36-1.35,3.12-1.35,3.12-3.22-6.35-4.17-5.16.46,4.47.46,4.47-5.56-1.77-5.34.38,5,3.2,5,3.2-4.77-1.06-2.9,1.46S238.87,99,238.87,99s-5.6,1.26-3.25,3.19,7.6,1.37,7.6,1.37-4.19.44-2.91,2.48,8.08,2.4,8.08,2.4"/><path class="cls-3" d="M247.77,112.44s-8.89-4.59-11.91-2.64-5.92-5.35-2.85-6.76"/><path class="cls-3" d="M239.85,94.66s7.47,6.88,9.1,9.43a14,14,0,0,1,1.92,5.4"/><path class="cls-3" d="M256.12,110.11c-1.81,1.55-2.14,1.77.32,3s4.57,4.46,3.15,4.54.61,2.47-.19,3.42-5.35,1.87-5.31.56"/><path class="cls-3" d="M265.85,98.51c1.8-3.44,3.52-3.9,4.89-2.82s3.91-2.16,4.35.36.16,3.29-1.66,4.74"/></g></g></svg>