<svg xmlns="http://www.w3.org/2000/svg" xmlns:xlink="http://www.w3.org/1999/xlink" viewBox="0 0 314.28 92.1"><defs><style>.cls-1{fill:none;}.cls-2{fill:#288030;}.cls-3{fill:#fff;}.cls-4{fill:#77b977;}.cls-5{fill:#9bcb95;}.cls-6{fill:#5abbd3;}.cls-7{fill:#55ab58;}.cls-8{opacity:0.1;}.cls-9{clip-path:url(#clip-path);}.cls-10{fill:#040000;}.cls-11{clip-path:url(#clip-path-2);}.cls-12{fill:#de5927;}.cls-13{fill:#c5c5c5;}</style><clipPath id="clip-path"><rect class="cls-1" x="63.79" width="41.98" height="71.65"/></clipPath><clipPath id="clip-path-2"><rect class="cls-1" x="22.62" y="9.36" width="37.76" height="70.91"/></clipPath></defs><g id="レイヤー_2" data-name="レイヤー 2"><g id="レイヤー_1-2" data-name="レイヤー 1"><path class="cls-2" d="M130.9,55.67c8.54-2,17.84-6.62,20.52-22.77L137,33c-3.4,0-4.85,0-6.3.11v-2.5c2.06.07,4.16.07,6.22.07l13.76,0c2,0,3.47,0,4.16-.07L157.28,33c-1.37,5.47-2.24,8.8-5.25,13.18-5.86,8.54-15.16,10.64-19.83,11.73Zm28.74-30.91a3.75,3.75,0,1,1-3.7,3.73A3.72,3.72,0,0,1,159.64,24.76Zm0,1.92a1.83,1.83,0,1,0,1.77,1.81A1.83,1.83,0,0,0,159.64,26.68Z"/><path class="cls-2" d="M168.62,36.92c1.81.08,2.93.11,5.82.11h15.71c.94,0,2.75,0,4.63-.18l2.14,1.63c-.83,3.91-1.59,7.38-4.31,10.93-5.25,6.84-13.57,7.71-17.88,8.18l-.94-2.28c3.44-.44,11.69-1.52,15.35-9.38a24.54,24.54,0,0,0,1.77-6.47c0-.11-.32-.11-.36-.11H174.44c-2.57,0-4.56.07-5.82.11Zm24.72-5.06c-2.46-.08-4.82-.11-5.87-.11h-8.79c-3.44,0-5,.07-6.3.11V29.32c1.81.07,4.85.11,6.23.11h8.75c3.34,0,5.07-.07,6-.11Z"/><path class="cls-2" d="M206.63,53c12.52-1.42,20.88-5.72,28-16.69l1.85,1.38a36.52,36.52,0,0,1-7.64,10.82,35.71,35.71,0,0,1-12.88,7.89c-1,.32-5.79,1.77-6.88,2.13Zm11.43-15.49a24.1,24.1,0,0,0-9.73-8.15l1.12-1.95a31.06,31.06,0,0,1,12.49,5.82Z"/><path class="cls-2" d="M245,33.48c-.21,7.06-.36,10.32-1.3,13.69l-2.82-2.94c1.48-3.33,1.88-9.44,2-11.36Zm5.69-7.38a.5.5,0,0,1,.25.36,4.66,4.66,0,0,1-.18.83V60h-4.6V29c0-1.23-.11-2.43-.14-3Zm23,7.13v2H267v2.6h8.61v2H253.5V38.3l-1.12.76a21.58,21.58,0,0,0-1.45-6.63l1.49-1.12a36.52,36.52,0,0,1,3.36,5.43l-1.63,1.12H262v-2.6h-6.4v-2H262V31H254.3V29H262v-.65a12.92,12.92,0,0,0-.21-2.32l5.1.07a.48.48,0,0,1,.29.44,3,3,0,0,1-.18.76V29h7.74v2H267v2.24ZM260.13,53.32V60h-4.78V42h18.31V56.39c0,3.19-2,3.33-3.69,3.33h-4.89l-.72-2.24c1.7.18,3.11.22,3.19.22,1.3,0,1.3-.51,1.3-1.59V53.32Zm8.72-6.73V43.94h-8.72v2.65Zm0,4.74V48.61h-8.72v2.72Z"/><path class="cls-2" d="M290.39,50.53h4.78v2h-4.78v7.42h-4.85V52.52h-5.07v-2h5.07V46.3h-5.65v-2H283a30.84,30.84,0,0,0-1.74-5.79l1.45-.83h-2.82v-2h5.72v-4h-4.85v-2h4.85V28.45c0-.14,0-1.34-.11-2.39l4.81.08c.25,0,.33.29.33.39a2.48,2.48,0,0,1-.22.73v2.35h4.78v2h-4.78v4h5.28v2h-3.83l3.91,1.59c.07,0,.14.14.14.22a48.22,48.22,0,0,1-4.31,4.81h4.09v2h-5.28Zm-7.27-12.88a49.65,49.65,0,0,1,4.23,5l-3.44,1.59h7.31l-1.88-.87a21.7,21.7,0,0,0,1.56-5.75Zm29.67,22.11a16.48,16.48,0,0,1-5.32-3.47,25,25,0,0,1-4.3,3.33l-1.41-1.31v1.63h-4.89V27.44h15.89c0,10-.83,11.26-5.11,11.26H304l-.62-2.21a7.67,7.67,0,0,0,2.35.36c1.34,0,1.92,0,2-7.38h-6V40.61h11.43c-.11,2.18-.47,8.65-3.83,13.4a16.14,16.14,0,0,0,4.92,4.05ZM305.27,44a21.85,21.85,0,0,0,1.81,6.3,36.63,36.63,0,0,0,.9-7.64h-6.22v2.1Zm-3.51,13.94A18.1,18.1,0,0,0,305.48,54a28,28,0,0,1-3.72-7.24Z"/><polygon class="cls-3" points="38.33 78.51 15.71 92.11 0 22.95 22.62 9.35 38.33 78.51"/><polygon class="cls-3" points="60.38 80.27 38.33 78.51 22.62 9.35 44.67 11.11 60.38 80.27"/><polygon class="cls-4" points="37.49 74.81 18.36 85.92 4.33 24.16 23.46 13.05 37.49 74.81"/><polygon class="cls-4" points="59.54 76.57 37.49 74.81 23.46 13.05 45.51 14.81 59.54 76.57"/><polygon class="cls-3" points="79.5 69.16 105.77 71.65 90.06 2.49 63.79 0 79.5 69.16"/><polygon class="cls-3" points="60.38 80.27 79.5 69.16 63.79 0 44.67 11.11 60.38 80.27"/><polygon class="cls-4" points="78.66 65.46 100.71 67.22 86.68 5.46 64.63 3.7 78.66 65.46"/><polygon class="cls-4" points="59.54 76.57 78.66 65.46 64.63 3.7 45.51 14.81 59.54 76.57"/><polygon class="cls-5" points="95.69 45.13 72.8 39.67 51.68 41.99 28.79 36.53 7.67 38.85 6.43 33.41 27.56 31.09 50.45 36.55 71.57 34.23 94.45 39.69 95.69 45.13"/><polygon class="cls-5" points="29.97 79.18 33.1 77.36 19.07 15.6 15.94 17.42 29.97 79.18"/><path class="cls-6" d="M29.27,52l-2.5-11a2.31,2.31,0,0,1,1.75-2.76,2.64,2.64,0,0,1,1.28,0l11.29,2.88a4.36,4.36,0,0,1,1.9,7.4l-5.65,5.75A4.78,4.78,0,0,1,29.27,52"/><polygon class="cls-5" points="75.36 50.93 56.24 62.04 34.19 60.28 15.06 71.39 15.5 73.33 34.63 62.22 56.67 63.97 75.8 52.86 97.85 54.62 97.41 52.69 75.36 50.93"/><path class="cls-7" d="M49.6,20.91l1.51,6.64a6.56,6.56,0,0,0,6.67,5.1l4.1-.18a6.56,6.56,0,0,0,6.12-8l-2-8.73a6.56,6.56,0,0,0-9.88-4.11L52.51,13.9a6.55,6.55,0,0,0-2.91,7"/><polygon class="cls-5" points="40.87 75.06 55.26 57.75 70.63 30.09 89.78 19.1 90.7 23.15 71.57 34.23 56.24 62.04 44.84 75.4 40.87 75.06"/><g class="cls-8"><g class="cls-9"><polygon class="cls-10" points="79.5 69.16 105.77 71.65 90.06 2.49 63.79 0 79.5 69.16"/></g></g><g class="cls-8"><g class="cls-11"><polygon class="cls-10" points="60.38 80.27 38.33 78.51 22.62 9.35 44.67 11.11 60.38 80.27"/></g></g><path class="cls-12" d="M51.78,16c1.46,6.42-1.67,13-6.27,25.15a.62.62,0,0,1-1,.24c-9.79-9.09-15-13.56-16.51-20A12.2,12.2,0,0,1,51.78,16"/><path class="cls-3" d="M45.52,17.39A5.78,5.78,0,1,1,38.61,13a5.78,5.78,0,0,1,6.91,4.35"/><path class="cls-13" d="M45.52,17.39c-1.28-2.46-3.57-4-6.68-3.32S34.47,17.15,34.25,20a5.78,5.78,0,0,1,11.27-2.56"/></g></g></svg>