<svg xmlns="http://www.w3.org/2000/svg" viewBox="0 0 158.6 110.4"><defs><style>.cls-1{fill:#288030;}.cls-2{fill:#c8b82c;}</style></defs><g id="レイヤー_2" data-name="レイヤー 2"><g id="レイヤー_1-2" data-name="レイヤー 1"><path class="cls-1" d="M19.17,50.53c.16,0,.39,0,.39.31s-.08.34-.7.73c-.27.42-.38.62-.85,1.27h18.4V55H27a21.67,21.67,0,0,0,10,8.76l-1.77,1.7C29,62.91,23.65,59.17,20.6,55H16.32A38.21,38.21,0,0,1,1.47,65.46L0,63.87A27.79,27.79,0,0,0,10.45,55H.62V52.84H11.8a11.54,11.54,0,0,0,1.16-3l-8.41.77a1.74,1.74,0,0,1-.73.35c-.27,0-.35-.23-.39-.38L2.58,47c1.47.07,4.86,0,5.6,0,.38-.54,2.7-4.13,3.12-6.48l7,1.12c.15,0,.34.07.34.3s-.19.39-1,.7a64.51,64.51,0,0,1-5.09,4.24c4.59-.15,9.14-.34,13.73-.54-1.12-1.39-2.12-2.47-3-3.35l1.81-1.55a49.47,49.47,0,0,1,10,7.49L30,52a26.2,26.2,0,0,0-2.16-3.59c-4.36.43-8.79.89-13,1.28Zm14,18.55c.15.16.23.23.23.39s-.2.27-1.12.54c-6.79,4.32-15.93,7.06-27,6.94L3.86,74.68c14.27,0,23.26-6.49,25.26-9ZM22,60.13a.49.49,0,0,1,.19.35c0,.35-.35.42-.85.54a46.06,46.06,0,0,1-16,6.71L3.93,65.92c6.52-1.89,12.54-6.37,14.32-9Zm5.32,4.28c.12.08.31.24.31.43s-.39.39-.89.62c-4.24,3-12.3,6.25-20.52,6.82L4.78,70.2c9-1,16.09-5.25,18.94-8.76Z"/><path class="cls-1" d="M59.17,48.25c0,5.48,0,20.33-1.43,24.73-1.16,3.58-4.05,3.58-5.94,3.58H47.71L47,74.25a19.48,19.48,0,0,0,2.51.23c1.62,0,2.62-.27,3.27-2.85.58-2.24,1.35-8.57,1.28-21.22H50.53c-.2,9.76-.35,17.71-8.37,26.27l-1.62-1.5c4.7-7,4.82-14,5-24.77H41V48.25h4.47V43.43c0-1-.07-2.28-.11-2.78l5.05.08c.08,0,.23.27.23.46a5.92,5.92,0,0,1-.15.74v6.32ZM66.5,74v2H61.37V43.55H76.06V76H71V74ZM71,71.86V45.71H66.5V71.86Z"/><path class="cls-1" d="M117.52,47.21v2.12H97.31V56h16.9c0,4.12-.39,15.19-2.24,18.17-1.2,1.89-2.7,2.27-5.17,2.27H99.51l-.81-2.27c1.66.15,3.36.23,4.94.23,1.39,0,2.54,0,3.2-1.05,1.47-2.46,1.74-10,1.89-15.19H97.27c-.42,5-1.08,13.34-13.92,18.86l-1.66-1.7C89.06,71,91.87,67,91.87,56.51V49.33H81.54V47.21H96.85V43a22.24,22.24,0,0,0-.16-2.35h5.41c.15,0,.27.23.27.46a4,4,0,0,1-.12.62v5.44Z"/><path class="cls-1" d="M127.63,58.82a44.16,44.16,0,0,0-5.9-6.86l1.34-1.78a55.23,55.23,0,0,1,8,4.32Zm4.59,2.74c-.93,2.35-5.75,13.66-6,14.89-.12.42-.54.77-.69.62l-3.75-3.32c2-2,5.17-7.1,8.53-13.89ZM129,48.64a48,48,0,0,0-5.67-6.48l1.27-1.58a53.12,53.12,0,0,1,8.06,4.16Zm27.54-1.43v2.12H147V57.2h10.92v2.12H146.53c-1.55,2.86-3.74,6-8.64,12.58,5.59-.58,9.6-1,13.15-1.62a43.68,43.68,0,0,0-3.82-6.83l2-1.16a60.27,60.27,0,0,1,9.41,11.77l-4.82,2.85c-.35-1-.81-2.31-1.77-4.55-3.86.85-7.95,1.66-19.64,3.82-.35.35-.46.42-.65.42s-.39,0-.47-.19l-1.5-4c2.31-.08,4.36-.23,4.67-.27a81.72,81.72,0,0,0,6-12.85h-9.34V57.2h10.57V49.33h-9.22V47.21h9.22V43.78a18.63,18.63,0,0,0-.15-3.13l5.47.08a.44.44,0,0,1,.27.39,1.89,1.89,0,0,1-.23.69v5.4Z"/><path class="cls-2" d="M70.16,90.21a7,7,0,0,0-7.06,7.08A5.86,5.86,0,0,0,69,103.06a4.79,4.79,0,0,0,4.85-4.72,3.94,3.94,0,0,0-4-3.89,3.27,3.27,0,0,0-3.33,3.2,2.64,2.64,0,0,0,2.68,2.65v-1a1.59,1.59,0,0,1-1.64-1.61,2.23,2.23,0,0,1,2.29-2.16,2.91,2.91,0,0,1,3,2.85A3.75,3.75,0,0,1,69,102a4.82,4.82,0,0,1-4.9-4.73,6,6,0,0,1,6-6,7.48,7.48,0,0,1,6.06,2.86,22.66,22.66,0,0,1,3.42,6.09l1-.31a23.07,23.07,0,0,0-3.58-6.4A8.5,8.5,0,0,0,70.16,90.21Z"/><path class="cls-2" d="M55.9,90c-4,0-5.4,2.66-5.4,4.94a3.84,3.84,0,0,0,3.62,3.84,3,3,0,0,0,3-3,2.53,2.53,0,0,0-2.51-2.54,2,2,0,0,0-2.11,2h1a1,1,0,0,1,1.07-1,1.5,1.5,0,0,1,1.47,1.5,2,2,0,0,1-2,2,2.77,2.77,0,0,1-2.58-2.8c0-.92.32-3.9,4.36-3.9l15,.21v-1Z"/><path class="cls-2" d="M90.36,90.21a8.49,8.49,0,0,0-6.88,3.28,22.75,22.75,0,0,0-3.58,6.4l1,.31a22.66,22.66,0,0,1,3.42-6.09,7.48,7.48,0,0,1,6-2.86,6,6,0,0,1,6,6A4.83,4.83,0,0,1,91.48,102a3.75,3.75,0,0,1-3.81-3.68,2.91,2.91,0,0,1,3-2.85,2.23,2.23,0,0,1,2.29,2.16,1.59,1.59,0,0,1-1.65,1.61v1A2.64,2.64,0,0,0,94,97.65a3.28,3.28,0,0,0-3.33-3.2,4,4,0,0,0-4,3.89,4.8,4.8,0,0,0,4.85,4.72,5.87,5.87,0,0,0,6-5.77A7,7,0,0,0,90.36,90.21Z"/><path class="cls-2" d="M104.63,90l-15,.21,0,1,15-.21c4,0,4.34,3,4.34,3.9a2.76,2.76,0,0,1-2.58,2.8,2,2,0,0,1-2-2,1.5,1.5,0,0,1,1.46-1.5,1,1,0,0,1,1.08,1h1a2.05,2.05,0,0,0-2.12-2,2.52,2.52,0,0,0-2.5,2.54,3,3,0,0,0,3,3A3.84,3.84,0,0,0,110,94.94C110,92.66,108.61,90,104.63,90Z"/><path class="cls-2" d="M83.81,102.71a3.55,3.55,0,1,1-3.55-3.55A3.55,3.55,0,0,1,83.81,102.71Zm-1,0a2.51,2.51,0,1,0-2.51,2.5A2.52,2.52,0,0,0,82.77,102.71Z"/><path class="cls-2" d="M82.77,107.9a2.51,2.51,0,1,1-2.51-2.5A2.51,2.51,0,0,1,82.77,107.9Zm-1,0a1.47,1.47,0,1,0-1.47,1.46A1.46,1.46,0,0,0,81.73,107.9Z"/><path class="cls-2" d="M70.16,20.19a7,7,0,0,1-7.06-7.08A5.86,5.86,0,0,1,69,7.34a4.79,4.79,0,0,1,4.85,4.73,3.94,3.94,0,0,1-4,3.88,3.26,3.26,0,0,1-3.33-3.2,2.64,2.64,0,0,1,2.68-2.65v1a1.59,1.59,0,0,0-1.64,1.61,2.23,2.23,0,0,0,2.29,2.16,2.91,2.91,0,0,0,3-2.84A3.75,3.75,0,0,0,69,8.38a4.82,4.82,0,0,0-4.9,4.73,6,6,0,0,0,6,6,7.48,7.48,0,0,0,6.06-2.86,22.87,22.87,0,0,0,3.42-6.08l1,.31a23.38,23.38,0,0,1-3.58,6.4A8.52,8.52,0,0,1,70.16,20.19Z"/><path class="cls-2" d="M55.9,20.4c-4,0-5.4-2.66-5.4-4.93a3.83,3.83,0,0,1,3.62-3.84,3,3,0,0,1,3,3,2.53,2.53,0,0,1-2.51,2.54,2.06,2.06,0,0,1-2.11-2h1a1,1,0,0,0,1.07,1,1.51,1.51,0,0,0,1.47-1.5,2,2,0,0,0-2-2,2.76,2.76,0,0,0-2.58,2.8c0,.91.32,3.89,4.36,3.89l15-.21v1Z"/><path class="cls-2" d="M90.36,20.19a8.51,8.51,0,0,1-6.88-3.27,23.05,23.05,0,0,1-3.58-6.4l1-.31a22.87,22.87,0,0,0,3.42,6.08,7.48,7.48,0,0,0,6,2.86,6,6,0,0,0,6-6,4.83,4.83,0,0,0-4.91-4.73,3.75,3.75,0,0,0-3.81,3.69,2.91,2.91,0,0,0,3,2.84,2.23,2.23,0,0,0,2.29-2.16,1.6,1.6,0,0,0-1.65-1.61v-1A2.64,2.64,0,0,1,94,12.75,3.27,3.27,0,0,1,90.64,16a4,4,0,0,1-4-3.88,4.8,4.8,0,0,1,4.85-4.73,5.87,5.87,0,0,1,6,5.77A7,7,0,0,1,90.36,20.19Z"/><path class="cls-2" d="M104.63,20.4l-15-.21,0-1,15,.21c4,0,4.34-3,4.34-3.89a2.76,2.76,0,0,0-2.58-2.8,2,2,0,0,0-2,2,1.5,1.5,0,0,0,1.46,1.5,1,1,0,0,0,1.08-1h1a2.06,2.06,0,0,1-2.12,2,2.52,2.52,0,0,1-2.5-2.54,3,3,0,0,1,3-3A3.83,3.83,0,0,1,110,15.47C110,17.74,108.61,20.4,104.63,20.4Z"/><path class="cls-2" d="M80.26,11.24A3.55,3.55,0,1,1,83.81,7.7,3.55,3.55,0,0,1,80.26,11.24Zm0-6A2.51,2.51,0,1,0,82.77,7.7,2.51,2.51,0,0,0,80.26,5.19Z"/><path class="cls-2" d="M80.26,5A2.51,2.51,0,1,1,82.77,2.5,2.51,2.51,0,0,1,80.26,5Zm0-4A1.47,1.47,0,1,0,81.73,2.5,1.47,1.47,0,0,0,80.26,1Z"/></g></g></svg>