<svg xmlns="http://www.w3.org/2000/svg" xmlns:xlink="http://www.w3.org/1999/xlink" viewBox="0 0 280.62 88.53"><defs><style>.cls-1,.cls-3{fill:none;}.cls-2{fill:#288030;}.cls-3{stroke:#009bac;stroke-miterlimit:10;stroke-width:1.16px;}.cls-4{fill:#138543;}.cls-5{fill:#81b743;}.cls-6{fill:#fff;}.cls-7{opacity:0.1;}.cls-8{clip-path:url(#clip-path);}.cls-9{fill:#040000;}.cls-10{fill:#e68927;}.cls-11{fill:#de5927;}.cls-12{opacity:0.6;}.cls-13{clip-path:url(#clip-path-2);}.cls-14{fill:#6cbec5;}.cls-15{clip-path:url(#clip-path-3);}.cls-16{opacity:0.5;}.cls-17{clip-path:url(#clip-path-4);}.cls-18{fill:#169a8f;}.cls-19{opacity:0.7;}.cls-20{clip-path:url(#clip-path-5);}</style><clipPath id="clip-path"><rect class="cls-1" x="7.61" y="8.52" width="13.58" height="4.57"/></clipPath><clipPath id="clip-path-2"><rect class="cls-1" x="15.56" y="12.54" width="42.35" height="24.43"/></clipPath><clipPath id="clip-path-3"><polygon class="cls-1" points="22.22 42.08 30.43 73.91 66.94 66.75 58.73 34.91 22.22 42.08"/></clipPath><clipPath id="clip-path-4"><rect class="cls-1" x="20.43" y="53.87" width="41.65" height="23.17"/></clipPath><clipPath id="clip-path-5"><rect class="cls-1" x="27.34" y="35.79" width="36.21" height="13.8"/></clipPath></defs><g id="レイヤー_2" data-name="レイヤー 2"><g id="レイヤー_1-2" data-name="レイヤー 1"><path class="cls-2" d="M97.31,34.89c3,.07,5.87.07,8.83,0,0-.94,0-5.53,0-6.58l4,.25c1,.07,1.2.18,1.2.44s-.26.76-.29.9-.11,2.06-.15,4.85c4.45-.22,6.19-.33,8.47-.54v2.53l-8.47.25s0,2.9,0,4.17a23.43,23.43,0,0,1,2.79-.15c8,0,12.16,4,12.16,9.52,0,8.11-8.9,9.16-12.3,9.59l-.8-2.32c5-.54,7.85-2.85,7.85-7.31,0-7.34-8.46-7-9.7-6.87,0,1.23-.07,7.31-.07,10.17,0,3.15,0,6.37-5.43,6.37-4.7,0-8.9-2.28-8.9-7.2,0-5.72,4.7-9.27,9.66-10.83v-5c-1.81,0-7.24.14-8.83.25Zm3.22,18.28c0,3.4,2,4.63,3.44,4.63,1.09,0,1.92-.62,2.06-2.1.08-.91.08-9.27.11-11A9,9,0,0,0,100.53,53.17ZM124,39.38a27.29,27.29,0,0,0-5.54-10.21l1.85-1.41a34.84,34.84,0,0,1,8.61,8.79Z"/><path class="cls-2" d="M164,39.81v2H151.54V58.05h14.4v2H132.28v-2h14.3V41.8H134.2v-2h12.38V30.65a23.76,23.76,0,0,0-.15-3.07l5.07.07c.11,0,.25.29.25.43a3.15,3.15,0,0,1-.21.76v11Z"/><path class="cls-2" d="M202.1,31.12v2h-7.78l3.22,1.26a.38.38,0,0,1,.22.33c0,.29-.5.5-.72.61a47.91,47.91,0,0,1-4.2,3.51h10.71v2H176.66v3.55c0,7.17-1,11.73-5.46,16.51l-1.89-1.2c1.34-2.5,2.46-5.5,2.46-12.3V38.83h7.64a22.89,22.89,0,0,0-2-4.95l1.38-.76h-6.48v-2h12V29.35c0-.11-.08-1.56-.11-2l5,.07c.29,0,.36.14.36.4a1.73,1.73,0,0,1-.18.68v2.57ZM187.19,45.57V43.9c0-.47,0-1.34-.11-2.06L192,42a.35.35,0,0,1,.39.39,1.55,1.55,0,0,1-.25.73v2.5h9.09v2h-9.09v4.06h7.57v2h-7.57v4.74h11.33v2H175.57v-2h11.62V53.67H179.3v-2h7.89V47.59h-4.81a30.73,30.73,0,0,1-3.84,4.64l-1.59-1a26.25,26.25,0,0,0,3.11-9.74l4.78,1c.18,0,.43.08.43.33s-.29.51-.5.72c-.51,1-.83,1.59-1.12,2.07Zm-7.42-12.45a32.24,32.24,0,0,1,5,4l-3.69,1.7h10.46L189.69,38a23.9,23.9,0,0,0,2.43-4.88Z"/><path class="cls-2" d="M211.38,34.92c-.22,7.06-.37,10.32-1.31,13.69l-2.82-2.94c1.48-3.33,1.88-9.44,1.95-11.36Zm5.68-7.38a.5.5,0,0,1,.25.36,4.89,4.89,0,0,1-.18.84V61.46h-4.6V30.4c0-1.23-.11-2.42-.14-3Zm23,7.13v2h-6.66v2.6H242v2H219.84V39.74l-1.12.76a21.12,21.12,0,0,0-1.45-6.62l1.49-1.13a37.42,37.42,0,0,1,3.37,5.43L220.5,39.3h7.89V36.7H222v-2h6.41V32.43h-7.75v-2h7.75v-.65a13.2,13.2,0,0,0-.22-2.32l5.1.07a.48.48,0,0,1,.29.44,3,3,0,0,1-.18.76v1.7h7.75v2h-7.75v2.24ZM226.47,54.76v6.7h-4.78V43.39H240V57.83c0,3.19-2,3.34-3.7,3.34h-4.88l-.73-2.25c1.7.18,3.12.22,3.19.22,1.3,0,1.3-.51,1.3-1.59V54.76ZM235.19,48V45.38h-8.72V48Zm0,4.74V50.05h-8.72v2.72Z"/><path class="cls-2" d="M256.73,52h4.78v2h-4.78v7.42h-4.85V54h-5.07V52h5.07V47.74h-5.64v-2h3.07a31.37,31.37,0,0,0-1.73-5.79l1.44-.83H246.2v-2h5.72v-4h-4.85v-2h4.85V29.89c0-.14,0-1.34-.11-2.39l4.81.08c.26,0,.33.29.33.4a2.51,2.51,0,0,1-.22.72v2.35h4.78v2h-4.78v4H262v2h-3.84l3.91,1.59c.07,0,.14.14.14.22a49.22,49.22,0,0,1-4.3,4.81H262v2h-5.29Zm-7.27-12.88a49.65,49.65,0,0,1,4.23,5l-3.44,1.59h7.31l-1.88-.87a21.7,21.7,0,0,0,1.56-5.75ZM279.14,61.2a16.27,16.27,0,0,1-5.32-3.47,25.06,25.06,0,0,1-4.31,3.33l-1.41-1.31v1.63h-4.89V28.88H279.1c0,10-.83,11.26-5.1,11.26h-3.62l-.62-2.21a7.67,7.67,0,0,0,2.35.36c1.34,0,1.92,0,2-7.38h-6V42.05h11.43c-.1,2.18-.47,8.66-3.83,13.4a16.14,16.14,0,0,0,4.92,4Zm-7.53-15.78a22.18,22.18,0,0,0,1.81,6.3,36.63,36.63,0,0,0,.9-7.64H268.1v2.1ZM268.1,59.36a18.39,18.39,0,0,0,3.73-3.91,28.07,28.07,0,0,1-3.73-7.24Z"/><line class="cls-3" y1="79.54" x2="0.63" y2="79.54"/><polyline class="cls-4" points="12.14 5.95 8.55 1.99 7.1 3.46 11.9 6.83"/><polygon class="cls-5" points="27.92 22.93 16.41 27.59 6.18 8.38 17.69 3.72 27.92 22.93"/><path class="cls-6" d="M14,7.86a.92.92,0,0,1-.8,1.1,1.07,1.07,0,0,1-1.26-.7.93.93,0,0,1,.8-1.1,1.07,1.07,0,0,1,1.26.7"/><polygon class="cls-4" points="10.55 6.2 12.03 8.01 13.49 7.37 12.62 5.3 10.55 6.2"/><polyline class="cls-4" points="11.34 6.23 10.25 0.33 11.93 0 12.45 6.21"/><g class="cls-7"><g class="cls-8"><polyline class="cls-9" points="8.67 13.09 7.61 11.16 20.21 8.52 21.19 10.3"/></g></g><path class="cls-10" d="M72,79,24.31,88.2,6.51,18.32,54.22,9.08c2.77-.54,5.52,1,6.14,3.4L75.93,73.61C76.55,76,74.8,78.42,72,79"/><path class="cls-11" d="M27.89,87.51l-4.84.94a4,4,0,0,1-4.75-2.64L1.36,19.32l8.72-1.69Z"/><path class="cls-6" d="M71.63,77.63,23.38,87.09A2.88,2.88,0,0,1,20,85.21l-1.15-4.44L73.55,70l.94,3.65a3.32,3.32,0,0,1-2.86,3.95"/><path class="cls-10" d="M70.53,73.09,22.81,82.33,5,12.45,52.73,3.21c2.77-.54,5.51,1,6.13,3.4L74.44,67.74c.61,2.42-1.14,4.81-3.91,5.35"/><path class="cls-11" d="M26.39,81.64l-8.72,1.69L.73,16.84a3.5,3.5,0,0,1,3-4.15l4.84-.93Z"/><g class="cls-12"><g class="cls-13"><polygon class="cls-6" points="21.45 18.67 21.83 20.14 19.8 20.53 21.36 26.61 19.54 26.97 17.97 20.89 15.93 21.29 15.56 19.83 21.45 18.67"/><path class="cls-6" d="M25.77,22.82l.72,2.78L24.74,26l-1.95-7.54L25.1,18a4.94,4.94,0,0,1,2.69,0A2,2,0,0,1,29,19.45a2.09,2.09,0,0,1-1,2.32v0a2.38,2.38,0,0,1,1.21,1.05l1.36,2-1.84.36-1.25-1.9a1.33,1.33,0,0,0-.51-.52,1.2,1.2,0,0,0-.69,0Zm-.22-3.54-.66.13.55,2.12.59-.11a1.74,1.74,0,0,0,1-.53.94.94,0,0,0,.17-.91.91.91,0,0,0-.52-.68,2,2,0,0,0-1.18,0"/><path class="cls-6" d="M31.2,24.68l.54-8,1.9-.38,4.43,7-1.9.38-.84-1.55-2.27.44v1.72ZM33,21.21l1.61-.32L33.07,18h0Z"/><polygon class="cls-6" points="38.48 15.33 41.51 20.89 41.53 20.89 41.59 14.72 43.45 14.36 42.91 22.38 41.01 22.76 36.58 15.71 38.48 15.33"/><polygon class="cls-6" points="46.63 15.23 47.03 16.76 49.94 16.19 50.28 17.52 47.37 18.09 47.85 19.93 50.96 19.32 51.33 20.73 46.42 21.7 44.48 14.16 49.38 13.2 49.75 14.62 46.63 15.23"/><polygon class="cls-6" points="52.72 12.54 54.29 18.63 57.54 17.99 57.91 19.44 52.83 20.44 50.88 12.9 52.72 12.54"/><path class="cls-6" d="M21.9,29.11a9,9,0,0,1,2.15-.17l.37,1.44a7.21,7.21,0,0,0-2,.08c-1.57.31-2.14,1.29-1.72,2.94a3,3,0,0,0,1,1.75,2.22,2.22,0,0,0,1.78.3,2.47,2.47,0,0,0,.74-.25l-.48-1.86-1.68.33-.34-1.33,3.36-.66,1.09,4.25a7.07,7.07,0,0,1-2.43.93,3.95,3.95,0,0,1-4.89-3.1,3.72,3.72,0,0,1,.3-3,3.81,3.81,0,0,1,2.66-1.6"/><path class="cls-6" d="M27.66,28.09,28.93,33a1.61,1.61,0,0,0,.53,1,1.2,1.2,0,0,0,1,.13,1.11,1.11,0,0,0,.81-.47,1.44,1.44,0,0,0,0-1.06L30,27.63l1.77-.34L33,32.09q.74,2.83-2.21,3.41t-3.68-2.25l-1.24-4.81Z"/><polygon class="cls-6" points="35.34 34.5 33.39 26.96 35.36 26.58 37.3 34.12 35.34 34.5"/><path class="cls-6" d="M44.19,28.7a3.65,3.65,0,0,1-.32,3.08,4.1,4.1,0,0,1-2.79,1.59l-2,.4-2-7.54,2-.4a4.71,4.71,0,0,1,3.29.37,3.8,3.8,0,0,1,1.76,2.5m-1.7.33a2.62,2.62,0,0,0-1-1.63,2.46,2.46,0,0,0-1.8-.22l-.46.09,1.23,4.79.46-.09a2.1,2.1,0,0,0,1.52-.92,2.7,2.7,0,0,0,.06-2"/><polygon class="cls-6" points="46.53 25.88 46.93 27.41 49.84 26.84 50.18 28.17 47.27 28.74 47.75 30.58 50.86 29.97 51.22 31.38 46.32 32.34 44.38 24.81 49.28 23.84 49.65 25.27 46.53 25.88"/></g></g><polygon class="cls-14" points="66.94 66.75 30.43 73.91 22.22 42.08 58.73 34.91 66.94 66.75"/><g class="cls-15"><g class="cls-16"><g class="cls-17"><polygon class="cls-18" points="21.98 77.05 20.43 69.83 30.31 58.98 42.09 61.68 51.58 53.88 59.46 58.83 62.08 69.6 21.98 77.05"/></g></g><polygon class="cls-18" points="27.99 74.76 26.45 67.54 38.85 58 50.44 61.44 60.31 54.48 65.48 56.53 68.1 67.31 27.99 74.76"/><g class="cls-19"><g class="cls-20"><path class="cls-6" d="M37.61,45.19c.33,1.27-1.1,3.3-3.64,3.8s-6.29-.29-6.61-1.56C27.17,46.7,28.88,46,30,45.29A7.55,7.55,0,0,1,32.66,44c2.55-.5,4.62,0,5,1.24"/><path class="cls-6" d="M47.86,47.55c.16.63-1.17,1.62-2.74,1.93s-3.53,0-3.69-.67,1.6-1,3.17-1.35,3.1-.54,3.26.09"/><path class="cls-6" d="M63.5,37.88c.33,1.27-1.27,2.77-3.4,3.19s-4.7-.27-5-1.54,1.56-3.24,3.69-3.65,4.42.73,4.74,2"/></g></g></g></g></g></svg>