<svg xmlns="http://www.w3.org/2000/svg" viewBox="0 0 263.97 145.17"><defs><style>.cls-1{fill:#c8b82c;}.cls-2{fill:#288030;}.cls-3,.cls-5{fill:none;stroke:#e0cc40;stroke-linecap:round;stroke-linejoin:round;}.cls-3{stroke-width:1.59px;}.cls-4{fill:#0f8531;}.cls-5{stroke-width:0.69px;}</style></defs><g id="レイヤー_2" data-name="レイヤー 2"><g id="レイヤー_1-2" data-name="レイヤー 1"><path class="cls-1" d="M105.67,138.86a1.67,1.67,0,0,0-.9,2.31,7.64,7.64,0,0,1,.8,2.13c0,.23.12.54-.28.63s-.52-.16-.64-.4a4.92,4.92,0,0,1-.55-1.25c-.39-2.65-2.13-4.71-4.09-6.6a24.8,24.8,0,0,0-13-6.43c-3-.55-5.68-.07-7.65,2.13a5,5,0,0,0-1.19,3.79c0,.48.21.63.83.64a13,13,0,0,1,9.33,3.79,3.59,3.59,0,0,1,1.08,1.85c.32,1.79-1.64,3.11-3.84,2.52a11.21,11.21,0,0,1-7-5.68c-.32-.57-.53-1.18-.81-1.79a4.46,4.46,0,0,0-2.52,2.31.57.57,0,0,1-.63.41c-.41,0-.45-.32-.5-.61a1.37,1.37,0,0,1,.58-1.27,4.18,4.18,0,0,1,2-1.16c.88-.17,1-.59.93-1.25a5.24,5.24,0,0,1,2.56-5,8.94,8.94,0,0,1,6.88-1.18c7.19,1.51,13,4.73,16.55,10.51a3.79,3.79,0,0,0,.25.35l.1,0a6.75,6.75,0,0,1,.56-.76,6.63,6.63,0,0,1,.81-.62,8.42,8.42,0,0,1-.14-1c-.06-1.75,1.3-2.68,3.28-2.26a12.48,12.48,0,0,1,5.47,2.91c1.59,1.34,3.07,2.79,4.64,4.16a10.44,10.44,0,0,0,4.95,2.49,5.88,5.88,0,0,0,5-1.6,2.58,2.58,0,0,0,.48-2.25c-.47-2.58-2.23-4.4-4.75-5.7a2.26,2.26,0,0,0-2.59.1,2,2,0,0,0,.36,2.41,2,2,0,0,0,1.17.62,5.32,5.32,0,0,1-.5-.82.73.73,0,0,1,.34-1,.91.91,0,0,1,1.07.15,1.35,1.35,0,0,1,.51,1.74c-.26.52-1.19.64-2,.33a2.71,2.71,0,0,1-1.68-3.33,1.62,1.62,0,0,1,1.32-1,3.67,3.67,0,0,1,2.34.31c2.92,1.53,4.85,3.66,5.13,6.7.16,1.77-1.77,3.51-4.19,3.87a8.45,8.45,0,0,1-5.86-1.48,22,22,0,0,1-3.89-3.27,25.38,25.38,0,0,0-4.62-3.69A9.35,9.35,0,0,0,108,135.4a1.79,1.79,0,0,0-1.85.64,1.84,1.84,0,0,0-.17,2c.14.31.49.24.74.3a4.33,4.33,0,0,1,2.11,1.13c.27.3.42.66.08,1a.93.93,0,0,1-1.06.11A5.37,5.37,0,0,1,105.67,138.86Zm-27.08-2.49a3.13,3.13,0,0,0,.61,1.78,10.84,10.84,0,0,0,6.58,5.34c1.41.39,2.63-.06,3-1.08a2,2,0,0,0-.53-2.12,11,11,0,0,0-6-3.59A9.62,9.62,0,0,0,78.59,136.37Zm29.87,3.74a2.42,2.42,0,0,0-1.94-1.25A2.47,2.47,0,0,0,108.46,140.11Z"/><path class="cls-1" d="M186.16,136.47a11.25,11.25,0,0,1-2.54,4.28,10.56,10.56,0,0,1-5.2,3.21,3.49,3.49,0,0,1-2.69-.25,2.07,2.07,0,0,1-1-2.71,6.49,6.49,0,0,1,2.54-2.79,13.63,13.63,0,0,1,8.33-2.4,3.7,3.7,0,0,0-.08-2.83,6.22,6.22,0,0,0-5.44-3.84,15.48,15.48,0,0,0-6.94,1.12c-5.62,2-10,5.17-12.65,10-.44.8-.29,1.71-.74,2.49-.26.44-.23,1.37-1.06,1.13-.67-.2-.13-.94,0-1.42a9,9,0,0,1,.59-1.32,1.7,1.7,0,0,0-.91-2.26,6.49,6.49,0,0,1-1.81,1.55c-.5.21-1,.53-1.47,0s0-.9.41-1.24a4.36,4.36,0,0,1,1.59-.77c1.07-.31,1.38-.79,1.12-1.73A1.79,1.79,0,0,0,156,135.4a10.42,10.42,0,0,0-4.19,1.83,30.4,30.4,0,0,0-3.82,3.22,16.86,16.86,0,0,1-5.84,4.19,6.73,6.73,0,0,1-6.6-.74,3.24,3.24,0,0,1-1.21-3.81c.65-2.5,2.46-4.25,4.92-5.56l.08,0a3.3,3.3,0,0,1,3,0c.9.58.76,1.46.56,2.24a2.64,2.64,0,0,1-2.09,1.91,1.41,1.41,0,0,1-1.68-.66,1.59,1.59,0,0,1,1-1.74.79.79,0,0,1,.81.14.74.74,0,0,1,.23.85,6.82,6.82,0,0,1-.55.86,2.1,2.1,0,0,0,1.66-1.32,1.52,1.52,0,0,0-.14-1.75,2,2,0,0,0-2.07-.25c-2.86.82-5.51,4.35-5.25,6.94a2.6,2.6,0,0,0,1.39,1.92,6,6,0,0,0,5.4.55,12.25,12.25,0,0,0,4-2.44,59.8,59.8,0,0,1,5.67-4.93,11.71,11.71,0,0,1,3.79-1.79c2.55-.6,4.08.67,3.5,2.89,0,.11,0,.22-.08.37a2.72,2.72,0,0,1,1.42,1.43,23.53,23.53,0,0,1,3.12-4.06,25.12,25.12,0,0,1,15.36-7.07c4-.35,7.92,1.94,7.84,6,0,.83,0,1.39,1.18,1.62a3.84,3.84,0,0,1,2,1.3,1.28,1.28,0,0,1,.35,1.09c-.05.27-.12.51-.47.56s-.5-.14-.66-.38A4.45,4.45,0,0,0,186.16,136.47Zm-.61-.12a12.52,12.52,0,0,0-8.49,2.59,5.34,5.34,0,0,0-1.86,2.21c-.5,1.27.47,2.44,2,2.47a5.13,5.13,0,0,0,2.38-.61A11.09,11.09,0,0,0,185.55,136.35ZM157.47,139c-1.13.08-1.8.54-1.86,1.26A3.43,3.43,0,0,0,157.47,139Z"/><path class="cls-1" d="M132.94,142.55c-.78-.2-.62-.74-.88-1.11-.49.24-.15,1-.9,1.06a1.48,1.48,0,0,1,0-1.2c.86-3.72-.79-6.76-3.51-9.48-1-1-1.07-.94.11-1.75a8.16,8.16,0,0,0,3.52-5.67c.11-.61.17-1.22.26-1.86h1c.19,1,.32,2,.58,3a7.7,7.7,0,0,0,3.51,4.66c.72.45.79.82.1,1.37a12.18,12.18,0,0,0-4,6.74,7.39,7.39,0,0,0,.22,2.82A6.85,6.85,0,0,1,132.94,142.55Z"/><path class="cls-1" d="M162.2,132.38a21.26,21.26,0,0,1,9.65-5.44,17.74,17.74,0,0,1,7.87-.77,5.69,5.69,0,0,1,4,2.42c-.42,0-.49-.23-.64-.37a6.38,6.38,0,0,0-4.43-1.77,21.94,21.94,0,0,0-16.06,6.21,1.88,1.88,0,0,0-.56,1c-.07.36,0,.8-.49,1.1-.69-.38-.39-.92-.15-1.31A1.9,1.9,0,0,0,161,131a2.72,2.72,0,0,0-2.83-.6,20.16,20.16,0,0,0-6.6,3.57c-2.69,1.94-4.94,4.27-7.5,6.31a21.65,21.65,0,0,1-2.9,2.1,3.52,3.52,0,0,1-2.64.51,1.26,1.26,0,0,1-1.11-1.37,2.05,2.05,0,0,0,1.92.94,4.57,4.57,0,0,0,2.14-.89,67.1,67.1,0,0,0,6.6-5.43,36.57,36.57,0,0,1,7-5,11.19,11.19,0,0,1,3-1.16c1.94-.41,3.24.2,3.9,1.85C162,132,162.09,132.15,162.2,132.38Z"/><path class="cls-1" d="M80.27,128.62a5.48,5.48,0,0,1,4-2.44,19.4,19.4,0,0,1,9.41,1.25,20.21,20.21,0,0,1,8.16,5,3.1,3.1,0,0,1,2.39-2.46,4.73,4.73,0,0,1,2.72.34,26.33,26.33,0,0,1,7.12,4.29c2.54,2,4.75,4.27,7.36,6.2a13.3,13.3,0,0,0,2.08,1.36,2.14,2.14,0,0,0,3-.6c.25.87-.63,1.57-1.84,1.45a5.7,5.7,0,0,1-2.88-1.28c-2.13-1.55-4.06-3.29-6-5a35.45,35.45,0,0,0-7.71-5.44,6.82,6.82,0,0,0-3.35-.94,2.24,2.24,0,0,0-2.21,3c.22.47.62,1,0,1.44-.22,0-.37-.1-.38-.23-.16-1.77-1.6-2.81-3-3.8a22.39,22.39,0,0,0-13.88-4.27,6.44,6.44,0,0,0-4.28,1.7C80.82,128.31,80.72,128.59,80.27,128.62Z"/><path class="cls-1" d="M16.71,138H70.53a.33.33,0,0,0,.29-.35.32.32,0,0,0-.29-.35H6.41C1.7,137.13.27,138.08,0,140a2.57,2.57,0,0,0,2.15,3,1.7,1.7,0,0,0,2-1A1.24,1.24,0,0,0,3,140.29c-.88-.07-1.18.84-1.13,1.59a1.77,1.77,0,0,1-.67-2.68c.58-.93,3.22-.62,5.58.77a5.59,5.59,0,0,0,5.32-.49,2.56,2.56,0,0,0,3,3.14C12.71,140.58,16,138.45,16.71,138Z"/><path class="cls-1" d="M257.56,137.85H193.44a.36.36,0,0,0,0,.7h53.82c.77.46,4,2.58,1.64,4.63a2.58,2.58,0,0,0,3-3.15,5.54,5.54,0,0,0,5.31.49c2.36-1.39,5-1.7,5.59-.77a1.79,1.79,0,0,1-.68,2.69c.05-.75-.25-1.67-1.13-1.59a1.24,1.24,0,0,0-1.16,1.74,1.72,1.72,0,0,0,2,1,2.58,2.58,0,0,0,2.15-3C263.71,138.64,262.28,137.69,257.56,137.85Z"/><path class="cls-2" d="M8.71,8.29c0,3.85-.38,11.13-1.93,15.86l-3.13-3A32.72,32.72,0,0,0,6.07,7.79ZM14.82.21c.17,0,.25.08.25.33a6.31,6.31,0,0,1-.25.93V39.3H9.76V2.89A25.69,25.69,0,0,0,9.59.08Zm27,3.35V5.9H34.58l5.14,1.84c.13,0,.13.25-.37.59-.71.5-3.56,2.89-4.19,3.31h7.66V14H17.62l-.62.54A45.54,45.54,0,0,0,15,7.07l1.5-1.38a44.33,44.33,0,0,1,4.27,5.82l-.17.13H24a21.51,21.51,0,0,0-2-4.52L23.86,5.9H18.63V3.56h8.62V2.18A9.78,9.78,0,0,0,27,0l5.82.17c.17,0,.21.25.21.42s-.21.88-.21.92V3.56ZM32.73,30.09h8.75V32.4H32.73v3.3h11V38h-27V35.7H27.21V32.4H18.5V30.09h8.71V27.16h-8.5V16.24h22.6V27.16H32.73Zm-5.52-9.5V18.46H23.82v2.13Zm-3.39,2.1V25h3.39V22.69ZM24.07,5.9c.71.46,4,2.93,5.32,4.06l-3.14,1.68h7.53L32,10.76A21.59,21.59,0,0,0,33.74,5.9Zm12,14.69V18.46H32.73v2.13Zm-3.39,2.1V25h3.39V22.69Z"/><path class="cls-2" d="M49.27,9.88c2.26,0,2.68,0,6.61-.09,0-3.26,0-6.15,0-8.37l4.31.34c.72,0,2.18.12,2.18.58A8.85,8.85,0,0,1,62,3.39c-.12.54-.29,7.53-.33,10.63,1.8-1.51,7.66-6.32,12.3-6.32,3.19,0,5.74,1.68,5.74,5.9,0,2.1-.92,12.22-.92,14.48s.46,2.85,1.59,2.85c2,0,3.68-1.67,4.43-2.47l1.89,2.18c-4.65,4.9-8.33,4.9-9.21,4.9-3.39,0-4.86-2.14-4.86-5.95,0-2.47.93-15.15.93-15.57,0-1.46-.59-2.64-2-2.64-.8,0-3.77.42-9.92,6.53-.09,10.38,0,18.55,0,20l-6,.08c0-1.55.17-8,.21-13.52-2.39,2.93-3.52,4.48-5.23,7L47.43,27c3.47-3.39,4.69-4.56,8.37-8,0-1.88,0-4.64,0-6.4a45.47,45.47,0,0,0-6.57.58Z"/><path class="cls-2" d="M111.3,33.61c2.81-.59,11-2.34,11-14.73,0-4.15-1.13-10.55-9.42-12.27-1.17,16.08-3.6,28.13-11.67,28.13-6,0-9.67-6.07-9.67-12.68,0-9.59,7.07-18.67,19.59-18.67,8.87,0,17.49,4.44,17.49,16,0,14.23-12.77,16.41-16.41,17ZM96.61,23.31c0,5.9,1.89,8.12,3.94,8.12s5.44-7.78,6.28-24.77C97,9.63,96.61,20.43,96.61,23.31Z"/><path class="cls-2" d="M143.54,33.82c0,.25,0,1.46,0,1.76h-6.24c0-1.8.09-5.44.09-7.45V10.05c0-1.47,0-2.93-.09-5.36,3.27.08,5.11.17,7.87.17h16.41c4.1,0,5.15-.05,6.65-.13-.08,3.6-.08,5.48-.08,6.36V28.21c0,2.6,0,5.69.08,7.41H162c0-.55,0-1.26,0-1.8Zm0-2.6h18.58V7.49H143.5Z"/><path class="cls-2" d="M177.44,17.87c2.93,0,9.09,0,10.38,0h16c3.31,0,7.12,0,10.51,0v3.6c-2.51,0-7.7,0-10.38,0H188c-7.28,0-8.2,0-10.51,0Z"/><path class="cls-2" d="M228.76,7.28c-2.26,0-4.6,0-7,.09V4.48c1.68.08,5.07.12,6.95.12h17.54c.58,0,4.18,0,7.24-.2L256.22,7c-3.35,5.23-3.68,5.82-5.57,8a46.89,46.89,0,0,1-11.76,9.92,45.47,45.47,0,0,1,7.49,7.66l-5.23,4c-3-6.36-9-13-14.31-16.12l1.88-2.21a52.38,52.38,0,0,1,7.45,4.6C244.88,15.82,248,7.58,248,7.37s0-.09-.26-.09Z"/><path class="cls-3" d="M8.71,8.29c0,3.85-.38,11.13-1.93,15.86l-3.13-3A32.72,32.72,0,0,0,6.07,7.79ZM14.82.21c.17,0,.25.08.25.33a6.31,6.31,0,0,1-.25.93V39.3H9.76V2.89A25.69,25.69,0,0,0,9.59.08Zm27,3.35V5.9H34.58l5.14,1.84c.13,0,.13.25-.37.59-.71.5-3.56,2.89-4.19,3.31h7.66V14H17.62l-.62.54A45.54,45.54,0,0,0,15,7.07l1.5-1.38a44.33,44.33,0,0,1,4.27,5.82l-.17.13H24a21.51,21.51,0,0,0-2-4.52L23.86,5.9H18.63V3.56h8.62V2.18A9.78,9.78,0,0,0,27,0l5.82.17c.17,0,.21.25.21.42s-.21.88-.21.92V3.56ZM32.73,30.09h8.75V32.4H32.73v3.3h11V38h-27V35.7H27.21V32.4H18.5V30.09h8.71V27.16h-8.5V16.24h22.6V27.16H32.73Zm-5.52-9.5V18.46H23.82v2.13Zm-3.39,2.1V25h3.39V22.69ZM24.07,5.9c.71.46,4,2.93,5.32,4.06l-3.14,1.68h7.53L32,10.76A21.59,21.59,0,0,0,33.74,5.9Zm12,14.69V18.46H32.73v2.13Zm-3.39,2.1V25h3.39V22.69Z"/><path class="cls-3" d="M49.27,9.88c2.26,0,2.68,0,6.61-.09,0-3.26,0-6.15,0-8.37l4.31.34c.72,0,2.18.12,2.18.58A8.85,8.85,0,0,1,62,3.39c-.12.54-.29,7.53-.33,10.63,1.8-1.51,7.66-6.32,12.3-6.32,3.19,0,5.74,1.68,5.74,5.9,0,2.1-.92,12.22-.92,14.48s.46,2.85,1.59,2.85c2,0,3.68-1.67,4.43-2.47l1.89,2.18c-4.65,4.9-8.33,4.9-9.21,4.9-3.39,0-4.86-2.14-4.86-5.95,0-2.47.93-15.15.93-15.57,0-1.46-.59-2.64-2-2.64-.8,0-3.77.42-9.92,6.53-.09,10.38,0,18.55,0,20l-6,.08c0-1.55.17-8,.21-13.52-2.39,2.93-3.52,4.48-5.23,7L47.43,27c3.47-3.39,4.69-4.56,8.37-8,0-1.88,0-4.64,0-6.4a45.47,45.47,0,0,0-6.57.58Z"/><path class="cls-3" d="M111.3,33.61c2.81-.59,11-2.34,11-14.73,0-4.15-1.13-10.55-9.42-12.27-1.17,16.08-3.6,28.13-11.67,28.13-6,0-9.67-6.07-9.67-12.68,0-9.59,7.07-18.67,19.59-18.67,8.87,0,17.49,4.44,17.49,16,0,14.23-12.77,16.41-16.41,17ZM96.61,23.31c0,5.9,1.89,8.12,3.94,8.12s5.44-7.78,6.28-24.77C97,9.63,96.61,20.43,96.61,23.31Z"/><path class="cls-3" d="M143.54,33.82c0,.25,0,1.46,0,1.76h-6.24c0-1.8.09-5.44.09-7.45V10.05c0-1.47,0-2.93-.09-5.36,3.27.08,5.11.17,7.87.17h16.41c4.1,0,5.15-.05,6.65-.13-.08,3.6-.08,5.48-.08,6.36V28.21c0,2.6,0,5.69.08,7.41H162c0-.55,0-1.26,0-1.8Zm0-2.6h18.58V7.49H143.5Z"/><path class="cls-3" d="M177.44,17.87c2.93,0,9.09,0,10.38,0h16c3.31,0,7.12,0,10.51,0v3.6c-2.51,0-7.7,0-10.38,0H188c-7.28,0-8.2,0-10.51,0Z"/><path class="cls-3" d="M228.76,7.28c-2.26,0-4.6,0-7,.09V4.48c1.68.08,5.07.12,6.95.12h17.54c.58,0,4.18,0,7.24-.2L256.22,7c-3.35,5.23-3.68,5.82-5.57,8a46.89,46.89,0,0,1-11.76,9.92,45.47,45.47,0,0,1,7.49,7.66l-5.23,4c-3-6.36-9-13-14.31-16.12l1.88-2.21a52.38,52.38,0,0,1,7.45,4.6C244.88,15.82,248,7.58,248,7.37s0-.09-.26-.09Z"/><path class="cls-4" d="M8.71,8.29c0,3.85-.38,11.13-1.93,15.86l-3.13-3A32.72,32.72,0,0,0,6.07,7.79ZM14.82.21c.17,0,.25.08.25.33a6.31,6.31,0,0,1-.25.93V39.3H9.76V2.89A25.69,25.69,0,0,0,9.59.08Zm27,3.35V5.9H34.58l5.14,1.84c.13,0,.13.25-.37.59-.71.5-3.56,2.89-4.19,3.31h7.66V14H17.62l-.62.54A45.54,45.54,0,0,0,15,7.07l1.5-1.38a44.33,44.33,0,0,1,4.27,5.82l-.17.13H24a21.51,21.51,0,0,0-2-4.52L23.86,5.9H18.63V3.56h8.62V2.18A9.78,9.78,0,0,0,27,0l5.82.17c.17,0,.21.25.21.42s-.21.88-.21.92V3.56ZM32.73,30.09h8.75V32.4H32.73v3.3h11V38h-27V35.7H27.21V32.4H18.5V30.09h8.71V27.16h-8.5V16.24h22.6V27.16H32.73Zm-5.52-9.5V18.46H23.82v2.13Zm-3.39,2.1V25h3.39V22.69ZM24.07,5.9c.71.46,4,2.93,5.32,4.06l-3.14,1.68h7.53L32,10.76A21.59,21.59,0,0,0,33.74,5.9Zm12,14.69V18.46H32.73v2.13Zm-3.39,2.1V25h3.39V22.69Z"/><path class="cls-4" d="M49.27,9.88c2.26,0,2.68,0,6.61-.09,0-3.26,0-6.15,0-8.37l4.31.34c.72,0,2.18.12,2.18.58A8.85,8.85,0,0,1,62,3.39c-.12.54-.29,7.53-.33,10.63,1.8-1.51,7.66-6.32,12.3-6.32,3.19,0,5.74,1.68,5.74,5.9,0,2.1-.92,12.22-.92,14.48s.46,2.85,1.59,2.85c2,0,3.68-1.67,4.43-2.47l1.89,2.18c-4.65,4.9-8.33,4.9-9.21,4.9-3.39,0-4.86-2.14-4.86-5.95,0-2.47.93-15.15.93-15.57,0-1.46-.59-2.64-2-2.64-.8,0-3.77.42-9.92,6.53-.09,10.38,0,18.55,0,20l-6,.08c0-1.55.17-8,.21-13.52-2.39,2.93-3.52,4.48-5.23,7L47.43,27c3.47-3.39,4.69-4.56,8.37-8,0-1.88,0-4.64,0-6.4a45.47,45.47,0,0,0-6.57.58Z"/><path class="cls-4" d="M111.3,33.61c2.81-.59,11-2.34,11-14.73,0-4.15-1.13-10.55-9.42-12.27-1.17,16.08-3.6,28.13-11.67,28.13-6,0-9.67-6.07-9.67-12.68,0-9.59,7.07-18.67,19.59-18.67,8.87,0,17.49,4.44,17.49,16,0,14.23-12.77,16.41-16.41,17ZM96.61,23.31c0,5.9,1.89,8.12,3.94,8.12s5.44-7.78,6.28-24.77C97,9.63,96.61,20.43,96.61,23.31Z"/><path class="cls-4" d="M143.54,33.82c0,.25,0,1.46,0,1.76h-6.24c0-1.8.09-5.44.09-7.45V10.05c0-1.47,0-2.93-.09-5.36,3.27.08,5.11.17,7.87.17h16.41c4.1,0,5.15-.05,6.65-.13-.08,3.6-.08,5.48-.08,6.36V28.21c0,2.6,0,5.69.08,7.41H162c0-.55,0-1.26,0-1.8Zm0-2.6h18.58V7.49H143.5Z"/><path class="cls-4" d="M177.44,17.87c2.93,0,9.09,0,10.38,0h16c3.31,0,7.12,0,10.51,0v3.6c-2.51,0-7.7,0-10.38,0H188c-7.28,0-8.2,0-10.51,0Z"/><path class="cls-4" d="M228.76,7.28c-2.26,0-4.6,0-7,.09V4.48c1.68.08,5.07.12,6.95.12h17.54c.58,0,4.18,0,7.24-.2L256.22,7c-3.35,5.23-3.68,5.82-5.57,8a46.89,46.89,0,0,1-11.76,9.92,45.47,45.47,0,0,1,7.49,7.66l-5.23,4c-3-6.36-9-13-14.31-16.12l1.88-2.21a52.38,52.38,0,0,1,7.45,4.6C244.88,15.82,248,7.58,248,7.37s0-.09-.26-.09Z"/><path class="cls-5" d="M40.82,65.79h3.37v1.08H40.82v2.5h2v1.07H36.39v1.8h7.8V73.3h-7.8v2.37H33.91V73.3h-7.8V72.24h7.8v-1.8H27.48V69.37h2v-2.5H26.14V65.79h3.32v-2.4h-2V62.31H42.78v1.08h-2Zm-10-7c0-.37,0-.77-.07-1.18l2.59,0c.06,0,.15.12.15.17a.66.66,0,0,1-.09.33v1.16H37v-.63c0-.24-.06-.8-.1-1.09l2.58.06a.13.13,0,0,1,.15.15.82.82,0,0,1-.1.37v1.14h4.65v1.07H39.52V61.9H37V60.35H33.35V61.9H30.77V60.35H26.12V59.28h4.65Zm3.14,4.63H32v2.4h1.92Zm0,3.48H32v2.5h1.92Zm4.36-3.48H36.39v2.4h1.88Zm0,3.48H36.39v2.5h1.88Z"/><path class="cls-5" d="M52.58,75.22C52,72.39,50.89,67,50.39,64.63a32.19,32.19,0,0,0-4,1.59l-.46-1.82c.6-.14,3.5-1,4.16-1.13-.1-.5-.75-3.54-1-4.55l2.34-.19c.75-.06.75,0,.75.17s-.07.41-.07.49.58,3,.67,3.42c1-.23,1.88-.38,2.91-.52a12.13,12.13,0,0,0,1.53-3.93l2.48.56c.31.08.62.14.62.31s-.37.43-.43.51c-.23.34-1.16,1.76-1.7,2.42,1.25.11,4.82.46,4.82,3.89,0,2.86-2.56,4.1-5.66,4.1a13.39,13.39,0,0,1-1.89-.13l.11-1.36a7.59,7.59,0,0,0,1.36.14C58.64,68.6,60,67.67,60,66s-1.4-2.63-3.39-2.63a15.79,15.79,0,0,0-3.57.5q1.14,5.4,2.39,10.77Z"/><path class="cls-5" d="M65.52,63.47c2.59-.62,2.88-.7,4-.89Q70.25,60.29,71,58l2,.75c.19.08.52.22.52.37s-.15.23-.21.31-.91,2.34-1.07,2.81c.49,0,1.11-.12,1.8-.12,2.83,0,3.63,1.43,3.63,4.44,0,.77-.06,8.42-3.86,8.42a8.79,8.79,0,0,1-3.52-1.28l.5-1.45a4.06,4.06,0,0,0,2,1c.42,0,.67-.34.87-.71A14.6,14.6,0,0,0,75.08,66c0-2.05-.33-2.77-1.7-2.77a9.72,9.72,0,0,0-1.45.16C69.78,69.9,68.48,74.08,68.23,75l-2.75-1C66.33,71.68,67.59,68,69,64a20.27,20.27,0,0,0-3.07,1.06Zm13.57-3.53A26.64,26.64,0,0,1,83,65.56l-2.67,1.86a15.41,15.41,0,0,0-2.5-6.55Z"/><path class="cls-5" d="M85.41,61.67c1,.07,1.49.07,2.94.07.18-.5,1.09-3,1.28-3.56l2,.5c.53.14.6.22.6.35s-.33.45-.39.54-.69,1.63-.85,2a18.1,18.1,0,0,0,3-.49v1.48c-1.13.15-2,.23-3.47.33a72.28,72.28,0,0,0-3,9.52l-2.62-.69c1.11-3.45,2.19-6.55,3-8.7-.57,0-2.1.12-2.48.14Zm11.5,2.75c.72,0,.75.13.75.23a5.1,5.1,0,0,1-.19.5,10.56,10.56,0,0,0-.06,1.43c0,.53,0,1.81.12,4a19.39,19.39,0,0,1,3.91,1.73l-1.61,2a10.56,10.56,0,0,0-2.18-1.68A2.12,2.12,0,0,1,97,74.17a5.28,5.28,0,0,1-3.37.9c-3.06,0-4.13-1.3-4.13-2.5,0-1.44,1.51-2.69,4-2.69A15.16,15.16,0,0,1,95,70c-.11-1.47-.11-1.93-.17-5.73ZM93.7,71.15c-.45,0-1.9.08-1.9,1.28,0,.89.69,1.3,1.64,1.3s1.69-.37,1.69-1.26c0,0-.06-.93-.08-1.1A4.83,4.83,0,0,0,93.7,71.15Zm6.71-6.66a17.48,17.48,0,0,0-5.2-2.79l.73-1a43.85,43.85,0,0,1,5.73,1.76Z"/><path class="cls-5" d="M118.64,73.85a19.63,19.63,0,0,0-4.45-5.1c-2.52,2.75-5,4-9.26,5.29l-.52-1.18a14.87,14.87,0,0,0,6.23-3.45c2.67-2.55,3.82-6,4.48-8.33l-5.81,0c-.72,0-2.64.06-3.37.08l0-1.35c1.26,0,2,.07,3.37,0l5.28,0c.27,0,2.37,0,3.06-.08l1,1c-.1.2-.83,2-1,2.35a21.61,21.61,0,0,1-2.47,4.47,26,26,0,0,1,5.94,4.51Z"/><path class="cls-5" d="M138.3,72.86a92.6,92.6,0,0,0-6.18-9.12c-.64-.83-1.38-1.8-1.72-1.8s-1,1-1.57,1.91a56.43,56.43,0,0,0-3.2,5.85c-.06.31-.07.35-.17.35a1.16,1.16,0,0,1-.35-.15L123,68.4c.62-.69,3.43-4.22,4.09-5,1.58-1.9,2.42-2.89,3.4-2.89s1.67.8,3,2.19A109.22,109.22,0,0,1,140.79,71Zm-.56-14.29a2,2,0,1,1-2,2A2,2,0,0,1,137.74,58.57Zm0,1a1,1,0,0,0,0,1.94,1,1,0,0,0,.94-1A1,1,0,0,0,137.74,59.59Z"/><path class="cls-5" d="M142.81,66.89a21.42,21.42,0,0,0,12.76-9.29L158,59.13c.06,0,.37.23.37.33s-.48.41-.58.5a31.6,31.6,0,0,1-4.09,3.68v8.91c0,.33,0,2.38,0,2.63h-2.86c0-.27,0-2.26,0-2.61V65.31A27.25,27.25,0,0,1,143.28,68Z"/><path class="cls-5" d="M163.15,71.93c6.7-.76,11.17-3.06,15-8.93l1,.74A19.6,19.6,0,0,1,175,69.53a19.05,19.05,0,0,1-6.9,4.22l-3.67,1.14Zm6.12-8.29a13,13,0,0,0-5.21-4.36l.6-1a16.6,16.6,0,0,1,6.68,3.12Z"/><path class="cls-5" d="M199,59.77v1.08H185.11v5.71c0,5.83-2.73,8.27-3.56,9l-1-.74c.72-1,1.86-2.61,1.86-7.8V59.77h6.41v-1.2c0-.22,0-.76,0-1l2.69,0c.06,0,.17.16.17.27a.93.93,0,0,1,0,.29v1.65Zm-5,6.87a31.33,31.33,0,0,1,5.23,7.75l-3,1.24a16.45,16.45,0,0,0-.71-2.73c-1.82.54-7.65,1.91-9.78,2.32a.65.65,0,0,1-.41.21c-.06,0-.19,0-.21-.07l-.7-2a18,18,0,0,0,2.33-.21,70.44,70.44,0,0,0,2.69-9.63c.11-.6.23-1.45.29-2.09l3.15.66s.06.08.06.14a3.09,3.09,0,0,1-.39.85,92.7,92.7,0,0,1-3.93,9.78c4.17-.6,5.29-.78,6.49-1.07A27.88,27.88,0,0,0,193,67.3Z"/><path class="cls-5" d="M206.84,62.52v1.06h-2.07v5.85c.79-.29,1.26-.48,1.74-.68L206.37,70c-1.18.68-4.86,2.32-5.2,2.48s-.35.31-.45.31-.17-.14-.21-.25l-.45-1.76a8.92,8.92,0,0,0,2.19-.51V63.58h-1.8V62.52h1.8V59a10.7,10.7,0,0,0-.08-1.39h2.58c.15,0,.25.06.25.21a1,1,0,0,1-.23.49v4.22Zm-1.9,11.34c4-1.41,5.25-3.89,5.66-4.87h-.86a10.08,10.08,0,0,1-4.43,3.69l-.87-.77a7.06,7.06,0,0,0,3.81-5.23h-2.09v-1h12.3v1h-7.59a8.34,8.34,0,0,1-.45,1.22H218a26.47,26.47,0,0,1-.4,5c-.3,1.35-.64,2.53-2.87,2.53h-2.5l-.37-1.2a8,8,0,0,0,1.61.16c1.07,0,1.69-.14,1.86-5.44h-.1a10.67,10.67,0,0,1-5.65,6.48l-.89-.81A9.25,9.25,0,0,0,213.33,69h-.7c-.8,1.91-2.4,4.2-6.82,5.77Zm12.43-15.58v6.33h-9.93V58.28ZM210,59.34v1.55h4.86V59.34ZM210,62v1.56h4.86V62Z"/><path class="cls-5" d="M235.66,65.29a28.13,28.13,0,0,0-5.39.77c-2.51.64-5.44,1.59-5.44,4.34s3.39,3.08,5.19,3.08a21.79,21.79,0,0,0,5.38-.66V74.7c-1.53.17-3.73.23-5.26.23-2.79,0-8.27,0-8.27-4.24,0-2.32,1.76-3.68,4.72-4.92-.42-1.26-.42-1.68-.42-5.6,0-.69,0-1.47,0-2.16l2.46.23c.66.06.69.19.69.29a4.44,4.44,0,0,1-.25.66,31.37,31.37,0,0,0-.23,3.52,8,8,0,0,0,.23,2.21c.87-.27,5.25-1.45,6.24-1.76Z"/><path class="cls-5" d="M80.22,88.53c0-1.29,0-1.91,0-2.42l2.55.2c.14,0,.41,0,.41.17s-.12.58-.12.68v4.57a21.08,21.08,0,0,1,8,3.19l-2,2.35a15.84,15.84,0,0,0-6-4.13v5.4c0,.16,0,3.57,0,4H80.18c0-1.22,0-2.9,0-4.12Z"/><path class="cls-5" d="M99.91,99.15c7-1.53,8.89-5.64,9.55-7.05l1.12.64a14.15,14.15,0,0,1-2.81,4.8,13.88,13.88,0,0,1-5.65,3.79c-.48.18-2.92.89-3.47,1.09L97,100.79c0-.52.07-1,.07-1.51V88.61c0-.79,0-1.51,0-2.24l2.51.17c.47,0,.55.1.55.23a5.2,5.2,0,0,1-.18.89Z"/><path class="cls-5" d="M120.67,87.58c0-.52,0-1.12,0-1.6l2.59.15c.33,0,.33.08.33.14s-.1.42-.1.5v2.5h3.1c.46,0,1.84,0,2.13-.08l1.05.89c-.14,2-.39,5.89-2.83,8.87-2.75,3.33-6.6,3.76-8.6,4l-.62-1.22c1.67-.23,5-.76,7-3.66,1.65-2.44,1.74-5.34,1.78-7.57h-8.77v1.94c0,.27,0,1.85.06,2.38h-2.91c0-.51.06-1.84.06-2.38V89.21c.95.06,2.07.06,2.23.06h3.54Zm8.87,1.11a10.92,10.92,0,0,0-2.21-2.19l.8-.75a14.8,14.8,0,0,1,2.55,1.89Zm1.59-1.4a11.94,11.94,0,0,0-2-2l.79-.76a13.2,13.2,0,0,1,2.34,1.63Z"/><path class="cls-5" d="M134.72,96.57a17.27,17.27,0,0,0,10.2-7.44l1.94,1.22c.07.06.27.18.27.27s-.33.3-.39.35a26.64,26.64,0,0,1-3.33,3v7.14c0,.47,0,1.63,0,2.09h-2.29c0-.4,0-1.53,0-2.09V95.31a23.34,23.34,0,0,1-6.08,2.11Z"/><path class="cls-5" d="M161.63,100.85c1.3-.27,5.08-1.09,5.08-6.82,0-1.91-.53-4.88-4.36-5.67-.54,7.43-1.66,13-5.4,13-2.75,0-4.47-2.81-4.47-5.87,0-4.43,3.27-8.63,9.06-8.63,4.1,0,8.09,2,8.09,7.4,0,6.58-5.9,7.59-7.59,7.88Zm-6.79-4.76c0,2.73.87,3.75,1.82,3.75s2.52-3.6,2.9-11.46C155,89.75,154.84,94.75,154.84,96.09Z"/><path class="cls-5" d="M178.58,96c-.42,3.14-3,5.6-6.76,7l-.73-1a7.65,7.65,0,0,0,4.26-5h-3.62V96Zm10.13,7.38a13.64,13.64,0,0,1-7-4.26v2.34c0,1.39-.12,1.94-1.82,1.94H177l-.34-1.22a14.47,14.47,0,0,0,1.85.15c.53,0,.59-.21.59-.83V94.85h-5.68V87.41h4.26a7.84,7.84,0,0,0,.72-2.28l3.17.44c.06,0,.12,0,.12.06,0,.19-.27.37-.43.44-.71.8-.83.93-1.25,1.34h7.39v7.44h-1l2.08,1.39s.11.25-.47.39a33,33,0,0,1-3.93,2.42,13.93,13.93,0,0,0,5.33,3.25ZM176.06,90.57h8.64V88.5h-8.64Zm8.64,1.06h-8.64v2.15h8.64Zm-3,3.22v.42a11,11,0,0,0,1.43,2.64,16.39,16.39,0,0,0,2.93-3.06Z"/><path class="cls-4" d="M40.82,65.79h3.37v1.08H40.82v2.5h2v1.07H36.39v1.8h7.8V73.3h-7.8v2.37H33.91V73.3h-7.8V72.24h7.8v-1.8H27.48V69.37h2v-2.5H26.14V65.79h3.32v-2.4h-2V62.31H42.78v1.08h-2Zm-10-7c0-.37,0-.77-.07-1.18l2.59,0c.06,0,.15.12.15.17a.66.66,0,0,1-.09.33v1.16H37v-.63c0-.24-.06-.8-.1-1.09l2.58.06a.13.13,0,0,1,.15.15.82.82,0,0,1-.1.37v1.14h4.65v1.07H39.52V61.9H37V60.35H33.35V61.9H30.77V60.35H26.12V59.28h4.65Zm3.14,4.63H32v2.4h1.92Zm0,3.48H32v2.5h1.92Zm4.36-3.48H36.39v2.4h1.88Zm0,3.48H36.39v2.5h1.88Z"/><path class="cls-4" d="M52.58,75.22C52,72.39,50.89,67,50.39,64.63a32.19,32.19,0,0,0-4,1.59l-.46-1.82c.6-.14,3.5-1,4.16-1.13-.1-.5-.75-3.54-1-4.55l2.34-.19c.75-.06.75,0,.75.17s-.07.41-.07.49.58,3,.67,3.42c1-.23,1.88-.38,2.91-.52a12.13,12.13,0,0,0,1.53-3.93l2.48.56c.31.08.62.14.62.31s-.37.43-.43.51c-.23.34-1.16,1.76-1.7,2.42,1.25.11,4.82.46,4.82,3.89,0,2.86-2.56,4.1-5.66,4.1a13.39,13.39,0,0,1-1.89-.13l.11-1.36a7.59,7.59,0,0,0,1.36.14C58.64,68.6,60,67.67,60,66s-1.4-2.63-3.39-2.63a15.79,15.79,0,0,0-3.57.5q1.14,5.4,2.39,10.77Z"/><path class="cls-4" d="M65.52,63.47c2.59-.62,2.88-.7,4-.89Q70.25,60.29,71,58l2,.75c.19.08.52.22.52.37s-.15.23-.21.31-.91,2.34-1.07,2.81c.49,0,1.11-.12,1.8-.12,2.83,0,3.63,1.43,3.63,4.44,0,.77-.06,8.42-3.86,8.42a8.79,8.79,0,0,1-3.52-1.28l.5-1.45a4.06,4.06,0,0,0,2,1c.42,0,.67-.34.87-.71A14.6,14.6,0,0,0,75.08,66c0-2.05-.33-2.77-1.7-2.77a9.72,9.72,0,0,0-1.45.16C69.78,69.9,68.48,74.08,68.23,75l-2.75-1C66.33,71.68,67.59,68,69,64a20.27,20.27,0,0,0-3.07,1.06Zm13.57-3.53A26.64,26.64,0,0,1,83,65.56l-2.67,1.86a15.41,15.41,0,0,0-2.5-6.55Z"/><path class="cls-4" d="M85.41,61.67c1,.07,1.49.07,2.94.07.18-.5,1.09-3,1.28-3.56l2,.5c.53.14.6.22.6.35s-.33.45-.39.54-.69,1.63-.85,2a18.1,18.1,0,0,0,3-.49v1.48c-1.13.15-2,.23-3.47.33a72.28,72.28,0,0,0-3,9.52l-2.62-.69c1.11-3.45,2.19-6.55,3-8.7-.57,0-2.1.12-2.48.14Zm11.5,2.75c.72,0,.75.13.75.23a5.1,5.1,0,0,1-.19.5,10.56,10.56,0,0,0-.06,1.43c0,.53,0,1.81.12,4a19.39,19.39,0,0,1,3.91,1.73l-1.61,2a10.56,10.56,0,0,0-2.18-1.68A2.12,2.12,0,0,1,97,74.17a5.28,5.28,0,0,1-3.37.9c-3.06,0-4.13-1.3-4.13-2.5,0-1.44,1.51-2.69,4-2.69A15.16,15.16,0,0,1,95,70c-.11-1.47-.11-1.93-.17-5.73ZM93.7,71.15c-.45,0-1.9.08-1.9,1.28,0,.89.69,1.3,1.64,1.3s1.69-.37,1.69-1.26c0,0-.06-.93-.08-1.1A4.83,4.83,0,0,0,93.7,71.15Zm6.71-6.66a17.48,17.48,0,0,0-5.2-2.79l.73-1a43.85,43.85,0,0,1,5.73,1.76Z"/><path class="cls-4" d="M118.64,73.85a19.63,19.63,0,0,0-4.45-5.1c-2.52,2.75-5,4-9.26,5.29l-.52-1.18a14.87,14.87,0,0,0,6.23-3.45c2.67-2.55,3.82-6,4.48-8.33l-5.81,0c-.72,0-2.64.06-3.37.08l0-1.35c1.26,0,2,.07,3.37,0l5.28,0c.27,0,2.37,0,3.06-.08l1,1c-.1.2-.83,2-1,2.35a21.61,21.61,0,0,1-2.47,4.47,26,26,0,0,1,5.94,4.51Z"/><path class="cls-4" d="M138.3,72.86a92.6,92.6,0,0,0-6.18-9.12c-.64-.83-1.38-1.8-1.72-1.8s-1,1-1.57,1.91a56.43,56.43,0,0,0-3.2,5.85c-.06.31-.07.35-.17.35a1.16,1.16,0,0,1-.35-.15L123,68.4c.62-.69,3.43-4.22,4.09-5,1.58-1.9,2.42-2.89,3.4-2.89s1.67.8,3,2.19A109.22,109.22,0,0,1,140.79,71Zm-.56-14.29a2,2,0,1,1-2,2A2,2,0,0,1,137.74,58.57Zm0,1a1,1,0,0,0,0,1.94,1,1,0,0,0,.94-1A1,1,0,0,0,137.74,59.59Z"/><path class="cls-4" d="M142.81,66.89a21.42,21.42,0,0,0,12.76-9.29L158,59.13c.06,0,.37.23.37.33s-.48.41-.58.5a31.6,31.6,0,0,1-4.09,3.68v8.91c0,.33,0,2.38,0,2.63h-2.86c0-.27,0-2.26,0-2.61V65.31A27.25,27.25,0,0,1,143.28,68Z"/><path class="cls-4" d="M163.15,71.93c6.7-.76,11.17-3.06,15-8.93l1,.74A19.6,19.6,0,0,1,175,69.53a19.05,19.05,0,0,1-6.9,4.22l-3.67,1.14Zm6.12-8.29a13,13,0,0,0-5.21-4.36l.6-1a16.6,16.6,0,0,1,6.68,3.12Z"/><path class="cls-4" d="M199,59.77v1.08H185.11v5.71c0,5.83-2.73,8.27-3.56,9l-1-.74c.72-1,1.86-2.61,1.86-7.8V59.77h6.41v-1.2c0-.22,0-.76,0-1l2.69,0c.06,0,.17.16.17.27a.93.93,0,0,1,0,.29v1.65Zm-5,6.87a31.33,31.33,0,0,1,5.23,7.75l-3,1.24a16.45,16.45,0,0,0-.71-2.73c-1.82.54-7.65,1.91-9.78,2.32a.65.65,0,0,1-.41.21c-.06,0-.19,0-.21-.07l-.7-2a18,18,0,0,0,2.33-.21,70.44,70.44,0,0,0,2.69-9.63c.11-.6.23-1.45.29-2.09l3.15.66s.06.08.06.14a3.09,3.09,0,0,1-.39.85,92.7,92.7,0,0,1-3.93,9.78c4.17-.6,5.29-.78,6.49-1.07A27.88,27.88,0,0,0,193,67.3Z"/><path class="cls-4" d="M206.84,62.52v1.06h-2.07v5.85c.79-.29,1.26-.48,1.74-.68L206.37,70c-1.18.68-4.86,2.32-5.2,2.48s-.35.31-.45.31-.17-.14-.21-.25l-.45-1.76a8.92,8.92,0,0,0,2.19-.51V63.58h-1.8V62.52h1.8V59a10.7,10.7,0,0,0-.08-1.39h2.58c.15,0,.25.06.25.21a1,1,0,0,1-.23.49v4.22Zm-1.9,11.34c4-1.41,5.25-3.89,5.66-4.87h-.86a10.08,10.08,0,0,1-4.43,3.69l-.87-.77a7.06,7.06,0,0,0,3.81-5.23h-2.09v-1h12.3v1h-7.59a8.34,8.34,0,0,1-.45,1.22H218a26.47,26.47,0,0,1-.4,5c-.3,1.35-.64,2.53-2.87,2.53h-2.5l-.37-1.2a8,8,0,0,0,1.61.16c1.07,0,1.69-.14,1.86-5.44h-.1a10.67,10.67,0,0,1-5.65,6.48l-.89-.81A9.25,9.25,0,0,0,213.33,69h-.7c-.8,1.91-2.4,4.2-6.82,5.77Zm12.43-15.58v6.33h-9.93V58.28ZM210,59.34v1.55h4.86V59.34ZM210,62v1.56h4.86V62Z"/><path class="cls-4" d="M235.66,65.29a28.13,28.13,0,0,0-5.39.77c-2.51.64-5.44,1.59-5.44,4.34s3.39,3.08,5.19,3.08a21.79,21.79,0,0,0,5.38-.66V74.7c-1.53.17-3.73.23-5.26.23-2.79,0-8.27,0-8.27-4.24,0-2.32,1.76-3.68,4.72-4.92-.42-1.26-.42-1.68-.42-5.6,0-.69,0-1.47,0-2.16l2.46.23c.66.06.69.19.69.29a4.44,4.44,0,0,1-.25.66,31.37,31.37,0,0,0-.23,3.52,8,8,0,0,0,.23,2.21c.87-.27,5.25-1.45,6.24-1.76Z"/><path class="cls-4" d="M80.22,88.53c0-1.29,0-1.91,0-2.42l2.55.2c.14,0,.41,0,.41.17s-.12.58-.12.68v4.57a21.08,21.08,0,0,1,8,3.19l-2,2.35a15.84,15.84,0,0,0-6-4.13v5.4c0,.16,0,3.57,0,4H80.18c0-1.22,0-2.9,0-4.12Z"/><path class="cls-4" d="M99.91,99.15c7-1.53,8.89-5.64,9.55-7.05l1.12.64a14.15,14.15,0,0,1-2.81,4.8,13.88,13.88,0,0,1-5.65,3.79c-.48.18-2.92.89-3.47,1.09L97,100.79c0-.52.07-1,.07-1.51V88.61c0-.79,0-1.51,0-2.24l2.51.17c.47,0,.55.1.55.23a5.2,5.2,0,0,1-.18.89Z"/><path class="cls-4" d="M120.67,87.58c0-.52,0-1.12,0-1.6l2.59.15c.33,0,.33.08.33.14s-.1.42-.1.5v2.5h3.1c.46,0,1.84,0,2.13-.08l1.05.89c-.14,2-.39,5.89-2.83,8.87-2.75,3.33-6.6,3.76-8.6,4l-.62-1.22c1.67-.23,5-.76,7-3.66,1.65-2.44,1.74-5.34,1.78-7.57h-8.77v1.94c0,.27,0,1.85.06,2.38h-2.91c0-.51.06-1.84.06-2.38V89.21c.95.06,2.07.06,2.23.06h3.54Zm8.87,1.11a10.92,10.92,0,0,0-2.21-2.19l.8-.75a14.8,14.8,0,0,1,2.55,1.89Zm1.59-1.4a11.94,11.94,0,0,0-2-2l.79-.76a13.2,13.2,0,0,1,2.34,1.63Z"/><path class="cls-4" d="M134.72,96.57a17.27,17.27,0,0,0,10.2-7.44l1.94,1.22c.07.06.27.18.27.27s-.33.3-.39.35a26.64,26.64,0,0,1-3.33,3v7.14c0,.47,0,1.63,0,2.09h-2.29c0-.4,0-1.53,0-2.09V95.31a23.34,23.34,0,0,1-6.08,2.11Z"/><path class="cls-4" d="M161.63,100.85c1.3-.27,5.08-1.09,5.08-6.82,0-1.91-.53-4.88-4.36-5.67-.54,7.43-1.66,13-5.4,13-2.75,0-4.47-2.81-4.47-5.87,0-4.43,3.27-8.63,9.06-8.63,4.1,0,8.09,2,8.09,7.4,0,6.58-5.9,7.59-7.59,7.88Zm-6.79-4.76c0,2.73.87,3.75,1.82,3.75s2.52-3.6,2.9-11.46C155,89.75,154.84,94.75,154.84,96.09Z"/><path class="cls-4" d="M178.58,96c-.42,3.14-3,5.6-6.76,7l-.73-1a7.65,7.65,0,0,0,4.26-5h-3.62V96Zm10.13,7.38a13.64,13.64,0,0,1-7-4.26v2.34c0,1.39-.12,1.94-1.82,1.94H177l-.34-1.22a14.47,14.47,0,0,0,1.85.15c.53,0,.59-.21.59-.83V94.85h-5.68V87.41h4.26a7.84,7.84,0,0,0,.72-2.28l3.17.44c.06,0,.12,0,.12.06,0,.19-.27.37-.43.44-.71.8-.83.93-1.25,1.34h7.39v7.44h-1l2.08,1.39s.11.25-.47.39a33,33,0,0,1-3.93,2.42,13.93,13.93,0,0,0,5.33,3.25ZM176.06,90.57h8.64V88.5h-8.64Zm8.64,1.06h-8.64v2.15h8.64Zm-3,3.22v.42a11,11,0,0,0,1.43,2.64,16.39,16.39,0,0,0,2.93-3.06Z"/></g></g></svg>