<svg xmlns="http://www.w3.org/2000/svg" viewBox="0 0 226.23 44.56"><defs><style>.cls-1{fill:#231815;}.cls-2{fill:#c31528;}.cls-3{fill:#b0b0b1;}</style></defs><g id="レイヤー_2" data-name="レイヤー 2"><g id="レイヤー_1-2" data-name="レイヤー 1"><path class="cls-1" d="M3.3,34.07A9.37,9.37,0,0,1,.84,37.3L0,36.52A7.34,7.34,0,0,0,2.28,33.8Zm9.54-9.74a8.62,8.62,0,0,1,2,.85l-.51.6h1.3l-.22,1h-4.1a11.6,11.6,0,0,0,.12,2.93,11.48,11.48,0,0,0,1.64-2.31l1,.34a14.91,14.91,0,0,1-2.29,3.06c.08.17.54,1.18,1,1.18s.82-1,1.1-1.82l.93.49c-.54,1.4-1.12,2.61-2.08,2.61s-1.56-1.12-1.81-1.62a12.34,12.34,0,0,1-2.28,1.55L8,32.34H3.74l.64-3.05H8.93L8.35,32a11.72,11.72,0,0,0,2.11-1.42,10.43,10.43,0,0,1-.3-3.84h-6L3.7,29a10.13,10.13,0,0,1-2.06,4.51l-.91-.75c.55-.57,1.35-1.42,1.94-4.16l.59-2.84h7c.06-.5.14-.92.22-1.36h1.16c-.07.41-.15.76-.22,1.36h2.32a8.62,8.62,0,0,0-1.54-.67ZM5.29,34.12,4.89,36c0,.2.12.27.3.27H8.1c.56,0,.73-.41,1.17-1.56l1.06.28c-.69,1.88-1.11,2.37-2.1,2.37H4.52c-.2,0-1.06,0-.88-.89l.5-2.34Zm4.3-6.54-.19.88H4.3l.19-.88ZM7.76,30.13H5.21l-.29,1.39H7.46ZM6.61,32.65a7,7,0,0,1,1.85,1.52l-.87.88a6.91,6.91,0,0,0-1.83-1.6Zm5.05.69a10,10,0,0,1,1.82,3l-1.22.71A11,11,0,0,0,10.63,34Z"/><path class="cls-1" d="M25.31,28.42l.24-1.13h1.28l.61-2.9h1.15L28,27.29h2.59c-.42,2-1.43,6.54-2,8.23s-1,2-2.18,2H24.94l0-1.15,1.38,0c.55,0,.77-.23,1-.79a74.39,74.39,0,0,0,1.9-7.22H27.74A27.09,27.09,0,0,1,26,33.66a12.06,12.06,0,0,1-2.76,3.91l-.87-.73c.13-.11.29-.3.38-.37-1.52.27-4.9.61-7.07.73l.08-1.07c.59,0,1.59-.05,3.38-.2l.25-1.16h-3l.18-.88h3l.19-.9H16.93l1-4.65h2.85l.17-.81h-3.3l.18-.9h3.31l.18-.85c-1.75.1-2.42.11-3,.13V25a30.1,30.1,0,0,0,6.61-.64l.29.87a26.47,26.47,0,0,1-2.88.44l-.2.93h3.25l-.19.9H22l-.17.81h2.9l-1,4.65h-2.9l-.19.9h3.07l-.19.88H20.42l-.23,1.08c1-.09,2.18-.24,3.15-.37l-.11.48a11.79,11.79,0,0,0,2.4-4.3,21.78,21.78,0,0,0,1-3.24ZM20.2,31.05H18.38l-.24,1.12H20Zm.39-1.88H18.78l-.24,1.11h1.82Zm2.46,1.88H21.2L21,32.17h1.84Zm.4-1.88H21.6l-.23,1.11h1.85Z"/><path class="cls-1" d="M38,35.82c3.26-1,4.62-3.08,5-4.89.22-1,.44-3.93-3.05-4.31a32.07,32.07,0,0,1-3.47,7.52c-1.31,1.94-2.1,2-2.46,2-1.32,0-2.36-2-1.82-4.54a7.8,7.8,0,0,1,7.53-6.13c3.38,0,5.24,2.28,4.55,5.53-.34,1.63-1.57,4.54-5.79,5.89Zm-4.6-4.2c-.4,1.89.25,3.19.84,3.19s1.05-.91,1.49-1.59a28.92,28.92,0,0,0,3-6.56,6.36,6.36,0,0,0-5.31,5"/><path class="cls-1" d="M58.61,30c-4.24.07-7.16,2.2-7.49,3.78-.2.92.41,1.32,1.24,1.56a8.34,8.34,0,0,0,2.52.27l-.54,1.24c-1,0-5.09-.09-4.48-3,.43-2,2.85-3.15,3.83-3.6-2,.34-4.32.72-7.28,1.36l.11-1.25L49.65,30l5.61-3.47c-2.33.26-3.76.32-5.77.41l.09-1.22a57.77,57.77,0,0,0,7.56-.36l.29.95-5.5,3.38c3.1-.42,3.48-.47,6.83-.85Z"/><path class="cls-1" d="M64,25.37a35.06,35.06,0,0,0-2.19,6.52,15.8,15.8,0,0,0-.37,4.65l-1.27.22a16.42,16.42,0,0,1,.42-4.87,37.13,37.13,0,0,1,2.19-6.71Zm5.42-.23h1.22l-.49,2.66c.18,0,1.09-.09,2.31-.23l-.24,1.22c-.39,0-1.34.14-2.27.2l-.74,3.88a9,9,0,0,1,2.43,1.42l-.79,1.15a7.19,7.19,0,0,0-1.91-1.3c-.23,1-.6,2.67-3.32,2.67-1.54,0-2.76-.78-2.44-2.27a3,3,0,0,1,3.28-2.23,7.53,7.53,0,0,1,1.6.2l.63-3.46-1.88,0c-1.23,0-1.92,0-2.34,0l.26-1.21c.82,0,1.65,0,2.61,0s1.47,0,1.57,0Zm-3.2,8.27c-1.37,0-1.82.68-1.91,1.12-.14.64.33,1.18,1.48,1.18,1.64,0,1.84-.86,2-2.05a5.72,5.72,0,0,0-1.62-.25m6-9.53a10.89,10.89,0,0,1,.46,2.84l-1.13.4a10.54,10.54,0,0,0-.37-2.87Zm2.22-.11a10.18,10.18,0,0,1,.46,2.85L73.74,27a10.49,10.49,0,0,0-.37-2.87Z"/><path class="cls-1" d="M78.84,25.55a31.83,31.83,0,0,0-2.23,6.58,18.67,18.67,0,0,0-.45,4.37l-1.24.17a17.47,17.47,0,0,1,.47-4.56,36.89,36.89,0,0,1,2.17-6.7Zm6.84,10.2a22.65,22.65,0,0,1-3.16.25c-2,0-4.21-.24-3.77-2.31a4.14,4.14,0,0,1,1.13-2l1,.23a3.21,3.21,0,0,0-1,1.52c-.21,1,.73,1.27,2.61,1.27a18.45,18.45,0,0,0,3.4-.32Zm-4.9-9.07a39.5,39.5,0,0,1,4-.23c1.11,0,1.75.06,2.28.1l-.3,1.25c-.32,0-1.11-.1-2.37-.1A26.26,26.26,0,0,0,80.5,28Z"/><path class="cls-1" d="M89.46,33.31a11.19,11.19,0,0,1,2.61,2.79L91,37a11.1,11.1,0,0,0-2.48-2.8Z"/><path class="cls-1" d="M99.56,26.11A23.68,23.68,0,0,0,98.38,30c-.7,3.3-.12,5.14.66,5.14,1,0,2.52-3,2.58-3.13l.92.68a15.43,15.43,0,0,1-1.69,2.52,3.14,3.14,0,0,1-2.15,1.36c-1.27,0-2.57-1.9-1.56-6.7a26.38,26.38,0,0,1,1.17-3.94Zm6.82,8.23a9.47,9.47,0,0,0-.69-6.91l1.15-.64a9.25,9.25,0,0,1,.93,7.18Z"/><path class="cls-1" d="M114.54,26.89a16.06,16.06,0,0,1,3.38-.44c2.84,0,4.38,1.7,3.81,4.4-1.12,5.28-7.47,5.34-9.4,5.35l0-1.32c1.25.06,7.2.2,8.1-4,.36-1.72-.45-3.16-2.71-3.16-1.56,0-3.73.52-7.31,1.51l-.15-1.35Z"/><path class="cls-1" d="M129.28,24.82l1.19.21-1,2.44c1.58,0,2.65-.08,3.35-.14l-.46,1.23c-1.54.08-1.91.08-3.38.08l-.89,2.14c.95,0,2.68-.06,3.64-.11l-.46,1.26c-2.12.08-3.61,0-3.68,0a9,9,0,0,0-.42,1.42c-.4,1.85,1,2.27,2.48,2.27,1,0,3.34-.22,3.82-2.45a3.83,3.83,0,0,0-.25-2.32l1.28-.41a5,5,0,0,1,.21,2.76c-.53,2.48-2.57,3.62-5.3,3.62-2.21,0-4-.84-3.46-3.5a9.57,9.57,0,0,1,.43-1.41,9,9,0,0,1-2.53-.35l.48-1.22a9,9,0,0,0,2.53.37l.88-2.14a12.58,12.58,0,0,1-2.59-.3l.47-1.21a10.22,10.22,0,0,0,2.61.34Z"/><path class="cls-1" d="M141.23,34.81a2.76,2.76,0,0,1-2.56,2.12A1.68,1.68,0,0,1,137,34.81a2.79,2.79,0,0,1,2.58-2.11,1.66,1.66,0,0,1,1.67,2.11m-3.5,0a1.09,1.09,0,0,0,1.09,1.37,1.77,1.77,0,0,0,1.65-1.37,1.06,1.06,0,0,0-1.07-1.36,1.8,1.8,0,0,0-1.67,1.36"/><path class="cls-2" d="M221,19.56c2.1,2.09,3.67,5,3.13,8.12A12.31,12.31,0,0,1,214.44,37a27.17,27.17,0,0,1-4.47.48H196.73L203,12.42l10.64-3.67-5.26,21c4-.05,6.62-3.06,6.41-5.81a5.42,5.42,0,0,0-3.3-5c.41-.15,6.24-3.87,5-7.72S209.4,7.94,206,8.83a71.19,71.19,0,0,0-9.41,2.88l-6.47,25.81H180L185.41,16c-.13,0-8,3.6-8,3.6l2.7-10.86C183.18,7.31,196.41,2,204.88.58c11.42-1.87,18.64,1.41,20.68,7a9.45,9.45,0,0,1-4.53,12"/><path class="cls-2" d="M166,15.87l-2.18,8.72c-1.12,4.47-4.21,9-10,9.18l-2.7,10.79a33.65,33.65,0,0,0,9.75-2.16c6.51-2.7,11.49-7.51,13.29-15.16L178.61,9.3c-.18.09-9.11,4.33-12.64,6.5Z"/><path class="cls-3" d="M169.93,0l-4,15.8c3.53-2.17,12.46-6.41,12.64-6.5L181,0Z"/></g></g></svg>