<svg xmlns="http://www.w3.org/2000/svg" viewBox="0 0 335.32 216.31"><defs><style>.cls-1{fill:#9c978f;}</style></defs><g id="レイヤー_2" data-name="レイヤー 2"><g id="レイヤー_1-2" data-name="レイヤー 1"><path class="cls-1" d="M272.83,145.9a.44.44,0,0,0-.43-.72c-3.47.63-6.69,2.73-6.6,6.6a6,6,0,0,0,6,6c3.11-.07,6.1-2.42,6.22-5.65C278.15,149.32,275.88,145.93,272.83,145.9Zm-1.65,9.9a4.25,4.25,0,0,1-3.43-4.93c.28-2.42,2.19-3.42,4.09-4.41a.73.73,0,0,0,.45.7c2,.85,3.85,2.31,3.83,4.74S273.53,156.09,271.18,155.8Z"/><path class="cls-1" d="M255,155.66c-1.33-2.08-4.65-3.15-6.66-1.42a.52.52,0,0,0-.06.68,4.66,4.66,0,0,0-1.41,4.15c.46,2.8,3.39,3.93,5.86,2.87S256.47,158,255,155.66Zm-2.87,4.86a2.59,2.59,0,0,1-3.79-1.85,3.79,3.79,0,0,1,1.77-3.82,3.63,3.63,0,0,1,3.49,1.46C254.73,157.9,253.75,159.8,252.09,160.52Z"/><path class="cls-1" d="M235.17,168.27c-.31-2.32-2.73-4.32-5.08-3.53a.6.6,0,0,0-.31.25,4.26,4.26,0,0,0-2.69,3.87,3.75,3.75,0,0,0,4.2,3.69A3.93,3.93,0,0,0,235.17,168.27ZM231,171c-3.05.05-3.15-3.71-1.17-5.13a.49.49,0,0,0,.4.12,3,3,0,0,1,3.38,2.57A2.43,2.43,0,0,1,231,171Z"/><path class="cls-1" d="M326.36,136.79A47.75,47.75,0,0,0,303,127.54c-16-2-31.38,3.28-45.52,10.53a1.07,1.07,0,0,0-.67-.95,64.83,64.83,0,0,0-23.54-4.3c-3.95,0-13.17-1.38-16.19,2.34-5.57,6.87,10.37,15.39,15.86,17.26-5.67,3.48-11.37,6.91-17.28,10s-11.82,5.85-18.28,6.31c-1.29-2.7-1.39-7.44-5.17-7.78-3-.26-6,3.25-7.7,5.88a28.9,28.9,0,0,0-7.88-1.1,1.18,1.18,0,0,0-1.14,1.15c-.95,9.27-2.54,30.26,10.63,31.38,7.76.66,17-1.79,24.47-3.71a107.45,107.45,0,0,0,22.77-8.42,132,132,0,0,1-6.71,16.59c-1.54,3.14-5.44,7.55-3,11.18,5.8,8.76,24.7-8.44,29-12.52a142.55,142.55,0,0,0,15-17.29c2.33-3.07,5.44-6.8,6.81-10.83a1.21,1.21,0,0,0,1.25.52,221.88,221.88,0,0,0,35.93-10.18c6.1-2.29,20.33-5.6,23.2-12C337.37,145.69,330.36,139.92,326.36,136.79Zm-20.94-6a.76.76,0,0,0,.28-.21,48.58,48.58,0,0,1,8.69,2.46,50.5,50.5,0,0,1,9,4.47c-5.81,5.72-12.87,8.32-20.7,10.27a19.18,19.18,0,0,1-7.93.52q-8.52,1.22-4.56-9.53l3.95-2.66C297.72,134,301.69,132.55,305.42,130.74ZM223.05,144.4c-2.13-2-5.85-6.07-2-8.81,1.53-1.07,6.34-.54,8.15-.6,9.13-.27,18,.69,26.56,3.94-3.65,1.93-7.23,4-10.7,6-3.73,2.23-7.42,4.52-11.13,6.81,0,0,0-.08-.08-.1A44.31,44.31,0,0,1,223.05,144.4Zm-35.93,21.27c.86-.83,2.35-2.55,3.57-2.79l3.23,1.07c.17.37.34.75.52,1.13s.28,1.08.43,1.62a15.07,15.07,0,0,0,.68,2.06,23.82,23.82,0,0,1-3.13-.2,53.34,53.34,0,0,1-6.67-1.45C186.19,166.62,186.65,166.14,187.12,165.67ZM313.77,160A254.22,254.22,0,0,1,275,171.44l-.15.07A10.54,10.54,0,0,0,275,168c-.74-5.63-4.14-5.66-9-4.9a98.68,98.68,0,0,0-26.76,8c-.68.31-.2,1.44.52,1.21,5.38-1.72,10.8-3.36,16.29-4.71,2.14-.52,5.3-1.88,7.55-1.62a4.37,4.37,0,0,1,2.89-.53,4.89,4.89,0,0,1,3,.25,5,5,0,0,1,3,4.52,9.18,9.18,0,0,1-1.13,4.15c-.17.31-.37.6-.56.9l-.32.55-.08.14a5.85,5.85,0,0,1-1.23,1.71c-1.79,4.29-6.49,8.63-9.46,12.13a113.7,113.7,0,0,1-10.06,10.53,71.18,71.18,0,0,1-10.58,8,5.23,5.23,0,0,1-.83.72l-.67.42a15.6,15.6,0,0,1-6.09,3.42,4.71,4.71,0,0,1-5.34-2.15c.54-1.19,1-2.41,1.43-3.65a11.56,11.56,0,0,0,1.53-4l0,0c.48-.89.84-1.56.91-1.72a142.37,142.37,0,0,0,9.36-28.07c.34-1.53-2-2.18-2.35-.65Q235.78,178.38,234,184c-11.36,4.15-22.48,8.18-34.49,10.2-3,.51-9.12,2.46-12.34,1.45l-.2-.09c5.1.71,5.59-6.45,8.14-9.07a.88.88,0,0,0-.51-1.46.75.75,0,0,0-.65-.7c-3-.37-6-.56-9-.72-.33,0-.41.52-.08.58,2.88.57,5.79,1.1,8.7,1.48-1.86,2.38-2.25,6.83-5.11,8-4.94,2-3.76-7.26-4.1-9.63-.08-.55-1-.42-1,.13.11,2.71-1.12,7.72,1,10.12-3.53-2.36-5.53-6.54-6.2-10.53-.56-3.37-1.4-7.77-.81-11.16.81-4.66.63-5.23,6.66-3.77,9.83,2.38,16.35,2.85,26-1.17,11.45-4.76,21.91-11.76,32.46-18.18,17.85-10.88,38.83-22,60-19.42-5.78,2.23-13.8,4.78-16.09,10.62-1.54,3.93.28,7.55,3.9,9.38,5.7,2.87,13.54-.23,19.1-2.11,5.83-2,11.21-4.75,14.69-9.93a19.84,19.84,0,0,1,5.71,5.65C336.17,154,319.62,157.65,313.77,160Z"/><path class="cls-1" d="M164.29,189.06c-.08-.38-.64-.21-.58.16,1.62,10.27-15,14.21-22.13,15.7-9.09,1.9-19.37,1.85-27.64-2.92a24.4,24.4,0,0,1-7.12-6.58,50.54,50.54,0,0,0,8.63-3.87c9-5.16,19.86-19.72,7.6-27.68-10.89-7.08-23.09,4-23.6,15.19a24.26,24.26,0,0,0,4.2,14.82c-1.37.35-2.74.67-4.1.94a125.16,125.16,0,0,1-44,1.08c-31.37-5-55.74-30.18-53.32-63.13,1.18-16.18,8.71-30.56,20-42,8.28-8.42,18.11-15.87,24-26.32C61.87,36.64,36.62,10.82,12.67.06c-.65-.3-1.23.67-.57,1,19.21,8.82,39,24.8,37.5,48.23-1.28,20.49-21.37,31.55-33.54,45.5-22.29,25.54-21.93,66.14,4.58,88.68,12.69,10.78,29.29,15.15,45.63,16,12.17.63,26.53.36,38.91-3.52a31.88,31.88,0,0,0,20.75,11.11C135.55,208.16,167.24,204.47,164.29,189.06Zm-51.61-25.78c6.63-1.71,14.2,2.74,14.39,10,.13,5-3.64,9.8-7.22,12.9a37.37,37.37,0,0,1-14.42,7.26C98.69,182.67,97.91,167.11,112.68,163.28Z"/></g></g></svg>