<svg xmlns="http://www.w3.org/2000/svg" xmlns:xlink="http://www.w3.org/1999/xlink" viewBox="0 0 1192 28"><defs><style>.cls-1{fill:none;}.cls-2{clip-path:url(#clip-path);}.cls-3{clip-path:url(#clip-path-2);}.cls-4{fill:#fff;}.cls-5{fill:#0f8531;}.cls-6{fill:#d90012;}</style><clipPath id="clip-path"><rect class="cls-1" width="1192" height="28"/></clipPath><clipPath id="clip-path-2"><rect class="cls-1" x="-3.76" y="-3.75" width="1199" height="32.05"/></clipPath></defs><g id="レイヤー_2" data-name="レイヤー 2"><g id="レイヤー_1-2" data-name="レイヤー 1"><g class="cls-2"><g class="cls-3"><rect class="cls-4" x="0.25" y="-1.75" width="1191.99" height="30.05"/><polygon class="cls-5" points="63.71 33.31 44.01 33.31 61.13 -0.75 80.82 -0.75 63.71 33.31"/><polygon class="cls-5" points="152.34 33.31 132.65 33.31 149.76 -0.75 169.46 -0.75 152.34 33.31"/><polygon class="cls-5" points="240.98 33.31 221.28 33.31 238.4 -0.75 258.1 -0.75 240.98 33.31"/><polygon class="cls-5" points="329.62 33.31 309.92 33.31 327.04 -0.75 346.73 -0.75 329.62 33.31"/><polygon class="cls-5" points="418.26 33.31 398.56 33.31 415.67 -0.75 435.37 -0.75 418.26 33.31"/><polygon class="cls-5" points="506.89 33.31 487.2 33.31 504.31 -0.75 524.01 -0.75 506.89 33.31"/><polygon class="cls-5" points="595.53 33.31 575.83 33.31 592.95 -0.75 612.64 -0.75 595.53 33.31"/><polygon class="cls-5" points="684.17 33.31 664.47 33.31 681.58 -0.75 701.28 -0.75 684.17 33.31"/><polygon class="cls-5" points="772.8 33.31 753.11 33.31 770.22 -0.75 789.92 -0.75 772.8 33.31"/><polygon class="cls-5" points="861.44 33.31 841.74 33.31 858.86 -0.75 878.55 -0.75 861.44 33.31"/><polygon class="cls-5" points="950.08 33.31 930.38 33.31 947.5 -0.75 967.19 -0.75 950.08 33.31"/><polygon class="cls-5" points="1038.71 33.31 1019.02 33.31 1036.13 -0.75 1055.83 -0.75 1038.71 33.31"/><polygon class="cls-5" points="1127.35 33.31 1107.65 33.31 1124.77 -0.75 1144.47 -0.75 1127.35 33.31"/><polygon class="cls-6" points="19.39 33.31 -0.31 33.31 16.81 -0.75 36.5 -0.75 19.39 33.31"/><polygon class="cls-6" points="108.03 33.31 88.33 33.31 105.44 -0.75 125.14 -0.75 108.03 33.31"/><polygon class="cls-6" points="196.66 33.31 176.97 33.31 194.08 -0.75 213.78 -0.75 196.66 33.31"/><polygon class="cls-6" points="285.3 33.31 265.6 33.31 282.72 -0.75 302.42 -0.75 285.3 33.31"/><polygon class="cls-6" points="373.94 33.31 354.24 33.31 371.36 -0.75 391.05 -0.75 373.94 33.31"/><polygon class="cls-6" points="462.57 33.31 442.88 33.31 459.99 -0.75 479.69 -0.75 462.57 33.31"/><polygon class="cls-6" points="551.21 33.31 531.51 33.31 548.63 -0.75 568.33 -0.75 551.21 33.31"/><polygon class="cls-6" points="639.85 33.31 620.15 33.31 637.27 -0.75 656.96 -0.75 639.85 33.31"/><polygon class="cls-6" points="728.49 33.31 708.79 33.31 725.9 -0.75 745.6 -0.75 728.49 33.31"/><polygon class="cls-6" points="817.12 33.31 797.42 33.31 814.54 -0.75 834.24 -0.75 817.12 33.31"/><polygon class="cls-6" points="905.76 33.31 886.06 33.31 903.18 -0.75 922.87 -0.75 905.76 33.31"/><polygon class="cls-6" points="994.4 33.31 974.7 33.31 991.81 -0.75 1011.51 -0.75 994.4 33.31"/><polygon class="cls-6" points="1083.03 33.31 1063.34 33.31 1080.45 -0.75 1100.15 -0.75 1083.03 33.31"/><polygon class="cls-6" points="1171.67 33.31 1151.97 33.31 1169.09 -0.75 1188.78 -0.75 1171.67 33.31"/></g></g></g></g></svg>