<svg xmlns="http://www.w3.org/2000/svg" viewBox="0 0 349.26 177.49"><defs><style>.cls-1,.cls-3{fill:none;}.cls-1{stroke:#d3c9b3;stroke-miterlimit:10;stroke-width:3.93px;}.cls-2{fill:#231815;}.cls-3,.cls-6{stroke:#040000;stroke-linecap:round;stroke-linejoin:round;stroke-width:1.96px;}.cls-4{fill:#040000;}.cls-5{fill:#efeb64;}.cls-6{fill:#edeb66;}.cls-7{fill:#dc2715;}.cls-8{fill:#fff;}</style></defs><g id="レイヤー_2" data-name="レイヤー 2"><g id="レイヤー_1-2" data-name="レイヤー 1"><path class="cls-1" d="M334.54,44.1h2A11,11,0,0,1,347.3,55.24v81.67"/><path class="cls-2" d="M74.74,139.54a13.09,13.09,0,0,1-1,1.2,7.7,7.7,0,0,0-1.13-1.36,13.51,13.51,0,0,1-1.93,6.15,8.73,8.73,0,0,0-1.57-1.92A9,9,0,0,0,70.2,141a27.89,27.89,0,0,0,.61-6.54c0-.79,0-1.51-.1-2.16a22.1,22.1,0,0,0,2.24.1h2a6,6,0,0,0-.67-1.68H72.63a16.25,16.25,0,0,0-2,.08v-2.12a14.06,14.06,0,0,0,2.14.12h4.82v-.2a9.25,9.25,0,0,0-.1-1.24h2.42a6.14,6.14,0,0,0-.12,1.24v.2H84.6a15.48,15.48,0,0,0,2.22-.12v2.12a18.4,18.4,0,0,0-2.1-.08H83.21a16.47,16.47,0,0,1-.83,1.68H85a16.87,16.87,0,0,0,2.2-.1v2a16.29,16.29,0,0,0-2.2-.1H72.83a40.33,40.33,0,0,1-.18,4.58A7.57,7.57,0,0,0,74,137a11.27,11.27,0,0,0,1-2.52l2,.45-.44,1.06h2.21a6.74,6.74,0,0,0-.08-1.26H81a7.61,7.61,0,0,0-.08,1.26h3.54a10.9,10.9,0,0,0,1.88-.1v2.09a16.07,16.07,0,0,0-1.9-.08H80.89v1.55h3a12.87,12.87,0,0,0,1.77-.08v1.93a14.13,14.13,0,0,0-1.77-.08h-3v1.91h4.44a15.19,15.19,0,0,0,1.87-.1v2.1a13.85,13.85,0,0,0-1.93-.12H74.36a15,15,0,0,0-1.88.1V143a11.24,11.24,0,0,0,1.84.1h4.51v-1.91H76.54a16.2,16.2,0,0,0-1.8.08Zm1-1.69a11.51,11.51,0,0,1-.9,1.49,16.06,16.06,0,0,0,1.67.06h2.3v-1.55Zm4.46-5.44a10.6,10.6,0,0,0,.75-1.68h-4.4a13.3,13.3,0,0,1,.66,1.68Z"/><path class="cls-2" d="M91.05,129.87a16.52,16.52,0,0,0-.12-2.26h2.26a13.65,13.65,0,0,0-.12,2.28v2.52h.43a7.4,7.4,0,0,0,1.32-.08v2.06a8.82,8.82,0,0,0-1.38-.08h-.37v5.35c.77-.36,1-.45,1.87-.91l.06,2.09A33.62,33.62,0,0,1,90.14,143a10.83,10.83,0,0,0-1,.43l-.41-2.26a10.48,10.48,0,0,0,2.34-.71v-6.17h-.46a7.93,7.93,0,0,0-1.53.1v-2.1a8.38,8.38,0,0,0,1.53.1h.46Zm7,12.52c0,.39.14.53.57.61a15.07,15.07,0,0,0,2.67.14c2.34,0,3-.1,3.27-.52a4.55,4.55,0,0,0,.35-2.33,10.13,10.13,0,0,0,2.14.64c-.23,3.94-.65,4.21-6.25,4.21-4,0-4.83-.37-4.83-2.1v-6.76c-.18.06-.32.09-.4.11a10.77,10.77,0,0,0-1.19.46l-.5-2.15a10.45,10.45,0,0,0,1.91-.43l.18-.06v-2.69a12.31,12.31,0,0,0-.12-2.08h2.32a14.82,14.82,0,0,0-.12,2v2.14L100,133v-3.42a13.76,13.76,0,0,0-.1-2h2.28a15.93,15.93,0,0,0-.12,2v2.76l2.83-.89a10.57,10.57,0,0,0,1.61-.59c0,.87-.06,1-.1,2.07a34.65,34.65,0,0,1-.43,5.4c-.25,1.12-.78,1.45-2.22,1.45a9.21,9.21,0,0,1-.92,0,6,6,0,0,0-.53-2,5.27,5.27,0,0,0,1.1.16c.49,0,.61-.08.69-.49.09-.65.17-1.87.23-3.78l-2.26.71v4.89a14.05,14.05,0,0,0,.12,2H99.91a14.67,14.67,0,0,0,.1-2V135l-1.91.61Z"/><path class="cls-2" d="M111.19,143.08a18.72,18.72,0,0,0,.11,2.41H109a17.14,17.14,0,0,0,.12-2.43V130.22A21.43,21.43,0,0,0,109,128a17.68,17.68,0,0,0,2,.08h3.48a16.25,16.25,0,0,0,2-.08c0,.63-.06,1.06-.06,1.83v3c0,.9,0,1.35.06,1.79-.51,0-1.12-.06-1.81-.06h-3.55Zm0-12.4h3.38v-1h-3.38Zm0,2.39h3.38v-1h-3.38Zm10.08,8.45c0,.75,0,1.2.06,1.71.43,0,1.14.1,1.49.1.55,0,.73-.14.73-.53v-8.21h-3.87c-.69,0-1.32,0-1.81.06,0-.57.06-1,.06-1.79v-3c0-.67,0-1.22-.06-1.83a16.46,16.46,0,0,0,2,.08h3.78a17.27,17.27,0,0,0,2-.08c-.06.71-.08,1.2-.08,2.18v12.88c0,1.18-.23,1.69-.94,2a5.87,5.87,0,0,1-2.22.24c-.28,0-.35,0-1.36-.06a7.38,7.38,0,0,0-.51-2l-1.1,0h-4.17v1.1h-2.08a13.2,13.2,0,0,0,.14-2v-4.8c0-.68,0-1.23-.06-1.76.57,0,1,.07,1.83.07h4.38c.83,0,1.26,0,1.83-.07,0,.51-.06,1-.06,1.76Zm-6-2.85h4V137.5h-4Zm0,2.87h4v-1.27h-4Zm4.58-10.86h3.68v-1h-3.68Zm0,2.39h3.68v-1h-3.68Z"/><path class="cls-2" d="M136.3,139.36c-1.12,2.54-2.38,3.7-4,3.7-2.24,0-3.85-2.28-3.85-5.45a8.44,8.44,0,0,1,2.16-5.72,8.85,8.85,0,0,1,6.76-2.75c4.72,0,7.78,2.87,7.78,7.29a7.57,7.57,0,0,1-4.77,7.33,12.78,12.78,0,0,1-3.09.83,6.24,6.24,0,0,0-1.2-2.3,10.5,10.5,0,0,0,3.91-1.08,5.5,5.5,0,0,0,2.74-4.91,4.89,4.89,0,0,0-2.42-4.37,4.36,4.36,0,0,0-2-.59A28.37,28.37,0,0,1,136.3,139.36Zm-2.89-7a6.57,6.57,0,0,0-2.67,5.3c0,1.61.68,2.89,1.55,2.89.65,0,1.32-.82,2-2.51a26,26,0,0,0,1.64-6.65A5,5,0,0,0,133.41,132.33Z"/><path class="cls-2" d="M147.32,134.9a8.65,8.65,0,0,0,1.57.1h1.48a8.73,8.73,0,0,0,1.49-.1,19.44,19.44,0,0,0-.08,2.14v4.21a2.72,2.72,0,0,0,.91,1c1,.63,2.1.85,4.56.85a59.6,59.6,0,0,0,8.41-.4,9.2,9.2,0,0,0-.59,2.32c-1.65.08-4.5.12-6.84.12-3.4,0-4.5-.14-5.74-.75a4.2,4.2,0,0,1-1.73-1.41,18.66,18.66,0,0,1-2.3,1.88c-.21.18-.39.3-.57.46l-1-2.24a12,12,0,0,0,2.79-1.91v-4.27h-1.08a8.2,8.2,0,0,0-1.32.1Zm1.61-7.31a24.17,24.17,0,0,1,3.42,3.54l-1.65,1.59a20.17,20.17,0,0,0-3.34-3.68Zm5.07,3a8.41,8.41,0,0,0-1.61.09v-1.94a15.9,15.9,0,0,0,2.22.1h3a10.3,10.3,0,0,0-.12-1.48h2.2a11.65,11.65,0,0,0-.12,1.48h3.25a21.61,21.61,0,0,0,2.24-.1v1.94a13.47,13.47,0,0,0-2-.09h-3.5v.94h3.05a13.25,13.25,0,0,0,1.63-.08,11,11,0,0,0-.08,1.51v4.05a9.94,9.94,0,0,0,.08,1.44c-.55,0-1-.06-1.63-.06h-3.05v.94h3.6a15.28,15.28,0,0,0,2-.08v1.91a12.13,12.13,0,0,0-2-.1h-3.6a10.48,10.48,0,0,0,.12,1.65h-2.2a9.59,9.59,0,0,0,.14-1.65h-3.13a17.51,17.51,0,0,0-1.94.08V139.3a13.6,13.6,0,0,0,1.94.08h3.13v-.94h-2.79c-.59,0-1.14,0-1.63.06a10.39,10.39,0,0,0,.08-1.44V132.9a10.35,10.35,0,0,0-.08-1.4,12.51,12.51,0,0,0,1.61.08h2.81v-.94Zm1.18,2.51v1.1h2.42v-1.1Zm0,2.56v1.14h2.42v-1.14Zm4.36-1.46h2.62v-1.1h-2.62Zm0,2.6h2.62v-1.14h-2.62Z"/><path class="cls-2" d="M180.45,136.12h2.38a9.67,9.67,0,0,0,1.79-.1v1.73a10.82,10.82,0,0,0-1.77-.1h-7.68c-.5,0-.81,0-1.48.06,0-.51,0-.84,0-1.49v-1.65c0-.67,0-.81,0-1.48a5.18,5.18,0,0,1-1,1.12,4.6,4.6,0,0,0-.89-1.31h-.72V136c.61-.21.9-.31,2-.72l0,1.92c-.94.37-1.16.45-1.94.73v5.7l0,.31c2.33-.61,3.57-1.75,4-3.65H174a8.91,8.91,0,0,0-1.4.09v-2a9.1,9.1,0,0,0,1.55.1h6.47c.75,0,1.2,0,1.63-.06l-.25.9c-.08.24-.24.73-.36,1.07h1.57a6.54,6.54,0,0,0,1.44-.1c-.1.61-.1.65-.18,1.14a8.34,8.34,0,0,1-1,3.26c-.45.63-1,.85-2.28.85-.59,0-1.4,0-2.28-.12a5.69,5.69,0,0,0-.49-1.93,13.21,13.21,0,0,0,2.34.26c.63,0,.8-.06,1-.38a3.73,3.73,0,0,0,.43-1.27h-2c-.47,0-.93,0-1.24,0a14,14,0,0,0,.67-1.82h-2.36a7,7,0,0,1-1.61,3.4,7.91,7.91,0,0,1-3.42,2.1,9.69,9.69,0,0,0-1-1.67,1.19,1.19,0,0,1-.95,1.2,5.59,5.59,0,0,1-1.86.23c-.26,0-.52,0-1,0a6.43,6.43,0,0,0-.43-2.06,9.65,9.65,0,0,0,1.57.14c.52,0,.63-.12.63-.57V138.6l-1.06.33c-.31.1-.63.22-1,.35l-.38-2.2a11.91,11.91,0,0,0,2.4-.51V132.9h-.74a13,13,0,0,0-1.44.07v-2.12a6.7,6.7,0,0,0,1.46.14h.72v-1.51a12.31,12.31,0,0,0-.11-2h2.31a15.94,15.94,0,0,0-.11,2V131h.27a4.22,4.22,0,0,0,1.08-.1v.79a11.05,11.05,0,0,0,2.5-4.4l2.06.43a8.18,8.18,0,0,1-.8,1.65h2.41a7.24,7.24,0,0,0,.93-1.89l2.06.38a15.31,15.31,0,0,1-.9,1.51h1.92a12.68,12.68,0,0,0,1.77-.08v1.77A8.38,8.38,0,0,0,183,131h-2.52v.79h1.63a11.9,11.9,0,0,0,1.81-.08v1.55c-.45,0-.88-.06-1.81-.06h-1.63v.77h1.63a11.9,11.9,0,0,0,1.81-.08v1.55a18,18,0,0,0-1.81-.06h-1.63ZM178.57,131h-2.91v.79h2.91Zm0,2.2h-2.91v.77h2.91Zm-2.91,2.18v.79h2.91v-.79Z"/><path class="cls-2" d="M187.54,129.81a23.42,23.42,0,0,0,4.56.26,7.87,7.87,0,0,0,.79-2.44l2.57.27c-.11.2-.11.2-.78,1.77-.1.22-.14.28-.18.36l1.24-.08a27.07,27.07,0,0,0,5.15-.67l.14,2.24c-.55,0-.55,0-1.56.16-1.43.17-3.93.33-5.91.39a10,10,0,0,1-1.81,2.61l0,0a3.29,3.29,0,0,0,.39-.29,4.77,4.77,0,0,1,2.77-.89,2.58,2.58,0,0,1,2.81,2.09c1.52-.55,2.52-.91,3-1.06a6.65,6.65,0,0,0,1.45-.59l.93,2.26a16.6,16.6,0,0,0-2.18.53c-.28.08-1.26.41-2.95,1V138c0,.51,0,.51,0,.78v.79c0,.33,0,.51,0,.65a7.89,7.89,0,0,0,.06,1l-2.28.06a15.39,15.39,0,0,0,.12-2.28v-.47a11.06,11.06,0,0,0-1.89,1,2.06,2.06,0,0,0-1,1.61c0,1,.94,1.43,3.32,1.43a17.13,17.13,0,0,0,5.78-.82l.19,2.53a5.67,5.67,0,0,0-.9.08,35.07,35.07,0,0,1-5,.36,8.42,8.42,0,0,1-4.38-.83,2.83,2.83,0,0,1-1.44-2.53,3.15,3.15,0,0,1,.87-2.19,9.63,9.63,0,0,1,4.22-2.77,1.08,1.08,0,0,0-1.2-1.06c-1.14,0-2.51.69-4,2a9,9,0,0,0-1.71,1.79l-1.78-1.77a12.38,12.38,0,0,0,1.76-1.75,26.28,26.28,0,0,0,2.36-3.36,1,1,0,0,1,.16-.26l-.33,0-2.48,0-.55,0a2.21,2.21,0,0,0-.32,0Z"/><path class="cls-2" d="M217.16,131.83l0-.88v-.63a12.25,12.25,0,0,0-.1-2.18h2.53a8.44,8.44,0,0,0-.07,1.32c0,1.2,0,1.2,0,2.37h1.25a14,14,0,0,0,2.56-.13v2.39a22.37,22.37,0,0,0-2.52-.09H219.5a23.38,23.38,0,0,1-.14,3.24,7.89,7.89,0,0,1-2.83,5.64,11.06,11.06,0,0,1-3.83,2.06,6,6,0,0,0-1.48-2.08A9.13,9.13,0,0,0,215,141a6.15,6.15,0,0,0,2.08-4.71c0-.46,0-.93.08-2.28h-5.09V137a12,12,0,0,0,.08,1.65h-2.56a12.86,12.86,0,0,0,.08-1.69V134h-1.2a22.06,22.06,0,0,0-2.51.09V131.7a13.86,13.86,0,0,0,2.55.13h1.16v-2a10.27,10.27,0,0,0-.1-1.75h2.58a9.68,9.68,0,0,0-.08,1.69v2Z"/><path class="cls-2" d="M230.79,135.63c0,.12-.06.23-.08.27s0,.16-.07.34a20.63,20.63,0,0,1-3.31,7.64,8.25,8.25,0,0,0-2.28-1.27,15.89,15.89,0,0,0,3.32-7.57Zm9-4.21c.41,0,.6,0,1.08,0a2.25,2.25,0,0,1-1.6-2.16,2.27,2.27,0,1,1,3.05,2.14v2.32a16.64,16.64,0,0,0-2.5-.1h-4.54v9.54a14.9,14.9,0,0,0,.1,2.2h-2.67a14.37,14.37,0,0,0,.12-2.22V133.6h-4.37a16.41,16.41,0,0,0-2.47.1v-2.41a13.43,13.43,0,0,0,2.51.13h4.33v-1.1a10.9,10.9,0,0,0-.12-2h2.65a15.3,15.3,0,0,0-.08,2.08v1Zm-.22,3.62a21.76,21.76,0,0,0,3.48,7.49,12.74,12.74,0,0,0-2.26,1.35,26.17,26.17,0,0,1-3.23-7.35,4.27,4.27,0,0,0-.31-.9Zm.69-5.8a1.29,1.29,0,1,0,1.27-1.28A1.27,1.27,0,0,0,240.21,129.24Z"/><path class="cls-2" d="M245.1,135a18.85,18.85,0,0,0,3.18.14h10.48a18.92,18.92,0,0,0,3.18-.14v2.73a21.19,21.19,0,0,0-3.2-.1H248.3a21.1,21.1,0,0,0-3.2.1Z"/><path class="cls-2" d="M268.36,144.83a13.08,13.08,0,0,0,.12-2.21V130a12.43,12.43,0,0,0-.12-2h2.69a14.88,14.88,0,0,0-.07,2.07v3.65a57.67,57.67,0,0,1,8.92,4.15l-1.38,2.32a47,47,0,0,0-6.95-3.76,4.34,4.34,0,0,1-.67-.33,10,10,0,0,1,.08,1.34v5.18c0,1,0,1.54.07,2.19Z"/><path class="cls-1" d="M2,70.44v93.95a11,11,0,0,0,10.78,11.14H336.52a11,11,0,0,0,10.78-11.14v-3.72"/><path class="cls-1" d="M2,59V55.24A11,11,0,0,1,12.74,44.1H15"/><polyline class="cls-3" points="139.99 95.78 139.99 101.52 15.85 101.52 15.85 31.75 21.15 31.75"/><polyline class="cls-3" points="30.3 31.75 42.93 31.75 42.93 0.98 139.99 0.98 139.99 89.18"/><path class="cls-4" d="M59.58,43.82c-1.51-3.83-2.79-7.88-4-11.87-.31,1.1-1.31,4.36-2,6.37.27,0,1.08-.08,2.16-.08.71,0,1.16,0,1.55,0v1.86c-1.55.16-3.91.16-4.42.16-.3.85-.51,1.48-1.28,3.52h-2c.35-1.18.86-2.71,1.31-4.07,1.28-3.85,2.6-7.68,4-11.48h1.4c1.24,3.27,3.89,11,5.25,15.55Z"/><path class="cls-4" d="M62.33,43.05c.27-.68,1.36-3.75,1.57-4.38.55-1.45,1.1-2.89,1.71-4.32l1.5.51a43.33,43.33,0,0,1-3.27,8.78Zm11-11.38A13,13,0,0,1,75,29.36l1.27.84A13.27,13.27,0,0,1,75,32.15c2.26-.06,3.08-.08,5-.08v1.57c-2.18.18-11.83.47-15.63.47V32.64c3.23-.26,6.47-.38,9.69-.45Zm5.9-2.75c-1.45.14-12.66.61-14.5.61V28c.86-.08,7.35-.53,14.5-.53ZM69.46,39.08c.77-.08,1.81-.13,2.72-.19V37.83c-.28,0-1.52.05-1.77.07h-.53l0-1.25a34.23,34.23,0,0,1-2.56,3.61l-1.24-.82a52.29,52.29,0,0,1,3.46-5l1.18.74A10.8,10.8,0,0,1,70,36.49c.44-.06,1-.12,2.25-.2,0-.65,0-1.12.07-1.65l1.67,0c0,.28,0,.42.06,1.57l2.83,0a4.45,4.45,0,0,1,.73,0l0,1.37c-.55.08-3,.2-3.54.22,0,.17,0,.92,0,1.08.45,0,2.48-.08,2.89-.08L77,40c-.51.06-1.28.15-2.93.21v1.2c2.58-.06,2.83-.06,5.25-.06v1.48c-1.65.15-4.15.21-5.9.27-2.26.08-3.89.08-6,.08V41.82c1.45-.14,1.57-.14,4.76-.3V40.3l-2.74.06Zm.1-7.07a1.18,1.18,0,0,1-1.24-1.14,1.13,1.13,0,0,1,1.14-1.1,1.3,1.3,0,0,1,1.26,1.16A1.11,1.11,0,0,1,69.56,32Zm4-5.88a1.24,1.24,0,0,1-1.31,1.16c-.57,0-1.52-.37-1.52-1.3s1.06-1.23,1.36-1.23A1.46,1.46,0,0,1,73.51,26.13Z"/><path class="cls-4" d="M84.89,26.11c0,.32,0,.49,0,1,0,1.14,0,2.95,0,4.09l2,0,0,1.63c-.51.06-.84.08-1.92.14,0,2.38,0,2.75-.06,6,.84-.28,1.55-.5,2.45-.75l.57,1.59a58.08,58.08,0,0,1-7,2.46l-.55-1.55c.55-.26,1.23-.56,2.63-1.11C83,35.82,83,35.39,83,33c-.23,0-1.26,0-1.47.06h-.49V31.44l2-.18c0-1.12.06-4.17.14-5.17Zm9.37-.65c0,.34,0,.59.06,2.87,0,.46,0,2.44,0,2.85,1.51-.51,3-1,4.58-1.43a56.79,56.79,0,0,1-1.06,8.7,17,17,0,0,1-3.18-.31l.21-1.53,1.48.06c.13-1.46.29-2.91.51-4.37-1,.42-1.48.57-2.56,1,0,2.94,0,3.18-.12,5.62H92.57c0-.34,0-.61-.06-3.19,0-.27,0-1.51,0-1.77l-2,.71v3.17c0,2.16,0,2.51-.06,3.22.83-.06,4.62-.18,6-.14a15.83,15.83,0,0,1,1.08-1.69L99,40a13.52,13.52,0,0,1-1.49,2.57c-2.93.2-5.86.22-8.79.22-.06-2.5-.12-5-.14-7.49-1.79.59-2,.67-2.34.77l-.62-1.56,3-1.25c0-4.76.06-5.29.12-6.73h1.75c.06,1.14.06,2,.1,6,.8-.3,1.18-.43,2-.71,0-.27,0-3,0-3.14,0-.51.06-2.75.06-3.23Z"/><path class="cls-4" d="M236.36,29.32a8.86,8.86,0,0,1,3.7-.77c2.39,0,4.36,1.3,4.36,3.76a3.78,3.78,0,0,1-1.12,2.61,5.09,5.09,0,0,1-1.14.83,3.34,3.34,0,0,1,3.05,3.48,4,4,0,0,1-.61,2.2c-1.59,2.55-5,3-8.75,3a13.07,13.07,0,0,1-1.69-.09c0-1.06-.12-6-.12-7.79,0-1.41,0-4.89.16-7.7H236c.1,2.5.14,5.19.14,7.7,0,1.61,0,3.19-.06,5.84,1.3,0,7-.06,7-3.18,0-1.54-1.57-2-3.67-2-.37,0-.83,0-1.36.06-.94.08-1,.1-1.49.12V35.51c2.55-.33,5.74-1,5.74-3.22,0-1.61-1.75-1.75-2.4-1.75a11.56,11.56,0,0,0-3.16.47Z"/><path class="cls-4" d="M245.07,43.61c.27-.69,1.35-3.75,1.57-4.38.55-1.46,1.1-2.89,1.71-4.33l1.49.51a43.27,43.27,0,0,1-3.26,8.79Zm11-11.38a13.38,13.38,0,0,1,1.69-2.32l1.28.85a12.32,12.32,0,0,1-1.36,1.94c2.26-.06,3.09-.08,5-.08V34.2c-2.19.17-11.84.47-15.63.47V33.19c3.22-.25,6.47-.37,9.69-.45Zm5.9-2.75c-1.46.14-12.66.61-14.51.61V28.54c.87-.08,7.35-.54,14.51-.54ZM252.2,39.64c.77-.08,1.81-.14,2.71-.2V38.38l-1.77.08h-.53l0-1.26A31.31,31.31,0,0,1,250,40.82L248.8,40a54.91,54.91,0,0,1,3.46-5l1.18.75a12.66,12.66,0,0,1-.75,1.33c.43,0,.95-.11,2.24-.19,0-.65,0-1.12.08-1.65l1.67,0c0,.27,0,.41.06,1.57l2.83-.06a4.45,4.45,0,0,1,.73,0l0,1.38c-.55.08-3,.19-3.54.21,0,.18,0,.93,0,1.08l2.89-.07,0,1.29c-.51.06-1.28.16-2.93.22V42c2.57-.06,2.83-.06,5.25-.06v1.47c-1.65.16-4.15.22-5.9.28-2.26.08-3.89.08-6,.08v-1.4c1.45-.14,1.57-.14,4.75-.29V40.86l-2.73.06Zm.1-7.08a1.18,1.18,0,0,1-1.24-1.14,1.12,1.12,0,0,1,1.14-1.1,1.3,1.3,0,0,1,1.26,1.16A1.11,1.11,0,0,1,252.3,32.56Zm3.95-5.87a1.25,1.25,0,0,1-1.32,1.16,1.43,1.43,0,0,1-1.51-1.3c0-1,1.06-1.24,1.36-1.24A1.46,1.46,0,0,1,256.25,26.69Z"/><path class="cls-4" d="M267.62,26.67a8.44,8.44,0,0,1,0,1c0,1.14,0,3,0,4.09l2,0,0,1.63c-.51.06-.84.08-1.93.14,0,2.38,0,2.75-.05,6,.84-.27,1.55-.49,2.45-.74l.57,1.59a59.43,59.43,0,0,1-7,2.45l-.55-1.55c.55-.25,1.24-.55,2.64-1.1-.06-3.75-.06-4.19,0-6.56l-1.48,0h-.49V32c.57-.06.85-.07,2-.17,0-1.12.06-4.17.14-5.17ZM277,26c0,.33,0,.59.06,2.87,0,.45,0,2.44,0,2.85,1.51-.51,3-1,4.58-1.44A56.92,56.92,0,0,1,280.62,39a18,18,0,0,1-3.19-.31l.22-1.54,1.47.06c.14-1.45.3-2.91.51-4.36-1,.41-1.47.57-2.55,1,0,3,0,3.19-.12,5.62h-1.65c0-.33,0-.61-.06-3.18,0-.28,0-1.51,0-1.77l-2,.71v3.16c0,2.16,0,2.52-.06,3.22.82,0,4.62-.17,6-.13a14.88,14.88,0,0,1,1.08-1.69l1.4.82a13.88,13.88,0,0,1-1.5,2.58c-2.92.19-5.85.21-8.78.21-.06-2.49-.12-5-.14-7.49-1.79.59-2,.67-2.34.77l-.63-1.55c.57-.26,2-.85,3-1.26,0-4.76.06-5.29.12-6.72h1.75c.06,1.14.06,2,.1,6l2-.7c0-.28,0-3,0-3.15,0-.51.06-2.75.06-3.22Z"/><polyline class="cls-3" points="56.09 101.52 56.09 71.28 99.75 71.28 99.75 101.52"/><line class="cls-3" x1="77.92" y1="72.07" x2="77.92" y2="101.52"/><polygon class="cls-5" points="20.55 35.15 52.73 96.74 20.55 96.74 20.55 35.15"/><path class="cls-6" d="M121.53,39.11s0-14.59,12.89-13.74C134.42,25.37,137.28,37.67,121.53,39.11Z"/><path class="cls-6" d="M120.3,39.11s0-14.59-12.89-13.74C107.41,25.37,104.54,37.67,120.3,39.11Z"/><polyline class="cls-3" points="333.41 92.86 333.35 14.08 227.18 4.55"/><polyline class="cls-3" points="219.21 3.83 209.28 2.94 209.28 101.62 324.59 101.62"/><polyline class="cls-3" points="293.18 101.62 293.18 71.38 249.52 71.38 249.52 101.62"/><line class="cls-3" x1="271.35" y1="72.18" x2="271.35" y2="101.62"/><polygon class="cls-5" points="328.57 20.45 296.4 96.84 328.57 96.84 328.57 20.45"/><path class="cls-6" d="M294.28,28.37c2.79-.56,3.34.84,4.73.56s3.35-2.23,6.69-.84S309,37.24,306,40.9c-2.51,3.06-5,2.79-5.85,2.51-.38-.13-.47.24-1.35.4a7.48,7.48,0,0,1-7.14-4.44C289.55,35.05,290.18,29.19,294.28,28.37Z"/><path class="cls-6" d="M297.9,22.49S293.62,16.1,287.63,20C287.63,20,291.48,27.9,297.9,22.49Z"/><path class="cls-3" d="M299,28.93s-1.18,1.07,1.44-4.3"/><polygon class="cls-7" points="153.35 78.5 140.85 48.95 153.35 19.39 153.35 78.5"/><polygon class="cls-7" points="195.91 78.5 208.42 48.95 195.91 19.39 195.91 78.5"/><rect class="cls-7" x="151.04" y="32.1" width="47.39" height="33.7"/><path class="cls-8" d="M171.69,57.39a19.21,19.21,0,0,1-3.13.3c-.84,0-2.48.12-3.28.12a28.62,28.62,0,0,1-7.88-1.28l-1.18.82c-.3.2-.75.46-1.3.79l-1.06-1.38a28.75,28.75,0,0,1,2.52-1.86c0-.69-.08-1.55-.08-2.71,0-.77,0-1.14,0-1.83a20,20,0,0,1-2.52.08l0-1.67a39.74,39.74,0,0,1,4.36-.3c.08,1.51.14,2.69.14,4,0,1.1,0,1.85-.06,2.56,1.3.27,2.62.45,3.93.64a32,32,0,0,0,4.66.36c.79,0,2.52,0,4.93-.14ZM157.5,43.75a1.37,1.37,0,0,1-1.38,1.42,1.64,1.64,0,0,1-1.59-1.63,1.38,1.38,0,0,1,.49-1.08,1.63,1.63,0,0,1,1-.26A1.54,1.54,0,0,1,157.5,43.75Zm6.7,3.6v-1c-.67,0-1.5.06-1.71,0V45l1.71-.1V43.73c-3.07.1-3.42.12-5.15.12V42.38c1.24-.12,1.69-.14,5.19-.3,0-.29,0-1.61,0-1.88a4.51,4.51,0,0,1,.06-.61l1.63,0c0,.43,0,1.61.06,2.42,2.57-.08,2.85-.1,5.3-.1v1.43c-.92.14-4.12.26-5.26.32l0,1.15c2.13-.11,3-.11,3.9-.11a37.51,37.51,0,0,1,.13,3.81c0,1.3,0,1.59-.06,2.2-.6.1-3.36.2-3.91.24,0,.61,0,.69,0,1.12,3.37-.08,3.74-.1,5.45-.1l0,1.51-.79.06-4.7.22c0,1.16,0,1.29,0,1.71h-1.71c0-.47,0-.59-.05-1.65-.42,0-4.11.08-5.07.08l0-1.48c2.47-.16,3.24-.22,5-.27,0-.18,0-1,0-1.1-.49,0-2.66.11-3.09.13-.27,0-.45,0-.82,0,0-.59-.14-3.38-.14-3.67s0-1.22.08-2.79l1.51,0c0,.27,0,.39,0,.68s0,1.79,0,2.09Zm-2.3,1.32v1l2.34-.1,0-1Zm5.44-.26c-.23,0-.35,0-1.2.08v1c.24,0,1.42,0,1.67-.06h.56c0-1.86,0-2.06,0-2.59,0-.28,0-.47,0-.67l-2.22.1c0,.67,0,.75,0,1h1.18Z"/><path class="cls-8" d="M184,47.63l2-.18c0-.16,0-.47,0-.73-.65,0-1.34.06-2,.08v-1l2.05-.2c0-.12,0-.29,0-.53l1.71,0c0,.1,0,.4,0,.45l2.4-.09v1.06c-1.4.15-2,.17-2.36.21,0,.12,0,.22,0,.73,1.22,0,1.8-.06,2.22-.06v1c-.49.06-1.12.12-2.22.18,0,.16,0,.26,0,.81,1.73-.08,2.65-.08,3.2-.1v1.3c-3.3.31-6,.45-9.26.53-.09-2-.11-3.62-.07-5.55-1,1.32-1.81,2.28-2.23,2.78l-1.23-1c.17-.25.9-1.29,1-1.51l-1.5.16c0,.45,0,2.45,0,2.87v1.55c.61-.26,1-.43,1.79-.71l.53,1.45c-1.33.71-2,1-2.34,1.2,0,1.09,0,1.52-.06,5.49V58c-.43,0-2.08-.08-3.55-.25l.19-1.63a16,16,0,0,1,1.69,0c0-.5-.07-2.11-.09-3-1.1.49-1.77.75-2.24.94l-.67-1.51c.43-.22,1.2-.63,2.89-1.42,0-2.14,0-2.43,0-5.11-.69.06-1.59.08-2.2.1l0-1.59c1.1-.14,1.73-.18,2.22-.22,0-.68.1-3.77.12-4.4h1.63v.16c0,.65.07,3.54.09,4.13l1.66,0v1.33c.92-1.33,2.53-3.55,4.59-6.09l1.24,1c-.53.83-1.45,2.19-2,2.93,2.75-.21,4.4-.33,7.82-.37l0,1.34c-3.09.27-3.38.29-7.74.54,0,.61.05,1.4.05,2.64,0,1,0,1.55,0,2.1,1.29-.12,2-.16,2.63-.2,0-.51,0-.62,0-.82-.41,0-.85,0-2,0Zm1.3,6.27a19.55,19.55,0,0,1-3.87,4.5l-1.2-.95c1.14-1.25,1.34-1.47,3.6-4.16l-2.52.11-.45,0V52a89.29,89.29,0,0,1,9.39-.49,19.79,19.79,0,0,1-.78,2.36,16.53,16.53,0,0,1,2,0A33.72,33.72,0,0,1,190,58.26a33.32,33.32,0,0,1-3.7-.38l.26-1.33a18.58,18.58,0,0,1,2.22.12c.08-.26.33-1.14.39-1.3-1,0-1.53,0-2.1,0a19.2,19.2,0,0,1,.75-2.36c-1.08.1-2.5.18-3.62.24Zm3.87-12.54c0,.64-.78,1.16-1.45,1.16a1.13,1.13,0,0,1-1.18-1.08,1.34,1.34,0,0,1,1.28-1.2C189.08,40.24,189.19,41.18,189.19,41.36Z"/><path class="cls-8" d="M171.69,57.39a19.21,19.21,0,0,1-3.13.3c-.84,0-2.48.12-3.28.12a28.62,28.62,0,0,1-7.88-1.28l-1.18.82c-.3.2-.75.46-1.3.79l-1.06-1.38a28.75,28.75,0,0,1,2.52-1.86c0-.69-.08-1.55-.08-2.71,0-.77,0-1.14,0-1.83a20,20,0,0,1-2.52.08l0-1.67a39.74,39.74,0,0,1,4.36-.3c.08,1.51.14,2.69.14,4,0,1.1,0,1.85-.06,2.56,1.3.27,2.62.45,3.93.64a32,32,0,0,0,4.66.36c.79,0,2.52,0,4.93-.14ZM157.5,43.75a1.37,1.37,0,0,1-1.38,1.42,1.64,1.64,0,0,1-1.59-1.63,1.38,1.38,0,0,1,.49-1.08,1.63,1.63,0,0,1,1-.26A1.54,1.54,0,0,1,157.5,43.75Zm6.7,3.6v-1c-.67,0-1.5.06-1.71,0V45l1.71-.1V43.73c-3.07.1-3.42.12-5.15.12V42.38c1.24-.12,1.69-.14,5.19-.3,0-.29,0-1.61,0-1.88a4.51,4.51,0,0,1,.06-.61l1.63,0c0,.43,0,1.61.06,2.42,2.57-.08,2.85-.1,5.3-.1v1.43c-.92.14-4.12.26-5.26.32l0,1.15c2.13-.11,3-.11,3.9-.11a37.51,37.51,0,0,1,.13,3.81c0,1.3,0,1.59-.06,2.2-.6.1-3.36.2-3.91.24,0,.61,0,.69,0,1.12,3.37-.08,3.74-.1,5.45-.1l0,1.51-.79.06-4.7.22c0,1.16,0,1.29,0,1.71h-1.71c0-.47,0-.59-.05-1.65-.42,0-4.11.08-5.07.08l0-1.48c2.47-.16,3.24-.22,5-.27,0-.18,0-1,0-1.1-.49,0-2.66.11-3.09.13-.27,0-.45,0-.82,0,0-.59-.14-3.38-.14-3.67s0-1.22.08-2.79l1.51,0c0,.27,0,.39,0,.68s0,1.79,0,2.09Zm-2.3,1.32v1l2.34-.1,0-1Zm5.44-.26c-.23,0-.35,0-1.2.08v1c.24,0,1.42,0,1.67-.06h.56c0-1.86,0-2.06,0-2.59,0-.28,0-.47,0-.67l-2.22.1c0,.67,0,.75,0,1h1.18Z"/><path class="cls-8" d="M184,47.63l2-.18c0-.16,0-.47,0-.73-.65,0-1.34.06-2,.08v-1l2.05-.2c0-.12,0-.29,0-.53l1.71,0c0,.1,0,.4,0,.45l2.4-.09v1.06c-1.4.15-2,.17-2.36.21,0,.12,0,.22,0,.73,1.22,0,1.8-.06,2.22-.06v1c-.49.06-1.12.12-2.22.18,0,.16,0,.26,0,.81,1.73-.08,2.65-.08,3.2-.1v1.3c-3.3.31-6,.45-9.26.53-.09-2-.11-3.62-.07-5.55-1,1.32-1.81,2.28-2.23,2.78l-1.23-1c.17-.25.9-1.29,1-1.51l-1.5.16c0,.45,0,2.45,0,2.87v1.55c.61-.26,1-.43,1.79-.71l.53,1.45c-1.33.71-2,1-2.34,1.2,0,1.09,0,1.52-.06,5.49V58c-.43,0-2.08-.08-3.55-.25l.19-1.63a16,16,0,0,1,1.69,0c0-.5-.07-2.11-.09-3-1.1.49-1.77.75-2.24.94l-.67-1.51c.43-.22,1.2-.63,2.89-1.42,0-2.14,0-2.43,0-5.11-.69.06-1.59.08-2.2.1l0-1.59c1.1-.14,1.73-.18,2.22-.22,0-.68.1-3.77.12-4.4h1.63v.16c0,.65.07,3.54.09,4.13l1.66,0v1.33c.92-1.33,2.53-3.55,4.59-6.09l1.24,1c-.53.83-1.45,2.19-2,2.93,2.75-.21,4.4-.33,7.82-.37l0,1.34c-3.09.27-3.38.29-7.74.54,0,.61.05,1.4.05,2.64,0,1,0,1.55,0,2.1,1.29-.12,2-.16,2.63-.2,0-.51,0-.62,0-.82-.41,0-.85,0-2,0Zm1.3,6.27a19.55,19.55,0,0,1-3.87,4.5l-1.2-.95c1.14-1.25,1.34-1.47,3.6-4.16l-2.52.11-.45,0V52a89.29,89.29,0,0,1,9.39-.49,19.79,19.79,0,0,1-.78,2.36,16.53,16.53,0,0,1,2,0A33.72,33.72,0,0,1,190,58.26a33.32,33.32,0,0,1-3.7-.38l.26-1.33a18.58,18.58,0,0,1,2.22.12c.08-.26.33-1.14.39-1.3-1,0-1.53,0-2.1,0a19.2,19.2,0,0,1,.75-2.36c-1.08.1-2.5.18-3.62.24Zm3.87-12.54c0,.64-.78,1.16-1.45,1.16a1.13,1.13,0,0,1-1.18-1.08,1.34,1.34,0,0,1,1.28-1.2C189.08,40.24,189.19,41.18,189.19,41.36Z"/></g></g></svg>