<svg xmlns="http://www.w3.org/2000/svg" viewBox="0 0 345.54 368.77"><defs><style>.cls-1,.cls-5,.cls-7{fill:none;}.cls-1,.cls-2,.cls-3{stroke:#040000;stroke-width:1.9px;}.cls-1,.cls-2,.cls-3,.cls-5{stroke-linecap:round;stroke-linejoin:round;}.cls-2,.cls-6{fill:#efeb64;}.cls-3{fill:#fff;}.cls-4{fill:#231815;}.cls-5{stroke:#d3c9b3;}.cls-5,.cls-7{stroke-width:3.81px;}.cls-7{stroke:#fff;}.cls-8{fill:#040000;}.cls-9{fill:#dc2715;}</style></defs><g id="レイヤー_2" data-name="レイヤー 2"><g id="レイヤー_1-2" data-name="レイヤー 1"><path class="cls-1" d="M114.18,301c-7.06.43-13.84-10.93-13.18-17.44"/><path class="cls-1" d="M121.34,300.56s10-1.59,12.39-17"/><line class="cls-1" x1="109.16" y1="300.58" x2="108.56" y2="304.51"/><line class="cls-1" x1="126.19" y1="299.27" x2="126.19" y2="304.51"/><path class="cls-1" d="M133.32,287.89s5.74-1.82,6.65-7-2.62-8.13-4.48-6.71"/><path class="cls-1" d="M100.26,287.46a8.49,8.49,0,0,1-5.49-6.55c-.92-5.22,1.7-9.15,5.49-6.71"/><path class="cls-1" d="M101.69,270.44s2.62-5.24,7.86-5.24,15.71,0,18.33-5.24c0,0,5.24,10.48,5.24,15.71"/><path class="cls-1" d="M130.5,249.48s12.9,5.16,8.87,21.28"/><path class="cls-1" d="M125.26,246.86s-14.1-7.33-24.18,3.75c-5.75,6.33-4.63,14.59-4.63,19.83"/><path class="cls-1" d="M113.08,290.26s2.84,3.16,7.34,0"/><path class="cls-1" d="M122.5,269.23s3.35-1.26,5,1.25"/><path class="cls-1" d="M122.5,278.17s1.67-1.67,3.35.84"/><path class="cls-1" d="M107.51,278.65s1.13-2.08,3.45-.14"/><polyline class="cls-2" points="114.42 316.46 111.16 363.45 116.98 367.82 123.25 363.45 120.97 316.46"/><path class="cls-1" d="M133.73,309.17s18.74,8.63,19.74,33"/><polygon class="cls-2" points="123.25 310.06 120.97 316.46 114.42 316.46 112.16 311.06 116.49 307.13 123.25 310.06"/><polygon class="cls-3" points="116.49 307.13 128.54 304.51 130.5 308.11 122.64 312.86 116.49 307.13"/><polygon class="cls-3" points="116.49 307.13 106.93 305.16 103.92 308.44 112.17 313.19 116.49 307.13"/><path class="cls-1" d="M51.42,300.56s17-3.58,12.85-30.31"/><path class="cls-1" d="M2.58,274.37s48.88-14.4,81-11.31"/><path class="cls-1" d="M66.32,257.92s-2-14.4-19.48-15.49c-15.47-1-23.7,13.43-23.7,21.66"/><path class="cls-1" d="M62.72,302.54s18-7.16,37.54-3.27"/><path class="cls-1" d="M78.66,319.6a94.81,94.81,0,0,1,18.76-10.43"/><path class="cls-2" d="M62.72,306.55s7.71,29.5,5.66,41.84-5.66,6.94-5.66,6.94L55.9,356.5s2.34-32.9,2.27-40-.07-14.71,2-11.95S62.72,306.55,62.72,306.55Z"/><path class="cls-3" d="M144.5,309.4a9.09,9.09,0,0,1,6.42,7.15c1,5.77-3.49,7.71-4.75,7.25s-1.14-3-1.14-3-2.15,2-3.24.85-1-3.71-1-3.71-.71.94-2.47-.24-.17-3.41-.17-3.41a14.25,14.25,0,0,1-2.72-.69C134.64,313.2,137.52,307.62,144.5,309.4Z"/><path class="cls-4" d="M175.05,316.52h-3.84a13.28,13.28,0,0,0-1.49.06v-1.41a11.65,11.65,0,0,0,1.52.07h3.81v-.62h-3.43c-.59,0-1,0-1.36.05,0-.34.05-.68.05-1.08v-1.07c0-.45,0-.75-.05-1.14a13.22,13.22,0,0,0,1.37.05h3.42v-.61h-4.44a14.55,14.55,0,0,0-1.89.1v-1.61a14,14,0,0,0,2,.1h4.34a5.72,5.72,0,0,0-.1-1.1h2a4.32,4.32,0,0,0-.11,1.1h4.55a14.21,14.21,0,0,0,2-.1v1.61a14.62,14.62,0,0,0-1.9-.1H176.8v.61h3.66a12.67,12.67,0,0,0,1.36-.05,9.35,9.35,0,0,0,0,1.14v1.07a8.42,8.42,0,0,0,0,1.08c-.36,0-.78-.05-1.3-.05H176.8v.62h3.62c1,0,1.28,0,1.74-.05a10.57,10.57,0,0,0,0,1.47v.57a9.13,9.13,0,0,0,1.41-.08v1.54a9.51,9.51,0,0,0-1.41-.08v.93a11.43,11.43,0,0,0,.08,1.75h-1.81v-.63H176.8v.91c0,1.46-.41,1.76-2.38,1.76-.39,0-1,0-1.56-.06a4.48,4.48,0,0,0-.5-1.61,18,18,0,0,0,2.06.15c.5,0,.63-.08.63-.37v-.78h-3.81a11.86,11.86,0,0,0-1.6.08v-1.5a14,14,0,0,0,1.54.06h3.87v-.69H170.4a11,11,0,0,0-1.78.08v-1.54a11.82,11.82,0,0,0,1.75.08h4.68Zm-3-3.82v.66h3v-.66Zm4.78.66h3.25v-.66H176.8Zm3.58,3.87v-.71H176.8v.71Zm-3.58,2.07h3.58v-.69H176.8Z"/><path class="cls-4" d="M187.06,314.87a11.26,11.26,0,0,0-1.67.08v-1.54a14.53,14.53,0,0,0,1.67.06H189a12.82,12.82,0,0,0-.6-1.19h-1.74c-.8,0-1.41,0-1.93.08v-1.62a14.8,14.8,0,0,0,1.85.09h.51a6.7,6.7,0,0,0-1.1-1.5l1.62-.62a11.51,11.51,0,0,1,1.25,2.12h.92v-1.14a8.94,8.94,0,0,0-.08-1.27h1.77a9.23,9.23,0,0,0,0,1.2v1.21h1.15v-1.21c0-.52,0-.89-.05-1.2h1.76a8.44,8.44,0,0,0-.08,1.27v1.14h1a8.25,8.25,0,0,0,1.17-2.17l1.66.62a17.54,17.54,0,0,1-1,1.55h.45a14,14,0,0,0,1.83-.09v1.62c-.5-.05-1.13-.08-1.92-.08H195.8c-.31.64-.37.79-.6,1.19h1.88a14.65,14.65,0,0,0,1.66-.06V315a11,11,0,0,0-1.66-.08h-4.23v.77h3.38a11,11,0,0,0,1.67-.08V317a11.1,11.1,0,0,0-1.67-.08h-3.38v.81h4.52a15.06,15.06,0,0,0,2-.1v1.62a16.34,16.34,0,0,0-2-.1h-3.25a8.46,8.46,0,0,0,2.2,1.3,14.35,14.35,0,0,0,3.37.92,6.41,6.41,0,0,0-.92,1.65,12.64,12.64,0,0,1-6-3.2,10.71,10.71,0,0,1,0,1.15v.79a9.25,9.25,0,0,0,.11,1.63H191a11.22,11.22,0,0,0,.1-1.65V321a10.73,10.73,0,0,1,0-1.11,8.85,8.85,0,0,1-2.33,1.78,16,16,0,0,1-3.31,1.37,6.58,6.58,0,0,0-1-1.56,11.59,11.59,0,0,0,5.29-2.3h-3a16.52,16.52,0,0,0-2,.1v-1.62a15.87,15.87,0,0,0,1.94.1h4.29v-.81h-3.2a10.82,10.82,0,0,0-1.65.08v-1.46a10.74,10.74,0,0,0,1.65.08h3.2v-.77Zm6.34-1.4a12,12,0,0,0,.54-1.19h-3.7a9.07,9.07,0,0,1,.49,1.19Z"/><path class="cls-4" d="M207.59,316.06a9.91,9.91,0,0,0,1.33-.06c0,.32,0,.44-.06.86a13.62,13.62,0,0,1-1,5.06c-.4.81-1.1,1.09-2.65,1.09-.77,0-1.53-.05-2.56-.15a7.33,7.33,0,0,0-.42-1.84,17.37,17.37,0,0,0,3,.3c.63,0,.91-.09,1.05-.4a9.44,9.44,0,0,0,.65-3.3h-4.47a10.9,10.9,0,0,0-1.19.05,24.79,24.79,0,0,0,.77-5.15,8.88,8.88,0,0,0,1.27.06H207v-2h-3.81a15.31,15.31,0,0,0-1.7.09v-1.79a14.43,14.43,0,0,0,1.72.09h4.06a14.38,14.38,0,0,0,1.57-.06c0,.4,0,.78,0,1.31v2.66c0,.53,0,.87,0,1.26-.4,0-.92-.05-1.44-.05h-3.61c-.1.7-.19,1.25-.34,1.94Zm6.48-7.44a11.24,11.24,0,0,0-.1,1.79v10.77a14.84,14.84,0,0,0,.1,2.07H212a15,15,0,0,0,.12-2.07V310.41a9.38,9.38,0,0,0-.12-1.79Z"/><path class="cls-4" d="M229.18,316.74c-.27.26-.27.26-1.42,1.57a15.2,15.2,0,0,1-2,1.78,17.81,17.81,0,0,0,5.83,1.43,6.94,6.94,0,0,0-.84,1.8,19,19,0,0,1-4.39-1.07,15.91,15.91,0,0,1-2.23-1.1,20.63,20.63,0,0,1-6.4,2.2,7.06,7.06,0,0,0-.89-1.73,18.91,18.91,0,0,0,5.78-1.56,13,13,0,0,1-2.6-3l-.8.06V315.5a15.21,15.21,0,0,0,1.66.08h5.87a8.22,8.22,0,0,0,1.41-.08ZM218,311a8.93,8.93,0,0,0-.58-1.61h1.28a65.06,65.06,0,0,0,7.33-.44,16.29,16.29,0,0,0,3.28-.72l1.11,1.57c-.26,0-.31,0-.69.14-.64.15-1.14.25-2,.37l1.57.51c-.73,1.41-.75,1.45-1,1.86h1.07a14.4,14.4,0,0,0,1.75-.07,13.37,13.37,0,0,0-.05,1.36v1.19a8.36,8.36,0,0,0,.08,1.19h-1.8v-2H218.79v2.1H217a6.85,6.85,0,0,0,.1-1.24V314c0-.45,0-.79-.07-1.37a13.49,13.49,0,0,0,1.79.08h1a11.72,11.72,0,0,0-.7-1.69Zm5.43,1.69a18.21,18.21,0,0,0-.67-1.86s-.68.05-1.89.11a17.24,17.24,0,0,1,.7,1.75Zm-1.56,4.35a7.48,7.48,0,0,0,2.22,2.12,10.19,10.19,0,0,0,2.43-2.12Zm4.62-4.35a13.9,13.9,0,0,0,1.07-2.33c-.42.06-.54.08-.7.09s-.58.07-1.18.12c-.26,0-.68.06-1.2.13a11.92,11.92,0,0,1,.65,2Z"/><path class="cls-4" d="M236,312.53a13.73,13.73,0,0,1-1.65,2,6.51,6.51,0,0,0-1.38-1.2,9.09,9.09,0,0,0,2.12-2.66,7.23,7.23,0,0,0,.8-2.13l1.86.43-.31.72c-.32.79-.34.84-.48,1.15h2.31V310a11.1,11.1,0,0,0-.1-1.59h2a9.38,9.38,0,0,0-.1,1.59v.86h3.4a13.32,13.32,0,0,0,1.75-.1v1.86a13.32,13.32,0,0,0-1.75-.1h-3.4v2.22h4.5a12.47,12.47,0,0,0,1.82-.1v1.92a13,13,0,0,0-1.82-.1h-3.1v4.58c0,.36.19.42,1.19.42s1.48-.08,1.66-.34a5.77,5.77,0,0,0,.32-2.46,5.9,5.9,0,0,0,1.75.63,6.07,6.07,0,0,1-.67,3,1.66,1.66,0,0,1-1.1.69,12.81,12.81,0,0,1-2.25.15c-2.1,0-2.6-.26-2.6-1.31v-5.36H239a8.55,8.55,0,0,1-.39,2.51,6.25,6.25,0,0,1-2.52,3.28,10,10,0,0,1-2.46,1.23,7.51,7.51,0,0,0-1-1.66,6.86,6.86,0,0,0,3.6-2.11,4.56,4.56,0,0,0,.94-2.2c0-.27,0-.37.09-1h-2.44a12.91,12.91,0,0,0-1.8.1v-1.92a12.26,12.26,0,0,0,1.8.1h4.53v-2.22Z"/><path class="cls-4" d="M255,308.68a27.39,27.39,0,0,0,1.07,5.07c1.05-.39,1.05-.39,4.19-1.43a4,4,0,0,0,.62-.24l.69,2a39.64,39.64,0,0,0-5.34,1.56c-2.36.87-3.54,1.91-3.54,3.07s1.1,1.69,3.7,1.69a17.69,17.69,0,0,0,5.23-.67l.18,2.22a11.36,11.36,0,0,0-1.31.11,34.14,34.14,0,0,1-3.79.25,9,9,0,0,1-4.69-.9,3,3,0,0,1-1.41-2.7,3.83,3.83,0,0,1,1.44-2.9,10,10,0,0,1,2.2-1.39,40.85,40.85,0,0,1-1.08-4.39,8.41,8.41,0,0,0-.26-1.05Z"/><path class="cls-4" d="M271.76,318.22c-.93,2.09-2,3-3.29,3-1.84,0-3.17-1.88-3.17-4.48a6.93,6.93,0,0,1,1.78-4.71,7.23,7.23,0,0,1,5.57-2.27c3.88,0,6.41,2.36,6.41,6a6.23,6.23,0,0,1-3.94,6,9.94,9.94,0,0,1-2.54.68,5.16,5.16,0,0,0-1-1.89,8.51,8.51,0,0,0,3.22-.89,4.54,4.54,0,0,0,2.25-4.05,4,4,0,0,0-2-3.59,3.68,3.68,0,0,0-1.64-.49A23.54,23.54,0,0,1,271.76,318.22Zm-2.38-5.8a5.42,5.42,0,0,0-2.2,4.37c0,1.33.56,2.38,1.27,2.38.54,0,1.09-.68,1.67-2.07a21.38,21.38,0,0,0,1.35-5.47A4,4,0,0,0,269.38,312.42Z"/><path class="cls-4" d="M172.77,335.16c.85.71,1.34,1.15,2,1.8.89.9.89.9,1,1a19.91,19.91,0,0,0,2.12-2,20.18,20.18,0,0,0,2-2.64l.1-.14,0-.08c-.16,0-.4,0-.74,0h-7.72a15.5,15.5,0,0,0-2.08.08v-2.06a11.54,11.54,0,0,0,2.11.12l9,0a4.28,4.28,0,0,0,1.34-.13l1.14,1.28a4.89,4.89,0,0,0-.72,1,25,25,0,0,1-5.22,6.13c.68.78,1.29,1.55,2.13,2.7l-1.7,1.36a26.73,26.73,0,0,0-3.12-4.08,27.29,27.29,0,0,0-3.24-3.12Z"/><path class="cls-4" d="M188.29,333.62a18.73,18.73,0,0,1,1.58,3.84L188,338a16.27,16.27,0,0,0-1.47-3.92Zm9.29.12a3.29,3.29,0,0,0-.23.82,13.93,13.93,0,0,1-2.23,5.39,12.34,12.34,0,0,1-4.94,3.9,6,6,0,0,0-1.3-1.6,10.49,10.49,0,0,0,2.76-1.49,9.28,9.28,0,0,0,3.67-5.62,7.17,7.17,0,0,0,.29-1.86Zm-5.85-.78a15.53,15.53,0,0,1,1.57,3.72l-1.79.57a18.07,18.07,0,0,0-1.48-3.81Z"/><path class="cls-4" d="M213.6,331.44c-.19.05-.19.05-1.36.43a19.66,19.66,0,0,1-2.7.67c0,2.18,0,2.18,0,2.73h3.43a9.94,9.94,0,0,0,2-.11v1.94a15.84,15.84,0,0,0-2-.08h-3.58a8.31,8.31,0,0,1-1.08,3.53,8.47,8.47,0,0,1-2.64,2.58,10.19,10.19,0,0,1-1.5.81,5.2,5.2,0,0,0-1.41-1.72,7.51,7.51,0,0,0,2.51-1.36,5.21,5.21,0,0,0,1.86-2.75c.06-.28.11-.55.18-1.09h-4a15.84,15.84,0,0,0-1.95.08v-1.94a9.94,9.94,0,0,0,2,.11h4.14c0-.68,0-1.31,0-2.44a37.49,37.49,0,0,1-4.49.37,6.61,6.61,0,0,0-.6-1.75c.5,0,.76,0,1,0a28.32,28.32,0,0,0,6.93-.94,9.21,9.21,0,0,0,2-.76Z"/><path class="cls-4" d="M218,341a15.38,15.38,0,0,0,4.8-1.2,10.72,10.72,0,0,0,4.8-4,13.27,13.27,0,0,0,1.66-3.23,7,7,0,0,0,1.71,1.58,14.11,14.11,0,0,1-5.13,6.35,17.61,17.61,0,0,1-6.17,2.43,6,6,0,0,0-1.07.27Zm1.38-10.05a22.68,22.68,0,0,1,4.18,3.12l-1.4,1.76a17,17,0,0,0-4.12-3.28Z"/><path class="cls-4" d="M245.85,332.88a3.17,3.17,0,0,0-.4,1,16.1,16.1,0,0,1-3.26,6.12,16.34,16.34,0,0,1-5.76,4.09,5.36,5.36,0,0,0-1.38-1.7,13,13,0,0,0,8.28-8.72l-4.88.06a15.74,15.74,0,0,1-3.79,4.16,4.23,4.23,0,0,0-1.57-1.39,12.72,12.72,0,0,0,4.2-4.69,6.38,6.38,0,0,0,.82-2.16l2.22.46a1.69,1.69,0,0,0-.27.48c-.13.29-.28.62-.44.94a1.89,1.89,0,0,0-.11.23l-.13.24c.19,0,.45,0,.77,0l3.55-.05c.44,0,.71,0,.84,0a10,10,0,0,0-1.18-2l1.2-.4A10.38,10.38,0,0,1,246,332l-.7.26Zm1.05-1.17a11.17,11.17,0,0,0-1.39-2.51l1.17-.4a9.53,9.53,0,0,1,1.42,2.46Z"/><path class="cls-4" d="M249.88,331.29a19.08,19.08,0,0,0,3.75.21,6.5,6.5,0,0,0,.65-2l2.12.23a10.87,10.87,0,0,0-.65,1.46c-.08.18-.11.22-.14.29.13,0,.13,0,1-.07a21.61,21.61,0,0,0,4.24-.55l.11,1.85c-.45,0-.45,0-1.28.13-1.18.14-3.24.27-4.87.32a8.35,8.35,0,0,1-1.49,2.16l0,0,.32-.24a3.87,3.87,0,0,1,2.28-.73,2.13,2.13,0,0,1,2.32,1.71c1.24-.45,2.07-.74,2.47-.87a4.67,4.67,0,0,0,1.2-.49l.76,1.86a15.79,15.79,0,0,0-1.79.44c-.23.07-1,.34-2.43.83V338c0,.42,0,.42,0,.64v.65c0,.28,0,.42,0,.54a5.4,5.4,0,0,0,.05.85l-1.88.05a13.35,13.35,0,0,0,.1-1.88v-.38a9,9,0,0,0-1.56.84,1.71,1.71,0,0,0-.84,1.32c0,.85.78,1.19,2.74,1.19a14.26,14.26,0,0,0,4.76-.68l.16,2.09a4.54,4.54,0,0,0-.75.06,29,29,0,0,1-4.14.29,6.89,6.89,0,0,1-3.61-.68,2.34,2.34,0,0,1-1.18-2.09,2.55,2.55,0,0,1,.71-1.79,7.89,7.89,0,0,1,3.48-2.29.89.89,0,0,0-1-.87,5.49,5.49,0,0,0-3.32,1.67,7.27,7.27,0,0,0-1.41,1.47l-1.47-1.46a9.61,9.61,0,0,0,1.46-1.44,20.56,20.56,0,0,0,1.94-2.77,1.12,1.12,0,0,1,.13-.21l-.27,0-2,0-.46,0a1.49,1.49,0,0,0-.26,0Z"/><path class="cls-4" d="M274.27,333v-1.25a9.9,9.9,0,0,0-.08-1.8h2.09a6.07,6.07,0,0,0-.06,1.09c0,1,0,1,0,2h1a12.19,12.19,0,0,0,2.1-.11v2a17.48,17.48,0,0,0-2.07-.08h-1.09a19.61,19.61,0,0,1-.11,2.67,6.5,6.5,0,0,1-2.33,4.65,9.24,9.24,0,0,1-3.16,1.7,4.86,4.86,0,0,0-1.21-1.72,7.52,7.52,0,0,0,3.09-1.54,5.06,5.06,0,0,0,1.72-3.88c0-.38,0-.76.06-1.88h-4.19v2.43a9.87,9.87,0,0,0,.06,1.36H268a10.63,10.63,0,0,0,.06-1.39v-2.4h-1a17.67,17.67,0,0,0-2.08.08v-2a12.32,12.32,0,0,0,2.11.11h.95v-1.62a8.09,8.09,0,0,0-.08-1.44h2.12a8.71,8.71,0,0,0-.06,1.39V333Z"/><path class="cls-4" d="M285.5,336.08c0,.1-.05.2-.07.23s0,.13-.06.27a17.13,17.13,0,0,1-2.72,6.3,7.24,7.24,0,0,0-1.88-1.05,13.12,13.12,0,0,0,2.73-6.23Zm7.36-3.46c.34,0,.5,0,.89,0a1.86,1.86,0,0,1,.55-3.64,1.87,1.87,0,0,1,1.88,1.86,1.91,1.91,0,0,1-1.23,1.77v1.91a13.27,13.27,0,0,0-2.06-.08h-3.74v7.85a13.26,13.26,0,0,0,.08,1.81H287a11.31,11.31,0,0,0,.1-1.83v-7.83h-3.59a13,13,0,0,0-2,.08v-2a11,11,0,0,0,2.07.11h3.56v-.91A8.7,8.7,0,0,0,287,330h2.19a12.4,12.4,0,0,0-.07,1.72v.86Zm-.18,3a18.1,18.1,0,0,0,2.87,6.17,10.16,10.16,0,0,0-1.86,1.11,21.42,21.42,0,0,1-2.66-6.05,3.87,3.87,0,0,0-.26-.75Zm.57-4.78a1.06,1.06,0,1,0,2.12,0,1.06,1.06,0,0,0-2.12,0Z"/><path class="cls-4" d="M297.27,335.6a17,17,0,0,0,2.63.11h8.63a16.88,16.88,0,0,0,2.62-.11v2.25a18,18,0,0,0-2.64-.08h-8.6a18,18,0,0,0-2.64.08Z"/><path class="cls-4" d="M316.44,343.66a11.18,11.18,0,0,0,.09-1.81V331.47a11.16,11.16,0,0,0-.09-1.65h2.21a11.62,11.62,0,0,0-.06,1.7v3a48.34,48.34,0,0,1,7.35,3.41l-1.13,1.92a38,38,0,0,0-5.74-3.1c-.37-.18-.42-.19-.55-.27a8.13,8.13,0,0,1,.07,1.1v4.27c0,.84,0,1.27.06,1.8Z"/><path class="cls-5" d="M149.35,346.12v9.09A10.63,10.63,0,0,0,159.8,366H333.19a10.63,10.63,0,0,0,10.45-10.8v-3.6"/><path class="cls-5" d="M329.1,287.23h4.09A10.63,10.63,0,0,1,343.64,298v41.35"/><path class="cls-5" d="M149.67,301.64V298a10.62,10.62,0,0,1,10.44-10.8H317.83"/><path class="cls-5" d="M1.9,48.91V204.16A10.62,10.62,0,0,0,12.35,215H333.19a10.62,10.62,0,0,0,10.45-10.79v-3.6"/><path class="cls-5" d="M291,23.39h42.2a10.62,10.62,0,0,1,10.45,10.79V188.33"/><path class="cls-5" d="M1.9,37.79V34.18A10.62,10.62,0,0,1,12.35,23.39H68"/><path class="cls-4" d="M38.73,166.26a10.2,10.2,0,0,0-1.25.08v-1.75a6.7,6.7,0,0,0,1.26.1h.67v-1.33a10.86,10.86,0,0,0-.1-1.65h1.93a9.65,9.65,0,0,0-.1,1.64v1.34h.26a6.16,6.16,0,0,0,1-.06v1.7a6.5,6.5,0,0,0-1-.07h-.24v2.48l1.36-.5v1.6l-1.36.53V175c0,1.3-.42,1.6-2.14,1.6-.39,0-.64,0-1.15,0a4.89,4.89,0,0,0-.38-1.69,8.38,8.38,0,0,0,1.31.13c.53,0,.63-.06.63-.5V171l-.44.16-.55.18c-.23.08-.5.17-.68.25l-.36-1.79a11.33,11.33,0,0,0,2-.49v-3.06Zm7.35-.81H44.56c-.75,0-1.4,0-1.87.08v-1.76a17,17,0,0,0,1.85.08h1.54v-.49a9.11,9.11,0,0,0-.1-1.63h1.93a10.61,10.61,0,0,0-.08,1.62v.5h2.25a13.84,13.84,0,0,0,1.84-.1v1.8a17.31,17.31,0,0,0-1.84-.1H47.83v2.08h1.52a7.08,7.08,0,0,0,1.16-.07l.86.92c-.13.21-.19.34-.5,1a13.76,13.76,0,0,1-2.52,3.56,12.78,12.78,0,0,0,4.07,2,5.72,5.72,0,0,0-1,1.77,16,16,0,0,1-4.37-2.61,14.43,14.43,0,0,1-4.69,2.56,6.63,6.63,0,0,0-.91-1.67,12.65,12.65,0,0,0,4.39-2.09,12,12,0,0,1-2.29-3.75c-.26,0-.35,0-.65,0v-1.71a13.5,13.5,0,0,0,1.64.1h1.54Zm-.75,3.63a8.3,8.3,0,0,0,1.77,2.72,8.59,8.59,0,0,0,2-2.72Z"/><path class="cls-4" d="M59.82,163.53a11,11,0,0,0-.1-1.77h1.83a10.82,10.82,0,0,0-.1,1.77v1.36h.75a8.24,8.24,0,0,0,1.47-.09v1.3a6.29,6.29,0,0,0,.81,0h2.44a6.68,6.68,0,0,0,1.33-.08v1.8a8.91,8.91,0,0,0-1.38-.07v6.93c0,.86-.21,1.3-.74,1.51a5.9,5.9,0,0,1-1.67.16c-.31,0-.5,0-1.29,0a5.12,5.12,0,0,0-.37-1.7,14.45,14.45,0,0,0,1.91.14c.4,0,.51-.08.51-.37v-6.64h-.74a5.76,5.76,0,0,0-1,.07v-1.31c-.27,0-.48,0-.86,0H61.45v8.1a12.72,12.72,0,0,0,.1,1.94H59.72a13.21,13.21,0,0,0,.1-1.94v-8.1H58.39a5.81,5.81,0,0,0-1,.07c-.44.73-.81,1.28-1.08,1.67v6.49a12.32,12.32,0,0,0,.08,1.83H54.54a14.55,14.55,0,0,0,.1-1.88v-3c0-.65,0-.67,0-1.77A6.14,6.14,0,0,1,53.58,171a5.78,5.78,0,0,0-.63-1.78,9.37,9.37,0,0,0,2.41-2.58,6.37,6.37,0,0,0,.81-1.45l1.17.69V164.8a8.17,8.17,0,0,0,1.47.09h1Zm-2.29-1.06-.84,1.06a13.17,13.17,0,0,1-2.83,2.6,7.76,7.76,0,0,0-.79-1.54,8.27,8.27,0,0,0,2.93-3Zm1.66,5.25a24.62,24.62,0,0,1-1.14,7.2,12.57,12.57,0,0,0-1.47-.82,9.75,9.75,0,0,0,.81-2.71,30.8,30.8,0,0,0,.32-3.88Zm3.67-3.09a8.68,8.68,0,0,0-1.29-2l1.23-.73A11.13,11.13,0,0,1,64,163.49v-1a7.39,7.39,0,0,0,1.26.08h1.49a6.88,6.88,0,0,0,1.26-.08v1.81a7.69,7.69,0,0,0-1.26-.08H65.24a8,8,0,0,0-1.26.08v-.42Zm.32,2.86a44,44,0,0,1,1.19,5.7l-1.51.5a36.28,36.28,0,0,0-1-5.86Z"/><path class="cls-4" d="M70.58,171.59a18.83,18.83,0,0,1,3.64,3.56l-1.51,1.41a17.22,17.22,0,0,0-3.51-3.69Z"/><path class="cls-4" d="M88.18,173.45a8.9,8.9,0,0,1-1.7,3.16A4,4,0,0,0,85,175.49a7.52,7.52,0,0,0,1.69-2.77ZM87,172.62a7.19,7.19,0,0,0-1.13,0c0-.57,0-1.06,0-1.62v-7.37a12.75,12.75,0,0,0-.07-1.46,11.94,11.94,0,0,0,1.44.07h2.32a9.31,9.31,0,0,0,1.36-.07c0,.41,0,.65,0,1.33v7.74c0,.71,0,1,0,1.38a9.78,9.78,0,0,0-1.17,0Zm.49-7.28h1.86v-1.52H87.52Zm0,2.82h1.86v-1.41H87.52Zm0,2.94h1.86v-1.52H87.52Zm12.35-4a10.32,10.32,0,0,0-.5,1.55,14.35,14.35,0,0,1-1.75,4.09,9.36,9.36,0,0,0,2.92,2.17,6.62,6.62,0,0,0-1,1.7,12.84,12.84,0,0,1-3-2.46,12.73,12.73,0,0,1-3,2.63,4.32,4.32,0,0,0-1.12-1.41,13.16,13.16,0,0,1-.74,1.34,5.27,5.27,0,0,0-1.27-1.07,5,5,0,0,0-.61.57,17.86,17.86,0,0,1-1.36-2.77l1.41-.65a15,15,0,0,0,.94,1.88c.85-1.63,1.21-4,1.23-8.29,0-.6,0-1.26,0-2v-.23c0-.68,0-1.29-.06-1.84.56,0,1.13.08,1.83.08H98.4a14.79,14.79,0,0,0,1.8-.1v1.83a17.91,17.91,0,0,0-1.79-.08H93.74v2.13h4a6,6,0,0,0,1.31-.08Zm-6.17.68c-.11,3.78-.43,5.71-1.23,7.51a10.81,10.81,0,0,0,3.06-2.53,13.32,13.32,0,0,1-1.81-5Zm1.51,0a11.34,11.34,0,0,0,1.34,3.51,11.78,11.78,0,0,0,1.33-3.51Z"/><path class="cls-4" d="M104.4,167.53h-.86a13,13,0,0,0-1.46.06,14.87,14.87,0,0,0,.07-1.59v-2.25a15.54,15.54,0,0,0-.07-1.63,12.61,12.61,0,0,0,1.61.08H106a12.09,12.09,0,0,0,1.62-.08,14.49,14.49,0,0,0-.06,1.63v1.7a8.36,8.36,0,0,0,2.88-4l1.79.37-.55,1.07h1.9a8.22,8.22,0,0,0,1.41-.08l.85,1.05a17,17,0,0,1-2.55,3.63,12.6,12.6,0,0,0,3.41,1.65,6.63,6.63,0,0,0-.71,1.74l-.71-.34a5.81,5.81,0,0,0,0,.93v3.41a12.12,12.12,0,0,0,.09,1.77h-1.78v-.76h-3.19v.77h-1.77a9.89,9.89,0,0,0,.08-1.62v-3.56c0-.37,0-.48,0-.74l-.55.24a3.77,3.77,0,0,0-.62-1.24V171a9.58,9.58,0,0,0-1.17,0H106v2.51c.65-.17,1-.26,1.88-.57v1.57c-1.64.55-3.32,1-5.51,1.51a3.6,3.6,0,0,0-.71.21l-.4-1.82.93-.09v-3.94a8.87,8.87,0,0,0-.09-1.65h1.68a9.88,9.88,0,0,0-.08,1.59V174l.73-.16Zm-.62-1.5H106v-2.31h-2.17Zm3.71,3.39a12.63,12.63,0,0,0,3.35-1.88,9.18,9.18,0,0,1-1.29-1.62,7.87,7.87,0,0,1-1.3,1.15,4.76,4.76,0,0,0-.69-1c0,.81,0,1.13,0,1.5a13.15,13.15,0,0,0-1.32,0H106v1.87h.35a4.77,4.77,0,0,0,1.17-.08Zm6.54,1c.42,0,.58,0,.91,0a15.41,15.41,0,0,1-2.85-1.75,14.76,14.76,0,0,1-2.72,1.77H114Zm-3.67,3.93h3.19V172h-3.19Zm.46-10a3.25,3.25,0,0,1-.27.37,7.64,7.64,0,0,0,1.44,1.75,9.1,9.1,0,0,0,1.62-2.12Z"/><path class="cls-4" d="M118.64,171.59a18.83,18.83,0,0,1,3.64,3.56l-1.51,1.41a17.22,17.22,0,0,0-3.51-3.69Z"/><path class="cls-4" d="M139.76,163.67a14,14,0,0,0-.11-1.89h2.1a13.46,13.46,0,0,0-.11,1.89v2.93h3.22a17.14,17.14,0,0,0,2.09-.1v1.9a17.93,17.93,0,0,0-2.09-.1h-3.22v5.86h4.24c.92,0,1.68,0,2.27-.09V176a18.61,18.61,0,0,0-2.27-.11h-10a19,19,0,0,0-2.31.11v-1.92c.59.06,1.34.09,2.31.09h3.92V168.3h-2.93a18.19,18.19,0,0,0-2.11.1v-1.9a17.39,17.39,0,0,0,2.11.1h2.93Z"/><path class="cls-4" d="M150.91,163.53a9,9,0,0,0-.1-1.59h1.83a8.76,8.76,0,0,0-.1,1.59v2.33h.1a6,6,0,0,0,1.12-.07v1.69a6.87,6.87,0,0,0-1.11,0h-.11v4.16l1.22-.55,0,1.65c-1,.5-1.73.81-3.59,1.57-.19.1-.32.14-.6.27l-.4-1.83a7.25,7.25,0,0,0,1.7-.48v-4.79h-.31a8,8,0,0,0-1.18.06v-1.71a6.48,6.48,0,0,0,1.18.08h.31Zm12.87,9A14.08,14.08,0,0,1,162,174a7.52,7.52,0,0,0,2.51,1.22,6.58,6.58,0,0,0-.92,1.52,8.65,8.65,0,0,1-3.58-2.53,7.43,7.43,0,0,1-1.42-2.6h-.12c-.26.27-.43.47-.74.76v2.39a20.45,20.45,0,0,0,2.1-.5v1.46c-1.16.32-2,.5-3.43.78-1.1.21-1.41.27-1.63.34l-.26-1.62a10.84,10.84,0,0,0,1.62-.16V173.6a17.91,17.91,0,0,1-2.89,1.44,6.05,6.05,0,0,0-.84-1.43,10.12,10.12,0,0,0,4-2h-.94a8.72,8.72,0,0,0-1.49.08v-1.44a11.44,11.44,0,0,0,1.57.06h.73v-.71h-.41c-.71,0-1,0-1.44,0v-1.28c.41,0,.7.05,1.43.05h.42v-.68h-.71c-.73,0-1,0-1.41.05v-1.36a9.47,9.47,0,0,0,1.44.06h.68c0-.35,0-.56-.05-.74a11.67,11.67,0,0,1-1.64.55,5.54,5.54,0,0,0-.84-1.12,7.88,7.88,0,0,0,2.85-1h-1.16a15.24,15.24,0,0,0-1.57.08v-1.52a16.19,16.19,0,0,0,1.66.08H158v-.19a5.77,5.77,0,0,0-.08-.94h1.83a4.55,4.55,0,0,0-.08.94v.19h2.77a16.71,16.71,0,0,0,1.72-.08v1.52a16.82,16.82,0,0,0-1.69-.08H161a12.35,12.35,0,0,0,3.21.92,7,7,0,0,0-.76,1.18,16.73,16.73,0,0,1-2.09-.61,4.41,4.41,0,0,0-.05.79h1a9.35,9.35,0,0,0,1.59-.08v1.39c-.52,0-.84-.06-1.55-.06h-1v.68h.79a10,10,0,0,0,1.49-.07v1.32a11,11,0,0,0-1.49-.07h-.79v.71h1.23a8.55,8.55,0,0,0,1.62-.08v1.46a14.48,14.48,0,0,0-1.57-.08Zm-5.9-6.94c0,.26,0,.43-.06.87h2c0-.45,0-.6-.05-.86h1.42a9.66,9.66,0,0,1-1.6-.77l.57-.65h-2.69l.55.58a10.63,10.63,0,0,1-1.51.83Zm-.06,2.8h2v-.68h-2Zm0,1.89h2v-.71h-2Zm2.35,1.3A5.53,5.53,0,0,0,161,173a6.06,6.06,0,0,0,1.51-1.37Z"/><path class="cls-4" d="M166.7,171.59a18.55,18.55,0,0,1,3.64,3.56l-1.5,1.41a17.51,17.51,0,0,0-3.52-3.69Z"/><path class="cls-4" d="M190,175.73a43.3,43.3,0,0,1-5.33.8,3,3,0,0,0-.63.11l-.3-1.67.17,0c.38,0,1.27-.05,1.75-.08v-2.08h-1.6a8.89,8.89,0,0,1-1.51,4,7.69,7.69,0,0,0-1.36-1.44c1-1.33,1.3-2.69,1.3-5.49,0-.69,0-1.62-.08-2a13.71,13.71,0,0,0,1.6.08h10.3a10.89,10.89,0,0,0,1.55-.08v1.46a13.73,13.73,0,0,0-1.55-.07H184.23v1c0,.42,0,.71,0,1.31h10.46a9.21,9.21,0,0,0,1.34-.06v1.44a9,9,0,0,0-1.34-.07h-1.35l1.38.54a12.65,12.65,0,0,1-1.55,1.1,13.85,13.85,0,0,0,3.38.53,12.44,12.44,0,0,0-.73,1.66,10.73,10.73,0,0,1-5.81-2.21Zm3.27-13.11c.88,0,1.12,0,1.83-.07a12,12,0,0,0-.06,1.51v1.83c0,.61,0,1.13,0,1.47-.64-.05-.87-.05-1.61-.05h-9.1c-.44,0-1,0-1.44.05,0-.39,0-.73,0-1.49v-1.79a12.5,12.5,0,0,0-.06-1.53c.5,0,1.13.07,1.83.07h1.71a7.18,7.18,0,0,0-.08-1h1.79a4.43,4.43,0,0,0-.09,1h1.82c0-.37,0-.78-.08-1h1.79a5.15,5.15,0,0,0-.08,1Zm-8.63,1.2v.63h1.81v-.63Zm0,1.75v.63h1.81v-.63Zm.18,4.16a10,10,0,0,0,1.44.06h7.22a10,10,0,0,0,1.44-.06V171a10.4,10.4,0,0,0-1.44-.07h-7.22a10.59,10.59,0,0,0-1.44.07Zm2.49,5q.82-.1,2.55-.39a5.38,5.38,0,0,1-1.17-1.51H187.3Zm.76-10.28h1.82v-.63h-1.82Zm0,1.75h1.82v-.63h-1.82Zm2.34,6.63a3.16,3.16,0,0,0,1.34,1.11,8.35,8.35,0,0,0,1.39-1.11Zm1.11-8.38h1.83v-.63h-1.83Zm0,1.75h1.83v-.63h-1.83Z"/><path class="cls-4" d="M199.24,163.7a14.87,14.87,0,0,0-.09-1.86H201a11.49,11.49,0,0,0-.1,1.88v2.07h.36a5.38,5.38,0,0,0,1.08-.06v1.7a7.08,7.08,0,0,0-1.13-.07h-.31v4.41c.63-.29.81-.38,1.54-.75l.05,1.72a27.43,27.43,0,0,1-4,1.79c-.45.18-.6.25-.84.36l-.34-1.86a8.85,8.85,0,0,0,1.92-.58v-5.09h-.37a7.09,7.09,0,0,0-1.26.08v-1.73a6,6,0,0,0,1.26.08h.37ZM205.06,174c0,.32.11.43.47.5a12.84,12.84,0,0,0,2.2.11c1.92,0,2.44-.08,2.68-.42a3.6,3.6,0,0,0,.3-1.93,8.33,8.33,0,0,0,1.76.54c-.19,3.24-.53,3.46-5.15,3.46-3.27,0-4-.3-4-1.73V169l-.32.1a9,9,0,0,0-1,.37l-.41-1.76a9.92,9.92,0,0,0,1.57-.36l.15-.05v-2.22a10.33,10.33,0,0,0-.1-1.71h1.91a13.44,13.44,0,0,0-.09,1.65v1.76l1.57-.5v-2.82a12.21,12.21,0,0,0-.08-1.61h1.87a14.28,14.28,0,0,0-.09,1.65v2.26l2.33-.72a10.87,10.87,0,0,0,1.32-.49c0,.71,0,.83-.08,1.7a30.25,30.25,0,0,1-.35,4.45c-.21.92-.65,1.2-1.83,1.2-.21,0-.36,0-.76,0a4.85,4.85,0,0,0-.44-1.67,4.49,4.49,0,0,0,.91.13c.4,0,.5-.07.56-.41.08-.53.15-1.53.2-3.1l-1.86.58v4a12.7,12.7,0,0,0,.09,1.62h-1.87a13.21,13.21,0,0,0,.08-1.67v-3.43l-1.57.5Z"/><path class="cls-4" d="M220.49,171.52c-.92,2.09-2,3-3.28,3-1.85,0-3.18-1.88-3.18-4.49a7,7,0,0,1,1.79-4.71,7.25,7.25,0,0,1,5.56-2.26c3.89,0,6.42,2.36,6.42,6a6.24,6.24,0,0,1-3.94,6,10.63,10.63,0,0,1-2.54.68,5.18,5.18,0,0,0-1-1.89,8.83,8.83,0,0,0,3.22-.89A4.54,4.54,0,0,0,225.8,169a4,4,0,0,0-2-3.6,3.48,3.48,0,0,0-1.63-.48A23.46,23.46,0,0,1,220.49,171.52Zm-2.38-5.79a5.42,5.42,0,0,0-2.2,4.37c0,1.33.57,2.38,1.28,2.38.54,0,1.09-.68,1.67-2.07a21.46,21.46,0,0,0,1.34-5.48A4.18,4.18,0,0,0,218.11,165.73Z"/><path class="cls-4" d="M232.9,166.49a14.32,14.32,0,0,1-2.2,3.4,4.75,4.75,0,0,0-1.33-1.38,11.67,11.67,0,0,0,2.74-4.73,9.24,9.24,0,0,0,.36-1.5l1.84.45a2.36,2.36,0,0,1-.14.42,4.45,4.45,0,0,0-.17.54c-.08.24-.22.65-.43,1.21h2.64v-1.23a13.21,13.21,0,0,0-.12-1.94h2.08a14,14,0,0,0-.1,1.92v1.25h3.37a20.5,20.5,0,0,0,2.18-.1v1.79a20.63,20.63,0,0,0-2.14-.1h-3.41v3h2.8a15.61,15.61,0,0,0,2-.1v1.78a19.12,19.12,0,0,0-2-.1h-2.8v3.44H242a17.61,17.61,0,0,0,2.25-.12v1.85a19,19,0,0,0-2.2-.11h-9.91a20.92,20.92,0,0,0-2.29.11v-1.85a19,19,0,0,0,2.25.12h4.16v-3.44h-2.5a18.22,18.22,0,0,0-2,.1v-1.78a14,14,0,0,0,1.95.1h2.51v-3Z"/><path class="cls-4" d="M249.9,171.67a12.17,12.17,0,0,1-.84,1,7,7,0,0,0-.94-1.12,11.18,11.18,0,0,1-1.59,5.07,7.15,7.15,0,0,0-1.3-1.59,7.33,7.33,0,0,0,.93-2.14,23.06,23.06,0,0,0,.5-5.39c0-.65,0-1.24-.08-1.78a15.21,15.21,0,0,0,1.84.08h1.67a5,5,0,0,0-.55-1.37h-1.38a13.74,13.74,0,0,0-1.65.06v-1.75a11.12,11.12,0,0,0,1.77.1h4v-.16a7.35,7.35,0,0,0-.08-1h2a5.45,5.45,0,0,0-.09,1v.16h4a12.08,12.08,0,0,0,1.83-.1v1.75a15.3,15.3,0,0,0-1.73-.06h-1.25a11.61,11.61,0,0,1-.68,1.37h2.14a12.17,12.17,0,0,0,1.82-.08v1.65a14.71,14.71,0,0,0-1.82-.08h-10a34.41,34.41,0,0,1-.15,3.77,6,6,0,0,0,1.13-1.52,9.06,9.06,0,0,0,.85-2.07l1.63.37-.35.88h1.81a5.41,5.41,0,0,0-.07-1H255a6.14,6.14,0,0,0-.07,1h2.92a9.7,9.7,0,0,0,1.55-.08v1.71a13.34,13.34,0,0,0-1.57-.06H255v1.28h2.43a10.35,10.35,0,0,0,1.46-.07v1.59a11.33,11.33,0,0,0-1.46-.07H255v1.57h3.66a12.43,12.43,0,0,0,1.54-.08v1.74a10.73,10.73,0,0,0-1.59-.1h-9a11.82,11.82,0,0,0-1.56.08V174.5a9,9,0,0,0,1.53.08h3.7V173h-1.87a13.07,13.07,0,0,0-1.49.07Zm.84-1.39a9.55,9.55,0,0,1-.75,1.23c.33,0,.7.05,1.38.05h1.89v-1.28Zm3.67-4.49a7.37,7.37,0,0,0,.62-1.37H251.4a10.59,10.59,0,0,1,.55,1.37Z"/><path class="cls-4" d="M261.29,169a14.71,14.71,0,0,0,.58-4.21l1.31.16a20.33,20.33,0,0,1-.6,4.54Zm2,7.61a15.56,15.56,0,0,0,.12-2V163.33a11,11,0,0,0-.12-1.72h2a12.36,12.36,0,0,0-.1,1.72v11.4a14.68,14.68,0,0,0,.1,1.91ZM270.5,165v-1.62a11.13,11.13,0,0,0-.11-1.72h1.95a11,11,0,0,0-.11,1.72V165h1.9a10.85,10.85,0,0,0,1.78-.1v1.8a14,14,0,0,0-1.77-.1h-1.91v2.84h1.62a11.17,11.17,0,0,0,1.75-.09v1.75a13.1,13.1,0,0,0-1.77-.09h-1.6v3.43h2.2a15.37,15.37,0,0,0,1.9-.1v1.83a13.33,13.33,0,0,0-1.9-.11h-6.51a13.38,13.38,0,0,0-1.91.11v-1.83a15.56,15.56,0,0,0,1.91.1h2.58V171H269a14.69,14.69,0,0,0-1.8.09v-1.75l.26,0a10.34,10.34,0,0,0-1.45-.91,6.56,6.56,0,0,0,.85-1.62l-.93.45a9.28,9.28,0,0,0-.75-2.41l1.09-.52a13.4,13.4,0,0,1,.74,2.06,13.47,13.47,0,0,0,.7-3.74l1.73.32a3.12,3.12,0,0,0-.11.59c-.05.3-.17,1-.25,1.39Zm-1.77,1.6a12,12,0,0,1-1.16,2.79c.35,0,.71.05,1.23.05h1.7V166.6Z"/><path class="cls-4" d="M283.91,162.08c-.09.31-.09.31-.26,1.09-.08.39-.16.71-.34,1.42a13.15,13.15,0,0,0,2.59-.45L286,166a4.11,4.11,0,0,0-.51.08c-.59.1-1.58.21-2.58.29a31.06,31.06,0,0,1-1.78,4.7c-.37.79-.52,1.08-1.13,2.22l-.31.58-1.86-1a14.82,14.82,0,0,0,1.57-2.59,25,25,0,0,0,1.52-3.82l-1,0-.65,0h-.86v-1.85a10.76,10.76,0,0,0,2.19.15c.19,0,.47,0,.83,0a16.69,16.69,0,0,0,.48-2.82Zm7.34,13.12a9.76,9.76,0,0,0-2.48-2,2.86,2.86,0,0,1,0,.32,2.59,2.59,0,0,1-.69,1.72,3.76,3.76,0,0,1-2.69.91c-2.14,0-3.53-1.07-3.53-2.72s1.44-2.79,3.5-2.79a8.38,8.38,0,0,1,1.5.15c-.05-.75-.08-1.38-.08-1.86a8.46,8.46,0,0,1,.13-1.64l1.88.1a5.44,5.44,0,0,0-.2,1.63,17.89,17.89,0,0,0,.15,2.22,10.12,10.12,0,0,1,2.56,1.49,5.1,5.1,0,0,1,.56.44,2.51,2.51,0,0,0,.25.23Zm-5.75-3c-1.05,0-1.73.43-1.73,1.11s.58,1.05,1.58,1.05S287,174,287,173.05c0-.17,0-.56,0-.56A4.19,4.19,0,0,0,285.5,172.24Zm5.83-4.49a19.78,19.78,0,0,0-4.66-2.26l1-1.58a25.87,25.87,0,0,1,4.56,2.17Z"/><path class="cls-4" d="M299.71,162.17a27.81,27.81,0,0,0,1.07,5.06c1-.39,1.62-.6,3.66-1.24a6.93,6.93,0,0,0,1.14-.42l.7,2a36.4,36.4,0,0,0-5.34,1.55q-3.56,1.31-3.55,3.06c0,1.18,1.1,1.68,3.71,1.68a18.61,18.61,0,0,0,5.23-.64l.18,2.2c-.34,0-.46,0-1.31.11a33.72,33.72,0,0,1-3.79.24,9,9,0,0,1-4.7-.89,3,3,0,0,1-1.41-2.7,3.86,3.86,0,0,1,1.44-2.9A9.75,9.75,0,0,1,299,168a39.79,39.79,0,0,1-1.09-4.39,9.14,9.14,0,0,0-.26-1.07Zm5.37,0a10.1,10.1,0,0,1,1.7,2.38l-1.13.6a11.27,11.27,0,0,0-1.7-2.42Zm2.51,2a11.53,11.53,0,0,0-1.65-2.34l1.09-.57a9.67,9.67,0,0,1,1.68,2.28Z"/><path class="cls-4" d="M46.42,184.6a20,20,0,0,0,3.75.21,6.5,6.5,0,0,0,.65-2l2.12.23a11,11,0,0,0-.65,1.45l-.14.3c.13,0,.13,0,1-.07a21.61,21.61,0,0,0,4.24-.55l.11,1.85c-.45,0-.45,0-1.28.13-1.18.14-3.24.27-4.87.32a8.29,8.29,0,0,1-1.49,2.15l0,0,.32-.25a4,4,0,0,1,2.28-.73,2.13,2.13,0,0,1,2.32,1.72c1.24-.45,2.07-.74,2.47-.87a5.11,5.11,0,0,0,1.2-.49l.76,1.86a16.33,16.33,0,0,0-1.79.44c-.23.06-1,.34-2.43.82v.18c0,.42,0,.42,0,.65v.65c0,.27,0,.42,0,.53a5.53,5.53,0,0,0,0,.86l-1.88,0a13.46,13.46,0,0,0,.1-1.88v-.39a9.72,9.72,0,0,0-1.56.84A1.74,1.74,0,0,0,50.9,194c0,.84.78,1.18,2.74,1.18a14,14,0,0,0,4.76-.68l.16,2.09a4.73,4.73,0,0,0-.75.07,30.55,30.55,0,0,1-4.14.29,7,7,0,0,1-3.61-.68,2.34,2.34,0,0,1-1.18-2.09,2.59,2.59,0,0,1,.71-1.8,8,8,0,0,1,3.48-2.28.89.89,0,0,0-1-.87,5.47,5.47,0,0,0-3.32,1.66,7.29,7.29,0,0,0-1.41,1.48l-1.47-1.46a10.11,10.11,0,0,0,1.46-1.44,21.9,21.9,0,0,0,1.94-2.77,1.12,1.12,0,0,1,.13-.21l-.27,0-2,0h-.72Z"/><path class="cls-4" d="M61.32,189.44a5.79,5.79,0,0,0,.91.06h.3c.31-.39.49-.63.78-1.06a16.17,16.17,0,0,0-2-2.52l.85-1.33c.26.29.34.39.54.6a10.07,10.07,0,0,0,1.2-2.7l1.6.69a3.58,3.58,0,0,0-.31.55,20.73,20.73,0,0,1-1.52,2.63c.26.32.39.5.57.76a14.43,14.43,0,0,0,1.5-2.79l1.54.78-.42.63a2.33,2.33,0,0,0-.13.21,1.15,1.15,0,0,0-.13.2,6.19,6.19,0,0,0,2-2,6.53,6.53,0,0,0,.78-1.49l1.57.76a.41.41,0,0,0-.08.13,3.16,3.16,0,0,0-.18.27,10.27,10.27,0,0,1-3,3.68,3.93,3.93,0,0,0-1.11-1.3,34.81,34.81,0,0,1-2.22,3.21c.81,0,1-.05,1.68-.12a8.81,8.81,0,0,0-.47-1l1.09-.48a15.07,15.07,0,0,1,1.19,3.14l-1.24.47c-.07-.33-.08-.42-.15-.7l-.48.07a6,6,0,0,0-.65.06v5.1a10.54,10.54,0,0,0,.1,1.7l-1.75,0a13.62,13.62,0,0,0,.09-1.7v-5a13.16,13.16,0,0,0-2.21.2Zm2,2.46a20,20,0,0,1-.66,4.84l-1.39-.62a15.39,15.39,0,0,0,.68-4.43ZM66,195.06a14.4,14.4,0,0,0-.44-3.14l1.2-.33a14,14,0,0,1,.48,2.71,8.46,8.46,0,0,0,.34-2.09l1.46.32a14.46,14.46,0,0,1-1,4.21l-1.48-.86a7.32,7.32,0,0,0,.55-1.16Zm8.35-4.12c-.32-.68-.4-.85-.63-1.28a28.33,28.33,0,0,1-3,.38,14.79,14.79,0,0,1,2.36,1.76L72,193a8.54,8.54,0,0,0-2.53-2.07l1-.84c-2,.19-2.31.23-2.64.28l-.22-1.7a3.44,3.44,0,0,0,.55,0l.5,0a12.83,12.83,0,0,0,.86-1.49,10.86,10.86,0,0,0,1-2.27l1.67.52-.68,1.32c-.6,1.14-.73,1.39-1,1.84,1.57-.11,1.78-.13,2.59-.23a16.14,16.14,0,0,0-1-1.42l1.3-.71A27.86,27.86,0,0,1,75.81,190ZM71,192a9.07,9.07,0,0,0-.06,1v2.41c0,.35,0,.37.76.37a1.22,1.22,0,0,0,.71-.16c.18-.2.21-.47.23-1.7a3.32,3.32,0,0,0,1.46.48c-.21,2.66-.44,2.89-2.81,2.89a3.21,3.21,0,0,1-1.61-.28c-.21-.15-.31-.4-.31-.87v-3a9.58,9.58,0,0,0-.08-1.21Zm2.21-9.41a7.9,7.9,0,0,0,1.52,1.86,7.6,7.6,0,0,0,1.75,1.25,5,5,0,0,0-.94,1.54,11.1,11.1,0,0,1-3.47-3.43l-.29-.39Zm1.61,9a19.94,19.94,0,0,1,1.59,4.07l-1.59.76a15.42,15.42,0,0,0-1.4-4.21Z"/><path class="cls-4" d="M80.58,188A16.41,16.41,0,0,1,78,189.36a6.36,6.36,0,0,0-.94-1.65,16.32,16.32,0,0,0,4.13-2.34,11.41,11.41,0,0,0,2.54-2.7h1.93a10.34,10.34,0,0,0,2.72,2.74,15.13,15.13,0,0,0,4.12,2.21,9.06,9.06,0,0,0-.89,1.79A15.8,15.8,0,0,1,89,188v1.13a13.87,13.87,0,0,0-1.45-.06H82c-.52,0-1,0-1.39.06Zm-1.31,9.47a14.08,14.08,0,0,0,.09-1.72V192a14.3,14.3,0,0,0-.08-1.6,10.26,10.26,0,0,0,1.4.06h8.09a10.51,10.51,0,0,0,1.41-.06,10.26,10.26,0,0,0-.08,1.6v3.79a10.34,10.34,0,0,0,.09,1.7H88.27v-.83H81.19v.83Zm1.92-2.41h7.08V192H81.19Zm6.3-7.69H88a15,15,0,0,1-3.33-3.16,11.53,11.53,0,0,1-3.18,3.16h6Z"/><path class="cls-4" d="M95.6,185a12,12,0,0,0,.69-2.37l1.86.26a18.3,18.3,0,0,1-.82,2.11h.89l1.39-.05a2.88,2.88,0,0,0,0,.48s0,.08,0,.91v1.36a12.3,12.3,0,0,0,2.37-5.1l1.86.31a4.33,4.33,0,0,0-.23.63c-.06.24-.32,1-.47,1.36h3.45a9.26,9.26,0,0,0,1.38-.07,9.49,9.49,0,0,0-.07,1.28c0,2-.18,5.75-.24,6.58-.31,4.09-.73,4.71-3.22,4.71-.39,0-.8,0-1.61-.07a5.24,5.24,0,0,0-.45-1.84,13.38,13.38,0,0,0,2.07.22c.7,0,.94-.13,1.09-.59.34-1,.55-4.07.6-8.52h-3.76a12.4,12.4,0,0,1-2.07,3,4.63,4.63,0,0,0-.7-.81V195a15.07,15.07,0,0,0,.07,1.6H97.89v-1H95.6v1.43H93.83a15.78,15.78,0,0,0,.08-2.09v-8.42a13.25,13.25,0,0,0-.06-1.65,8.4,8.4,0,0,0,.85.05h.9Zm0,4.43h2.31v-2.86H95.58Zm0,4.7h2.31V191H95.58Zm7.62-.73a15.46,15.46,0,0,0-2.08-4.11l1.47-.8a21.68,21.68,0,0,1,2.25,4Z"/><path class="cls-4" d="M111,196.74c0-.29,0-.39-.08-.76a28,28,0,0,1-.42-4.84,31,31,0,0,1,.66-6.33,9.89,9.89,0,0,0,.24-1.51l2.14.23a22.24,22.24,0,0,0-1,4.84,28,28,0,0,0-.24,3.58c0,.35,0,.48,0,.89a16.85,16.85,0,0,1,.84-2.14l1.29.58a13.32,13.32,0,0,0-1.44,4.91,4.16,4.16,0,0,0,0,.44Zm6.9-6.39a3.63,3.63,0,0,0-1.15,2.33c0,.92.89,1.4,2.57,1.4a11.31,11.31,0,0,0,3.85-.61l.17,2.06a5,5,0,0,0-.67.09,20,20,0,0,1-3.35.31c-2,0-3.3-.45-4-1.41a2.67,2.67,0,0,1-.49-1.58,5.31,5.31,0,0,1,1.49-3.34ZM115.23,185a11.86,11.86,0,0,0,3,.25,17.88,17.88,0,0,0,4.4-.43l.1,2-1.15.14a28.67,28.67,0,0,1-3.46.2,19.12,19.12,0,0,1-2.92-.18Z"/><path class="cls-4" d="M127.38,189.71a10.07,10.07,0,0,0-1.49.08V188a6.57,6.57,0,0,0,1.47.1H129v-3.75a11.17,11.17,0,0,0-.1-1.75h1.91a9.66,9.66,0,0,0-.1,1.73v3.77h1.38a6.85,6.85,0,0,0,1.55-.1v1.78a9.22,9.22,0,0,0-1.5-.08h-1.43v1.82h1.54a10.71,10.71,0,0,0,1.69-.08v1.78a10,10,0,0,0-1.64-.08h-1.59v2.39a15.52,15.52,0,0,0,.12,2h-2a13.12,13.12,0,0,0,.12-2v-2.41h-2a10.45,10.45,0,0,0-1.64.08v-1.78a11.87,11.87,0,0,0,1.67.08h2v-1.82ZM127,183.3a17.09,17.09,0,0,1,1.55,3.6l-1.54.56a14.91,14.91,0,0,0-1.55-3.51Zm7.24.5a25.65,25.65,0,0,1-1.66,3.79l-1.42-.65a13,13,0,0,0,1.44-3.73Zm2.23,0a10.29,10.29,0,0,0-.08,1.68v6.4a14.08,14.08,0,0,0,.06,1.71h-1.81a14.31,14.31,0,0,0,.08-1.73v-6.35a11.8,11.8,0,0,0-.08-1.71Zm3.37-1.09a11,11,0,0,0-.12,2v10.72c0,.82-.17,1.26-.64,1.55a3.38,3.38,0,0,1-1.85.31c-.45,0-1.12,0-1.7,0a6.27,6.27,0,0,0-.45-1.68,14,14,0,0,0,1.87.14c1,0,1.07,0,1.07-.5V184.76a16.4,16.4,0,0,0-.09-2Z"/><path class="cls-4" d="M151.72,188.94a26.93,26.93,0,0,1-.45,4.58,9.46,9.46,0,0,1-1.77,4.14,6.32,6.32,0,0,0-1.28-1.45,11.17,11.17,0,0,0-1.23,0H143.5v1.1h-1.77a15.13,15.13,0,0,0,.1-1.86V185a14.2,14.2,0,0,0-.1-1.83h1.86a7,7,0,0,0-.09,1.38V192a9.69,9.69,0,0,0,1.95-3.06h-.53a6.78,6.78,0,0,0-1.08.06v-1.68a7.66,7.66,0,0,0,1.11.06h1V184a8.6,8.6,0,0,0-.06-1.3h1.67a5.91,5.91,0,0,0-.09,1.31v3.4h1a5.45,5.45,0,0,0,1.06-.06V189a7.85,7.85,0,0,0-1.19-.06h-.55a9,9,0,0,0,2,2.46,6.08,6.08,0,0,0-.76,1.42,9.11,9.11,0,0,1-1.55-2.25c0,.39.06.89.06,1.13v1.45a6.6,6.6,0,0,0,.07,1.1h-1.65a6.5,6.5,0,0,0,.08-1.14v-1.26a5.47,5.47,0,0,1,0-.7c0-.27,0-.29,0-.53a8.74,8.74,0,0,1-1.71,2.85,7.66,7.66,0,0,0-.84-1.07v2.2H147a15.79,15.79,0,0,0,1.69-.06v1c1.07-1.75,1.39-3.87,1.39-9.33A18.24,18.24,0,0,0,150,184a13.41,13.41,0,0,0,3.42-.73,6.62,6.62,0,0,0,1.53-.74l1.28,1.58a.37.37,0,0,1-.11,0l-.5.17a18.59,18.59,0,0,1-3.9,1.06v1.94H155a8.14,8.14,0,0,0,1.42-.1V189a6.64,6.64,0,0,0-1.29-.08H155v6.73a13.5,13.5,0,0,0,.1,1.85h-1.9a13.31,13.31,0,0,0,.1-1.85v-6.73Zm-6.88-5.67a22.36,22.36,0,0,1,.95,3.19l-1.23.52a13.31,13.31,0,0,0-1-3.13Zm4.89.57a15.3,15.3,0,0,1-1,3.12l-1.08-.57a13.29,13.29,0,0,0,.82-3.12Z"/><path class="cls-4" d="M162.32,183.33a14.9,14.9,0,0,0-.2,2.19c-.06,1.51-.16,4.79-.16,5.94a4.55,4.55,0,0,0,.42,2.61,2.57,2.57,0,0,0,2.17.84,4.17,4.17,0,0,0,3.92-2.77,10.72,10.72,0,0,0,.74-2.72,7.3,7.3,0,0,0,2,1.25,10.1,10.1,0,0,1-1.92,4.13,6.16,6.16,0,0,1-4.86,2,5.29,5.29,0,0,1-2.83-.71c-1.12-.74-1.59-2-1.59-4.16,0-.84,0-2.46.13-6.52,0-.49,0-.83,0-1.06a7.85,7.85,0,0,0-.06-1.1Z"/><path class="cls-4" d="M182,196.68a43.61,43.61,0,0,1-5.33.79,3,3,0,0,0-.63.11l-.31-1.67.18,0c.38,0,1.27-.05,1.75-.08v-2.07H176a8.89,8.89,0,0,1-1.51,4,7.69,7.69,0,0,0-1.36-1.44c1-1.32,1.3-2.69,1.3-5.49,0-.69,0-1.61-.08-2a11.74,11.74,0,0,0,1.6.08h10.3a9.58,9.58,0,0,0,1.55-.08v1.46c-.29,0-.89-.07-1.55-.07H176.22v1c0,.43,0,.72-.05,1.32h10.46a8.91,8.91,0,0,0,1.34-.07v1.44a9.3,9.3,0,0,0-1.34-.06h-1.35l1.38.53a10.81,10.81,0,0,1-1.55,1.1,13.86,13.86,0,0,0,3.38.54,11.82,11.82,0,0,0-.73,1.65,10.8,10.8,0,0,1-5.81-2.2Zm3.27-13.12c.87,0,1.12,0,1.83-.06A11.78,11.78,0,0,0,187,185v1.83c0,.62,0,1.14,0,1.48-.64-.05-.87-.05-1.62-.05h-9.09c-.44,0-1,0-1.45.05a13.67,13.67,0,0,0,0-1.49V185a12.23,12.23,0,0,0-.06-1.52c.5,0,1.13.06,1.83.06h1.71a7.18,7.18,0,0,0-.08-1h1.78a5.15,5.15,0,0,0-.08,1h1.82c0-.37-.05-.78-.08-1h1.79a5.15,5.15,0,0,0-.08,1Zm-8.63,1.2v.63h1.81v-.63Zm0,1.75v.63h1.81v-.63Zm.18,4.16a10,10,0,0,0,1.44.06h7.22a10,10,0,0,0,1.44-.06V192a10.74,10.74,0,0,0-1.44-.06h-7.22a10.92,10.92,0,0,0-1.44.06Zm2.49,5c.55-.06,1.4-.19,2.54-.39a5.64,5.64,0,0,1-1.16-1.5h-1.38Zm.76-10.28h1.82v-.63h-1.82Zm0,1.75h1.82v-.63h-1.82Zm2.33,6.64a3.24,3.24,0,0,0,1.35,1.1,9.31,9.31,0,0,0,1.39-1.1Zm1.12-8.39h1.83v-.63H183.5Zm0,1.75h1.83v-.63H183.5Z"/><path class="cls-4" d="M191.87,189.11a11.07,11.07,0,0,0-1.67.09v-1.54a14.53,14.53,0,0,0,1.67.06h1.95c-.24-.52-.42-.89-.59-1.2h-1.75c-.8,0-1.41,0-1.93.09V185a14.8,14.8,0,0,0,1.85.09h.51a6.7,6.7,0,0,0-1.1-1.5l1.62-.62a11.51,11.51,0,0,1,1.25,2.12h.92v-1.15a8.78,8.78,0,0,0-.08-1.26h1.77a9.23,9.23,0,0,0,0,1.2v1.21h1.15v-1.21c0-.52,0-.89,0-1.2h1.76a8.39,8.39,0,0,0-.08,1.26v1.15h1a8.41,8.41,0,0,0,1.17-2.17l1.66.62a17.54,17.54,0,0,1-1,1.55h.45a14,14,0,0,0,1.83-.09v1.62a19.15,19.15,0,0,0-1.92-.09h-1.62c-.31.65-.37.8-.6,1.2h1.88a14.65,14.65,0,0,0,1.66-.06v1.54a10.84,10.84,0,0,0-1.66-.09h-4.23v.78h3.39a11,11,0,0,0,1.66-.08v1.46a11,11,0,0,0-1.66-.08h-3.39V192h4.52a15.06,15.06,0,0,0,2-.1v1.62a16.34,16.34,0,0,0-1.95-.1h-3.25a8.46,8.46,0,0,0,2.2,1.3,14.35,14.35,0,0,0,3.37.92,6.25,6.25,0,0,0-.92,1.65,12.57,12.57,0,0,1-6-3.21,10.9,10.9,0,0,1,0,1.15v.8a9.25,9.25,0,0,0,.11,1.63h-1.91a11.22,11.22,0,0,0,.1-1.65v-.78a10.66,10.66,0,0,1,0-1.1,8.85,8.85,0,0,1-2.33,1.78,15.49,15.49,0,0,1-3.31,1.36,6.73,6.73,0,0,0-1-1.55,11.54,11.54,0,0,0,5.29-2.3h-3a16.63,16.63,0,0,0-2,.1V191.9a15.87,15.87,0,0,0,1.94.1h4.29v-.81h-3.2a10.82,10.82,0,0,0-1.65.08v-1.46a10.74,10.74,0,0,0,1.65.08h3.2v-.78Zm6.34-1.39a11.2,11.2,0,0,0,.54-1.2h-3.69a11.54,11.54,0,0,1,.48,1.2Z"/><path class="cls-4" d="M205.51,189.44a5.82,5.82,0,0,0,.81.05s.37,0,.56,0c.26-.32.44-.57.78-1a15.86,15.86,0,0,0-2.2-2.5l.84-1.38.63.63a11.93,11.93,0,0,0,1.23-2.72l1.64.66c-.15.25-.15.25-.6,1.12a19.67,19.67,0,0,1-1.22,2.09c.29.37.36.44.59.73a15.93,15.93,0,0,0,1.55-2.8l1.43.84c-.17.23-.17.23-1,1.49-.5.81-1.42,2.1-2,2.83.78,0,1.23-.08,1.75-.13a12.49,12.49,0,0,0-.52-1.31l1.07-.53a20.85,20.85,0,0,1,1.31,3.38l-1.23.62c-.08-.39-.13-.57-.19-.8-.54.07-.7.1-1.09.13v5.12a9.84,9.84,0,0,0,.1,1.7H208a10.17,10.17,0,0,0,.1-1.72v-5c-.76.07-.76.07-1.36.1a5.73,5.73,0,0,0-1,.11Zm2.07,2.49a24.53,24.53,0,0,1-.57,4.89l-1.49-.6a14.65,14.65,0,0,0,.65-4.55Zm3.79-.35a19.29,19.29,0,0,1,.5,3.43l-1.38.39a17,17,0,0,0-.34-3.5Zm6.7.08a10.35,10.35,0,0,0,1.55-.1v1.72a14.6,14.6,0,0,0-1.57-.07H216.6v2.23h2a11.06,11.06,0,0,0,1.75-.08v1.75a14.57,14.57,0,0,0-1.78-.09h-5.32a15.27,15.27,0,0,0-1.78.09v-1.75a9.57,9.57,0,0,0,1.56.08h1.89v-2.23h-1.08a16.13,16.13,0,0,0-1.62.07v-1.7a11,11,0,0,0,1.62.08h1.08v-.33a8,8,0,0,0-.08-1.55h1.85a9,9,0,0,0-.08,1.55v.33Zm1.75-7.5c-.57.86-1.14,1.68-1.3,1.89a11.25,11.25,0,0,1-1.39,1.57,11.5,11.5,0,0,0,3.47,1.2,5.82,5.82,0,0,0-.77,1.77,15,15,0,0,1-4.06-1.85,13.38,13.38,0,0,1-3,1.62,5.86,5.86,0,0,0-1-1.52,11.92,11.92,0,0,0,2.72-1.18,9.75,9.75,0,0,1-2-2.82,6,6,0,0,0-.87.08v-1.75a14.33,14.33,0,0,0,1.78.08h4.22a8.24,8.24,0,0,0,1.27-.06Zm-5.67.68a6.28,6.28,0,0,0,1.57,1.86,7.77,7.77,0,0,0,1.65-1.86Z"/><path class="cls-4" d="M224.75,184.74a8.93,8.93,0,0,0-1-1.63l1.78-.37a15.8,15.8,0,0,1,1.22,2h1.49a16.55,16.55,0,0,0-.91-1.86l1.81-.29a20.74,20.74,0,0,1,1,2.15h1.17a11.78,11.78,0,0,0,1.15-2.17l1.87.42c-.27.51-.76,1.3-1.06,1.75h1a16.17,16.17,0,0,0,1.73-.06,11.78,11.78,0,0,0,0,1.44v1.29a9.77,9.77,0,0,0,.07,1.28h-1.79v-2.44H223.73v2.44H222a10.26,10.26,0,0,0,.08-1.26v-1.28a14.06,14.06,0,0,0-.07-1.47c.54,0,1,.06,1.72.06Zm1.23,6.5a14.91,14.91,0,0,0-1.7.06,11.17,11.17,0,0,0,.06-1.46v-1.53a8.27,8.27,0,0,0-.06-1.24,8.69,8.69,0,0,0,1.23.07h6.9a8,8,0,0,0,1.18-.07,8,8,0,0,0-.05,1.28v1.49a10,10,0,0,0,.05,1.46,16.56,16.56,0,0,0-1.7-.06h-2.3a10.82,10.82,0,0,1-.55,1.14h4.31a11.84,11.84,0,0,0,1.53-.06,12.19,12.19,0,0,0-.06,1.55V196a10,10,0,0,0,.08,1.59h-1.83v-.64h-8.31v.64H223c.05-.55.08-1.06.08-1.61v-2.1a12.09,12.09,0,0,0-.08-1.54,12.16,12.16,0,0,0,1.5.06h2.67a6.26,6.26,0,0,0,.6-1.14Zm-1.22,4.14h8.33v-1.57h-8.33Zm1.27-5.5h5.81V188.5H226Z"/><path class="cls-4" d="M240.87,195.7a13.67,13.67,0,0,0,.08,1.88H239a17,17,0,0,0,.09-1.89v-4.47c0-.86,0-1.12,0-1.83a9,9,0,0,1-1.27,1.73,9.54,9.54,0,0,0-.71-2,13.5,13.5,0,0,0,3.4-6.62l1.8.49a35.73,35.73,0,0,1-1.52,3.79v6.34a13.78,13.78,0,0,0,4.25-5.86h-1.73a13.78,13.78,0,0,0-1.71.1v-1.81c.5,0,1.13.08,1.76.08h2.36v-1.48a9.38,9.38,0,0,0-.11-1.52h1.93a10.68,10.68,0,0,0-.1,1.54v1.46h3a16.42,16.42,0,0,0,1.86-.1v1.83a15,15,0,0,0-1.82-.1h-2.38a14.13,14.13,0,0,0,1.9,3.26,12.85,12.85,0,0,0,2.75,2.7,7.79,7.79,0,0,0-1.12,1.67,18,18,0,0,1-1.81-1.88v1.54a7.78,7.78,0,0,0-1.18-.07H247.5v1.3a12.48,12.48,0,0,0,.12,1.76h-1.93a13,13,0,0,0,.11-1.76v-1.3h-1.13a7.79,7.79,0,0,0-1.15.07v-1.52a11.69,11.69,0,0,1-1.7,1.76,6.14,6.14,0,0,0-.95-1.33ZM245.8,191c0-.84,0-1.18,0-1.94a14.58,14.58,0,0,1-2.17,3.87,10.24,10.24,0,0,0,1.07.05h1.06Zm2.89,2c.46,0,.71,0,1.08-.05a17.83,17.83,0,0,1-2.3-3.92c0,.91,0,1.29,0,1.94v2Z"/><path class="cls-4" d="M254.69,184.6a20,20,0,0,0,3.75.21,6.5,6.5,0,0,0,.65-2l2.12.23a11,11,0,0,0-.65,1.45l-.14.3c.13,0,.13,0,1-.07a21.49,21.49,0,0,0,4.24-.55l.11,1.85c-.45,0-.45,0-1.28.13-1.18.14-3.24.27-4.87.32a8.29,8.29,0,0,1-1.49,2.15l0,0,.32-.25a4,4,0,0,1,2.28-.73,2.13,2.13,0,0,1,2.32,1.72c1.24-.45,2.07-.74,2.48-.87a5.15,5.15,0,0,0,1.19-.49l.76,1.86a16.33,16.33,0,0,0-1.79.44c-.23.06-1,.34-2.43.82v.18c0,.42,0,.42,0,.65v.65c0,.27,0,.42,0,.53a7.12,7.12,0,0,0,.05.86l-1.88,0a13.46,13.46,0,0,0,.1-1.88v-.39a9.72,9.72,0,0,0-1.56.84,1.74,1.74,0,0,0-.84,1.33c0,.84.78,1.18,2.74,1.18a14,14,0,0,0,4.76-.68l.16,2.09a4.73,4.73,0,0,0-.75.07,30.55,30.55,0,0,1-4.14.29,7,7,0,0,1-3.61-.68,2.34,2.34,0,0,1-1.18-2.09,2.59,2.59,0,0,1,.71-1.8,8,8,0,0,1,3.48-2.28.88.88,0,0,0-1-.87,5.47,5.47,0,0,0-3.32,1.66,7.29,7.29,0,0,0-1.41,1.48l-1.47-1.46a10.11,10.11,0,0,0,1.46-1.44,21.9,21.9,0,0,0,1.94-2.77,1.12,1.12,0,0,1,.13-.21l-.27,0-2,0h-.72Z"/><path class="cls-4" d="M269.57,185.29a6.75,6.75,0,0,0,1.3.08h3.2a8.76,8.76,0,0,0,1.3-.06v1.63a8.58,8.58,0,0,0-1.23-.06h-3.27a11.58,11.58,0,0,0-1.3.06Zm.57,12.29a15,15,0,0,0,.08-1.57V193.6a12.65,12.65,0,0,0-.06-1.28,9.2,9.2,0,0,0,1.23.06h2.75a7.32,7.32,0,0,0,1.1,0,10.62,10.62,0,0,0-.05,1.16v2.35a10.91,10.91,0,0,0,.08,1.51h-1.63v-.56h-1.87v.78Zm0-14.55a10,10,0,0,0,1.36.06h2.29a9.88,9.88,0,0,0,1.35-.06v1.55a10.14,10.14,0,0,0-1.35-.06h-2.29a10.22,10.22,0,0,0-1.36.06Zm.05,4.71a9.29,9.29,0,0,0,1.07,0h2.86a8.34,8.34,0,0,0,1,0v1.5a10.24,10.24,0,0,0-1,0h-2.86a10.13,10.13,0,0,0-1.07,0Zm0,2.26a7.45,7.45,0,0,0,1.07.05h2.86a6.74,6.74,0,0,0,1-.05v1.51a10.1,10.1,0,0,0-1.07,0h-2.85a9.55,9.55,0,0,0-1,0Zm1.55,5.38h1.87v-1.6h-1.87Zm5.7-10.6c-.56,0-1.11,0-1.65.08v-1.78a13.26,13.26,0,0,0,1.73.09h5.07a12.44,12.44,0,0,0,1.7-.09v1.78c-.53-.05-1.08-.08-1.65-.08h-1.81v5.78H283a10.18,10.18,0,0,0,1.63-.09v1.8a13.68,13.68,0,0,0-1.68-.1h-2.07v3.34a13.4,13.4,0,0,0,.11,2h-2a14,14,0,0,0,.11-2v-3.32H277.2a12.52,12.52,0,0,0-1.64.1v-1.8a9.16,9.16,0,0,0,1.62.09h1.93v-5.78Zm-.27.64a22.51,22.51,0,0,1,1.36,4.12l-1.44.53a19.32,19.32,0,0,0-1.33-4.06Zm7.15.6a28.62,28.62,0,0,1-1.66,4l-1.38-.53a16.66,16.66,0,0,0,1.51-4.12Z"/><path class="cls-4" d="M286.87,190.9c0-.67,0-1,.05-1.77a10.53,10.53,0,0,1-1.08,1.67,10.24,10.24,0,0,0-.7-1.93,12.28,12.28,0,0,0,2.43-4.21,9.37,9.37,0,0,0,.6-2.23l1.75.71-.31.89a23.28,23.28,0,0,1-1.05,2.67v9a13,13,0,0,0,.08,1.87h-1.87a15.64,15.64,0,0,0,.1-1.89Zm11.76-3.58a11.47,11.47,0,0,0,1.45-.07,13,13,0,0,0-.06,1.52v6.72a17.9,17.9,0,0,0,.1,2h-1.85v-.89h-6.86v.89h-1.82a14.7,14.7,0,0,0,.1-1.78v-6.93a12.28,12.28,0,0,0-.08-1.56,12.17,12.17,0,0,0,1.49.07h1.52v-2.19h-.79c-.8,0-1.4,0-1.91.08v-1.79a15,15,0,0,0,1.91.09h6.76a16.18,16.18,0,0,0,2-.09v1.79a18.94,18.94,0,0,0-1.91-.08H297v2.19Zm-7.31,1.55v6.19h1.3v-6.19Zm4.1-3.74h-1.25v2.19h1.25Zm-1.25,9.93h1.25v-6.19h-1.25Zm2.81,0h1.35v-6.19H297Z"/><ellipse class="cls-6" cx="133.4" cy="36.26" rx="37.78" ry="36.26"/><path class="cls-7" d="M125,29.29c.08,2.3.08,2.61.14,5.25,3.62,0,4,0,6,0v1.63c-1.39.17-2.31.19-6,.35,0,2.36,0,4.74,0,7.1,3.52-.08,3.92-.1,7.21-.1v1.68c-2.32.21-10.58.51-16.37.51V44c1.65-.16,2.4-.19,7.08-.37,0-3.42-.06-5.23,0-7.12-3.94.1-4.38.1-6,.1v-1.7c1.64-.15,2.56-.19,6-.32,0-2.59,0-2.88.12-5.31Z"/><path class="cls-7" d="M138.24,30.07c0,1.9,0,2.53,0,4.81l1.6-.05v1.45c-.38,0-.82.11-1.6.17,0,2,0,2.3-.06,5.39.44-.16.84-.29,1.68-.56l.5,1.37a60.08,60.08,0,0,1-6,2.38l-.54-1.46c1.6-.71,2.35-1,2.79-1.14,0-3.43-.06-4,0-5.87l-2,.1V35.15l2-.17c0-2.19,0-2.4.09-4.93ZM144.72,43c0,.61,0,.93,0,1.37.72-.19,1.31-.3,2.07-.46l.32,1.36c-2.74.83-4.64,1.23-5.4,1.38l-.33-1.35,1.79-.53c0-.51,0-.88,0-1.58-1.05.78-1.52,1.14-3.12,2.23l-.88-1a42.17,42.17,0,0,1,3.41-2.57l-1.73.06V40.5c2-.13,4-.23,6-.28a3.07,3.07,0,0,1,0-.63v-.53c-.88,0-.95,0-1.77.07,0,.12,0,.63,0,.73h-1.43c0-.44,0-.48,0-.67l-1.41,0V38c.31,0,.34,0,1.39-.06V37c-.7,0-.93,0-1.6,0v-1c-.4.51-.82,1-1.69,2l-1.07-.84a29.21,29.21,0,0,1,3.56-4.36l1,.82c-.32.46-.78,1.08-1.68,2.21l1.57-.08c0-.89,0-1,0-1.87h1.3c0,.54,0,1,0,1.74l1.7,0c0-.88,0-1.28,0-1.71h1.43c0,.21,0,1.6,0,1.69.38,0,1.11,0,1.53,0v1.22c-.71,0-.78,0-1.43.06v.91c1,0,1.16,0,1.33,0v1.2c-.15,0-.28,0-1.35.08,0,.72,0,.78,0,1.18,1.16,0,1.41,0,3.33-.06v1.3c-3.62.19-4.76.23-6.74.3-.3.27-1,.84-1.54,1.26Zm6.78-10.51c-4.63.23-8.36.34-10.92.4V31.42c4.78-.29,8.25-.34,10.92-.38Zm-4.23-2.63A1.17,1.17,0,0,1,146,30.89a1.29,1.29,0,0,1-1.35-1.2,1.17,1.17,0,0,1,1.3-1.11A1.26,1.26,0,0,1,147.27,29.82Zm-.4,7.08-1.68.08c0,.06,0,.69,0,.86l1.72-.06C146.87,37.44,146.87,37.28,146.87,36.9Zm3.88,9.71a43,43,0,0,1-5.27-3.94l1-1a58.22,58.22,0,0,1,5.14,3.91Zm.61-9.36c-.83-1-1.62-2-2.85-3.68l1.18-.74a33.05,33.05,0,0,1,2.8,3.62ZM151.25,43a.91.91,0,0,1-1,.85,1.07,1.07,0,0,1-1.14-.95.92.92,0,0,1,1-.89A1.06,1.06,0,0,1,151.25,43Z"/><path class="cls-8" d="M125,29.29c.08,2.3.08,2.61.14,5.25,3.62,0,4,0,6,0v1.63c-1.39.17-2.31.19-6,.35,0,2.36,0,4.74,0,7.1,3.52-.08,3.92-.1,7.21-.1v1.68c-2.32.21-10.58.51-16.37.51V44c1.65-.16,2.4-.19,7.08-.37,0-3.42-.06-5.23,0-7.12-3.94.1-4.38.1-6,.1v-1.7c1.64-.15,2.56-.19,6-.32,0-2.59,0-2.88.12-5.31Z"/><path class="cls-8" d="M138.24,30.07c0,1.9,0,2.53,0,4.81l1.6-.05v1.45c-.38,0-.82.11-1.6.17,0,2,0,2.3-.06,5.39.44-.16.84-.29,1.68-.56l.5,1.37a60.08,60.08,0,0,1-6,2.38l-.54-1.46c1.6-.71,2.35-1,2.79-1.14,0-3.43-.06-4,0-5.87l-2,.1V35.15l2-.17c0-2.19,0-2.4.09-4.93ZM144.72,43c0,.61,0,.93,0,1.37.72-.19,1.31-.3,2.07-.46l.32,1.36c-2.74.83-4.64,1.23-5.4,1.38l-.33-1.35,1.79-.53c0-.51,0-.88,0-1.58-1.05.78-1.52,1.14-3.12,2.23l-.88-1a42.17,42.17,0,0,1,3.41-2.57l-1.73.06V40.5c2-.13,4-.23,6-.28a3.07,3.07,0,0,1,0-.63v-.53c-.88,0-.95,0-1.77.07,0,.12,0,.63,0,.73h-1.43c0-.44,0-.48,0-.67l-1.41,0V38c.31,0,.34,0,1.39-.06V37c-.7,0-.93,0-1.6,0v-1c-.4.51-.82,1-1.69,2l-1.07-.84a29.21,29.21,0,0,1,3.56-4.36l1,.82c-.32.46-.78,1.08-1.68,2.21l1.57-.08c0-.89,0-1,0-1.87h1.3c0,.54,0,1,0,1.74l1.7,0c0-.88,0-1.28,0-1.71h1.43c0,.21,0,1.6,0,1.69.38,0,1.11,0,1.53,0v1.22c-.71,0-.78,0-1.43.06v.91c1,0,1.16,0,1.33,0v1.2c-.15,0-.28,0-1.35.08,0,.72,0,.78,0,1.18,1.16,0,1.41,0,3.33-.06v1.3c-3.62.19-4.76.23-6.74.3-.3.27-1,.84-1.54,1.26Zm6.78-10.51c-4.63.23-8.36.34-10.92.4V31.42c4.78-.29,8.25-.34,10.92-.38Zm-4.23-2.63A1.17,1.17,0,0,1,146,30.89a1.29,1.29,0,0,1-1.35-1.2,1.17,1.17,0,0,1,1.3-1.11A1.26,1.26,0,0,1,147.27,29.82Zm-.4,7.08-1.68.08c0,.06,0,.69,0,.86l1.72-.06C146.87,37.44,146.87,37.28,146.87,36.9Zm3.88,9.71a43,43,0,0,1-5.27-3.94l1-1a58.22,58.22,0,0,1,5.14,3.91Zm.61-9.36c-.83-1-1.62-2-2.85-3.68l1.18-.74a33.05,33.05,0,0,1,2.8,3.62ZM151.25,43a.91.91,0,0,1-1,.85,1.07,1.07,0,0,1-1.14-.95.92.92,0,0,1,1-.89A1.06,1.06,0,0,1,151.25,43Z"/><ellipse class="cls-6" cx="133.4" cy="115.23" rx="37.78" ry="36.26"/><path class="cls-7" d="M121.75,114.06c-.48.08-1.07.15-2.15.23,0,2.36,0,2.61.06,4,1-.44,1.27-.52,1.67-.69l.61,1.41c-.44.25-1.08.61-2.28,1.24,0,1.77,0,2.4-.06,5.18a17,17,0,0,1-3.45-.27l.08-1.54c.65,0,1,0,1.66,0,0-.65-.06-1.68-.08-2.53-1.3.57-1.89.78-2.36,1l-.65-1.37c.52-.31,1.39-.8,3-1.58,0-.48,0-2.56-.06-3V114.4c-1.2,0-1.58,0-2.17,0l0-1.52c.46-.06,1-.13,2.19-.23,0-2,0-2.3.1-4.72h1.6c.09,2.48.09,2.5.13,4.63.94,0,1.6,0,2.17,0Zm10.46,11.37a54,54,0,0,1-5.13-2.93,40.27,40.27,0,0,1-4.4,3.24l-1-1.17c.55-.43,1.33-1.08,2-1.65l1.81-1.51c-.07,0-.76-.53-2.09-1.54l.95-1.1c.76.42,2.15,1.21,2.52,1.44.41-.36,2.28-2,2.64-2.34-1.9.15-4.3.29-6.66.29l0-1.53c2-.21,3.08-.26,3.69-.3,0-.52-.07-2.82-.09-3.28-1.56,0-2.19,0-3.94,0l0-1.56c1.18-.11,1.46-.13,4-.27,0-1.71.09-2.8.13-3.48h1.64c0,.68.09,1.77.13,3.39,1.28,0,3.2-.06,4.55,0l.06,1.5c-.93.08-3.1.27-4.59.33,0,.76,0,2.11-.06,3.27,1.15,0,2.42-.09,4.78,0a40.65,40.65,0,0,1-4.53,5c1.52,1,3.05,1.94,4.53,3Z"/><path class="cls-7" d="M133.73,118.27a46.33,46.33,0,0,1,4.43-5.45l1.18,1a8.86,8.86,0,0,1-.53.75c-1.05,1.27-2,2.36-2.42,2.89l1.51,0c.07,1,.07,2.61.07,3.5,0,1.34,0,3.2-.09,4.48l-1.53,0c-.09-1.53-.11-3.22-.11-4.72,0-1.72,0-2.42.08-3.18-.44.51-1.07,1.23-1.53,1.67Zm5.58-9.31c-.73,1-3.11,3.6-4,4.47l-1.18-1a37.34,37.34,0,0,1,4.09-4.52Zm2,10.15a23.35,23.35,0,0,1-1.94,4.3l-1.37-.63a28.34,28.34,0,0,1,2-4.28Zm4.23-3.85c-.21,0-1.58.15-1.9.17,0,3.28,0,6.53,0,9.81h-1.66c-.07-3.22-.13-6.49-.11-9.71a21.13,21.13,0,0,1-2.42,0V114.1c.61-.09,1.2-.15,2.44-.23,0-1.92,0-3.83.07-5.75l1.6,0c.08,2.57.08,3.52.1,5.7,1,0,1.48,0,1.94,0Zm.61-3.35a1,1,0,0,1-1,1,1.23,1.23,0,0,1-1.18-1.22,1,1,0,0,1,1-1A1.16,1.16,0,0,1,146.14,111.91Zm.65,9a1.17,1.17,0,0,1-1.16,1.16,1.47,1.47,0,0,1-1.36-1.49,1.14,1.14,0,0,1,1.21-1.12A1.46,1.46,0,0,1,146.79,120.9Zm5.41-4.38c-1.24.19-5.79.28-6.42.26v-1.46a55.61,55.61,0,0,1,6.42-.32Zm-.27-6c-1,.15-4.74.28-5.54.25v-1.47a36.39,36.39,0,0,1,4.57-.29c.15,0,.57,0,1,0Zm-5.12,13.06c.26,0,1.43.06,1.67.08,0-1.51,0-3.16,0-3.34a25.08,25.08,0,0,1,.09-2.91h1.62c0,.59.09,1.45.09,3.64,0,.87,0,2.59-.07,4.32a24.62,24.62,0,0,1-3.54-.3Z"/><path class="cls-8" d="M121.75,114.06c-.48.08-1.07.15-2.15.23,0,2.36,0,2.61.06,4,1-.44,1.27-.52,1.67-.69l.61,1.41c-.44.25-1.08.61-2.28,1.24,0,1.77,0,2.4-.06,5.18a17,17,0,0,1-3.45-.27l.08-1.54c.65,0,1,0,1.66,0,0-.65-.06-1.68-.08-2.53-1.3.57-1.89.78-2.36,1l-.65-1.37c.52-.31,1.39-.8,3-1.58,0-.48,0-2.56-.06-3V114.4c-1.2,0-1.58,0-2.17,0l0-1.52c.46-.06,1-.13,2.19-.23,0-2,0-2.3.1-4.72h1.6c.09,2.48.09,2.5.13,4.63.94,0,1.6,0,2.17,0Zm10.46,11.37a54,54,0,0,1-5.13-2.93,40.27,40.27,0,0,1-4.4,3.24l-1-1.17c.55-.43,1.33-1.08,2-1.65l1.81-1.51c-.07,0-.76-.53-2.09-1.54l.95-1.1c.76.42,2.15,1.21,2.52,1.44.41-.36,2.28-2,2.64-2.34-1.9.15-4.3.29-6.66.29l0-1.53c2-.21,3.08-.26,3.69-.3,0-.52-.07-2.82-.09-3.28-1.56,0-2.19,0-3.94,0l0-1.56c1.18-.11,1.46-.13,4-.27,0-1.71.09-2.8.13-3.48h1.64c0,.68.09,1.77.13,3.39,1.28,0,3.2-.06,4.55,0l.06,1.5c-.93.08-3.1.27-4.59.33,0,.76,0,2.11-.06,3.27,1.15,0,2.42-.09,4.78,0a40.65,40.65,0,0,1-4.53,5c1.52,1,3.05,1.94,4.53,3Z"/><path class="cls-8" d="M133.73,118.27a46.33,46.33,0,0,1,4.43-5.45l1.18,1a8.86,8.86,0,0,1-.53.75c-1.05,1.27-2,2.36-2.42,2.89l1.51,0c.07,1,.07,2.61.07,3.5,0,1.34,0,3.2-.09,4.48l-1.53,0c-.09-1.53-.11-3.22-.11-4.72,0-1.72,0-2.42.08-3.18-.44.51-1.07,1.23-1.53,1.67Zm5.58-9.31c-.73,1-3.11,3.6-4,4.47l-1.18-1a37.34,37.34,0,0,1,4.09-4.52Zm2,10.15a23.35,23.35,0,0,1-1.94,4.3l-1.37-.63a28.34,28.34,0,0,1,2-4.28Zm4.23-3.85c-.21,0-1.58.15-1.9.17,0,3.28,0,6.53,0,9.81h-1.66c-.07-3.22-.13-6.49-.11-9.71a21.13,21.13,0,0,1-2.42,0V114.1c.61-.09,1.2-.15,2.44-.23,0-1.92,0-3.83.07-5.75l1.6,0c.08,2.57.08,3.52.1,5.7,1,0,1.48,0,1.94,0Zm.61-3.35a1,1,0,0,1-1,1,1.23,1.23,0,0,1-1.18-1.22,1,1,0,0,1,1-1A1.16,1.16,0,0,1,146.14,111.91Zm.65,9a1.17,1.17,0,0,1-1.16,1.16,1.47,1.47,0,0,1-1.36-1.49,1.14,1.14,0,0,1,1.21-1.12A1.46,1.46,0,0,1,146.79,120.9Zm5.41-4.38c-1.24.19-5.79.28-6.42.26v-1.46a55.61,55.61,0,0,1,6.42-.32Zm-.27-6c-1,.15-4.74.28-5.54.25v-1.47a36.39,36.39,0,0,1,4.57-.29c.15,0,.57,0,1,0Zm-5.12,13.06c.26,0,1.43.06,1.67.08,0-1.51,0-3.16,0-3.34a25.08,25.08,0,0,1,.09-2.91h1.62c0,.59.09,1.45.09,3.64,0,.87,0,2.59-.07,4.32a24.62,24.62,0,0,1-3.54-.3Z"/><ellipse class="cls-6" cx="212.14" cy="115.23" rx="37.78" ry="36.26"/><path class="cls-7" d="M184,117.68c1.18-2.82,2.27-5.07,3-6.53.4-.8.72-1.34.95-1.72l1.45.63a61.67,61.67,0,0,1-4,8.32Zm16-3.5c-.32,0-.59.07-.95.09l-4.57.23c0,1.41,0,1.62,0,3.33.74,0,4-.07,4.66-.07v1.61c-.44.06-.66.08-1,.1l-3.69.17c0,.21-.06,3-.06,3.39,1.22-.06,1.49-.06,7-.06v1.64c-5.31.36-10.63.44-15.94.44v-1.6c.48,0,.94-.1,1.58-.13,1.32-.08,1.89-.1,5.45-.23,0-1.45-.06-3.13-.06-3.35-.51,0-2.82.07-3.27.07h-.9v-1.62c1-.09,2.12-.21,4.17-.28,0-1.11,0-2.23,0-3.33-.49,0-2.66,0-3.1.07h-.92V113c.75-.07,3.16-.23,4-.28,0-3.24.08-3.89.15-4.84h1.77c0,.36,0,.69.12,3.47v1.31l4.55-.09h1Z"/><path class="cls-7" d="M202.78,125.09c.27-.67,1.32-3.64,1.53-4.25.53-1.41,1.06-2.8,1.65-4.19l1.45.5a41.91,41.91,0,0,1-3.16,8.51Zm10.67-11a12.56,12.56,0,0,1,1.63-2.25l1.24.82a11.76,11.76,0,0,1-1.31,1.89c2.19-.06,3-.08,4.87-.08V116c-2.11.17-11.46.45-15.14.45V115c3.13-.24,6.27-.36,9.39-.43Zm5.71-2.66c-1.41.13-12.26.59-14,.59v-1.51c.83-.08,7.12-.51,14-.51Zm-9.46,9.84c.74-.08,1.75-.13,2.62-.19v-1l-1.71.08h-.51l0-1.22a32.36,32.36,0,0,1-2.48,3.5l-1.2-.8a54.74,54.74,0,0,1,3.35-4.87l1.15.72a11.68,11.68,0,0,1-.73,1.3c.42-.06.92-.12,2.17-.19,0-.63,0-1.09.08-1.6l1.62,0c0,.26,0,.4.05,1.52l2.75-.06a4.09,4.09,0,0,1,.7,0l0,1.34c-.53.07-2.93.19-3.43.21,0,.17,0,.89,0,1,.44,0,2.4-.07,2.8-.07l0,1.25a27.22,27.22,0,0,1-2.84.21v1.17c2.5-.06,2.74-.06,5.09-.06v1.43c-1.6.15-4,.21-5.72.26-2.19.08-3.77.08-5.79.08v-1.35c1.41-.14,1.53-.14,4.61-.29v-1.18l-2.64.06Zm.09-6.86a1.13,1.13,0,0,1-1.2-1.1,1.09,1.09,0,0,1,1.11-1.07,1.25,1.25,0,0,1,1.21,1.13A1.07,1.07,0,0,1,209.79,114.38Zm3.83-5.69a1.2,1.2,0,0,1-1.28,1.12c-.55,0-1.46-.36-1.46-1.25s1-1.2,1.31-1.2A1.41,1.41,0,0,1,213.62,108.69Z"/><path class="cls-7" d="M239.49,114.48c-3.27.21-14.22.53-16.49.53V113.7c5.49-.29,11-.51,16.49-.51Zm-11.38,1.3c3.71-.29,5.46-.37,9-.37,0,.4.08,1.28.08,2.33s-.06,2-.1,2.53l-5,.19v.82l5.29,0h.5v1.22c-.75.06-2.18.09-3,.13l-2.83.12c0,.15,0,.76,0,.89,4.53-.09,4.55-.09,7.37-.09V125c-5.11.29-12.63.36-16.06.31v-1.39c1.74-.1,2.25-.12,6.9-.25,0-.13,0-.76,0-.88-.8,0-4.36.08-5.09.06v-1.29c.8,0,4.35-.17,5.07-.19v-.82c-.71,0-3.77.07-4.4.07-.06-1.12-.08-1.92-.08-2.66,0-1.11.06-1.87.08-2.38l1.64,0c0,.78,0,1.29.06,2.07l2.72-.13c0-.09,0-.51,0-.61-1.72.06-1.91.06-2.17.08Zm4.32-5c-1.54.1-1.79.12-5,.21v.61c2.3-.13,2.63-.13,7.79-.3,0-.23,0-.57,0-1s0-.76,0-1.09c-2.67.16-4.46.18-7.35.18v-1.13c3-.17,6.07-.26,9.12-.24,0,.41.06,1.27.06,2.32s0,1.65-.06,2.13c-4.57.23-7.14.34-11.27.38,0-.4-.08-1.2-.08-2.49s0-2,.08-2.46l1.65,0c0,.63,0,1.35.06,2.17,1.66,0,3.58-.13,5-.15Zm-4.91,7.77c0,.2,0,.27,0,.75l2.74-.12v-.68Zm4.53-1.16c1.22,0,1.64,0,2,0v.95c-.13,0-1,0-2,.08l0,.67c1,0,2.09,0,3.14-.08h.19c0-.7,0-1.39,0-2.44l-.21,0c-1.58.06-1.75.08-3.16.14Z"/><path class="cls-8" d="M184,117.68c1.18-2.82,2.27-5.07,3-6.53.4-.8.72-1.34.95-1.72l1.45.63a61.67,61.67,0,0,1-4,8.32Zm16-3.5c-.32,0-.59.07-.95.09l-4.57.23c0,1.41,0,1.62,0,3.33.74,0,4-.07,4.66-.07v1.61c-.44.06-.66.08-1,.1l-3.69.17c0,.21-.06,3-.06,3.39,1.22-.06,1.49-.06,7-.06v1.64c-5.31.36-10.63.44-15.94.44v-1.6c.48,0,.94-.1,1.58-.13,1.32-.08,1.89-.1,5.45-.23,0-1.45-.06-3.13-.06-3.35-.51,0-2.82.07-3.27.07h-.9v-1.62c1-.09,2.12-.21,4.17-.28,0-1.11,0-2.23,0-3.33-.49,0-2.66,0-3.1.07h-.92V113c.75-.07,3.16-.23,4-.28,0-3.24.08-3.89.15-4.84h1.77c0,.36,0,.69.12,3.47v1.31l4.55-.09h1Z"/><path class="cls-8" d="M202.78,125.09c.27-.67,1.32-3.64,1.53-4.25.53-1.41,1.06-2.8,1.65-4.19l1.45.5a41.91,41.91,0,0,1-3.16,8.51Zm10.67-11a12.56,12.56,0,0,1,1.63-2.25l1.24.82a11.76,11.76,0,0,1-1.31,1.89c2.19-.06,3-.08,4.87-.08V116c-2.11.17-11.46.45-15.14.45V115c3.13-.24,6.27-.36,9.39-.43Zm5.71-2.66c-1.41.13-12.26.59-14,.59v-1.51c.83-.08,7.12-.51,14-.51Zm-9.46,9.84c.74-.08,1.75-.13,2.62-.19v-1l-1.71.08h-.51l0-1.22a32.36,32.36,0,0,1-2.48,3.5l-1.2-.8a54.74,54.74,0,0,1,3.35-4.87l1.15.72a11.68,11.68,0,0,1-.73,1.3c.42-.06.92-.12,2.17-.19,0-.63,0-1.09.08-1.6l1.62,0c0,.26,0,.4.05,1.52l2.75-.06a4.09,4.09,0,0,1,.7,0l0,1.34c-.53.07-2.93.19-3.43.21,0,.17,0,.89,0,1,.44,0,2.4-.07,2.8-.07l0,1.25a27.22,27.22,0,0,1-2.84.21v1.17c2.5-.06,2.74-.06,5.09-.06v1.43c-1.6.15-4,.21-5.72.26-2.19.08-3.77.08-5.79.08v-1.35c1.41-.14,1.53-.14,4.61-.29v-1.18l-2.64.06Zm.09-6.86a1.13,1.13,0,0,1-1.2-1.1,1.09,1.09,0,0,1,1.11-1.07,1.25,1.25,0,0,1,1.21,1.13A1.07,1.07,0,0,1,209.79,114.38Zm3.83-5.69a1.2,1.2,0,0,1-1.28,1.12c-.55,0-1.46-.36-1.46-1.25s1-1.2,1.31-1.2A1.41,1.41,0,0,1,213.62,108.69Z"/><path class="cls-8" d="M239.49,114.48c-3.27.21-14.22.53-16.49.53V113.7c5.49-.29,11-.51,16.49-.51Zm-11.38,1.3c3.71-.29,5.46-.37,9-.37,0,.4.08,1.28.08,2.33s-.06,2-.1,2.53l-5,.19v.82l5.29,0h.5v1.22c-.75.06-2.18.09-3,.13l-2.83.12c0,.15,0,.76,0,.89,4.53-.09,4.55-.09,7.37-.09V125c-5.11.29-12.63.36-16.06.31v-1.39c1.74-.1,2.25-.12,6.9-.25,0-.13,0-.76,0-.88-.8,0-4.36.08-5.09.06v-1.29c.8,0,4.35-.17,5.07-.19v-.82c-.71,0-3.77.07-4.4.07-.06-1.12-.08-1.92-.08-2.66,0-1.11.06-1.87.08-2.38l1.64,0c0,.78,0,1.29.06,2.07l2.72-.13c0-.09,0-.51,0-.61-1.72.06-1.91.06-2.17.08Zm4.32-5c-1.54.1-1.79.12-5,.21v.61c2.3-.13,2.63-.13,7.79-.3,0-.23,0-.57,0-1s0-.76,0-1.09c-2.67.16-4.46.18-7.35.18v-1.13c3-.17,6.07-.26,9.12-.24,0,.41.06,1.27.06,2.32s0,1.65-.06,2.13c-4.57.23-7.14.34-11.27.38,0-.4-.08-1.2-.08-2.49s0-2,.08-2.46l1.65,0c0,.63,0,1.35.06,2.17,1.66,0,3.58-.13,5-.15Zm-4.91,7.77c0,.2,0,.27,0,.75l2.74-.12v-.68Zm4.53-1.16c1.22,0,1.64,0,2,0v.95c-.13,0-1,0-2,.08l0,.67c1,0,2.09,0,3.14-.08h.19c0-.7,0-1.39,0-2.44l-.21,0c-1.58.06-1.75.08-3.16.14Z"/><ellipse class="cls-6" cx="212.14" cy="36.26" rx="37.78" ry="36.26"/><path class="cls-7" d="M192.45,45.28a16.35,16.35,0,0,1,3.14-2.34l.82,1.16a19.45,19.45,0,0,1-3,2.34Zm5.23-9.48a17.62,17.62,0,0,1-1.9.17v1.7a13,13,0,0,1,1.87-.1l0,1.56a12,12,0,0,1-1.94.19v1.87c1.18-.1,2.19-.14,3.16-.15-.07-2.21-.09-4.56-.09-5.79,0-1.45,0-2.57,0-3.83a19.14,19.14,0,0,1-2.44.11l0-1.62a29.05,29.05,0,0,1,4.23-.22c0,1.88.09,3.84.09,5.75,0,2.38-.06,4.78-.17,7.16a59.6,59.6,0,0,1-6.47.32c-.12-2.3-.17-4.63-.17-7s0-4.38.15-6.53l1.6,0c0,1.73,0,1.9.11,4.93a11.81,11.81,0,0,1,1.91,0Zm2.44,8.82A1.16,1.16,0,0,1,199,45.78a1.2,1.2,0,0,1-1.16-1.2,1.13,1.13,0,0,1,1.06-1.13A1.18,1.18,0,0,1,200.12,44.62ZM200,46.16c.84-3.66,1.49-7.33,2.11-11,.14-.87.78-5.06.86-5.46l1.6.24a71.91,71.91,0,0,1-3.16,16.57Zm4.42-6.55,1.5,1.12.06.06c.76-1.09,1-1.45,1.71-2.53a29.11,29.11,0,0,1-3.6.17V36.88a41.76,41.76,0,0,1,6.33-.32,41.22,41.22,0,0,1-3,5.37l.3.25c1.58,1.26,2.7,2.3,3.24,2.82l-.9,1.14a40.41,40.41,0,0,1-3.69-2.76,35,35,0,0,1-2.52,2.93l-1.29-.89c.91-1.18,1.05-1.39,2.4-3.26-1-.88-1.26-1.16-1.58-1.49Zm6.19-8a42.19,42.19,0,0,1-5.6.34l0-1.48a35.16,35.16,0,0,1,5.62-.36Z"/><path class="cls-7" d="M220.09,43.76c-3.54,1.31-4.43,1.64-7.9,2.67l-.53-1.51c1.25-.49,2.66-1,3.75-1.35,0-1.13-.06-2.13-.06-2.86,0-1.71.06-2.63.08-3.12l1.52,0c.14,2.21.12,3.58.08,5.5.72-.22,1.48-.45,2.59-.76Zm9.2-1.94-1.67-1.18c0,1.6.07,2.34.07,3,0,1.09,0,1.79-.05,2.31-2.57.19-4.06.23-6.57.21,0-.46-.06-1.66-.06-2.88,0-.68,0-1.54,0-2.55L219.64,42l-1.15-1c.54-.56,1.57-1.58,2.94-3,.13-.15.78-.82,1.22-1.29-.78-.71-1-1-1.3-1.19l1-1.1c.06.06,1,.74,1.39,1.07,1.88-2.06,2.09-2.29,2.32-2.56a22.88,22.88,0,0,1-2.8.21V32c-1.2,1.51-1.67,2.1-3.1,3.68l-1-.88c0,.95,0,1.49-.08,1.89-2.36.2-3.71.26-6.15.32-.07-1.81-.09-2.89-.09-3.71,0-1.6.07-3.13.09-3.72h1.6c.1,1.81.12,3.93.06,5.75.44,0,1.6-.13,2.87-.17,0-.78-.09-2.3,0-3.63a18.74,18.74,0,0,1-2.31.09V30a27.94,27.94,0,0,1,4-.19c.12,2.19.1,4.23.1,4.45a67.39,67.39,0,0,1,4.66-5.76l1.22,1c-.45.63-1,1.32-1.44,2a53.61,53.61,0,0,1,5.8-.32,49.5,49.5,0,0,1-4.26,5.37c1.64,1.24,2.63,2,5,4.08Zm-14.81-2.76c0,.38.05,1.33.05,2.15,0,.63,0,1.31-.07,2.32h-1.35c0-.46-.08-1.05-.08-2.06s0-1.79.08-2.41Zm5,.49a1.06,1.06,0,0,1-1.16,1,1,1,0,0,1-1.06-1,1.07,1.07,0,0,1,1.08-1.05A1.11,1.11,0,0,1,219.52,39.55Zm3.7.67A29.66,29.66,0,0,1,226.8,40c-1.24-.94-1.81-1.39-2.78-2.19-.4.4-1,1.06-2,2h.68c.08,1.9.08,2.76,0,4.72,1.45-.1,2.38-.12,3.16-.13,0-1-.06-1.85,0-2.8a21.69,21.69,0,0,1-2.66.07Z"/><path class="cls-8" d="M192.45,45.28a16.35,16.35,0,0,1,3.14-2.34l.82,1.16a19.45,19.45,0,0,1-3,2.34Zm5.23-9.48a17.62,17.62,0,0,1-1.9.17v1.7a13,13,0,0,1,1.87-.1l0,1.56a12,12,0,0,1-1.94.19v1.87c1.18-.1,2.19-.14,3.16-.15-.07-2.21-.09-4.56-.09-5.79,0-1.45,0-2.57,0-3.83a19.14,19.14,0,0,1-2.44.11l0-1.62a29.05,29.05,0,0,1,4.23-.22c0,1.88.09,3.84.09,5.75,0,2.38-.06,4.78-.17,7.16a59.6,59.6,0,0,1-6.47.32c-.12-2.3-.17-4.63-.17-7s0-4.38.15-6.53l1.6,0c0,1.73,0,1.9.11,4.93a11.81,11.81,0,0,1,1.91,0Zm2.44,8.82A1.16,1.16,0,0,1,199,45.78a1.2,1.2,0,0,1-1.16-1.2,1.13,1.13,0,0,1,1.06-1.13A1.18,1.18,0,0,1,200.12,44.62ZM200,46.16c.84-3.66,1.49-7.33,2.11-11,.14-.87.78-5.06.86-5.46l1.6.24a71.91,71.91,0,0,1-3.16,16.57Zm4.42-6.55,1.5,1.12.06.06c.76-1.09,1-1.45,1.71-2.53a29.11,29.11,0,0,1-3.6.17V36.88a41.76,41.76,0,0,1,6.33-.32,41.22,41.22,0,0,1-3,5.37l.3.25c1.58,1.26,2.7,2.3,3.24,2.82l-.9,1.14a40.41,40.41,0,0,1-3.69-2.76,35,35,0,0,1-2.52,2.93l-1.29-.89c.91-1.18,1.05-1.39,2.4-3.26-1-.88-1.26-1.16-1.58-1.49Zm6.19-8a42.19,42.19,0,0,1-5.6.34l0-1.48a35.16,35.16,0,0,1,5.62-.36Z"/><path class="cls-8" d="M220.09,43.76c-3.54,1.31-4.43,1.64-7.9,2.67l-.53-1.51c1.25-.49,2.66-1,3.75-1.35,0-1.13-.06-2.13-.06-2.86,0-1.71.06-2.63.08-3.12l1.52,0c.14,2.21.12,3.58.08,5.5.72-.22,1.48-.45,2.59-.76Zm9.2-1.94-1.67-1.18c0,1.6.07,2.34.07,3,0,1.09,0,1.79-.05,2.31-2.57.19-4.06.23-6.57.21,0-.46-.06-1.66-.06-2.88,0-.68,0-1.54,0-2.55L219.64,42l-1.15-1c.54-.56,1.57-1.58,2.94-3,.13-.15.78-.82,1.22-1.29-.78-.71-1-1-1.3-1.19l1-1.1c.06.06,1,.74,1.39,1.07,1.88-2.06,2.09-2.29,2.32-2.56a22.88,22.88,0,0,1-2.8.21V32c-1.2,1.51-1.67,2.1-3.1,3.68l-1-.88c0,.95,0,1.49-.08,1.89-2.36.2-3.71.26-6.15.32-.07-1.81-.09-2.89-.09-3.71,0-1.6.07-3.13.09-3.72h1.6c.1,1.81.12,3.93.06,5.75.44,0,1.6-.13,2.87-.17,0-.78-.09-2.3,0-3.63a18.74,18.74,0,0,1-2.31.09V30a27.94,27.94,0,0,1,4-.19c.12,2.19.1,4.23.1,4.45a67.39,67.39,0,0,1,4.66-5.76l1.22,1c-.45.63-1,1.32-1.44,2a53.61,53.61,0,0,1,5.8-.32,49.5,49.5,0,0,1-4.26,5.37c1.64,1.24,2.63,2,5,4.08Zm-14.81-2.76c0,.38.05,1.33.05,2.15,0,.63,0,1.31-.07,2.32h-1.35c0-.46-.08-1.05-.08-2.06s0-1.79.08-2.41Zm5,.49a1.06,1.06,0,0,1-1.16,1,1,1,0,0,1-1.06-1,1.07,1.07,0,0,1,1.08-1.05A1.11,1.11,0,0,1,219.52,39.55Zm3.7.67A29.66,29.66,0,0,1,226.8,40c-1.24-.94-1.81-1.39-2.78-2.19-.4.4-1,1.06-2,2h.68c.08,1.9.08,2.76,0,4.72,1.45-.1,2.38-.12,3.16-.13,0-1-.06-1.85,0-2.8a21.69,21.69,0,0,1-2.66.07Z"/><path class="cls-7" d="M106.45,83.17A24.22,24.22,0,0,1,109,79l1.54.87A21.55,21.55,0,0,1,108,84Zm.32-7.83c.55-.14,1.12-.3,2.72-.6A40.44,40.44,0,0,1,113,68.3l1.54.89a45.81,45.81,0,0,1-2.61,5.14l1.62-.27a7.55,7.55,0,0,1-.18-.87l1.67-.48a18.82,18.82,0,0,1,1.21,4.36l-1.6.44a7.62,7.62,0,0,1-.57-1.58,65.08,65.08,0,0,1-7,1.28Zm6.51-10.21c-1.73,2.28-2.21,2.9-3.49,4.4a9,9,0,0,1,1.28,1.17l-1.28,1.39a12.43,12.43,0,0,1-2.68-2.33,54,54,0,0,1,4.82-5.8Zm-.64,11.76c0,.5.09,1.12.09,3.68,0,1.6,0,3.38-.13,4.82h-2a27,27,0,0,1-.09-2.77c0-1.92,0-3.81.18-5.71Zm3.25,3.75a1.19,1.19,0,0,1-1.21,1.12c-1,0-1.4-1.17-1.4-1.67A1.09,1.09,0,0,1,114.47,79,1.61,1.61,0,0,1,115.89,80.64Zm2.92.5A26.35,26.35,0,0,1,115.43,85L114.1,84A23,23,0,0,1,117.55,80ZM120,66.73a39,39,0,0,1-3.7,4.4L114.93,70a35.15,35.15,0,0,1,3.67-4.39Zm2.42,3a7.58,7.58,0,0,1-.32,1c-.32.9-.45,1.24-1.3,3.34,2.08-.32,3.18-.39,3.81-.43l.26,1.78c-2.52.55-6.61,1-8.14,1.12l-.2-1.76c.46-.09.59-.12,1.94-.32a39.89,39.89,0,0,1,2.26-5.37Zm-1,7.65c.16,2.1.09,4.87.09,5.48.14,0,4-.11,4.18-.13A16,16,0,0,1,126.92,81l1.53.84a14.5,14.5,0,0,1-1.67,3c-2.44.21-6.19.21-7.24.21a22.18,22.18,0,0,1-.11-3c0-1.37,0-3.19.11-4.57ZM126.9,71a29.14,29.14,0,0,1-3-4.27,20.87,20.87,0,0,1-2.4.16L121.35,65a19.57,19.57,0,0,1,3.49-.41c.25.32,2.19,3.09,3,4.37a6.33,6.33,0,0,1,.57,1ZM124.27,80a1.09,1.09,0,0,1-1.14,1,1.24,1.24,0,0,1-1.24-1.3A1,1,0,0,1,123,78.56C123.9,78.56,124.27,79.56,124.27,80Zm2.19-3.31a24.86,24.86,0,0,1-2-4.34l1.64-.69A25.18,25.18,0,0,1,128.13,76Zm.69,3.38a1,1,0,0,1-1.08,1,1.22,1.22,0,0,1-1.32-1.23,1.09,1.09,0,0,1,1.16-1.1A1.22,1.22,0,0,1,127.15,80.11Z"/><path class="cls-7" d="M142.11,65c-3.63,3.66-7.15,7-11.53,10.79l-1.28-1.31a120.67,120.67,0,0,1,11.51-10.82Zm-5.36,12c.06,3,.06,3.48,0,5.76,2.31-.07,4.77-.16,7.08-.16a30.9,30.9,0,0,1,0-3.36c-1.63.07-5.39.14-6.1.14l-.07-1.87c3.36-.25,4.73-.3,8.41-.3,0,.73.09,1.85.09,3.33,0,1.81-.09,3.09-.14,4.14-4.73.25-5.69.25-11.42.25,0-.82-.09-2-.09-3.36,0-1.71.09-3.22.16-4.59Zm8.68-2.21c-5,.3-5.74.34-10.37.36V73.28a94.73,94.73,0,0,1,10.34-.46Zm5.07,1.48a95.14,95.14,0,0,1-9.64-9L142.2,66a94.82,94.82,0,0,1,9.53,8.93Z"/><path class="cls-7" d="M158.34,77.71c-1.49.09-1.65.12-2.54.12,0,.29,0,1.62,0,1.89v2.56c2-.14,2.08-.14,3.9-.16-.07-5.09,0-7.81,0-10.51-1.46.09-1.81.12-3.24.14v-2a41.05,41.05,0,0,1,5.23-.3c.06,2.21.11,4.43.11,6.67,0,2.65-.05,5.3-.16,7.93-2.24.22-7.19.27-7.93.29-.09-4.09-.11-5-.11-7.51s.07-5.1.14-7.61l2-.05c.05,2.59.05,3,.07,6.65.14,0,.62,0,.71,0l1.83,0ZM160,66.09a2,2,0,0,1-1.8,1.87,1.56,1.56,0,0,1-1.33-1.58,1.72,1.72,0,0,1,1.69-1.73A1.42,1.42,0,0,1,160,66.09Zm8.16-.87c-1.33,3.22-3.75,8.33-4.57,9.82l-1.72-.75a63.61,63.61,0,0,1,4.57-9.87Zm-1,13.11c0,.75-.83,1.28-1.58,1.28a1.58,1.58,0,0,1-.16-3.15A2,2,0,0,1,167.11,78.33Zm-1.19,4.16c1.1.11,1.69.16,2.79.34,1.09-4.34,1.23-4.93,2.42-10.17-1.4.1-4,.16-5.46.19V70.9c2.65-.27,5.3-.29,8-.31A76.07,76.07,0,0,1,171.77,80a42.44,42.44,0,0,1-1.67,5.26c-2-.35-2.72-.51-4.57-1Z"/><path class="cls-7" d="M179.93,65.58c-.14,2.61-.35,7.06-.35,9.46,0,2.06.07,4.11.16,6.17a21.59,21.59,0,0,1,2.61-1l.57,1.73c-2,1-3.5,1.69-5.14,2.36-.43-3.11-.55-8.48-.55-9.1a96.26,96.26,0,0,1,.71-9.75Zm3.72,2.88a95.62,95.62,0,0,1,11.72-1.32l.13,1.92c-3.15.54-9.15,1.11-11.76,1.25Zm3.49,8.91a7.17,7.17,0,0,0-.54,2.42c0,.82.11,1.78,3.81,1.78a23.61,23.61,0,0,0,5.09-.66l.39,2a17.79,17.79,0,0,1-5.75,1,10.44,10.44,0,0,1-4.12-.77,2.7,2.7,0,0,1-1.73-2.68A7.69,7.69,0,0,1,185.36,77Z"/><path class="cls-7" d="M210.11,73.58c-1.15.09-2.29.18-4.34.29v3.75l2.37-.09,2.63-.09v1.87c-.85.09-2.47.23-5,.39,0,1.35-.07,4.2-.09,5.71h-2c0-1.87-.09-3.75-.11-5.62l-4.87.16V78c.78,0,4.16-.27,4.87-.32,0-.45,0-2.78,0-3V74c-2.42.09-3.58.09-4.29.09v-1.9c1-.09,2.83-.22,4.29-.29,0-3.57,0-4.59.1-7.59h2c.12,3.22.12,4,.16,7.52.69,0,3.75-.09,4.37-.09Zm-7.63-4.32c0,.71-.78,1.21-1.51,1.21a1.61,1.61,0,0,1-1.65-1.62,1.34,1.34,0,0,1,1.37-1.39A1.9,1.9,0,0,1,202.48,69.26ZM211,66.93a33.48,33.48,0,0,1-3.45,4.14L206.15,70a31.16,31.16,0,0,1,3.54-4.16Zm3-.78c.07,2.42.12,4.87.12,7.27,0,2.6,0,5.18-.1,7.33h-1.8c-.11-3-.18-5-.18-8.38,0-3,.07-5.17.09-6.22Zm4.36-1.44c.1,2.72.19,7.31.19,12.91,0,1.67-.05,5.57-.07,7.4-.62,0-2.29-.07-4.43-.25l.13-1.9h2.27c-.07-3.74-.1-6.87-.1-11.44V69.76l0-5.05Z"/><path class="cls-7" d="M231.12,78.51a22.12,22.12,0,0,1-2.05-1.92c0,.21,0,4.32-.07,4.94h-1.71c0-.6-.12-3.06-.14-3.82a31.19,31.19,0,0,1-2.33,2.86l-.75-.62c0,.75,0,1.53,0,2.29v.25c3.2-.16,4.36-.21,6.94-.19V84a85,85,0,0,1-8.88.34c-.12-1.89-.12-7.88-.12-10,0-1.12,0-6.83.14-9.53H224c0,.44.12,6.81.12,8.86v.64c0,.67,0,3.57,0,4.16.55-.75.8-1.05,3-3.74v-.71l-2.24,0V72.34c.5,0,1-.11,2.22-.18,0-3.65,0-4.84.06-6.9H229c.07,1.12.12,3.7.14,5a21.87,21.87,0,0,1,2.33-2.86l1.3,1a17.41,17.41,0,0,1-2.49,3.11l-1.14-.8,0,1.49c.39,0,2,0,2.38-.05h.27v1.74c-.48,0-1.16.13-2.67.2l0,2,.91-.93a16.63,16.63,0,0,1,2.33,2.17c.28-2.1.28-2.1.55-4.87l.43-4.06A48.06,48.06,0,0,1,241.15,64l.87,1.58c-2.28,1.51-4.48,2.76-6.81,4-.06,2.28-.23,4.18-.27,4.59,2.74-.23,3.93-.25,7.63-.3v1.83c-2.47.23-2.95.25-7.81.39a79.61,79.61,0,0,1-1.67,9.32l-1.81-.21.05-.32c.53-3.84.57-4.25,1-7.54Zm-4.29-8.29a1.06,1.06,0,0,1-1.07,1.14A1.39,1.39,0,0,1,224.34,70a1.09,1.09,0,0,1,1.1-1.17A1.37,1.37,0,0,1,226.83,70.22Zm11.24,15.19c0-.64-.14-2.54-.14-4.91,0-2.13.07-3.2.14-4h1.85c.18,1.55.18,4.06.18,4.82,0,1.62,0,2.85-.07,4Z"/><path class="cls-8" d="M106.45,83.17A24.22,24.22,0,0,1,109,79l1.54.87A21.55,21.55,0,0,1,108,84Zm.32-7.83c.55-.14,1.12-.3,2.72-.6A40.44,40.44,0,0,1,113,68.3l1.54.89a45.81,45.81,0,0,1-2.61,5.14l1.62-.27a7.55,7.55,0,0,1-.18-.87l1.67-.48a18.82,18.82,0,0,1,1.21,4.36l-1.6.44a7.62,7.62,0,0,1-.57-1.58,65.08,65.08,0,0,1-7,1.28Zm6.51-10.21c-1.73,2.28-2.21,2.9-3.49,4.4a9,9,0,0,1,1.28,1.17l-1.28,1.39a12.43,12.43,0,0,1-2.68-2.33,54,54,0,0,1,4.82-5.8Zm-.64,11.76c0,.5.09,1.12.09,3.68,0,1.6,0,3.38-.13,4.82h-2a27,27,0,0,1-.09-2.77c0-1.92,0-3.81.18-5.71Zm3.25,3.75a1.19,1.19,0,0,1-1.21,1.12c-1,0-1.4-1.17-1.4-1.67A1.09,1.09,0,0,1,114.47,79,1.61,1.61,0,0,1,115.89,80.64Zm2.92.5A26.35,26.35,0,0,1,115.43,85L114.1,84A23,23,0,0,1,117.55,80ZM120,66.73a39,39,0,0,1-3.7,4.4L114.93,70a35.15,35.15,0,0,1,3.67-4.39Zm2.42,3a7.58,7.58,0,0,1-.32,1c-.32.9-.45,1.24-1.3,3.34,2.08-.32,3.18-.39,3.81-.43l.26,1.78c-2.52.55-6.61,1-8.14,1.12l-.2-1.76c.46-.09.59-.12,1.94-.32a39.89,39.89,0,0,1,2.26-5.37Zm-1,7.65c.16,2.1.09,4.87.09,5.48.14,0,4-.11,4.18-.13A16,16,0,0,1,126.92,81l1.53.84a14.5,14.5,0,0,1-1.67,3c-2.44.21-6.19.21-7.24.21a22.18,22.18,0,0,1-.11-3c0-1.37,0-3.19.11-4.57ZM126.9,71a29.14,29.14,0,0,1-3-4.27,20.87,20.87,0,0,1-2.4.16L121.35,65a19.57,19.57,0,0,1,3.49-.41c.25.32,2.19,3.09,3,4.37a6.33,6.33,0,0,1,.57,1ZM124.27,80a1.09,1.09,0,0,1-1.14,1,1.24,1.24,0,0,1-1.24-1.3A1,1,0,0,1,123,78.56C123.9,78.56,124.27,79.56,124.27,80Zm2.19-3.31a24.86,24.86,0,0,1-2-4.34l1.64-.69A25.18,25.18,0,0,1,128.13,76Zm.69,3.38a1,1,0,0,1-1.08,1,1.22,1.22,0,0,1-1.32-1.23,1.09,1.09,0,0,1,1.16-1.1A1.22,1.22,0,0,1,127.15,80.11Z"/><path class="cls-8" d="M142.11,65c-3.63,3.66-7.15,7-11.53,10.79l-1.28-1.31a120.67,120.67,0,0,1,11.51-10.82Zm-5.36,12c.06,3,.06,3.48,0,5.76,2.31-.07,4.77-.16,7.08-.16a30.9,30.9,0,0,1,0-3.36c-1.63.07-5.39.14-6.1.14l-.07-1.87c3.36-.25,4.73-.3,8.41-.3,0,.73.09,1.85.09,3.33,0,1.81-.09,3.09-.14,4.14-4.73.25-5.69.25-11.42.25,0-.82-.09-2-.09-3.36,0-1.71.09-3.22.16-4.59Zm8.68-2.21c-5,.3-5.74.34-10.37.36V73.28a94.73,94.73,0,0,1,10.34-.46Zm5.07,1.48a95.14,95.14,0,0,1-9.64-9L142.2,66a94.82,94.82,0,0,1,9.53,8.93Z"/><path class="cls-8" d="M158.34,77.71c-1.49.09-1.65.12-2.54.12,0,.29,0,1.62,0,1.89v2.56c2-.14,2.08-.14,3.9-.16-.07-5.09,0-7.81,0-10.51-1.46.09-1.81.12-3.24.14v-2a41.05,41.05,0,0,1,5.23-.3c.06,2.21.11,4.43.11,6.67,0,2.65-.05,5.3-.16,7.93-2.24.22-7.19.27-7.93.29-.09-4.09-.11-5-.11-7.51s.07-5.1.14-7.61l2-.05c.05,2.59.05,3,.07,6.65.14,0,.62,0,.71,0l1.83,0ZM160,66.09a2,2,0,0,1-1.8,1.87,1.56,1.56,0,0,1-1.33-1.58,1.72,1.72,0,0,1,1.69-1.73A1.42,1.42,0,0,1,160,66.09Zm8.16-.87c-1.33,3.22-3.75,8.33-4.57,9.82l-1.72-.75a63.61,63.61,0,0,1,4.57-9.87Zm-1,13.11c0,.75-.83,1.28-1.58,1.28a1.58,1.58,0,0,1-.16-3.15A2,2,0,0,1,167.11,78.33Zm-1.19,4.16c1.1.11,1.69.16,2.79.34,1.09-4.34,1.23-4.93,2.42-10.17-1.4.1-4,.16-5.46.19V70.9c2.65-.27,5.3-.29,8-.31A76.07,76.07,0,0,1,171.77,80a42.44,42.44,0,0,1-1.67,5.26c-2-.35-2.72-.51-4.57-1Z"/><path class="cls-8" d="M179.93,65.58c-.14,2.61-.35,7.06-.35,9.46,0,2.06.07,4.11.16,6.17a21.59,21.59,0,0,1,2.61-1l.57,1.73c-2,1-3.5,1.69-5.14,2.36-.43-3.11-.55-8.48-.55-9.1a96.26,96.26,0,0,1,.71-9.75Zm3.72,2.88a95.62,95.62,0,0,1,11.72-1.32l.13,1.92c-3.15.54-9.15,1.11-11.76,1.25Zm3.49,8.91a7.17,7.17,0,0,0-.54,2.42c0,.82.11,1.78,3.81,1.78a23.61,23.61,0,0,0,5.09-.66l.39,2a17.79,17.79,0,0,1-5.75,1,10.44,10.44,0,0,1-4.12-.77,2.7,2.7,0,0,1-1.73-2.68A7.69,7.69,0,0,1,185.36,77Z"/><path class="cls-8" d="M210.11,73.58c-1.15.09-2.29.18-4.34.29v3.75l2.37-.09,2.63-.09v1.87c-.85.09-2.47.23-5,.39,0,1.35-.07,4.2-.09,5.71h-2c0-1.87-.09-3.75-.11-5.62l-4.87.16V78c.78,0,4.16-.27,4.87-.32,0-.45,0-2.78,0-3V74c-2.42.09-3.58.09-4.29.09v-1.9c1-.09,2.83-.22,4.29-.29,0-3.57,0-4.59.1-7.59h2c.12,3.22.12,4,.16,7.52.69,0,3.75-.09,4.37-.09Zm-7.63-4.32c0,.71-.78,1.21-1.51,1.21a1.61,1.61,0,0,1-1.65-1.62,1.34,1.34,0,0,1,1.37-1.39A1.9,1.9,0,0,1,202.48,69.26ZM211,66.93a33.48,33.48,0,0,1-3.45,4.14L206.15,70a31.16,31.16,0,0,1,3.54-4.16Zm3-.78c.07,2.42.12,4.87.12,7.27,0,2.6,0,5.18-.1,7.33h-1.8c-.11-3-.18-5-.18-8.38,0-3,.07-5.17.09-6.22Zm4.36-1.44c.1,2.72.19,7.31.19,12.91,0,1.67-.05,5.57-.07,7.4-.62,0-2.29-.07-4.43-.25l.13-1.9h2.27c-.07-3.74-.1-6.87-.1-11.44V69.76l0-5.05Z"/><path class="cls-8" d="M231.12,78.51a22.12,22.12,0,0,1-2.05-1.92c0,.21,0,4.32-.07,4.94h-1.71c0-.6-.12-3.06-.14-3.82a31.19,31.19,0,0,1-2.33,2.86l-.75-.62c0,.75,0,1.53,0,2.29v.25c3.2-.16,4.36-.21,6.94-.19V84a85,85,0,0,1-8.88.34c-.12-1.89-.12-7.88-.12-10,0-1.12,0-6.83.14-9.53H224c0,.44.12,6.81.12,8.86v.64c0,.67,0,3.57,0,4.16.55-.75.8-1.05,3-3.74v-.71l-2.24,0V72.34c.5,0,1-.11,2.22-.18,0-3.65,0-4.84.06-6.9H229c.07,1.12.12,3.7.14,5a21.87,21.87,0,0,1,2.33-2.86l1.3,1a17.41,17.41,0,0,1-2.49,3.11l-1.14-.8,0,1.49c.39,0,2,0,2.38-.05h.27v1.74c-.48,0-1.16.13-2.67.2l0,2,.91-.93a16.63,16.63,0,0,1,2.33,2.17c.28-2.1.28-2.1.55-4.87l.43-4.06A48.06,48.06,0,0,1,241.15,64l.87,1.58c-2.28,1.51-4.48,2.76-6.81,4-.06,2.28-.23,4.18-.27,4.59,2.74-.23,3.93-.25,7.63-.3v1.83c-2.47.23-2.95.25-7.81.39a79.61,79.61,0,0,1-1.67,9.32l-1.81-.21.05-.32c.53-3.84.57-4.25,1-7.54Zm-4.29-8.29a1.06,1.06,0,0,1-1.07,1.14A1.39,1.39,0,0,1,224.34,70a1.09,1.09,0,0,1,1.1-1.17A1.37,1.37,0,0,1,226.83,70.22Zm11.24,15.19c0-.64-.14-2.54-.14-4.91,0-2.13.07-3.2.14-4h1.85c.18,1.55.18,4.06.18,4.82,0,1.62,0,2.85-.07,4Z"/><polygon class="cls-9" points="142.54 240.75 171.18 264.09 199.81 240.75 142.54 240.75"/><rect class="cls-9" x="160.59" y="217.37" width="21.18" height="32.65" transform="translate(404.88 62.52) rotate(90)"/></g></g></svg>