<svg xmlns="http://www.w3.org/2000/svg" viewBox="0 0 330 60.61"><defs><style>.cls-1{fill:#221f20;}.cls-2{fill:#fff;}.cls-3{fill:#d94e41;}</style></defs><g id="レイヤー_2" data-name="レイヤー 2"><g id="レイヤー_1-2" data-name="レイヤー 1"><path class="cls-1" d="M169.49,16.52c-.75-.95-1.67-2.07-2.56-3.09A33.77,33.77,0,0,0,169.87,6h-3.22V1.61H164.6V6h-3.07V7.83h5.78a23.54,23.54,0,0,1-6,9.72v2.6A26.42,26.42,0,0,0,164.53,17v9.23h2.05V15.66c.93,1.27,2.32,3.17,2.91,4.14Z"/><polygon class="cls-1" points="175.92 12.33 179.91 12.33 179.91 10.34 175.92 10.34 175.92 1.68 173.85 1.68 173.85 10.34 169.91 10.34 169.91 12.33 173.85 12.33 173.85 23.79 168.91 23.79 168.91 25.81 180.8 25.81 180.8 23.79 175.92 23.79 175.92 12.33"/><path class="cls-1" d="M81.42,18.15a17.6,17.6,0,0,1-2.8-4.36V26.36h-2v-12C76.05,17.72,73.23,21,73.23,21v-3a22.27,22.27,0,0,0,3.3-9.1H73.65v-2h3V1.44h2V6.79h2.52v2H78.62v1a21.93,21.93,0,0,0,2.8,5.53"/><path class="cls-1" d="M81.22,10.29h2.1a47.46,47.46,0,0,0,2.32-8.11H83.79A32.94,32.94,0,0,1,81.22,10.29Z"/><path class="cls-1" d="M93.19,21.34v2.87A33.16,33.16,0,0,1,88.75,17v9.39h-2V17a19.69,19.69,0,0,1-4.87,7.21l.07-2.7a17.39,17.39,0,0,0,4.34-7.25H81.22v-2h5.52V8.18h-3l.37-1.91h2.65V1.44h2V6.27h4.51V8.18H88.75v4.07h5.07v2H89.26A24.43,24.43,0,0,0,93.19,21.34Z"/><path class="cls-1" d="M113.67,20.3l-.24.28a36,36,0,0,1-4.32.93V13.8h4v-2H103v2h4v8.09c-1.29.24-1.8.4-4,.69v2.16a60.26,60.26,0,0,0,10.68-2.35Z"/><path class="cls-1" d="M122.82,3.92V6a46.82,46.82,0,0,0-4.33-2.29V1.55A34.6,34.6,0,0,1,122.82,3.92Z"/><path class="cls-1" d="M122.82,6.19v2h-6.37c.07,2.4.43,9.21,2.17,13.53.56,1.36,1.27,2.14,1.66,2.14.19,0,.41.2.62-1.16a29.49,29.49,0,0,0,.32-3.07h2l0,.54c-.48,5.34-1.6,6.07-2.74,6.07-1.38,0-2.34-1.24-3-2.32-2.53-4-2.91-11.74-3.08-15.73H103v-2h11.26c0-.49,0-1.38,0-2.25s0-1.86,0-2.17V1.55h2.22v.22c0,2.35,0,2.79,0,4.42Z"/><path class="cls-1" d="M152.13,26.47h-2.38l-.12-.24a19.89,19.89,0,0,0-1.13-2.06c-2.38.25-7.21.71-15,1.08h-.21v-2.1c.13,0,1.93-.08,2.49-.12a47.09,47.09,0,0,0,2.95-6.83H133v-2h18.62v2H141.08c-.78,2.17-2,4.94-2.9,6.73,1.28-.05,4.2-.24,9.24-.7-.45-.69-1.5-2-3.22-4l-.14-.16,2.73-.08A35.09,35.09,0,0,1,152.13,26.47Z"/><path class="cls-1" d="M151.59,12.31V9.94a21.58,21.58,0,0,1-8.42-8.5l-.07-.11h-1.68l-.06.12a19.89,19.89,0,0,1-9,8.49v2.18s7.14-3.34,10-8.53A22.71,22.71,0,0,0,151.59,12.31Z"/><rect class="cls-1" x="136.64" y="8.78" width="11.33" height="1.8"/><path class="cls-1" d="M192.51,57.67h2V54.84h6V53.08h-6V51h4.69V41.64H194.5v-2h5.6V38h-5.6V35.7h-2V38H187.1v1.69h5.41v2H188V51h4.49v2.07h-5.68v1.76h5.68Zm2-14.46h2.75v2.38H194.5Zm0,3.82h2.75v2.45H194.5Zm-4.57-3.82h2.58v2.38h-2.58Zm0,6.27V47h2.58v2.45Z"/><path class="cls-1" d="M191,58.4a5.65,5.65,0,0,1-5-2.72V46.87h-4.46V48.7h2.55v7a12.35,12.35,0,0,1-2.67,2.44v2.39a16.38,16.38,0,0,0,3.8-3.21,6.41,6.41,0,0,0,5.5,2.8c2.45.06,7.52,0,10,0V58.3C198.21,58.41,193.3,58.47,191,58.4Z"/><path class="cls-1" d="M186.08,42.69a20.08,20.08,0,0,0-2.7-5.51h-2.14A22.49,22.49,0,0,1,184,42.69Z"/><path class="cls-1" d="M136.92,35.72H135a23.38,23.38,0,0,1-8.71,6.92V45A31.86,31.86,0,0,0,130,43V58.26c-1,.15-2.16.27-2.94.35v1.92c2.69-.34,7.74-1.15,10.65-1.71V57.13c-1.59.27-3.67.57-5.67.86V52h2.68c1.9,4.65,5.71,7.45,10.53,8.57V58.45a10.67,10.67,0,0,1-4.57-1.92,37.27,37.27,0,0,0,3.1-2.22V52a40,40,0,0,1-4.61,3.43,11.6,11.6,0,0,1-2.4-3.34h5.53V43.12A25.17,25.17,0,0,0,145.83,45l0,0V42.6A24.53,24.53,0,0,1,136.92,35.72Zm3.38,14.7H132V48.11h8.27Zm0-3.85H132V44.39h8.27ZM137,42.78V40.06h-2v2.72h-4.59a26.45,26.45,0,0,0,5.53-5.15,29.58,29.58,0,0,0,5.82,5.15Z"/><path class="cls-1" d="M109.88,35.79h-2.1V41H99.29v2h7.59A28.66,28.66,0,0,1,99.32,54v2.85a32.77,32.77,0,0,0,8.46-11.19V53.8H104v2h3.75v4.77h2.1V55.78h3.79v-2h-3.79V45.41a33.59,33.59,0,0,0,8.54,11.33l0,0V53.81A29.44,29.44,0,0,1,110.83,43h7.64V41h-8.59Z"/><path class="cls-1" d="M163.15,53.57a12,12,0,0,0,10,7V58.71a9.48,9.48,0,0,1-4.22-1.26,11.8,11.8,0,0,0,2.55-1.34V54a16,16,0,0,1-4.21,2.39A9.39,9.39,0,0,1,165,53.57h7.69V52.1H157.06c.05-.54.05-1.08.05-1.62V47.62h15.42V46.06H155.2v4.42a21,21,0,0,1-2.35,9.84h2.26A19.82,19.82,0,0,0,157,53.57h2.16v5c-.67.07-1.33.17-1.85.22v1.68c2.45-.26,6-.94,8.25-1.36V57.67c-1.27.21-2.95.46-4.51.67V53.57Z"/><rect class="cls-1" x="158.2" y="49.11" width="13.11" height="1.43"/><path class="cls-1" d="M171.39,37.58h-4.72V35.7h-1.88v1.88h-2.56V35.7h-1.86v1.88h-4.65v7.19h15.67Zm-11,5.79H157.6V41.76h2.77Zm0-2.83H157.6V39h2.77Zm4.42,2.83h-2.56V41.76h2.56Zm0-2.83h-2.56V39h2.56Zm4.64,2.83h-2.76V41.76h2.76Zm0-2.83h-2.76V39h2.76Z"/><path class="cls-1" d="M224.7,53.57c.26-1,.69-2.48.9-3.4H214.92v1.65h3.83a13.18,13.18,0,0,1-4.45,8.53H217a14.23,14.23,0,0,0,3.74-8.53h2.63l-1,3.38h3.91c-.38,3.64-.81,3.62-1.51,3.62-.43,0-1.13,0-1.7-.06V60.5c.57,0,1.34,0,2,0,2,0,2.72-.31,3.26-7Z"/><path class="cls-1" d="M215.16,47.34c-.51.21-1.18.5-1.78.72V42.75h1.55v1.79a7.56,7.56,0,0,0,1.52-1.61V48.7h11.7V47.19h-4.54V45.66h3.81V44.34h-3.81V42.83h3.81V41.51h-3.81V40h4.33V38.55h-4.65a24,24,0,0,0,1.06-2.68h-2.13c-.19.77-.46,1.72-.79,2.68h-2.74c.25-.69.64-1.88.87-2.71h-2A16.6,16.6,0,0,1,215,42.05V40.92h-1.61v-5.2h-2v5.2H209.1v1.83h2.32v6.06c-1,.38-1.76.73-2.44,1v2.1l2.44-1.05V58c0,.48-.19.59-.79.59-.37,0-.77,0-1.14,0v1.94l1.52,0c1.73,0,2.37-.51,2.37-2.26V50c.68-.3,1.21-.57,1.78-.84ZM218.39,40h3.34v1.48h-3.34Zm0,2.8h3.34v1.51h-3.34Zm0,2.83h3.34v1.53h-3.34Z"/><path class="cls-1" d="M75.2,37.21V59.79H90.94V37.21ZM88.8,57.69H77.28V49.41H88.8Zm0-10.39H77.28v-8H88.8Z"/><path class="cls-1" d="M300.25,41.59l-9.7,0V39.3h5.77V35.93h2.29V39.3h5s-3.2,13.27-15.06,17.11V53.88C298.56,49,300.25,41.59,300.25,41.59ZM297,49.31l1.19-2.07,5.65,5v3.53Z"/><path class="cls-1" d="M314.26,60.38v-3c4-2.72,9-9.22,10.83-16.78h-9.46V38.31h12S326.19,52.17,314.26,60.38Z"/><path class="cls-1" d="M253.16,57.76v2.4H244.7c-4.3,0-4.64-1.58-4.64-4.24V37.53h2v9.54a67.47,67.47,0,0,0,11.06-5.69V44a52.36,52.36,0,0,1-11.06,5.57v6c0,1.84.52,2.24,2.71,2.24Z"/><path class="cls-1" d="M276,40.31a14.86,14.86,0,0,0-2-4.17h-1.82a17.09,17.09,0,0,1,2.06,4.17Z"/><path class="cls-1" d="M279.44,40.31a15.44,15.44,0,0,0-2-4.17h-1.82a17,17,0,0,1,2.05,4.17Z"/><path class="cls-1" d="M249.75,40.31a15.14,15.14,0,0,0-2-4.17H245.9A17.09,17.09,0,0,1,248,40.31Z"/><path class="cls-1" d="M253.16,40.31a15.2,15.2,0,0,0-2-4.17h-1.81a17,17,0,0,1,2.05,4.17Z"/><path class="cls-1" d="M279.44,42.05c-.78,9.06-4.6,17.38-14.36,18.11V57.87c7.74-1.94,10.4-5.58,12-15.82Z"/><path class="cls-1" d="M265.08,40.64V38.31a13,13,0,0,1,5.55,2.21V43S266.92,40.81,265.08,40.64Z"/><path class="cls-1" d="M265.08,46.19V43.86a13.18,13.18,0,0,1,5.55,2.21v2.44S266.92,46.37,265.08,46.19Z"/><path class="cls-1" d="M323.05,49.71A83.53,83.53,0,0,1,330,60.38h-2.62a86.77,86.77,0,0,0-5.29-8.22Z"/><polyline class="cls-1" points="298.61 49.31 298.61 60.38 296.31 60.38 296.31 51.35"/><rect class="cls-2" x="1.13" width="59.48" height="59.48"/><path class="cls-3" d="M0,0V60.61H60.61V0ZM58.4,58.4H2.21V2.21H58.4ZM52.24,35.05v-2H31.63v2ZM18.41,40.86H16l3.6,5.47-9.5,4.41V36.54H23.82V19.27H17.11V13.6h-2v5.67H8.13V51.69L5.48,52.94V55.2l15.29-7.15,1.59,2.42h2.39ZM10.13,21.31H21.82v5.46H10.13Zm0,7.46H21.82v5.77H10.13ZM53.27,8.86h-7.8V5h-2V8.86H38.09V5h-2V8.86H28.26v16h25ZM36.1,22.9H30.27V17.83H36.1Zm0-7.08H30.27v-5H36.1Zm7.38,7.08H38.09V17.83h5.39Zm0-7.08H38.09v-5h5.39Zm7.79,7.08h-5.8V17.83h5.8Zm0-7.08h-5.8v-5h5.8ZM26.42,55.18l2.52-15h4.38v12l-4.63.88v2.07L45.05,52V50L35.34,51.8V40.17h4.54l7.41,8.92,8,6.14V52.69L48.7,47.63s-.11-.14-.31-.37l4.66-3.36V41.45l-5.93,4.27L42.5,40.17H54.71v-2H29V29.93H54.68v-2H27v.76h0v11l-2.7,15.54Zm-.6-36.68v-3l-8.77-10H15.12L5.18,18.66v3.4l11-14.55Z"/></g></g></svg>