<svg xmlns="http://www.w3.org/2000/svg" viewBox="0 0 151.21 33.37"><defs><style>.cls-1{fill:#d94e41;}.cls-2{fill:#231815;}</style></defs><g id="レイヤー_2" data-name="レイヤー 2"><g id="レイヤー_1-2" data-name="レイヤー 1"><path class="cls-1" d="M0,0V33.37H33.37V0ZM32.16,32.16H1.22V1.22H32.16ZM28.77,19.3V18.2H17.41v1.1ZM10.14,22.5H8.82l2,3L5.58,27.94V20.12h7.54V10.61H9.42V7.49H8.3v3.12H4.48V28.46L3,29.15v1.24l8.41-3.93.88,1.33h1.32ZM5.58,11.73H12v3H5.58Zm0,4.11H12V19H5.58Zm23.75-11H25V2.74h-1.1V4.88H21V2.74H19.88V4.88H15.56v8.83H29.33Zm-9.45,7.73H16.66V9.82h3.22Zm0-3.9H16.66V6h3.22Zm4.06,3.9H21V9.82h3Zm0-3.9H21V6h3Zm4.29,3.9H25V9.82h3.19Zm0-3.9H25V6h3.19ZM14.55,30.38l1.39-8.26h2.41v6.61l-2.55.48v1.15l9-1.71V27.51l-5.35,1v-6.4H22L26,27l4.4,3.38V29l-3.63-2.79-.16-.2,2.56-1.85V22.82l-3.27,2.36L23.4,22.12h6.72V21H16V16.48H30.11v-1.1H14.87v.42h0v6l-1.48,8.56Zm-.33-20.2V8.51L9.39,3H8.33L2.85,10.27v1.88l6-8Z"/><rect class="cls-2" x="59.08" y="7.9" width="0.72" height="3.41"/><path class="cls-2" d="M64.89,10.5A10.22,10.22,0,0,0,66.5,6.27H62.18v.94h3.17a7.73,7.73,0,0,1-1,2.43,6.8,6.8,0,0,1-1-2h-1a9.28,9.28,0,0,0,1.35,2.87A6.51,6.51,0,0,1,62,11.91v1.25a8.8,8.8,0,0,0,2.33-1.86,8.41,8.41,0,0,0,2.42,1.87V12A5.61,5.61,0,0,1,64.89,10.5Z"/><path class="cls-2" d="M66.05,4.77h-.23c-.17,0-.19,0-.19-.47V1H62.54V2.79a4.57,4.57,0,0,1-.95,3h1.07a4.88,4.88,0,0,0,.8-3V1.94h1.25V4.33c0,1.1.18,1.36,1,1.36h.52c.64,0,.82-.13.92-1.71h-.84C66.31,4.8,66.2,4.77,66.05,4.77Z"/><path class="cls-2" d="M75,8.27c-.38-.48-.85-1.06-1.3-1.58a17.16,17.16,0,0,0,1.5-3.81H73.59V.65h-1V2.88H71v1h3a12,12,0,0,1-3.08,5v1.33A14.21,14.21,0,0,0,72.51,8.5v4.72h1V7.84C74,8.48,74.74,9.46,75,10Z"/><path class="cls-2" d="M60.18,5.92A9.21,9.21,0,0,0,59.52,4H58.8a9.21,9.21,0,0,1,.63,1.93Z"/><path class="cls-2" d="M61.79,6.26l-.43,0V2.44H59.57c.19-.57.4-1.2.54-1.7h-1c-.1.5-.24,1.07-.43,1.7h-1V6.67l-.74.06v.93l.74-.07a15.87,15.87,0,0,1-1,5.37h1a16.65,16.65,0,0,0,.86-5.47c.63-.07,1.29-.15,1.92-.24V12c0,.22-.08.26-.36.26h-.52v.88h.7c.8,0,1.08-.22,1.08-1v-5l.44-.07Zm-1.33.15-1.92.18V3.35h1.92Z"/><rect class="cls-2" x="42.87" y="6.28" width="9.99" height="1.22"/><path class="cls-2" d="M100.71,7.2V5.82a15.19,15.19,0,0,0-2.15-1.73V5.23A12.71,12.71,0,0,1,100.71,7.2Z"/><path class="cls-2" d="M101,3.9V2.6A14,14,0,0,0,98.89,1V2.07A10.35,10.35,0,0,1,101,3.9Z"/><path class="cls-2" d="M88.45,6.44h-1a13.5,13.5,0,0,1,1.18,2.85h1A13.45,13.45,0,0,0,88.45,6.44Z"/><path class="cls-2" d="M105.45,9.12a17.64,17.64,0,0,1,1.26,2.29l-4.24.48a17.23,17.23,0,0,0,2.19-4.15h3.72v-1h-3V3.87h2.4v-1h-2.4V.67h-1.08V2.91h-2.42v1h2.42v2.9h-3v1h2.35a17.26,17.26,0,0,1-2.24,4.09V13l5.72-.7h0a6.26,6.26,0,0,1,.27.84h1.14a17.11,17.11,0,0,0-1.91-4.05Z"/><path class="cls-2" d="M100.47,8.44a43.17,43.17,0,0,1-2.15,4.76h1.11c.59-1.22,1.57-3.44,2-4.76Z"/><polygon class="cls-2" points="78.33 6.13 80.38 6.13 80.38 5.11 78.33 5.11 78.33 0.68 77.27 0.68 77.27 5.11 75.26 5.11 75.26 6.13 77.27 6.13 77.27 11.99 74.75 11.99 74.75 13.02 80.83 13.02 80.83 11.99 78.33 11.99 78.33 6.13"/><path class="cls-2" d="M117.09.81h-1c0,4.6-.44,8.69-4.41,11.13v1.27a9.56,9.56,0,0,0,4.93-6.35,9.53,9.53,0,0,0,4.93,6.35V11.94C117.55,9.5,117.13,5.41,117.09.81Z"/><path class="cls-2" d="M84.86.89V13H94.2V.89ZM93.19,12H85.84V1.9h7.35Z"/><path class="cls-2" d="M91.36,2.53h-1V4.45H86.31v.94h4.07v4.8c0,.24-.1.31-.43.31l-.7,0v.87h.94c.88,0,1.17-.22,1.17-1.06V5.39h1.36V4.45H91.36Z"/><path class="cls-2" d="M130.21,24.46v.8l2-.29c0,.12,0,.23.05.31h.69a6.11,6.11,0,0,0-.56-1.81h-.7a6.11,6.11,0,0,1,.32.74l-.84.1c.49-.94,1.58-3.09,1.58-3.09h-.84l-.4.78c-.15-.24-.27-.49-.35-.61l.91-1.9h-.88l-.92,2,.82,1.36Z"/><path class="cls-2" d="M150.54,28.87v-3.7h-2.36v-.82h3v-.76h-1.62v-.87h1.14V22h-1.14v-.84H151v-.77h-1.46V19.22h-1v1.13h-1.65V19.22h-1v1.13h-1.39v.77h1.39V22h-1v.76h1v.87h-1.57v.76h2.87v.82h-2.29v3.7h-.76v.84h.76V32h1V29.71h3.62v1.15c0,.18-.07.22-.3.22a5.82,5.82,0,0,1-.6,0v.88c.19,0,.6,0,.83,0,.82,0,1.08-.23,1.08-1V29.71h.67v-.84Zm-3.33,0h-1.3V27.78h1.3Zm0-1.83h-1.3V26h1.3Zm-.33-5.92h1.65V22h-1.65Zm0,2.47v-.87h1.65v.87Zm2.65,5.28h-1.35V27.78h1.35Zm0-1.83h-1.35V26h1.35Z"/><path class="cls-2" d="M134,24.27v.93l2-.3c0,.12.05.25.07.37h.72a6,6,0,0,0-.58-1.84h-.74a6.64,6.64,0,0,1,.33.71l-.92.11c.44-.85,1.45-2.66,1.58-3h-.89l-.39.75c-.14-.22-.24-.44-.33-.56l.95-1.88h-.9l-.95,1.95.81,1.3Z"/><path class="cls-2" d="M144.45,25.3l-.89-1.74v-.49h1v-.93h-1V19.27h-1v2.87h-1.29v.93h1.29a12.85,12.85,0,0,1-1.42,4.47v1.71a8.75,8.75,0,0,0,1.42-3V32h1V25.17l.89,1.91Z"/><path class="cls-2" d="M105.23,28.14V27.08h2.4V22.29h-2.4v-1h2.86v-.87h-2.86V19.25h-1v1.16h-2.76v.87h2.76v1h-2.3v4.79h2.3v1.06h-2.9V29h2.9v1.45h1V29h3.09v-.9Zm0-5.05h1.41v1.22h-1.41Zm0,2h1.41V26.3h-1.41Zm-1,1.25h-1.32V25.05h1.32Zm0-2h-1.32V23.09h1.32Z"/><path class="cls-2" d="M103.44,30.86a2.87,2.87,0,0,1-2.54-1.39V25H98.61v.93h1.31v3.61a6.76,6.76,0,0,1-1.37,1.25V32a8.93,8.93,0,0,0,2-1.64,3.28,3.28,0,0,0,2.81,1.43c1.25,0,3.84,0,5.14,0v-1C107.13,30.87,104.61,30.9,103.44,30.86Z"/><path class="cls-2" d="M100.92,22.83A10.29,10.29,0,0,0,99.54,20H98.45a11.29,11.29,0,0,1,1.39,2.82Z"/><path class="cls-2" d="M75.78,19.27h-1a12,12,0,0,1-4.45,3.53V24a15.9,15.9,0,0,0,1.9-1v7.8c-.52.08-1.1.14-1.5.18v1c1.37-.17,4-.59,5.44-.87v-.87c-.81.14-1.87.29-2.89.44v-3h1.37A7.28,7.28,0,0,0,80,32v-1.1a5.47,5.47,0,0,1-2.33-1,18.85,18.85,0,0,0,1.58-1.14v-1.2a20.69,20.69,0,0,1-2.36,1.75,6.18,6.18,0,0,1-1.23-1.71h2.83V23.05a13.15,13.15,0,0,0,1.81,1l0,0V22.78A12.62,12.62,0,0,1,75.78,19.27Zm1.73,7.51H73.29V25.6h4.22Zm0-2H73.29V23.7h4.22Zm-1.7-1.94V21.48h-1v1.39H72.45a13.49,13.49,0,0,0,2.82-2.63,15.41,15.41,0,0,0,3,2.63Z"/><path class="cls-2" d="M62,19.3H60.88V22H56.54v1h3.88a14.59,14.59,0,0,1-3.86,5.6v1.45a16.56,16.56,0,0,0,4.32-5.72v4.18H59v1h1.91V32H62V29.52H63.9v-1H62V24.22A17,17,0,0,0,66.33,30h0V28.52A15.15,15.15,0,0,1,62.44,23h3.91V22H62Z"/><path class="cls-2" d="M93.46,29.69v-1.1a8.13,8.13,0,0,1-2.15,1.22,4.71,4.71,0,0,1-1.16-1.41h3.93v-.76h-8a7.68,7.68,0,0,0,0-.83V25.35H94v-.8H85.13v2.26a10.69,10.69,0,0,1-1.2,5h1.16A10.42,10.42,0,0,0,86,28.4h1.1V31l-.94.12v.85c1.25-.13,3.06-.48,4.22-.69v-.76c-.65.11-1.51.23-2.31.34V28.4h1.1A6.15,6.15,0,0,0,94.31,32V31a4.88,4.88,0,0,1-2.15-.64A6.38,6.38,0,0,0,93.46,29.69Z"/><rect class="cls-2" x="86.67" y="26.11" width="6.71" height="0.73"/><path class="cls-2" d="M121.14,26.66h-5.47v.84h2a6.71,6.71,0,0,1-2.28,4.36h1.36a7.25,7.25,0,0,0,1.91-4.36H120l-.5,1.73h2c-.19,1.86-.41,1.85-.77,1.85s-.58,0-.87,0v.88c.29,0,.68,0,1,0,1.05,0,1.39-.16,1.67-3.57h-1.85C120.81,27.87,121,27.12,121.14,26.66Z"/><path class="cls-2" d="M91,20.22v-1H90v1H88.73v-1h-1v1H85.4v3.67h8V20.22Zm-3.22,3H86.36v-.83h1.42Zm0-1.45H86.36v-.81h1.42ZM90,23.18H88.73v-.83H90Zm0-1.45H88.73v-.81H90Zm2.37,1.45H91v-.83h1.41Zm0-1.45H91v-.81h1.41Z"/><path class="cls-2" d="M130,25l-.73-1.44v-.49h1v-.93h-1V19.27h-1v2.87H127v.93h1.29a13.07,13.07,0,0,1-1.41,4.47v1.71a8.93,8.93,0,0,0,1.41-3V32h1V25.17l.73,1.58Z"/><path class="cls-2" d="M135.75,31c-.35,0-.64-.49-.91-1.18a10.22,10.22,0,0,0,1.41-2.53h-1a7.42,7.42,0,0,1-.78,1.51,16.33,16.33,0,0,1-.39-2h2.66V26h-.6a3.35,3.35,0,0,0-.75-.7h-1.07a5.86,5.86,0,0,1,.82.7H134c-.07-.48-.12-1-.16-1.5l0-.15c-.12-1.53-.14-3.26-.15-5.09h-1A66.39,66.39,0,0,0,133.1,26h-2.91v.81H131a8.49,8.49,0,0,1-1.39,4.73h1a7.35,7.35,0,0,0,1-2.69,8.54,8.54,0,0,1,.69.93h.87a8.17,8.17,0,0,0-1.41-1.91c0-.34.07-.7.1-1.06h1.32a17.71,17.71,0,0,0,.62,2.84,12.68,12.68,0,0,1-2.33,2.23h1.33a9.43,9.43,0,0,0,1.34-1.34c.39.82.85,1.38,1.42,1.43.74.06,1.3-.38,1.31-1.86h-.83C136.08,30.9,136,31.05,135.75,31Z"/><path class="cls-2" d="M120.12,25.13v-.78h1.94v-.68h-1.94V22.9h1.94v-.67h-1.94v-.76h2.21v-.76H120a10.52,10.52,0,0,0,.54-1.37h-1.08c-.1.4-.24.88-.41,1.37h-1.4c.13-.35.33-1,.44-1.38h-1a8.28,8.28,0,0,1-1.33,3.17v-.58h-.82V19.27h-1v2.65H112.7v.94h1.18V26c-.51.19-.9.37-1.24.49v1.08l1.24-.54v3.68c0,.25-.1.3-.4.3h-.59v1h.78c.89,0,1.22-.26,1.22-1.16V26.55c.34-.15.61-.29.9-.43v-.91l-.9.36V22.86h.79v.91a3.83,3.83,0,0,0,.78-.82V25.9h6v-.77Zm-1,0h-1.7v-.78h1.7Zm0-1.46h-1.7V22.9h1.7Zm0-1.44h-1.7v-.76h1.7Z"/><path class="cls-2" d="M44.22,20V31.57h8.05V20Zm7,10.47H45.29V26.27h5.89Zm0-5.31H45.29V21.1h5.89Z"/></g></g></svg>