<svg xmlns="http://www.w3.org/2000/svg" viewBox="0 0 191.68 35.21"><defs><style>.cls-1{fill:#fff;}.cls-2{fill:#d94e41;}</style></defs><g id="レイヤー_2" data-name="レイヤー 2"><g id="レイヤー_1-2" data-name="レイヤー 1"><path class="cls-1" d="M98.45,9.59C98,9,97.48,8.39,97,7.8a19.24,19.24,0,0,0,1.71-4.33H96.79V.93H95.6V3.47H93.82V4.55h3.36a13.8,13.8,0,0,1-3.49,5.64V11.7a15.65,15.65,0,0,0,1.88-1.85v5.36h1.19V9.1c.53.74,1.34,1.84,1.69,2.4Z"/><polygon class="cls-1" points="102.18 7.16 104.5 7.16 104.5 6 102.18 6 102.18 0.97 100.98 0.97 100.98 6 98.69 6 98.69 7.16 100.98 7.16 100.98 13.82 98.11 13.82 98.11 14.99 105.02 14.99 105.02 13.82 102.18 13.82 102.18 7.16"/><path class="cls-1" d="M47.29,10.54A10,10,0,0,1,45.67,8v7.3H44.53v-7a9.51,9.51,0,0,1-2,3.83V10.41a12.91,12.91,0,0,0,1.92-5.29H42.78V3.94h1.75V.84h1.14v3.1h1.46V5.12H45.67v.57A12.89,12.89,0,0,0,47.29,8.9"/><path class="cls-1" d="M47.18,6H48.4a28,28,0,0,0,1.34-4.71H48.67A19.22,19.22,0,0,1,47.18,6Z"/><path class="cls-1" d="M54.13,12.39v1.67a19.34,19.34,0,0,1-2.58-4.2v5.45H50.38V9.89a11.42,11.42,0,0,1-2.83,4.19l.05-1.57A10.09,10.09,0,0,0,50.11,8.3H47.18V7.12h3.2V4.75H48.63l.21-1.11h1.54V.84h1.17v2.8h2.62V4.75H51.55V7.12h3V8.3H51.84A14.25,14.25,0,0,0,54.13,12.39Z"/><path class="cls-1" d="M66,11.79l-.14.16a19.28,19.28,0,0,1-2.52.54V8h2.3V6.83H59.82V8h2.32v4.71c-.75.13-1,.23-2.32.39v1.26A35.37,35.37,0,0,0,66,13Z"/><path class="cls-1" d="M71.34,2.28V3.45a27.9,27.9,0,0,0-2.52-1.32V.9A19.34,19.34,0,0,1,71.34,2.28Z"/><path class="cls-1" d="M71.34,3.6V4.76h-3.7a26.74,26.74,0,0,0,1.26,7.86c.32.79.74,1.24,1,1.24s.23.12.35-.67a15.31,15.31,0,0,0,.19-1.78h1.14v.31c-.28,3.1-.93,3.53-1.59,3.53s-1.36-.72-1.76-1.35c-1.47-2.33-1.69-6.82-1.79-9.14H59.82V3.6h6.54c0-.29,0-.81,0-1.31s0-1.08,0-1.26V.9H67.6V1c0,1.36,0,1.62,0,2.57Z"/><path class="cls-1" d="M88.36,15.38H87l-.07-.15A11.22,11.22,0,0,0,86.25,14c-1.38.15-4.18.41-8.73.63h-.11V13.45l1.44-.07a25.86,25.86,0,0,0,1.71-4H77.23V8.25H88.05V9.41H82c-.46,1.27-1.18,2.88-1.69,3.91.75,0,2.44-.14,5.37-.4-.27-.4-.87-1.15-1.87-2.31l-.08-.1,1.58,0A20,20,0,0,1,88.36,15.38Z"/><path class="cls-1" d="M88.05,7.15V5.78A12.62,12.62,0,0,1,83.16.84l0-.07h-1l0,.07a11.62,11.62,0,0,1-5.23,4.94V7S81,5.1,82.7,2.09A13.25,13.25,0,0,0,88.05,7.15Z"/><rect class="cls-1" x="79.37" y="5.1" width="6.58" height="1.05"/><path class="cls-1" d="M111.82,33.5H113V31.85h3.5v-1H113v-1.2h2.72V24.19H113V23h3.25v-1H113V20.73h-1.16v1.32h-3.14v1h3.14v1.16h-2.61v5.44h2.61v1.2h-3.3v1h3.3ZM113,25.1h1.59v1.38H113Zm0,2.21h1.59v1.43H113Zm-2.66-2.21h1.5v1.38h-1.5Zm0,3.64V27.31h1.5v1.43Z"/><path class="cls-1" d="M110.94,33.92a3.27,3.27,0,0,1-2.89-1.58V27.22h-2.59v1.07h1.48v4.09a6.9,6.9,0,0,1-1.55,1.42v1.39a9.94,9.94,0,0,0,2.21-1.87A3.69,3.69,0,0,0,110.79,35c1.42,0,4.37,0,5.84,0V33.86C115.13,33.93,112.28,34,110.94,33.92Z"/><path class="cls-1" d="M108.08,24.8a11.27,11.27,0,0,0-1.57-3.21h-1.24a13.06,13.06,0,0,1,1.59,3.21Z"/><path class="cls-1" d="M79.53,20.75H78.4a13.55,13.55,0,0,1-5.06,4v1.37A18.05,18.05,0,0,0,75.5,25v8.86c-.59.09-1.25.16-1.71.21v1.11c1.57-.2,4.5-.67,6.19-1v-1c-.92.16-2.13.33-3.29.5V30.23h1.56a8.3,8.3,0,0,0,6.11,5V34a6.11,6.11,0,0,1-2.65-1.11c.57-.37,1.22-.83,1.8-1.29V30.18a22.81,22.81,0,0,1-2.68,2,6.72,6.72,0,0,1-1.39-1.93h3.21V25a14.57,14.57,0,0,0,2,1.1l0,0V24.74A14.18,14.18,0,0,1,79.53,20.75Zm2,8.54h-4.8V28h4.8Zm0-2.24h-4.8V25.79h4.8Zm-1.93-2.2V23.27H78.4v1.58H75.74a15.64,15.64,0,0,0,3.21-3,17.32,17.32,0,0,0,3.38,3Z"/><path class="cls-1" d="M63.82,20.79H62.6v3H57.67V25h4.41a16.56,16.56,0,0,1-4.39,6.36V33a18.85,18.85,0,0,0,4.91-6.5v4.75H60.43V32.4H62.6v2.77h1.22V32.4H66V31.25H63.82V26.38a19.57,19.57,0,0,0,5,6.58v-1.7A17.19,17.19,0,0,1,64.37,25h4.44V23.82h-5Z"/><path class="cls-1" d="M94.77,31.12a7,7,0,0,0,5.8,4v-1a5.53,5.53,0,0,1-2.45-.73,6.67,6.67,0,0,0,1.48-.78V31.34a9.19,9.19,0,0,1-2.44,1.39,5.45,5.45,0,0,1-1.31-1.61h4.46v-.86H91.23c0-.31,0-.63,0-.94V27.66h8.95v-.9H90.15v2.56A12.2,12.2,0,0,1,88.78,35h1.31a11.44,11.44,0,0,0,1.07-3.92h1.26V34l-1.07.13v1c1.41-.15,3.47-.55,4.79-.79V33.5l-2.62.39V31.12Z"/><rect class="cls-1" x="91.89" y="28.52" width="7.62" height="0.83"/><path class="cls-1" d="M99.55,21.83H96.81v-1.1H95.72v1.1H94.23v-1.1H93.15v1.1h-2.7V26h9.1Zm-6.4,3.36H91.54v-.94h1.61Zm0-1.64H91.54v-.92h1.61Zm2.57,1.64H94.23v-.94h1.49Zm0-1.64H94.23v-.92h1.49Zm2.69,1.64h-1.6v-.94h1.6Zm0-1.64h-1.6v-.92h1.6Z"/><path class="cls-1" d="M130.51,31.11c.16-.59.41-1.43.53-2h-6.21v1h2.23a7.64,7.64,0,0,1-2.59,5H126a8.28,8.28,0,0,0,2.18-5h1.53l-.57,2h2.27c-.22,2.11-.47,2.1-.87,2.1s-.66,0-1,0v1c.33,0,.78,0,1.16,0,1.19,0,1.58-.18,1.89-4.06Z"/><path class="cls-1" d="M125,27.5c-.29.12-.68.29-1,.41V24.83h.9v1a4.17,4.17,0,0,0,.88-.94v3.36h6.8v-.88h-2.64v-.89h2.22v-.77h-2.22v-.87h2.22v-.77h-2.22v-.86h2.52v-.86h-2.7a12.44,12.44,0,0,0,.61-1.55h-1.23c-.11.44-.27,1-.46,1.55H127c.15-.4.38-1.09.51-1.57h-1.14a9.54,9.54,0,0,1-1.51,3.6v-.65h-.94v-3H122.8v3h-1.34v1.06h1.34v3.52c-.58.22-1,.42-1.41.56v1.23l1.41-.62V33.7c0,.28-.11.34-.45.34h-.67v1.12l.89,0c1,0,1.37-.3,1.37-1.31V29c.39-.17.7-.32,1-.48Zm1.88-4.25h1.94v.86h-1.94Zm0,1.63h1.94v.87h-1.94Zm0,1.64h1.94v.89h-1.94Z"/><path class="cls-1" d="M43.68,21.61V34.73h9.14V21.61Zm7.9,11.9H44.89V28.7h6.69Zm0-6H44.89V22.83h6.69Z"/><path class="cls-1" d="M174.4,24.16h-5.64V22.83h3.36v-2h1.33v2h2.9s-1.86,7.7-8.75,9.94V31.3C173.42,28.45,174.4,24.16,174.4,24.16Zm-1.89,4.48.69-1.2,3.28,2.93v2.05Z"/><path class="cls-1" d="M182.54,35.07V33.33a17.67,17.67,0,0,0,6.29-9.75h-5.5V22.25h7A19.32,19.32,0,0,1,182.54,35.07Z"/><path class="cls-1" d="M147.05,33.55V35h-4.92c-2.49,0-2.69-.92-2.69-2.47V21.8h1.18v5.54a40.11,40.11,0,0,0,6.43-3.3v1.49a30.06,30.06,0,0,1-6.43,3.24v3.48c0,1.07.3,1.3,1.58,1.3Z"/><path class="cls-1" d="M160.33,23.41A8.52,8.52,0,0,0,159.15,21H158.1a10,10,0,0,1,1.19,2.42Z"/><path class="cls-1" d="M162.31,23.41A8.8,8.8,0,0,0,161.13,21h-1.06a10,10,0,0,1,1.2,2.42Z"/><path class="cls-1" d="M145.07,23.41A8.8,8.8,0,0,0,143.89,21h-1.06A10,10,0,0,1,144,23.41Z"/><path class="cls-1" d="M147.05,23.41A8.57,8.57,0,0,0,145.86,21h-1.05A10,10,0,0,1,146,23.41Z"/><path class="cls-1" d="M162.31,24.42c-.45,5.27-2.67,10.1-8.34,10.53V33.62c4.5-1.14,6-3.25,7-9.2Z"/><path class="cls-1" d="M154,23.6V22.25a7.65,7.65,0,0,1,3.23,1.29V25A12.56,12.56,0,0,0,154,23.6Z"/><path class="cls-1" d="M154,26.83V25.48a7.57,7.57,0,0,1,3.23,1.28v1.42A12.2,12.2,0,0,0,154,26.83Z"/><path class="cls-1" d="M187.64,28.87a49.28,49.28,0,0,1,4,6.2h-1.53a49.39,49.39,0,0,0-3.07-4.78Z"/><polyline class="cls-1" points="173.44 28.64 173.44 35.07 172.11 35.07 172.11 29.83"/><path class="cls-2" d="M0,0V35.21H35.21V0ZM33.92,33.92H1.28V1.28H33.92ZM30.35,20.36V19.2h-12v1.16ZM10.7,23.73H9.31l2.09,3.18L5.88,29.47V21.22h8v-10H9.94V7.9H8.76v3.29h-4V30l-1.54.73v1.31l8.88-4.15L13,29.32h1.39ZM5.88,12.38h6.79v3.17H5.88Zm0,4.33h6.79v3.35H5.88ZM30.94,5.15H26.41V2.89H25.25V5.15H22.12V2.89H21V5.15H16.42v9.31H30.94ZM21,13.3H17.58V10.36H21Zm0-4.11H17.58V6.31H21Zm4.28,4.11H22.12V10.36h3.13Zm0-4.11H22.12V6.31h3.13Zm4.53,4.11H26.41V10.36h3.37Zm0-4.11H26.41V6.31h3.37ZM15.35,32.05l1.46-8.72h2.55v7l-2.69.51V32l9.5-1.79V29l-5.64,1.07V23.33h2.64l4.3,5.19,4.65,3.56V30.6l-3.83-2.93-.18-.22,2.7-1.95V24.07l-3.44,2.49-2.68-3.23h7.09V22.17H16.85V17.39H31.76V16.22H15.69v.45h0V23l-1.57,9ZM15,10.74V9L9.9,3.18H8.78L3,10.84v2L9.38,4.36Z"/></g></g></svg>